<svg width="142" height="48" viewBox="0 0 142 48" fill="none" xmlns="http://www.w3.org/2000/svg">
<path d="M142 10.0031V8.91444C141.981 8.1214 141.907 7.33061 141.779 6.54778C141.655 5.76275 141.41 5.00166 141.053 4.29156C140.32 2.85913 139.148 1.69834 137.708 0.978222C136.996 0.62333 136.236 0.373549 135.452 0.236667C134.666 0.0945114 133.869 0.0153711 133.07 0H8.946C8.14686 0.0160348 7.35023 0.0951698 6.56356 0.236667C5.7796 0.373549 5.01963 0.62333 4.30733 0.978222C2.88296 1.70816 1.72394 2.86718 0.994 4.29156C0.639108 5.00385 0.389327 5.76383 0.252444 6.54778C0.105696 7.32873 0.0212821 8.12011 0 8.91444V38.4662C0.00494701 39.2646 0.0735347 40.0612 0.205111 40.8487C0.341993 41.6326 0.591775 42.3926 0.946667 43.1049C1.31143 43.8111 1.78533 44.4554 2.35089 45.014C2.90685 45.5783 3.55183 46.0474 4.26 46.4024C4.96868 46.7694 5.72969 47.0248 6.51622 47.1598C7.32019 47.2826 8.13273 47.3407 8.946 47.3333H133.07C133.868 47.3284 134.665 47.2598 135.452 47.1282C136.239 46.9932 137 46.7378 137.708 46.3709C138.419 46.0121 139.069 45.5435 139.633 44.9824C140.195 44.4204 140.668 43.7768 141.038 43.0733C141.394 42.3632 141.639 41.6021 141.763 40.8171C141.896 40.0399 141.975 39.2544 142 38.4662V10.0031ZM140.974 36.0838V38.4662C140.964 39.2009 140.901 39.9338 140.785 40.6593C140.66 41.3371 140.431 41.9916 140.107 42.6C139.789 43.1836 139.385 43.7156 138.908 44.1778C138.417 44.6671 137.852 45.077 137.235 45.3927C136.616 45.711 135.95 45.9294 135.263 46.0396C134.528 46.1619 133.784 46.2253 133.038 46.2289H8.97756C8.23218 46.2243 7.48833 46.161 6.75289 46.0396C6.05602 45.9567 5.37537 45.7706 4.73333 45.4873C4.15277 45.1651 3.62143 44.7613 3.15556 44.2882C2.17727 43.3004 1.5319 42.0317 1.30956 40.6593C1.18649 39.9291 1.11793 39.1908 1.10444 38.4504V8.946C1.11793 8.20563 1.18649 7.4673 1.30956 6.73711C1.40653 6.04065 1.61427 5.36418 1.92489 4.73333C2.2486 4.14531 2.66404 3.61269 3.15556 3.15556C3.61353 2.65627 4.1457 2.23053 4.73333 1.89333C5.37205 1.58206 6.05219 1.36421 6.75289 1.24644C7.48868 1.12788 8.23231 1.06459 8.97756 1.05711H133.054C133.794 1.06467 134.532 1.12796 135.263 1.24644C135.957 1.36968 136.631 1.58733 137.267 1.89333C137.852 2.23335 138.384 2.65877 138.844 3.15556C139.347 3.61028 139.773 4.14303 140.107 4.73333C140.425 5.34571 140.638 6.00699 140.738 6.68978C140.865 7.4303 140.939 8.17906 140.959 8.93022V36.0838H140.974Z" fill="#B6B7B9"/>
<path d="M29.4097 24.0446C29.4321 22.0368 30.4876 20.1823 32.2023 19.1377C31.122 17.5801 29.3639 16.6308 27.469 16.5817C25.481 16.3608 23.5403 17.765 22.5306 17.765C21.5208 17.765 19.9272 16.5975 18.2548 16.629C16.0371 16.6975 14.0183 17.9256 12.9377 19.8635C10.6499 23.8237 12.3539 29.6615 14.5154 32.8643C15.6199 34.4421 16.8979 36.1777 18.5861 36.1146C20.2743 36.0515 20.8423 35.0732 22.8303 35.0732C24.8183 35.0732 25.3706 36.1146 27.0903 36.083C28.8101 36.0515 29.9619 34.5052 31.019 32.9275C31.8106 31.8034 32.4227 30.5632 32.8334 29.2512C30.7458 28.3659 29.3953 26.3121 29.4097 24.0446Z" fill="#B6B7B9"/>
<path d="M26.1752 14.4682C27.1349 13.3135 27.6099 11.8319 27.5005 10.3345C26.02 10.4863 24.651 11.1905 23.6665 12.3067C22.7066 13.4006 22.2187 14.8301 22.3097 16.2827C23.8091 16.3067 25.2357 15.6371 26.1752 14.4682Z" fill="#B6B7B9"/>
<path d="M50.2203 32.1552H44.6034L43.2465 36.1312H40.8641L46.197 21.4105H48.6583L53.9754 36.1312H51.5614L50.2203 32.1552ZM45.1872 30.3092H49.6365L47.4434 23.8561L45.1872 30.3092ZM65.4617 30.7667C65.4617 34.0958 63.6788 36.2416 60.9808 36.2416C59.5898 36.309 58.281 35.5812 57.6043 34.3641V39.6654H55.3954V25.4654H57.5254V27.2483C58.2029 25.9934 59.5233 25.2206 60.9492 25.2445C63.6788 25.2445 65.4617 27.4376 65.4617 30.7667ZM63.2054 30.7667C63.2054 28.5894 62.0852 27.1694 60.3654 27.1694C58.6457 27.1694 57.5412 28.6209 57.5412 30.7667C57.5412 32.9125 58.6772 34.3641 60.3654 34.3641C62.0537 34.3641 63.2054 32.9598 63.2054 30.7667ZM77.3108 30.7667C77.3108 34.0958 75.5121 36.2889 72.8141 36.2889C71.4091 36.3457 70.0938 35.5993 69.4219 34.3641V39.6654H67.213V25.4654H69.3588V27.2483C70.0336 25.9984 71.3465 25.2265 72.7668 25.2445C75.4963 25.2445 77.3108 27.4376 77.3108 30.7667ZM75.0388 30.7667C75.0388 28.5894 73.9185 27.1694 72.1988 27.1694C70.479 27.1694 69.4219 28.6209 69.4219 30.7667C69.4219 32.9125 70.5421 34.3641 72.2303 34.3641C73.9185 34.3641 75.023 32.9598 75.023 30.7667H75.0388ZM85.105 32.0289C85.2628 33.4805 86.6828 34.4429 88.6234 34.4429C90.5641 34.4429 91.779 33.4805 91.779 32.1709C91.779 30.8614 90.9743 30.3407 89.0652 29.8832L87.1561 29.4098C84.4423 28.7629 83.1959 27.5007 83.1959 25.4496C83.1959 22.9094 85.4048 21.1738 88.5445 21.1738C91.6843 21.1738 93.7985 22.9094 93.8617 25.4496H91.6843C91.5581 23.9823 90.3432 23.0987 88.5288 23.0987C86.7143 23.0987 85.5468 23.9981 85.5468 25.2918C85.5468 26.3332 86.3199 26.8696 88.2132 27.4218L89.791 27.8163C92.8203 28.5263 94.0668 29.7412 94.0668 31.8869C94.0668 34.648 91.8737 36.3678 88.3868 36.3678C84.8999 36.3678 82.9908 34.7112 82.8488 32.0289H85.105ZM98.9105 22.862V25.4023H100.977V27.1378H98.9105V33.1334C98.9105 34.0485 99.3208 34.4745 100.22 34.4745H100.946V36.2101C100.54 36.2828 100.128 36.3145 99.7152 36.3047C97.5379 36.3047 96.7017 35.5001 96.7017 33.4174V27.1378H95.1239V25.4023H96.7017V22.862H98.9105ZM102.129 30.7667C102.129 27.3903 104.133 25.2445 107.289 25.2445C110.444 25.2445 112.385 27.3587 112.385 30.7352C112.385 34.1116 110.349 36.2889 107.289 36.2889C104.228 36.2889 102.129 34.1432 102.129 30.7667ZM110.018 30.7667C110.018 28.4474 108.961 27.0905 107.162 27.0905C105.364 27.0905 104.322 28.4632 104.322 30.7667C104.322 33.0703 105.379 34.4429 107.162 34.4429C108.945 34.4429 110.081 33.1334 110.081 30.7667H110.018ZM114.152 25.4023H116.25V27.2325C116.531 26.0193 117.641 25.1818 118.885 25.2445C119.137 25.2141 119.391 25.2141 119.643 25.2445V27.3114C119.322 27.2064 118.986 27.1583 118.649 27.1694C118.002 27.1427 117.375 27.3992 116.933 27.872C116.49 28.3448 116.276 28.9869 116.345 29.6307V35.9418H114.152V25.4023ZM129.803 32.9756C129.314 35.0851 127.335 36.5035 125.181 36.2889C122.025 36.2889 120.116 34.1905 120.116 30.8456C120.116 27.5007 122.057 25.2445 125.086 25.2445C128.115 25.2445 129.93 27.2798 129.93 30.5301V31.2874H122.341V31.4136C122.272 32.2111 122.549 32.9996 123.101 33.579C123.654 34.1584 124.428 34.473 125.228 34.4429C126.317 34.5432 127.336 33.8943 127.705 32.8652L129.803 32.9756ZM122.356 29.82H127.8C127.84 29.1026 127.578 28.4012 127.077 27.8857C126.576 27.3701 125.883 27.0875 125.165 27.1063C124.436 27.0764 123.726 27.343 123.196 27.8454C122.667 28.3478 122.364 29.0431 122.356 29.7727V29.82Z" fill="#B6B7B9"/>
<path d="M44.9034 10.35C45.8338 10.2929 46.7419 10.6501 47.3841 11.3257C48.0262 12.0014 48.3368 12.9264 48.2326 13.8527C48.3368 14.779 48.0262 15.704 47.3841 16.3797C46.7419 17.0553 45.8338 17.4125 44.9034 17.3554H42.3474V10.35H44.9034ZM43.4519 16.4087H44.7772C45.4452 16.4489 46.0957 16.1862 46.5485 15.6936C47.0014 15.201 47.2085 14.5307 47.1123 13.8685C47.2032 13.2088 46.9938 12.5431 46.5416 12.0542C46.0894 11.5653 45.442 11.3047 44.7772 11.344H43.4519V16.4087ZM49.479 14.752C49.404 13.8054 49.8666 12.8967 50.6762 12.4004C51.4857 11.9041 52.5054 11.9041 53.315 12.4004C54.1245 12.8967 54.5871 13.8054 54.5121 14.752C54.5871 15.6987 54.1245 16.6073 53.315 17.1037C52.5054 17.6 51.4857 17.6 50.6762 17.1037C49.8666 16.6073 49.404 15.6987 49.479 14.752ZM53.4234 14.752C53.4234 13.5845 52.9028 12.906 52.0034 12.906C51.1041 12.906 50.5677 13.5845 50.5677 14.752C50.5677 15.9196 51.0883 16.5823 52.0034 16.5823C52.9186 16.5823 53.4234 15.9038 53.4234 14.752ZM61.2177 17.3554H60.1132L59.0088 13.4267L57.8254 17.3554H56.7999L55.2221 12.0856H56.295L57.2574 16.1563L58.3619 12.0856H59.3717L60.4603 16.1563H60.555L61.5017 12.0856H62.5588L61.2177 17.3554ZM63.9157 12.0856H64.9412V12.9218H65.0201C65.2886 12.3005 65.9233 11.9196 66.5979 11.9752C67.1243 11.9357 67.6401 12.138 67.9993 12.5249C68.3585 12.9118 68.5221 13.4411 68.4439 13.9632V17.3554H67.3868V14.1998C67.3868 13.332 67.0081 12.906 66.235 12.906C65.8774 12.8903 65.5306 13.0312 65.2852 13.2917C65.0397 13.5523 64.9199 13.9069 64.957 14.2629V17.4185H63.8999L63.9157 12.0856ZM70.1321 10.0029H71.1892V17.3554H70.1321V10.0029ZM72.6565 14.752C72.5815 13.8054 73.0441 12.8967 73.8537 12.4004C74.6633 11.9041 75.6829 11.9041 76.4925 12.4004C77.3021 12.8967 77.7647 13.8054 77.6897 14.752C77.7647 15.6987 77.3021 16.6073 76.4925 17.1037C75.6829 17.6 74.6633 17.6 73.8537 17.1037C73.0441 16.6073 72.5815 15.6987 72.6565 14.752ZM76.6168 14.752C76.6168 13.5845 76.0961 12.906 75.181 12.906C74.2659 12.906 73.7452 13.5845 73.7452 14.752C73.7452 15.9196 74.2659 16.5823 75.181 16.5823C76.0961 16.5823 76.6168 15.9038 76.6168 14.752ZM78.8888 15.9038C78.8888 14.9414 79.5988 14.326 80.8768 14.326L82.2337 14.1998V13.7738C82.2337 13.2058 81.8708 12.8903 81.145 12.8903C80.4192 12.8903 80.151 13.1112 80.0406 13.474H79.015C79.1254 12.5589 79.9774 11.9752 81.1923 11.9752C82.4072 11.9752 83.2908 12.6378 83.2908 13.7738V17.3554H82.281V16.598H82.1863C81.8479 17.139 81.2462 17.458 80.6086 17.4343C80.1742 17.4737 79.7429 17.3315 79.4171 17.0416C79.0913 16.7517 78.9001 16.3398 78.8888 15.9038ZM82.3125 15.4463V15.0045L81.0188 15.0834C80.2772 15.0834 79.9459 15.3832 79.9459 15.8565C79.9459 16.3298 80.3561 16.6138 80.9399 16.6138C81.6168 16.6409 82.1913 16.1224 82.2337 15.4463H82.3125ZM84.6792 14.752C84.6792 13.0638 85.547 11.9909 86.8881 11.9909C87.5473 11.9795 88.1571 12.3393 88.4659 12.9218V10.0029H89.523V17.3554H88.5132V16.5665C88.1649 17.1641 87.5162 17.5217 86.825 17.4974C85.5312 17.4974 84.6792 16.4403 84.6792 14.752ZM85.7679 14.752C85.7679 15.8723 86.3043 16.5507 87.1879 16.5507C88.0714 16.5507 88.6237 15.8723 88.6237 14.752C88.6237 13.6318 88.0714 12.9376 87.1879 12.9376C86.3043 12.9376 85.7679 13.616 85.7679 14.752ZM94.0197 14.752C93.9111 13.7828 94.3671 12.8369 95.1931 12.3182C96.0191 11.7995 97.0691 11.7995 97.8951 12.3182C98.7211 12.8369 99.1771 13.7828 99.0686 14.752C99.1771 15.7213 98.7211 16.6672 97.8951 17.1859C97.0691 17.7046 96.0191 17.7046 95.1931 17.1859C94.3671 16.6672 93.9111 15.7213 94.0197 14.752ZM97.9799 14.752C97.9799 13.5845 97.4592 12.906 96.5441 12.906C95.629 12.906 95.1083 13.5845 95.1083 14.752C95.1083 15.9196 95.629 16.5823 96.5441 16.5823C97.4592 16.5823 97.9799 15.9038 97.9799 14.752ZM100.473 12.0856H101.498V12.9218C101.767 12.3005 102.402 11.9196 103.076 11.9752C103.603 11.9357 104.118 12.138 104.478 12.5249C104.837 12.9118 105 13.4411 104.922 13.9632V17.3554H103.865V14.1998C103.865 13.332 103.502 12.906 102.713 12.906C102.356 12.8903 102.009 13.0312 101.763 13.2917C101.518 13.5523 101.398 13.9069 101.435 14.2629V17.4185H100.378L100.473 12.0856ZM110.981 10.7603V12.1014H112.133V12.9849H110.981V15.7776C110.981 16.3456 111.202 16.5823 111.738 16.5823H112.133V17.3554C111.944 17.3724 111.753 17.3724 111.565 17.3554C110.381 17.3554 109.987 16.9294 109.987 15.9038V12.9849H109.135V12.1014H109.987V10.7603H110.981ZM113.6 10.0029H114.657V12.9376C114.92 12.3101 115.556 11.9221 116.235 11.9752C116.774 11.9173 117.309 12.1099 117.688 12.4978C118.067 12.8856 118.246 13.4258 118.175 13.9632V17.3554H117.118V14.1998C117.118 13.3478 116.724 12.9218 115.967 12.9218C115.603 12.893 115.245 13.025 114.987 13.283C114.729 13.541 114.597 13.8992 114.625 14.2629V17.4185H113.6V10.0029ZM124.313 15.9669C124.039 16.9888 123.061 17.6586 122.009 17.5447C121.298 17.5646 120.614 17.2718 120.137 16.7436C119.661 16.2154 119.44 15.5048 119.532 14.7994C119.442 14.0924 119.66 13.3807 120.131 12.8459C120.602 12.3112 121.281 12.0054 121.994 12.0067C123.571 12.0067 124.376 13.0165 124.376 14.7047V15.0676H120.605C120.555 15.4718 120.682 15.878 120.955 16.1808C121.227 16.4836 121.618 16.6531 122.025 16.6454C122.544 16.7157 123.053 16.4584 123.303 15.9985L124.313 15.9669ZM120.605 14.1998H123.303C123.335 13.8366 123.21 13.4772 122.96 13.212C122.71 12.9468 122.358 12.801 121.994 12.8114C121.624 12.8071 121.268 12.952 121.007 13.2133C120.746 13.4746 120.601 13.8303 120.605 14.1998Z" fill="#B6B7B9"/>
</svg>
