<svg width="145" height="42" viewBox="0 0 145 42" fill="none" xmlns="http://www.w3.org/2000/svg">
<g clip-path="url(#clip0_672_10991)">
<path d="M144.999 37.7884C144.999 38.905 144.56 39.9758 143.778 40.7654C142.996 41.555 141.935 41.9986 140.829 41.9988H4.18054C3.07337 41.9999 2.01111 41.5569 1.2274 40.7673C0.443689 39.9778 0.00271557 38.9062 0.00146484 37.7884V4.21534C0.00146484 3.09632 0.441756 2.02314 1.22549 1.23187C2.00922 0.440608 3.07218 -0.00390625 4.18054 -0.00390625H140.823C141.93 -0.00282522 142.991 0.441608 143.774 1.23187C144.557 2.02214 144.997 3.09367 144.998 4.21127V37.785L144.999 37.7884Z" fill="white"/>
<path d="M31.842 20.7692C31.8556 19.6944 32.1385 18.6405 32.6643 17.7059C33.19 16.7712 33.9416 15.9861 34.8489 15.4237C34.2724 14.5928 33.5119 13.909 32.628 13.4267C31.744 12.9444 30.7608 12.6767 29.7565 12.6451C27.613 12.4171 25.5356 13.9381 24.4443 13.9381C23.3315 13.9381 21.6518 12.6668 19.8399 12.7036C18.6692 12.7417 17.5283 13.0853 16.5283 13.7011C15.5284 14.3169 14.7035 15.1837 14.1341 16.2171C11.6651 20.5283 13.5059 26.866 15.8705 30.3523C17.0541 32.0605 18.4359 33.9653 20.245 33.8979C22.0151 33.8251 22.6716 32.7601 24.8103 32.7601C26.9275 32.7601 27.5483 33.8979 29.3938 33.8557C31.294 33.8251 32.4891 32.1408 33.6309 30.4177C34.4817 29.2022 35.1358 27.858 35.5688 26.4352C34.4661 25.9637 33.525 25.1752 32.8628 24.1679C32.2005 23.1606 31.8462 21.9789 31.844 20.7699L31.842 20.7692ZM28.3572 10.351C29.3926 9.09642 29.9028 7.48374 29.7794 5.85547C28.1977 6.0246 26.7367 6.78751 25.6859 7.99299C25.1731 8.58246 24.7804 9.26817 24.5301 10.0109C24.2798 10.7537 24.1769 11.5389 24.2273 12.3218C25.0187 12.3299 25.8017 12.1565 26.5171 11.8146C27.2324 11.4728 27.8616 10.9714 28.3572 10.3483V10.351Z" fill="#0F0821"/>
<path d="M57.4753 33.6023H55.0023L53.6481 29.3055H48.9379L47.6471 33.6023H45.2407L49.9058 18.971H52.7887L57.476 33.6023H57.4753ZM53.2383 27.5028L52.0142 23.6837C51.8839 23.2935 51.6403 22.3746 51.2835 20.9269H51.2404C51.0957 21.5493 50.8661 22.4683 50.5515 23.6837L49.3477 27.5028H53.2383ZM69.4524 28.1996C69.5368 29.7536 69.0171 31.2794 68.0039 32.4522C67.5958 32.9019 67.0973 33.2584 66.5418 33.498C65.9863 33.7377 65.3866 33.8549 64.7827 33.8419C64.1974 33.8905 63.6101 33.7767 63.0842 33.5128C62.5583 33.2489 62.1138 32.845 61.7987 32.3447V37.8788H59.4732V26.5208C59.4732 25.3943 59.4447 24.2388 59.3876 23.0542H61.4293L61.5627 24.7269H61.6079C61.9596 24.1829 62.4323 23.7294 62.9883 23.4024C63.5444 23.0755 64.1683 22.8843 64.8106 22.844C65.4528 22.8036 66.0954 22.9154 66.6873 23.1702C67.2792 23.425 67.8039 23.816 68.2196 24.3118C69.0814 25.4154 69.5197 26.7959 69.4538 28.1996H69.4524ZM67.0865 28.2847C67.1225 27.3866 66.8823 26.4992 66.399 25.7443C66.1743 25.4147 65.8717 25.1469 65.5186 24.9652C65.1655 24.7835 64.7731 24.6936 64.3769 24.7038C63.8065 24.7033 63.2544 24.9068 62.8185 25.2781C62.353 25.6618 62.0308 26.1942 61.9052 26.7876C61.841 27.0205 61.8045 27.2604 61.7966 27.5021V29.2613C61.7777 29.9753 62.0275 30.67 62.4956 31.2055C62.7223 31.4649 63.003 31.6704 63.3177 31.8074C63.6323 31.9443 63.9731 32.0093 64.3155 31.9977C64.7132 32.0132 65.1084 31.928 65.4651 31.7497C65.8217 31.5714 66.1285 31.3057 66.3572 30.9769C66.8785 30.1808 67.1351 29.2379 67.0899 28.2847H67.0865ZM81.472 28.1996C81.5564 29.7536 81.0367 31.2794 80.0235 32.4522C79.6154 32.9019 79.1169 33.2584 78.5614 33.498C78.0059 33.7377 77.4062 33.8549 76.8022 33.8419C76.2168 33.8903 75.6294 33.7764 75.1033 33.5126C74.5772 33.2487 74.1324 32.8449 73.8169 32.3447V37.8788H71.4955V26.5208C71.4955 25.3943 71.4665 24.2388 71.4085 23.0542H73.4516L73.581 24.7269H73.6241C73.9759 24.1829 74.4488 23.7293 75.0049 23.4024C75.5611 23.0755 76.1852 22.8843 76.8275 22.844C77.4698 22.8037 78.1125 22.9154 78.7045 23.1702C79.2965 23.425 79.8213 23.816 80.2372 24.3118C81.0983 25.4157 81.5365 26.796 81.4713 28.1996H81.472ZM79.1061 28.2847C79.1417 27.3864 78.9011 26.499 78.4172 25.7443C78.1927 25.4145 77.8901 25.1467 77.537 24.9649C77.1838 24.7832 76.7913 24.6935 76.3951 24.7038C75.8245 24.7041 75.2722 24.9075 74.8354 25.2781C74.3703 25.6623 74.0483 26.1945 73.922 26.7876C73.8587 27.0207 73.8222 27.2605 73.8135 27.5021V29.2613C73.7955 29.9749 74.0446 30.6691 74.5111 31.2055C74.7381 31.4646 75.0189 31.6699 75.3335 31.8069C75.648 31.9438 75.9887 32.0089 76.3311 31.9977C76.7288 32.0137 77.1242 31.9287 77.481 31.7504C77.8377 31.572 78.1443 31.306 78.3728 30.9769C78.8943 30.1809 79.1512 29.238 79.1061 28.2847ZM94.9125 29.5001C94.9305 30.071 94.8243 30.6388 94.6016 31.1638C94.3788 31.6888 94.0448 32.1581 93.623 32.5387C92.5126 33.4502 91.1037 33.9076 89.6752 33.8201C88.3638 33.8834 87.0619 33.567 85.9227 32.9082L86.462 30.9551C87.4766 31.563 88.6369 31.8784 89.8167 31.867C90.5449 31.9116 91.2661 31.701 91.8584 31.2709C92.0952 31.0814 92.2848 30.8385 92.4119 30.5618C92.539 30.285 92.6001 29.982 92.5904 29.6771C92.5953 29.399 92.5441 29.1228 92.4398 28.8654C92.3355 28.608 92.1803 28.3747 91.9837 28.1799C91.4018 27.6688 90.7213 27.2848 89.9852 27.0523C87.4472 26.0968 86.1775 24.7002 86.1762 22.8623C86.163 22.2995 86.2772 21.7411 86.5102 21.2297C86.7431 20.7182 87.0885 20.2671 87.5202 19.9108C88.5297 19.1048 89.7944 18.6957 91.0798 18.7594C92.2159 18.7192 93.3446 18.9579 94.3692 19.4549L93.7875 21.3644C92.9298 20.9072 91.9715 20.6761 91.0017 20.6928C90.3094 20.6506 89.6259 20.8669 89.0813 21.3005C88.8952 21.4658 88.7468 21.6698 88.6462 21.8986C88.5455 22.1273 88.4951 22.3752 88.4983 22.6255C88.4935 22.9 88.5512 23.1719 88.6669 23.4204C88.7825 23.6689 88.9532 23.8872 89.1656 24.0587C89.8043 24.5449 90.5155 24.9256 91.2726 25.1863C92.3138 25.5563 93.2559 26.1649 94.0248 26.9645C94.6236 27.6689 94.9391 28.5744 94.9091 29.5022L94.9125 29.5001ZM102.608 24.8134H100.047V29.9357C100.047 31.2373 100.498 31.8879 101.401 31.8874C101.748 31.8958 102.094 31.8589 102.431 31.7778L102.499 33.5588C101.916 33.7503 101.305 33.8378 100.693 33.8174C100.295 33.8399 99.8977 33.776 99.5267 33.6298C99.1558 33.4836 98.8202 33.2587 98.5429 32.9701C97.9492 32.1498 97.6737 31.1384 97.7684 30.1269V24.8086H96.243V23.0494H97.7684V21.1201L100.049 20.426V23.0515H102.61V24.8147L102.608 24.8134ZM114.134 28.2425C114.191 29.7011 113.7 31.1275 112.758 32.2352C112.275 32.7688 111.682 33.1893 111.021 33.467C110.359 33.7447 109.646 33.8728 108.931 33.8426C108.245 33.8731 107.561 33.751 106.927 33.4848C106.294 33.2187 105.726 32.8151 105.264 32.3025C104.337 31.2297 103.848 29.841 103.898 28.4181C103.839 26.9467 104.344 25.509 105.307 24.403C105.789 23.8796 106.378 23.4684 107.034 23.1981C107.689 22.9278 108.395 22.8049 109.102 22.8378C109.792 22.8095 110.48 22.9326 111.118 23.1984C111.757 23.4643 112.33 23.8666 112.8 24.3778C113.716 25.4459 114.193 26.8273 114.134 28.2391L114.134 28.2425ZM111.728 28.2963C111.752 27.4244 111.537 26.5627 111.106 25.8069C110.909 25.4212 110.608 25.099 110.239 24.8769C109.87 24.6549 109.446 24.5418 109.016 24.5507C108.581 24.5381 108.15 24.6492 107.774 24.8713C107.398 25.0933 107.09 25.4175 106.888 25.8069C106.452 26.577 106.236 27.454 106.264 28.3405C106.239 29.2126 106.455 30.0746 106.888 30.8299C107.093 31.2117 107.397 31.5302 107.768 31.7514C108.138 31.9727 108.561 32.0884 108.992 32.0863C109.422 32.0842 109.844 31.9643 110.213 31.7395C110.581 31.5147 110.882 31.1933 111.084 30.8095C111.525 30.0482 111.747 29.1779 111.725 28.2963H111.728ZM121.685 25.1155C121.443 25.0716 121.198 25.0501 120.953 25.0515C120.585 25.0342 120.219 25.1107 119.888 25.2739C119.557 25.437 119.273 25.6817 119.06 25.9852C118.656 26.6011 118.453 27.3298 118.481 28.0683V33.6023H116.158V26.3765C116.161 25.2691 116.139 24.1621 116.091 23.0556H118.113L118.199 25.0747H118.262C118.482 24.4164 118.885 23.8358 119.423 23.4019C119.908 23.0365 120.496 22.8382 121.101 22.8364C121.295 22.8354 121.49 22.85 121.682 22.88V25.1155H121.685ZM132.068 27.8301C132.073 28.1862 132.045 28.542 131.982 28.8924H125.017C125.002 29.3413 125.084 29.7882 125.259 30.2013C125.434 30.6144 125.696 30.9835 126.028 31.2824C126.677 31.7939 127.484 32.055 128.306 32.0188C129.268 32.0318 130.224 31.8629 131.125 31.5206L131.49 33.1464C130.378 33.6049 129.185 33.8269 127.985 33.7983C127.284 33.8372 126.583 33.7291 125.926 33.4809C125.269 33.2328 124.67 32.8498 124.167 32.3563C123.693 31.8358 123.327 31.2254 123.089 30.5605C122.851 29.8956 122.746 29.1895 122.781 28.4834C122.73 27.047 123.188 25.6391 124.072 24.5126C124.506 23.9608 125.064 23.5201 125.699 23.2262C126.333 22.9323 127.028 22.7934 127.726 22.8208C128.392 22.7834 129.056 22.9194 129.655 23.2156C130.254 23.5118 130.767 23.9584 131.146 24.5126C131.786 25.4959 132.108 26.6552 132.068 27.8308V27.8301ZM129.854 27.2224C129.885 26.5899 129.728 25.9623 129.402 25.4211C129.211 25.1038 128.938 24.8452 128.612 24.6728C128.286 24.5004 127.92 24.4208 127.552 24.4425C127.191 24.4356 126.833 24.519 126.51 24.6852C126.188 24.8513 125.911 25.0952 125.705 25.3952C125.309 25.9245 125.071 26.5562 125.017 27.217H129.854V27.2224Z" fill="#0F0821"/>
<path d="M48.2681 13.8517C47.7109 13.8553 47.1539 13.8272 46.5999 13.7674V6.69398C47.2499 6.59203 47.9069 6.54175 48.5647 6.5436C51.2272 6.5436 52.4546 7.86722 52.4546 10.0224C52.4533 12.5091 51.0047 13.8517 48.2681 13.8517ZM48.6591 7.45141C48.3511 7.44571 48.0434 7.47079 47.7403 7.52627V12.9024C47.9964 12.9297 48.254 12.9403 48.5114 12.9344C50.2552 12.9344 51.2494 11.932 51.2494 10.0551C51.2481 8.38032 50.3496 7.45072 48.6577 7.45072L48.6591 7.45141ZM56.2758 13.9062C55.935 13.9116 55.5969 13.845 55.2832 13.7106C54.9694 13.5763 54.687 13.3772 54.454 13.1261C54.2209 12.875 54.0425 12.5775 53.9301 12.2527C53.8177 11.9278 53.7739 11.5828 53.8014 11.2399C53.771 10.8853 53.8152 10.5283 53.9311 10.1922C54.047 9.85607 54.2319 9.54845 54.4737 9.28952C54.7156 9.03059 55.0089 8.82617 55.3344 8.68966C55.6599 8.55314 56.0104 8.48761 56.3627 8.49737C56.7033 8.48953 57.0418 8.5542 57.356 8.68716C57.6702 8.82013 57.9532 9.0184 58.1865 9.26908C58.4198 9.51977 58.5981 9.81725 58.71 10.1421C58.8219 10.4671 58.8648 10.8121 58.8358 11.1548C58.8651 11.5092 58.8204 11.8658 58.7046 12.2016C58.5887 12.5374 58.4044 12.8449 58.1634 13.1042C57.9224 13.3635 57.6301 13.5688 57.3055 13.7068C56.9809 13.8449 56.6313 13.9126 56.2791 13.9055L56.2758 13.9062ZM56.3189 9.34055C55.4939 9.34055 54.9661 10.1191 54.9661 11.2066C54.9661 12.2743 55.5054 13.0535 56.3075 13.0535C57.1096 13.0535 57.6488 12.2205 57.6488 11.1848C57.6488 10.13 57.1204 9.34123 56.3189 9.34123V9.34055ZM67.3908 8.60422L65.7845 13.7891H64.7384L64.0725 11.538C63.9073 10.9874 63.7698 10.4274 63.66 9.86388H63.6364C63.5418 10.4318 63.4038 10.9915 63.2238 11.538L62.5161 13.7891H61.4585L59.948 8.60422H61.1201L61.7019 11.0691C61.8394 11.6566 61.9555 12.2112 62.0503 12.733H62.0719C62.1561 12.2974 62.293 11.7523 62.4945 11.0807L63.2238 8.60559H64.154L64.853 11.0283C65.0208 11.6156 65.1584 12.1913 65.2655 12.735H65.2959C65.3789 12.1597 65.4953 11.5898 65.6443 11.0283L66.2678 8.60559H67.3881L67.3908 8.60422ZM73.3049 13.7891H72.163V10.8118C72.163 9.89585 71.8146 9.43583 71.1284 9.43583C70.9701 9.44134 70.8145 9.47882 70.6709 9.54607C70.5272 9.61331 70.3983 9.70895 70.2919 9.82733C70.1854 9.94571 70.1036 10.0844 70.0511 10.2353C69.9987 10.3862 69.9767 10.5461 69.9865 10.7057V13.7898H68.8447V10.0878C68.8447 9.62908 68.8346 9.13503 68.8029 8.6049H69.8072L69.8591 9.40383H69.8908C70.0587 9.1211 70.2978 8.88833 70.5837 8.72922C70.8697 8.57011 71.1922 8.49035 71.5187 8.49805C72.5971 8.49805 73.3055 9.33103 73.3055 10.6853V13.7898L73.3049 13.7891ZM76.452 13.7891H75.3061V6.2251H76.452V13.7891ZM80.6135 13.9062C80.2728 13.9115 79.9348 13.8448 79.6211 13.7104C79.3074 13.576 79.025 13.3769 78.792 13.1258C78.559 12.8748 78.3805 12.5773 78.2681 12.2525C78.1557 11.9277 78.1117 11.5828 78.1391 11.2399C78.1088 10.8853 78.153 10.5283 78.2689 10.1922C78.3848 9.85607 78.5697 9.54845 78.8115 9.28952C79.0533 9.03059 79.3466 8.82617 79.6722 8.68966C79.9977 8.55314 80.3481 8.48761 80.7005 8.49737C81.0411 8.48953 81.3795 8.5542 81.6938 8.68716C82.008 8.82013 82.2909 9.0184 82.5242 9.26908C82.7575 9.51977 82.9359 9.81725 83.0478 10.1421C83.1597 10.4671 83.2025 10.8121 83.1736 11.1548C83.2031 11.5092 83.1586 11.8659 83.0428 12.2018C82.927 12.5377 82.7427 12.8453 82.5016 13.1047C82.2606 13.364 81.9682 13.5693 81.6436 13.7073C81.3189 13.8452 80.9691 13.9128 80.6169 13.9055L80.6135 13.9062ZM80.6553 9.34055C79.8303 9.34055 79.3025 10.1191 79.3025 11.2066C79.3025 12.2743 79.8418 13.0535 80.6439 13.0535C81.446 13.0535 81.9852 12.2205 81.9852 11.1848C81.9852 10.13 81.4588 9.34123 80.6553 9.34123V9.34055ZM87.6695 13.7891L87.5872 13.1916H87.5569C87.3845 13.4269 87.157 13.6153 86.8948 13.74C86.6326 13.8647 86.3439 13.9218 86.0544 13.9062C85.8503 13.9174 85.646 13.8861 85.4543 13.8143C85.2626 13.7424 85.0875 13.6315 84.9401 13.4885C84.7926 13.3455 84.6758 13.1734 84.597 12.9829C84.5182 12.7924 84.479 12.5876 84.4819 12.3811C84.4819 11.1011 85.5799 10.4396 87.4827 10.4396V10.3443C87.4827 9.6638 87.1241 9.32354 86.4164 9.32354C85.9415 9.31516 85.4748 9.44895 85.0751 9.70804L84.8438 8.94992C85.378 8.63621 85.9889 8.48078 86.6065 8.50146C87.9478 8.50146 88.6286 9.21738 88.6286 10.6465V12.556C88.6203 12.9704 88.6448 13.3848 88.7021 13.7953H87.6715L87.6695 13.7891ZM87.5131 11.2031C86.2452 11.2031 85.6103 11.5141 85.6103 12.2491C85.5989 12.3565 85.6111 12.4652 85.6461 12.5673C85.6812 12.6694 85.7381 12.7624 85.8129 12.8397C85.8876 12.917 85.9784 12.9767 86.0786 13.0144C86.1789 13.0522 86.2862 13.0672 86.3928 13.0583C86.6793 13.066 86.9573 12.9598 87.1669 12.7624C87.3765 12.5651 87.5008 12.2925 87.5131 12.0034V11.2031ZM94.1666 13.7891L94.1147 12.9562H94.083C93.931 13.2608 93.6935 13.5136 93.4002 13.683C93.107 13.8524 92.7708 13.931 92.4336 13.9089C91.1961 13.9089 90.2767 12.8106 90.2767 11.263C90.2767 9.64135 91.2278 8.50011 92.5253 8.50011C92.8075 8.47182 93.092 8.52258 93.3475 8.64683C93.6031 8.77108 93.8198 8.964 93.9738 9.20443H93.9967V6.2285H95.1386V12.3941C95.1386 12.897 95.1514 13.3658 95.1817 13.7925L94.1666 13.7891ZM93.9987 10.7383C94.0109 10.5695 93.9891 10.4 93.9346 10.24C93.8802 10.0799 93.7942 9.93265 93.6818 9.80706C93.5694 9.68147 93.433 9.58016 93.2808 9.50922C93.1286 9.43829 92.9638 9.3992 92.7962 9.39431C91.9496 9.39431 91.4333 10.151 91.4333 11.2174C91.4333 12.262 91.9726 12.978 92.7733 12.978C92.944 12.9709 93.1115 12.9294 93.266 12.856C93.4205 12.7826 93.5589 12.6788 93.6731 12.5506C93.7873 12.4223 93.8749 12.2723 93.9309 12.1094C93.9868 11.9465 94.0098 11.774 93.9987 11.6019V10.7383ZM102.385 13.9055C102.044 13.9106 101.706 13.8438 101.392 13.7093C101.079 13.5748 100.797 13.3757 100.564 13.1247C100.331 12.8736 100.153 12.5762 100.04 12.2515C99.928 11.9268 99.8841 11.582 99.9115 11.2392C99.8811 10.8846 99.9254 10.5276 100.041 10.1915C100.157 9.85538 100.342 9.54777 100.584 9.28883C100.826 9.0299 101.119 8.82548 101.445 8.68897C101.77 8.55246 102.12 8.48694 102.473 8.4967C102.813 8.48886 103.152 8.55352 103.466 8.68648C103.78 8.81944 104.063 9.01771 104.297 9.2684C104.53 9.51908 104.708 9.81656 104.82 10.1415C104.932 10.4664 104.975 10.8114 104.946 11.1542C104.975 11.5089 104.93 11.8659 104.814 12.2021C104.698 12.5382 104.513 12.8459 104.272 13.1053C104.03 13.3647 103.738 13.5699 103.412 13.7076C103.087 13.8454 102.737 13.9126 102.385 13.9048V13.9055ZM102.426 9.33986C101.603 9.33986 101.075 10.1184 101.075 11.2059C101.075 12.2736 101.614 13.0528 102.416 13.0528C103.218 13.0528 103.758 12.2199 103.758 11.1841C103.758 10.1293 103.231 9.34055 102.426 9.34055V9.33986ZM111.08 13.7885H109.938V10.8112C109.938 9.89518 109.589 9.43514 108.902 9.43514C108.744 9.44083 108.588 9.47845 108.445 9.54578C108.301 9.6131 108.173 9.70876 108.066 9.82712C107.96 9.94548 107.878 10.0841 107.826 10.2349C107.774 10.3857 107.752 10.5455 107.761 10.705V13.7891H106.62V10.0871C106.62 9.6284 106.609 9.13435 106.577 8.60422H107.581L107.635 9.40316H107.667C107.834 9.12035 108.073 8.88746 108.359 8.72833C108.645 8.56919 108.967 8.48949 109.294 8.49737C110.372 8.49737 111.08 9.32897 111.08 10.6832L111.08 13.7885ZM118.759 9.46848H117.503V11.9864C117.503 12.6261 117.722 12.9467 118.167 12.9467C118.337 12.9479 118.507 12.9303 118.673 12.8942L118.705 13.7681C118.419 13.8645 118.119 13.9085 117.819 13.898C116.92 13.898 116.382 13.3951 116.382 12.0837V9.46985H115.632V8.6049H116.382V7.65217L117.502 7.31191V8.6049H118.758V9.46985L118.759 9.46848ZM124.801 13.7885H123.66V10.8329C123.66 9.90538 123.313 9.43649 122.625 9.43649C122.468 9.43231 122.312 9.46168 122.166 9.52268C122.021 9.58369 121.89 9.67496 121.782 9.79055C121.673 9.90613 121.591 10.0434 121.539 10.1935C121.487 10.3436 121.466 10.503 121.48 10.6615V13.7864H120.339V6.2251H121.48V9.33986H121.503C121.662 9.07297 121.889 8.85404 122.161 8.70577C122.432 8.55751 122.738 8.48532 123.047 8.4967C124.133 8.4967 124.799 9.35007 124.799 10.7043V13.7885H124.801ZM130.991 11.4747H127.566C127.558 11.6868 127.595 11.8982 127.675 12.0946C127.755 12.291 127.876 12.4678 128.029 12.6132C128.182 12.7586 128.365 12.8693 128.564 12.9377C128.763 13.0061 128.974 13.0308 129.183 13.0099C129.655 13.0146 130.124 12.9317 130.566 12.7656L130.744 13.5646C130.198 13.7897 129.611 13.8986 129.021 13.8844C128.676 13.9112 128.329 13.8617 128.004 13.7395C127.68 13.6172 127.386 13.425 127.143 13.1764C126.899 12.9277 126.713 12.6286 126.595 12.2997C126.478 11.9708 126.433 11.62 126.464 11.2719C126.464 9.68218 127.438 8.48717 128.891 8.48717C130.203 8.48717 131.027 9.46917 131.027 10.952C131.034 11.1267 131.021 11.3017 130.988 11.4733L130.991 11.4747ZM129.945 10.6533C129.945 9.85297 129.545 9.28883 128.815 9.28883C128.474 9.31544 128.157 9.47084 127.926 9.72388C127.694 9.97692 127.566 10.3089 127.567 10.6533H129.945Z" fill="#0F0821"/>
</g>
<defs>
<clipPath id="clip0_672_10991">
<path d="M0 6C0 2.68629 2.68629 0 6 0H139C142.314 0 145 2.68629 145 6V36C145 39.3137 142.314 42 139 42H6C2.68629 42 0 39.3137 0 36V6Z" fill="white"/>
</clipPath>
</defs>
</svg>
