<svg width="56" height="10" viewBox="0 0 56 10" fill="none" xmlns="http://www.w3.org/2000/svg">
<path d="M7.42436 1.70092C7.05495 1.32524 6.65258 1.04177 6.21726 0.854624C5.7833 0.664721 5.31502 0.571139 4.82064 0.569759C3.74263 0.569759 2.82803 0.982594 2.07273 1.80551C1.31881 2.62979 0.942533 3.68663 0.941162 4.97603C0.941162 6.22002 1.3298 7.26173 2.10844 8.09702C2.88708 8.93506 3.80992 9.35478 4.87695 9.35478C5.35347 9.35546 5.79566 9.26949 6.20215 9.09881C6.61001 8.9268 7.0165 8.64746 7.42161 8.25664V9.14147H9.50624V0.788567H7.42436V1.70092ZM6.87231 6.7457C6.44385 7.20531 5.90415 7.43237 5.25322 7.43375C4.62289 7.43306 4.09144 7.19981 3.6616 6.73194C3.2304 6.26544 3.0148 5.66958 3.0148 4.94713C3.0148 4.22743 3.22765 3.63984 3.65062 3.18023C4.07496 2.72061 4.60641 2.49355 5.24773 2.49355C5.90415 2.49355 6.44659 2.71923 6.87505 3.16922C7.30351 3.62195 7.44221 4.13662 7.44084 4.86457C7.44084 5.60904 7.30214 6.28745 6.87231 6.7457ZM21.4605 1.70092C21.0911 1.32524 20.6874 1.04177 20.2548 0.854624C19.8181 0.664721 19.3526 0.571139 18.8554 0.569759C17.7802 0.569759 16.8628 0.982594 16.1089 1.80551C15.355 2.62979 14.9787 3.68663 14.9773 4.97603C14.976 6.22002 15.3646 7.26173 16.1446 8.09702C16.9233 8.93506 17.8461 9.35478 18.9145 9.35478C19.3896 9.35546 19.8318 9.26949 20.237 9.09881C20.6448 8.9268 21.0513 8.64746 21.4564 8.25664V9.14147H23.541V0.788567H21.4605V1.70092ZM20.9085 6.7457C20.48 7.20531 19.939 7.43237 19.2908 7.43375C18.6591 7.43306 18.1276 7.19981 17.6964 6.73194C17.2652 6.26544 17.0496 5.66958 17.051 4.94713C17.0523 4.22743 17.2625 3.63984 17.6868 3.18023C18.1111 2.72061 18.6426 2.49355 19.2839 2.49355C19.939 2.49355 20.4814 2.71923 20.9112 3.16922C21.3397 3.62195 21.477 4.13662 21.4756 4.86457C21.4756 5.60904 21.3383 6.28745 20.9085 6.7457ZM36.0845 0.992226C35.6368 0.715632 35.1191 0.578021 34.5286 0.578021C33.9573 0.577338 33.4341 0.706008 32.952 0.96471C32.4714 1.22204 32.0663 1.59772 31.734 2.09449C31.4813 1.59772 31.1462 1.22066 30.7301 0.963329C30.3113 0.704627 29.8443 0.575277 29.3252 0.573903C28.8116 0.573903 28.3379 0.67156 27.9025 0.868384C27.4672 1.06379 27.0717 1.35965 26.716 1.75734V0.788567H24.63L24.6272 9.14147H26.7119L26.7132 5.43565C26.7146 4.63476 26.7846 4.04717 26.9247 3.67424C27.0662 3.30132 27.2776 3.01234 27.5605 2.80455C27.8448 2.59951 28.1593 2.49493 28.5067 2.49493C28.8171 2.49562 29.0835 2.57751 29.3032 2.74124C29.5229 2.905 29.6864 3.15408 29.7962 3.48847C29.9061 3.82287 29.961 4.36229 29.961 5.10951L29.9569 9.14147H32.0443V5.38473C32.0471 4.58797 32.1157 4.01001 32.253 3.65085C32.3917 3.29031 32.6032 3.00958 32.8861 2.80455C33.1676 2.60089 33.4903 2.49905 33.8488 2.49905C34.3184 2.49905 34.6686 2.66693 34.9048 2.99995C35.141 3.33572 35.2577 3.97561 35.2577 4.91823L35.2549 9.14147H37.3396L37.3423 4.24944C37.3423 3.24628 37.2448 2.52107 37.0498 2.0766C36.8548 1.63073 36.5334 1.26883 36.0844 0.992226H36.0845ZM44.6192 6.67964C44.0617 7.23559 43.3943 7.51355 42.6184 7.51355C41.9674 7.51287 41.436 7.33329 41.0158 6.97825C40.5969 6.62321 40.3401 6.14433 40.2426 5.5416L46.9304 5.5457L46.9387 5.148C46.9387 3.77191 46.5308 2.66553 45.7124 1.82474C44.8953 0.986688 43.8324 0.56698 42.525 0.5656C41.2946 0.5656 40.2701 0.985312 39.4557 1.82886C38.6387 2.66965 38.2308 3.72788 38.2308 5.00215C38.2294 6.24751 38.6387 7.28096 39.4544 8.10799C40.2701 8.93641 41.3303 9.34923 42.6294 9.34923C43.4671 9.34991 44.1894 9.20061 44.8005 8.90063C45.4089 8.60201 45.9321 8.13827 46.3688 7.51352L44.6192 6.67964ZM41.1037 2.84032C41.5417 2.51694 42.0512 2.35593 42.6307 2.35731C43.1677 2.35731 43.6373 2.50043 44.0397 2.78803C44.4462 3.07702 44.7167 3.44994 44.8541 3.90955L40.3401 3.90682C40.5736 3.39767 40.829 3.04125 41.1037 2.84034V2.84032ZM51.8783 4.72147L54.6963 0.787211H52.3191L50.6877 3.06465L49.0508 0.787211H46.6366L49.4833 4.74485L46.3358 9.14148H48.7129L50.6726 6.40306L52.6432 9.14148H55.0588L51.8783 4.72147ZM14.5241 0.53125C14.1382 0.53125 13.8017 0.604147 13.5202 0.745919C13.2428 0.884903 12.9242 1.13948 12.5658 1.51241V0.788577H10.5759V9.14148H12.6605L12.6592 4.79715C12.6592 3.20501 13.0986 2.40687 14.1615 2.40687C14.3455 2.40687 14.5337 2.44684 14.7232 2.51834C15.0651 1.94451 15.4606 1.40508 15.9028 0.908296C15.4263 0.663354 14.9662 0.53125 14.5241 0.53125" fill="#07916F"/>
</svg>
