<svg width="92" height="15" viewBox="0 0 92 15" fill="none" xmlns="http://www.w3.org/2000/svg">
<path d="M11.0214 1.98844C10.3934 1.34978 9.70942 0.867878 8.96936 0.549735C8.23164 0.2269 7.43556 0.0678121 6.59512 0.065466C4.76249 0.065466 3.20767 0.767285 1.92367 2.16623C0.642003 3.56752 0.00233087 5.36414 0 7.55613C0 9.67091 0.660679 11.4418 1.98437 12.8618C3.30806 14.2865 4.87688 15 6.69084 15C7.50093 15.0012 8.25266 14.855 8.94368 14.5649C9.63705 14.2724 10.3281 13.7976 11.0168 13.1332V14.6374H14.5606V0.437438H11.0214V1.98844ZM10.0829 10.5646C9.35456 11.3459 8.43708 11.7319 7.3305 11.7342C6.25894 11.7331 5.35547 11.3365 4.62475 10.5412C3.8917 9.74812 3.52518 8.73516 3.52518 7.507C3.52518 6.28351 3.88703 5.28461 4.60608 4.50326C5.32745 3.72191 6.23093 3.33591 7.32117 3.33591C8.43708 3.33591 9.35923 3.71957 10.0876 4.48454C10.816 5.25419 11.0518 6.12912 11.0495 7.36664C11.0495 8.63224 10.8137 9.78554 10.0829 10.5646ZM34.8829 1.98844C34.2549 1.34978 33.5686 0.867878 32.8332 0.549735C32.0908 0.2269 31.2994 0.0678121 30.4543 0.065466C28.6263 0.065466 27.0668 0.767285 25.7852 2.16623C24.5035 3.56752 23.8638 5.36414 23.8615 7.55613C23.8592 9.67091 24.5198 11.4418 25.8459 12.8618C27.1696 14.2865 28.7384 15 30.5547 15C31.3624 15.0012 32.1142 14.855 32.8028 14.5649C33.4962 14.2724 34.1872 13.7976 34.8759 13.1332V14.6374H38.4198V0.437438H34.8829V1.98844ZM33.9444 10.5646C33.2161 11.3459 32.2963 11.7319 31.1943 11.7342C30.1204 11.7331 29.217 11.3365 28.4839 10.5412C27.7509 9.74812 27.3843 8.73516 27.3867 7.507C27.389 6.28351 27.7462 5.28461 28.4676 4.50326C29.189 3.72191 30.0924 3.33591 31.1827 3.33591C32.2963 3.33591 33.2184 3.71957 33.9491 4.48454C34.6775 5.25419 34.911 6.12912 34.9086 7.36664C34.9086 8.63224 34.6752 9.78554 33.9444 10.5646ZM59.7436 0.78366C58.9826 0.313449 58.1024 0.0795109 57.0986 0.0795109C56.1274 0.0783494 55.2379 0.297089 54.4185 0.736882C53.6014 1.17434 52.9127 1.81299 52.3478 2.6575C51.9182 1.81299 51.3486 1.17199 50.6412 0.734534C49.9292 0.294741 49.1354 0.0748451 48.2529 0.0725106C47.3798 0.0725106 46.5744 0.238528 45.8343 0.573129C45.0943 0.905313 44.4219 1.40828 43.8173 2.08435V0.437438H40.2711L40.2663 14.6374H43.8102L43.8125 8.33747C43.8148 6.97597 43.9339 5.97706 44.172 5.34309C44.4125 4.70913 44.772 4.21785 45.2529 3.86461C45.7362 3.51604 46.2708 3.33826 46.8614 3.33826C47.3891 3.33942 47.842 3.47864 48.2155 3.75698C48.589 4.03537 48.8668 4.45881 49.0536 5.02727C49.2404 5.59575 49.3337 6.51277 49.3337 7.78303L49.3268 14.6374H52.8753V8.25092C52.8801 6.89642 52.9967 5.91389 53.2302 5.30332C53.466 4.6904 53.8255 4.21316 54.3064 3.86461C54.785 3.51838 55.3336 3.34526 55.9429 3.34526C56.7413 3.34526 57.3366 3.63066 57.7382 4.1968C58.1397 4.7676 58.3382 5.85541 58.3382 7.45787L58.3334 14.6374H61.8773L61.8819 6.32093C61.8819 4.61555 61.7161 3.38269 61.3846 2.62709C61.0531 1.86912 60.5068 1.25388 59.7434 0.78366H59.7436ZM74.2527 10.4523C73.3049 11.3974 72.1703 11.8699 70.8513 11.8699C69.7447 11.8687 68.8412 11.5635 68.1268 10.9599C67.4148 10.3563 66.9782 9.54224 66.8125 8.5176L78.1818 8.52457L78.1958 7.84848C78.1958 5.50912 77.5024 3.62828 76.111 2.19893C74.722 0.774245 72.915 0.0607409 70.6925 0.0583948C68.6008 0.0583948 66.8592 0.771905 65.4748 2.20594C64.0857 3.63528 63.3924 5.43426 63.3924 7.60052C63.3901 9.71764 64.0857 11.4745 65.4725 12.8805C66.8592 14.2888 68.6615 14.9906 70.87 14.9906C72.294 14.9917 73.522 14.7379 74.5609 14.2279C75.5951 13.7203 76.4846 12.9319 77.227 11.8699L74.2527 10.4523ZM68.2762 3.92542C69.021 3.37568 69.8871 3.10196 70.8723 3.10431C71.7851 3.10431 72.5835 3.34761 73.2675 3.83653C73.9586 4.32781 74.4185 4.96178 74.6519 5.74311L66.9782 5.73846C67.3751 4.87291 67.8093 4.267 68.2762 3.92545V3.92542ZM86.5932 7.12338L91.3837 0.435134H87.3426L84.5691 4.30678L81.7863 0.435134H77.6822L82.5217 7.16313L77.1709 14.6374H81.212L84.5434 9.98208L87.8935 14.6374H92L86.5932 7.12338ZM23.0909 0C22.4349 0 21.8629 0.123925 21.3844 0.364936C20.9128 0.601209 20.3712 1.03399 19.7618 1.66796V0.437456H16.3791V14.6374H19.9229L19.9206 7.25203C19.9206 4.54539 20.6677 3.18856 22.4746 3.18856C22.7874 3.18856 23.1073 3.25651 23.4294 3.37805C24.0107 2.40253 24.6831 1.48551 25.4348 0.640978C24.6247 0.224577 23.8426 0 23.0909 0" fill="#B0B4C0"/>
</svg>
