<svg width="14" height="9" viewBox="0 0 14 9" fill="none" xmlns="http://www.w3.org/2000/svg">
<path d="M11.2099 9.00031H2.78995C2.45753 9.0008 2.13178 8.90713 1.85039 8.73016C1.56901 8.55318 1.34349 8.30014 1.19995 8.00032C1.03191 7.64457 0.967195 7.24878 1.01316 6.85805C1.05913 6.46731 1.21394 6.09735 1.45995 5.79032L5.66995 0.690315C5.83516 0.499685 6.03943 0.346799 6.2689 0.242018C6.49837 0.137236 6.74768 0.0830078 6.99995 0.0830078C7.25221 0.0830078 7.50152 0.137236 7.73099 0.242018C7.96047 0.346799 8.16473 0.499685 8.32995 0.690315L12.5399 5.79032C12.786 6.09735 12.9408 6.46731 12.9867 6.85805C13.0327 7.24878 12.968 7.64457 12.7999 8.00032C12.6564 8.30014 12.4309 8.55318 12.1495 8.73016C11.8681 8.90713 11.5424 9.0008 11.2099 9.00031Z" fill="#547DF0"/>
</svg>
