<svg width="14" height="9" viewBox="0 0 14 9" fill="none" xmlns="http://www.w3.org/2000/svg">
<path d="M2.79005 -0.000315605L11.2101 -0.000314869C11.5425 -0.000796146 11.8682 0.0928705 12.1496 0.269844C12.431 0.446817 12.6565 0.699861 12.8001 0.999685C12.9681 1.35543 13.0328 1.75122 12.9868 2.14195C12.9409 2.53269 12.7861 2.90265 12.5401 3.20968L8.33005 8.30968C8.16484 8.50031 7.96057 8.6532 7.7311 8.75798C7.50163 8.86276 7.25232 8.91699 7.00005 8.91699C6.74779 8.91699 6.49848 8.86276 6.26901 8.75798C6.03953 8.6532 5.83527 8.50031 5.67005 8.30968L1.46005 3.20968C1.21405 2.90265 1.05924 2.53269 1.01327 2.14195C0.9673 1.75122 1.03202 1.35543 1.20005 0.999684C1.3436 0.69986 1.56911 0.446816 1.8505 0.269843C2.13189 0.0928697 2.45764 -0.000796941 2.79005 -0.000315605Z" fill="#547DF0"/>
</svg>
