<svg width="22" height="20" viewBox="0 0 22 20" fill="none" xmlns="http://www.w3.org/2000/svg">
<path d="M20.3335 8.66665H4.52016L9.36016 2.85331C9.58648 2.58103 9.69536 2.22998 9.66286 1.87742C9.63035 1.52485 9.45912 1.19963 9.18683 0.973314C8.91454 0.746996 8.5635 0.638114 8.21093 0.67062C7.85836 0.703126 7.53315 0.874359 7.30683 1.14665L0.640163 9.14665C0.59531 9.21028 0.555202 9.27713 0.520163 9.34665C0.520163 9.41331 0.520163 9.45331 0.42683 9.51998C0.366394 9.67286 0.334751 9.8356 0.333496 9.99998C0.334751 10.1644 0.366394 10.3271 0.42683 10.48C0.42683 10.5466 0.426829 10.5866 0.520163 10.6533C0.555202 10.7228 0.59531 10.7897 0.640163 10.8533L7.30683 18.8533C7.43219 19.0038 7.58918 19.1249 7.76662 19.2078C7.94407 19.2908 8.13761 19.3336 8.3335 19.3333C8.64503 19.3339 8.94695 19.2254 9.18683 19.0266C9.32184 18.9147 9.43344 18.7772 9.51525 18.6221C9.59705 18.467 9.64744 18.2972 9.66354 18.1226C9.67965 17.948 9.66114 17.7719 9.60908 17.6044C9.55702 17.4369 9.47243 17.2814 9.36016 17.1466L4.52016 11.3333H20.3335C20.6871 11.3333 21.0263 11.1928 21.2763 10.9428C21.5264 10.6927 21.6668 10.3536 21.6668 9.99998C21.6668 9.64636 21.5264 9.30722 21.2763 9.05717C21.0263 8.80712 20.6871 8.66665 20.3335 8.66665Z" fill="#333131"/>
</svg>
