<svg width="18" height="21" viewBox="0 0 18 21" fill="none" xmlns="http://www.w3.org/2000/svg">
<path d="M17.5196 13.2097L15.7196 11.3996V6.93965C15.7435 5.28347 15.1674 3.67456 14.0977 2.40999C13.028 1.14541 11.5368 0.310585 9.89958 0.0596501C8.9494 -0.0654827 7.98345 0.013465 7.06619 0.291226C6.14893 0.568986 5.30146 1.03917 4.58031 1.67041C3.85916 2.30165 3.28093 3.07943 2.88419 3.95184C2.48745 4.82426 2.28133 5.77126 2.27958 6.72965V11.3996L0.479585 13.2097C0.253491 13.4395 0.100168 13.7309 0.0387851 14.0475C-0.0225982 14.364 0.0106811 14.6916 0.134462 14.9893C0.258244 15.287 0.467035 15.5416 0.734736 15.7213C1.00244 15.901 1.31717 15.9978 1.63958 15.9997H4.99958V16.3397C5.04629 17.3549 5.49354 18.3101 6.24331 18.9962C6.99308 19.6822 7.98424 20.0431 8.99959 19.9997C10.0149 20.0431 11.0061 19.6822 11.7559 18.9962C12.5056 18.3101 12.9529 17.3549 12.9996 16.3397V15.9997H16.3596C16.682 15.9978 16.9967 15.901 17.2644 15.7213C17.5321 15.5416 17.7409 15.287 17.8647 14.9893C17.9885 14.6916 18.0218 14.364 17.9604 14.0475C17.899 13.7309 17.7457 13.4395 17.5196 13.2097ZM10.9996 16.3397C10.9441 16.8207 10.7052 17.2617 10.3327 17.5709C9.96008 17.8802 9.48257 18.0337 8.99959 17.9997C8.5166 18.0337 8.03908 17.8802 7.66651 17.5709C7.29394 17.2617 7.05504 16.8207 6.99958 16.3397V15.9997H10.9996V16.3397ZM2.50958 13.9997L3.68958 12.8196C3.87675 12.6336 4.02525 12.4123 4.12651 12.1686C4.22777 11.9249 4.27979 11.6636 4.27958 11.3996V6.72965C4.28013 6.05505 4.42497 5.38837 4.70438 4.77436C4.98379 4.16035 5.39131 3.6132 5.89958 3.16965C6.401 2.71533 6.99516 2.3754 7.64093 2.17338C8.28669 1.97136 8.96865 1.91209 9.63959 1.99965C10.7961 2.18743 11.8458 2.78666 12.5955 3.68703C13.3452 4.5874 13.7444 5.72829 13.7196 6.89965V11.3996C13.7181 11.6629 13.7685 11.9238 13.868 12.1675C13.9676 12.4111 14.1142 12.6328 14.2996 12.8196L15.4896 13.9997H2.50958Z" fill="#333131"/>
</svg>
