<svg width="176" height="173" viewBox="0 0 176 173" fill="none" xmlns="http://www.w3.org/2000/svg">
<path opacity="0.4" d="M65.2972 172.182C49.1827 167.864 34.6435 159.018 23.4019 146.692C12.1602 134.365 4.68732 119.074 1.86835 102.631C-0.950624 86.1883 1.00248 69.2818 7.4963 53.9146C13.9901 38.5474 24.7525 25.3635 38.5086 15.9247C52.2646 6.48586 68.4379 1.18766 85.1124 0.657712C101.787 0.127768 118.264 4.38829 132.592 12.9346C146.919 21.4808 158.497 33.9547 165.954 48.8786C173.41 63.8024 176.433 80.5508 174.664 97.1396L99.4199 89.115C99.655 86.9099 99.2532 84.6836 98.2621 82.6999C97.2709 80.7161 95.7319 79.058 93.8274 77.9219C91.9228 76.7859 89.7326 76.2196 87.5161 76.29C85.2996 76.3605 83.1498 77.0647 81.3212 78.3194C79.4927 79.5741 78.0621 81.3266 77.1989 83.3693C76.3357 85.412 76.076 87.6593 76.4507 89.845C76.8255 92.0308 77.8188 94.0633 79.3131 95.7018C80.8074 97.3404 82.7401 98.5163 84.8821 99.0902L65.2972 172.182Z" fill="#004EF0"/>
</svg>
