<svg width="21" height="18" viewBox="0 0 21 18" fill="none" xmlns="http://www.w3.org/2000/svg">
<path d="M17.5 4H14.5V2.5C14.5 1.83696 14.2366 1.20107 13.7678 0.732233C13.2989 0.263392 12.663 0 12 0H9C8.33696 0 7.70107 0.263392 7.23223 0.732233C6.76339 1.20107 6.5 1.83696 6.5 2.5V4H3.5C2.70435 4 1.94129 4.31607 1.37868 4.87868C0.816071 5.44129 0.5 6.20435 0.5 7V15C0.5 15.7956 0.816071 16.5587 1.37868 17.1213C1.94129 17.6839 2.70435 18 3.5 18H17.5C18.2956 18 19.0587 17.6839 19.6213 17.1213C20.1839 16.5587 20.5 15.7956 20.5 15V7C20.5 6.20435 20.1839 5.44129 19.6213 4.87868C19.0587 4.31607 18.2956 4 17.5 4ZM8.5 2.5C8.5 2.36739 8.55268 2.24021 8.64645 2.14645C8.74021 2.05268 8.86739 2 9 2H12C12.1326 2 12.2598 2.05268 12.3536 2.14645C12.4473 2.24021 12.5 2.36739 12.5 2.5V4H8.5V2.5ZM18.5 15C18.5 15.2652 18.3946 15.5196 18.2071 15.7071C18.0196 15.8946 17.7652 16 17.5 16H3.5C3.23478 16 2.98043 15.8946 2.79289 15.7071C2.60536 15.5196 2.5 15.2652 2.5 15V7C2.5 6.73478 2.60536 6.48043 2.79289 6.29289C2.98043 6.10536 3.23478 6 3.5 6H17.5C17.7652 6 18.0196 6.10536 18.2071 6.29289C18.3946 6.48043 18.5 6.73478 18.5 7V15Z" fill="#004EF0"/>
<path d="M10.5 7.5C9.80777 7.5 9.13108 7.70527 8.55551 8.08986C7.97993 8.47444 7.53133 9.02107 7.26642 9.66061C7.00152 10.3001 6.9322 11.0039 7.06725 11.6828C7.2023 12.3618 7.53564 12.9854 8.02513 13.4749C8.51461 13.9644 9.13825 14.2977 9.81719 14.4327C10.4961 14.5678 11.1999 14.4985 11.8394 14.2336C12.4789 13.9687 13.0256 13.5201 13.4101 12.9445C13.7947 12.3689 14 11.6922 14 11C14 10.0717 13.6313 9.1815 12.9749 8.52513C12.3185 7.86875 11.4283 7.5 10.5 7.5ZM10.5 12.5C10.2033 12.5 9.91332 12.412 9.66665 12.2472C9.41997 12.0824 9.22771 11.8481 9.11418 11.574C9.00065 11.2999 8.97095 10.9983 9.02882 10.7074C9.0867 10.4164 9.22956 10.1491 9.43934 9.93934C9.64912 9.72956 9.91639 9.5867 10.2074 9.52882C10.4983 9.47094 10.7999 9.50065 11.074 9.61418C11.3481 9.72771 11.5824 9.91997 11.7472 10.1666C11.912 10.4133 12 10.7033 12 11C12 11.3978 11.842 11.7794 11.5607 12.0607C11.2794 12.342 10.8978 12.5 10.5 12.5Z" fill="#004EF0"/>
</svg>
