<svg width="10" height="11" viewBox="0 0 10 11" fill="none" xmlns="http://www.w3.org/2000/svg">
<path d="M5.76263 5.09375L9.86419 0.204688C9.93294 0.123438 9.87512 0 9.76888 0H8.522C8.44856 0 8.37825 0.0328125 8.32981 0.0890625L4.947 4.12187L1.56419 0.0890625C1.51731 0.0328125 1.447 0 1.372 0H0.125125C0.0188753 0 -0.0389373 0.123438 0.0298127 0.204688L4.13138 5.09375L0.0298127 9.98281C0.014412 10.0009 0.00453193 10.0231 0.001345 10.0466C-0.00184192 10.0702 0.00179817 10.0942 0.0118335 10.1157C0.0218689 10.1373 0.0378779 10.1555 0.0579596 10.1682C0.0780414 10.1809 0.101352 10.1876 0.125125 10.1875H1.372C1.44544 10.1875 1.51575 10.1547 1.56419 10.0984L4.947 6.06563L8.32981 10.0984C8.37669 10.1547 8.447 10.1875 8.522 10.1875H9.76888C9.87512 10.1875 9.93294 10.0641 9.86419 9.98281L5.76263 5.09375Z" fill="#1E2348"/>
</svg>
