<svg width="18" height="17" viewBox="0 0 18 17" fill="none" xmlns="http://www.w3.org/2000/svg">
<path d="M15 4.75H3C2.17157 4.75 1.5 5.42157 1.5 6.25V13.75C1.5 14.5784 2.17157 15.25 3 15.25H15C15.8284 15.25 16.5 14.5784 16.5 13.75V6.25C16.5 5.42157 15.8284 4.75 15 4.75Z" stroke="white" stroke-width="2" stroke-linecap="round" stroke-linejoin="round"/>
<path d="M12 15.25V3.25C12 2.85218 11.842 2.47064 11.5607 2.18934C11.2794 1.90804 10.8978 1.75 10.5 1.75H7.5C7.10218 1.75 6.72064 1.90804 6.43934 2.18934C6.15804 2.47064 6 2.85218 6 3.25V15.25" stroke="white" stroke-width="2" stroke-linecap="round" stroke-linejoin="round"/>
</svg>
