<svg width="31" height="31" viewBox="0 0 31 31" fill="none" xmlns="http://www.w3.org/2000/svg">
<path d="M5.04751 6.68277L0.422508 2.05777C0.218267 1.83859 0.107078 1.54868 0.112363 1.24913C0.117648 0.949586 0.238996 0.663784 0.450841 0.451939C0.662686 0.240094 0.948488 0.118747 1.24804 0.113461C1.54758 0.108176 1.83749 0.219366 2.05667 0.423606L30.5775 28.9444C30.6911 29.0503 30.7822 29.1779 30.8454 29.3198C30.9086 29.4616 30.9426 29.6147 30.9453 29.77C30.9481 29.9252 30.9195 30.0794 30.8614 30.2234C30.8032 30.3674 30.7167 30.4982 30.6069 30.608C30.4971 30.7178 30.3663 30.8043 30.2223 30.8625C30.0783 30.9206 29.9241 30.9492 29.7689 30.9464C29.6136 30.9437 29.4605 30.9097 29.3187 30.8465C29.1768 30.7833 29.0492 30.6922 28.9433 30.5786L23.8867 25.5219L20.125 25.5235C20.1266 26.7275 19.6585 27.8847 18.8204 28.7491C17.9822 29.6135 16.84 30.117 15.6365 30.1525C14.433 30.188 13.2631 29.7528 12.3754 28.9394C11.4877 28.1259 10.9522 26.9984 10.8827 25.7964L10.875 25.5204H3.59063C3.27122 25.52 2.95689 25.4403 2.67589 25.2884C2.39489 25.1366 2.15601 24.9173 1.9807 24.6503C1.80539 24.3833 1.69915 24.0769 1.67151 23.7587C1.64387 23.4404 1.6957 23.1203 1.82234 22.8271L3.93751 17.9585V11.6408C3.93751 9.86477 4.33526 8.18436 5.04751 6.68277ZM21.5742 23.2094L6.81117 8.44798C6.43823 9.47107 6.24827 10.5518 6.25001 11.6408V18.4395L4.17801 23.2094H21.5742ZM17.8125 25.5219L13.1875 25.5235C13.1874 26.1175 13.4159 26.6888 13.8256 27.1189C14.2353 27.549 14.7948 27.8049 15.3881 27.8337C15.9814 27.8624 16.563 27.6617 17.0124 27.2733C17.4618 26.8848 17.7444 26.3383 17.8017 25.747L17.8125 25.5204V25.5219Z" fill="black"/>
<path d="M24.75 18.4425L25.8415 20.94L29.2146 24.3116C29.3096 24.0744 29.3563 23.8207 29.352 23.5653C29.3478 23.3098 29.2927 23.0578 29.19 22.8239L27.0625 17.9584V11.6422L27.0563 11.2568C26.9605 8.25701 25.7005 5.41239 23.5433 3.3257C21.3861 1.23901 18.5012 0.074221 15.5 0.0781535C12.6871 0.0719043 9.96906 1.09453 7.85791 2.95336L9.49824 4.59369C11.1723 3.16765 13.3009 2.38686 15.5 2.3922C17.8982 2.38725 20.2042 3.31582 21.9299 4.9813C23.6555 6.64678 24.6652 8.91845 24.7453 11.3154L24.75 11.6622V18.4425Z" fill="black"/>
</svg>
