<svg width="37" height="32" viewBox="0 0 37 32" fill="none" xmlns="http://www.w3.org/2000/svg">
<path d="M18.5 10.5714C19.9019 10.5714 21.2463 10.0145 22.2376 9.02328C23.2288 8.03202 23.7857 6.68757 23.7857 5.28571C23.7857 3.88386 23.2288 2.53941 22.2376 1.54815C21.2463 0.556886 19.9019 0 18.5 0C17.0981 0 15.7537 0.556886 14.7624 1.54815C13.7712 2.53941 13.2143 3.88386 13.2143 5.28571C13.2143 6.68757 13.7712 8.03202 14.7624 9.02328C15.7537 10.0145 17.0981 10.5714 18.5 10.5714ZM18.5 7.92857C17.7991 7.92857 17.1269 7.65013 16.6312 7.1545C16.1356 6.65886 15.8571 5.98664 15.8571 5.28571C15.8571 4.58479 16.1356 3.91256 16.6312 3.41693C17.1269 2.9213 17.7991 2.64286 18.5 2.64286C19.2009 2.64286 19.8731 2.9213 20.3688 3.41693C20.8644 3.91256 21.1429 4.58479 21.1429 5.28571C21.1429 5.98664 20.8644 6.65886 20.3688 7.1545C19.8731 7.65013 19.2009 7.92857 18.5 7.92857ZM6.60714 10.5714C7.65854 10.5714 8.66687 10.1538 9.41032 9.41032C10.1538 8.66687 10.5714 7.65854 10.5714 6.60714C10.5714 5.55575 10.1538 4.54742 9.41032 3.80397C8.66687 3.06052 7.65854 2.64286 6.60714 2.64286C5.55575 2.64286 4.54742 3.06052 3.80397 3.80397C3.06052 4.54742 2.64286 5.55575 2.64286 6.60714C2.64286 7.65854 3.06052 8.66687 3.80397 9.41032C4.54742 10.1538 5.55575 10.5714 6.60714 10.5714ZM6.60714 7.92857C6.25668 7.92857 5.92057 7.78935 5.67275 7.54153C5.42494 7.29372 5.28571 6.95761 5.28571 6.60714C5.28571 6.25668 5.42494 5.92057 5.67275 5.67275C5.92057 5.42494 6.25668 5.28571 6.60714 5.28571C6.95761 5.28571 7.29372 5.42494 7.54153 5.67275C7.78935 5.92057 7.92857 6.25668 7.92857 6.60714C7.92857 6.95761 7.78935 7.29372 7.54153 7.54153C7.29372 7.78935 6.95761 7.92857 6.60714 7.92857ZM34.3571 6.60714C34.3571 7.12774 34.2546 7.64324 34.0554 8.12421C33.8562 8.60518 33.5641 9.0422 33.196 9.41032C32.8279 9.77844 32.3909 10.0704 31.9099 10.2697C31.429 10.4689 30.9135 10.5714 30.3929 10.5714C29.8723 10.5714 29.3568 10.4689 28.8758 10.2697C28.3948 10.0704 27.9578 9.77844 27.5897 9.41032C27.2216 9.0422 26.9296 8.60518 26.7303 8.12421C26.5311 7.64324 26.4286 7.12774 26.4286 6.60714C26.4286 5.55575 26.8462 4.54742 27.5897 3.80397C28.3331 3.06052 29.3415 2.64286 30.3929 2.64286C31.4443 2.64286 32.4526 3.06052 33.196 3.80397C33.9395 4.54742 34.3571 5.55575 34.3571 6.60714ZM31.7143 6.60714C31.7143 6.25668 31.5751 5.92057 31.3272 5.67275C31.0794 5.42494 30.7433 5.28571 30.3929 5.28571C30.0424 5.28571 29.7063 5.42494 29.4585 5.67275C29.2106 5.92057 29.0714 6.25668 29.0714 6.60714C29.0714 6.95761 29.2106 7.29372 29.4585 7.54153C29.7063 7.78935 30.0424 7.92857 30.3929 7.92857C30.7433 7.92857 31.0794 7.78935 31.3272 7.54153C31.5751 7.29372 31.7143 6.95761 31.7143 6.60714ZM11.8559 13.5473C12.2259 13.3359 12.6553 13.2143 13.1125 13.2143H23.8875C24.3937 13.2133 24.8885 13.3643 25.308 13.6477C25.9846 14.1049 26.4286 14.878 26.4286 15.7554V23.7857C26.4286 25.8885 25.5932 27.9052 24.1063 29.3921C22.6195 30.879 20.6028 31.7143 18.5 31.7143C16.3972 31.7143 14.3805 30.879 12.8937 29.3921C11.4068 27.9052 10.5714 25.8885 10.5714 23.7857V15.7554C10.5714 14.8093 11.0881 13.9847 11.8559 13.5473ZM13.2143 23.7857C13.2143 25.1876 13.7712 26.532 14.7624 27.5233C15.7537 28.5145 17.0981 29.0714 18.5 29.0714C19.9019 29.0714 21.2463 28.5145 22.2376 27.5233C23.2288 26.532 23.7857 25.1876 23.7857 23.7857V15.8571H13.2143V23.7857ZM8.58929 15.7554C8.58929 14.8132 8.87736 13.9384 9.36893 13.2143H2.64286C1.94193 13.2143 1.26971 13.4927 0.774075 13.9884C0.278443 14.484 2.96519e-07 15.1562 2.96519e-07 15.8571V22.4643C-0.000340548 23.6021 0.293172 24.7208 0.852107 25.7119C1.41104 26.703 2.21646 27.5329 3.19033 28.1213C4.16421 28.7098 5.27354 29.0367 6.41088 29.0705C7.54822 29.1043 8.675 28.8438 9.68211 28.3143C9.26938 27.5126 8.9688 26.658 8.78882 25.7745C8.19118 26.1684 7.49803 26.3931 6.78294 26.4249C6.06785 26.4566 5.35752 26.2942 4.72732 25.9548C4.09712 25.6153 3.57058 25.1116 3.20358 24.4971C2.83658 23.8825 2.64282 23.1801 2.64286 22.4643V15.8571H8.58929V15.7554ZM30.3929 29.0714C29.2829 29.0714 28.2363 28.7979 27.3179 28.3143C27.7306 27.5126 28.0312 26.658 28.2112 25.7745C28.8088 26.1684 29.502 26.3931 30.2171 26.4249C30.9321 26.4566 31.6425 26.2942 32.2727 25.9548C32.9029 25.6153 33.4294 25.1116 33.7964 24.4971C34.1634 23.8825 34.3572 23.1801 34.3571 22.4643V15.8571H28.4107V15.7554C28.4107 14.8132 28.1226 13.9384 27.6311 13.2143H34.3571C35.0581 13.2143 35.7303 13.4927 36.2259 13.9884C36.7216 14.484 37 15.1562 37 15.8571V22.4643C37 24.2166 36.3039 25.8972 35.0648 27.1362C33.8257 28.3753 32.1452 29.0714 30.3929 29.0714Z" fill="black"/>
</svg>
