<svg width="37" height="37" viewBox="0 0 37 37" fill="none" xmlns="http://www.w3.org/2000/svg">
<path d="M4.625 27.75H16.1875V30.0625H4.625V27.75Z" fill="black"/>
<path d="M4.625 20.8125H16.1875V23.125H4.625V20.8125Z" fill="black"/>
<path d="M30.0625 16.1875H6.9375C6.32419 16.1875 5.73599 15.9439 5.30232 15.5102C4.86864 15.0765 4.625 14.4883 4.625 13.875V6.9375C4.625 6.32419 4.86864 5.73599 5.30232 5.30232C5.73599 4.86864 6.32419 4.625 6.9375 4.625H30.0625C30.6758 4.625 31.264 4.86864 31.6977 5.30232C32.1314 5.73599 32.375 6.32419 32.375 6.9375V13.875C32.375 14.4883 32.1314 15.0765 31.6977 15.5102C31.264 15.9439 30.6758 16.1875 30.0625 16.1875ZM6.9375 6.9375V13.875H30.0625V6.9375H6.9375Z" fill="black"/>
<path d="M30.0625 32.375H23.125C22.5117 32.375 21.9235 32.1314 21.4898 31.6977C21.0561 31.264 20.8125 30.6758 20.8125 30.0625V23.125C20.8125 22.5117 21.0561 21.9235 21.4898 21.4898C21.9235 21.0561 22.5117 20.8125 23.125 20.8125H30.0625C30.6758 20.8125 31.264 21.0561 31.6977 21.4898C32.1314 21.9235 32.375 22.5117 32.375 23.125V30.0625C32.375 30.6758 32.1314 31.264 31.6977 31.6977C31.264 32.1314 30.6758 32.375 30.0625 32.375ZM23.125 23.125V30.0625H30.0625V23.125H23.125Z" fill="black"/>
</svg>
