<svg width="14" height="14" viewBox="0 0 14 14" fill="none" xmlns="http://www.w3.org/2000/svg">
<path d="M5.47281 6.52682C5.34727 6.40129 5.17701 6.33076 4.99947 6.33076C4.82194 6.33076 4.65168 6.40129 4.52614 6.52682C4.4006 6.65236 4.33008 6.82262 4.33008 7.00016C4.33008 7.17769 4.4006 7.34795 4.52614 7.47349L6.52614 9.47349C6.58843 9.53528 6.66231 9.58416 6.74353 9.61734C6.82476 9.65051 6.91173 9.66733 6.99947 9.66682C7.09074 9.66393 7.18044 9.64232 7.26301 9.60333C7.34557 9.56433 7.41925 9.5088 7.47947 9.44016L12.1461 4.10682C12.2539 3.97304 12.3058 3.80283 12.2912 3.63168C12.2765 3.46053 12.1963 3.30165 12.0674 3.18816C11.9384 3.07468 11.7706 3.01536 11.599 3.02256C11.4274 3.02976 11.2651 3.10294 11.1461 3.22682L6.99947 8.02682L5.47281 6.52682Z" fill="white"/>
<path d="M12.9992 6.3335C12.8224 6.3335 12.6528 6.40373 12.5278 6.52876C12.4028 6.65378 12.3326 6.82335 12.3326 7.00016C12.3326 8.41465 11.7707 9.77121 10.7705 10.7714C9.77027 11.7716 8.41371 12.3335 6.99922 12.3335C5.94595 12.333 4.9164 12.0207 4.0404 11.4359C3.1644 10.851 2.48117 10.0199 2.07688 9.04734C1.67258 8.07475 1.56532 7.00423 1.76862 5.97076C1.97191 4.93729 2.47667 3.98715 3.21922 3.24016C3.71303 2.73975 4.30168 2.34286 4.95073 2.07271C5.59978 1.80255 6.2962 1.66457 6.99922 1.66683C7.42552 1.6695 7.85026 1.71868 8.26589 1.8135C8.35287 1.8404 8.44443 1.8492 8.53494 1.83936C8.62545 1.82952 8.71299 1.80125 8.79215 1.75628C8.87132 1.71132 8.94043 1.65061 8.99524 1.57791C9.05004 1.50521 9.08938 1.42206 9.11081 1.33357C9.13225 1.24509 9.13534 1.15315 9.11988 1.06343C9.10443 0.973707 9.07076 0.888102 9.02095 0.81189C8.97114 0.735679 8.90625 0.670477 8.83028 0.620304C8.75431 0.570131 8.66887 0.53605 8.57922 0.520163C8.06132 0.398325 7.53126 0.335701 6.99922 0.333496C5.68212 0.340338 4.39655 0.737177 3.30475 1.47393C2.21296 2.21069 1.36387 3.25434 0.864637 4.47318C0.365402 5.69203 0.238397 7.03145 0.499648 8.3224C0.760898 9.61336 1.3987 10.798 2.33256 11.7268C3.57035 12.9652 5.24833 13.6627 6.99922 13.6668C8.76733 13.6668 10.463 12.9645 11.7133 11.7142C12.9635 10.464 13.6659 8.76827 13.6659 7.00016C13.6659 6.82335 13.5957 6.65378 13.4706 6.52876C13.3456 6.40373 13.176 6.3335 12.9992 6.3335Z" fill="white"/>
</svg>
