<svg width="65" height="65" viewBox="0 0 65 65" fill="none" xmlns="http://www.w3.org/2000/svg">
<circle cx="32.5004" cy="32.5" r="32" stroke="#040404"/>
<path d="M41.3271 38.52C41.2802 38.3537 41.1706 38.2121 41.0213 38.1251C40.8721 38.038 40.6949 38.0123 40.5271 38.0533L38.8671 38.5C39.7754 37.161 40.3262 35.6119 40.4671 34C40.6032 32.4919 40.3827 30.973 39.8234 29.5659C39.264 28.1588 38.3815 26.903 37.2471 25.9C37.1159 25.7916 36.9483 25.7373 36.7785 25.7485C36.6087 25.7597 36.4496 25.8353 36.3337 25.96C36.2172 26.0927 36.1581 26.2662 36.1693 26.4424C36.1806 26.6187 36.2613 26.7832 36.3937 26.9C37.3712 27.7628 38.1317 28.8438 38.6135 30.0553C39.0954 31.2669 39.285 32.5749 39.1671 33.8733C39.0529 35.241 38.5942 36.5575 37.8337 37.7L37.6671 36.0267C37.6796 35.9282 37.6701 35.8282 37.639 35.7339C37.608 35.6396 37.5563 35.5534 37.4877 35.4816C37.4191 35.4098 37.3353 35.3543 37.2425 35.3191C37.1497 35.2838 37.0502 35.2697 36.9513 35.2778C36.8523 35.286 36.7564 35.3161 36.6706 35.366C36.5848 35.4159 36.5112 35.4843 36.4552 35.5663C36.3992 35.6483 36.3623 35.7418 36.347 35.8399C36.3318 35.938 36.3386 36.0382 36.3671 36.1333L36.7004 40.4267L40.8671 39.32C41.0321 39.2717 41.1721 39.1615 41.2579 39.0125C41.3436 38.8634 41.3684 38.6869 41.3271 38.52Z" fill="#040404"/>
<path d="M21.8737 32.3864C21.9623 32.4434 22.0625 32.4798 22.167 32.4931C22.341 32.5159 22.517 32.4692 22.6568 32.3631C22.7966 32.257 22.8889 32.1001 22.9137 31.9264C23.1892 29.8925 24.2228 28.0378 25.8076 26.7336C27.3925 25.4293 29.4115 24.772 31.4604 24.8931L29.967 25.9131C29.8614 25.9927 29.7818 26.1019 29.7384 26.2269C29.695 26.3519 29.6898 26.4869 29.7234 26.6149C29.757 26.7428 29.8279 26.8579 29.9271 26.9454C30.0263 27.0329 30.1492 27.089 30.2804 27.1064C30.4306 27.1201 30.581 27.0825 30.707 26.9998L34.2604 24.5598L31.2204 21.5064C31.1663 21.4235 31.0944 21.3537 31.01 21.3021C30.9255 21.2504 30.8307 21.2182 30.7322 21.2078C30.6338 21.1974 30.5343 21.209 30.4409 21.2419C30.3475 21.2747 30.2626 21.3279 30.1924 21.3977C30.1221 21.4674 30.0683 21.5519 30.0348 21.645C30.0013 21.7382 29.9889 21.8376 29.9986 21.9361C30.0083 22.0346 30.0398 22.1297 30.0909 22.2145C30.1419 22.2993 30.2112 22.3717 30.2937 22.4264L31.427 23.5598C29.0609 23.4466 26.7384 24.2247 24.9179 25.7403C23.0974 27.2559 21.9113 29.399 21.5937 31.7464C21.5766 31.8686 21.5937 31.993 21.6432 32.106C21.6926 32.219 21.7724 32.3161 21.8737 32.3864Z" fill="#040404"/>
<path d="M33.4871 40.9533C32.4461 41.2859 31.3479 41.4016 30.2604 41.2933C28.936 41.1635 27.6631 40.7133 26.5515 39.9816C25.44 39.2498 24.5232 38.2586 23.8804 37.0933L25.5404 37.7133C25.6934 37.7399 25.8509 37.7122 25.9857 37.635C26.1205 37.5578 26.224 37.436 26.2786 37.2906C26.3331 37.1451 26.3352 36.9853 26.2844 36.8385C26.2336 36.6917 26.1332 36.5673 26.0004 36.4867L22.9404 35.3533L21.9604 35L21.2204 39.2333C21.1948 39.4025 21.2351 39.575 21.3332 39.7153C21.4312 39.8555 21.5794 39.9527 21.7471 39.9867H21.8604C22.0173 39.9895 22.1702 39.9369 22.2922 39.8382C22.4141 39.7394 22.4973 39.6007 22.5271 39.4467L22.8071 37.8467C23.5611 39.1675 24.6202 40.2888 25.8959 41.1169C27.1717 41.9449 28.627 42.4558 30.1404 42.6067C31.4057 42.7321 32.6833 42.5959 33.8938 42.2067C34.0479 42.1428 34.1725 42.0236 34.243 41.8724C34.3134 41.7212 34.3247 41.549 34.2744 41.39C34.2242 41.2309 34.1162 41.0964 33.9716 41.0131C33.8271 40.9298 33.6566 40.9037 33.4938 40.94L33.4871 40.9533Z" fill="#040404"/>
<path d="M33.667 29.667H28.3337C28.1568 29.667 27.9873 29.7372 27.8623 29.8623C27.7372 29.9873 27.667 30.1568 27.667 30.3337V35.667C27.667 35.8438 27.7372 36.0134 27.8623 36.1384C27.9873 36.2634 28.1568 36.3337 28.3337 36.3337H33.667C33.8438 36.3337 34.0134 36.2634 34.1384 36.1384C34.2634 36.0134 34.3337 35.8438 34.3337 35.667V30.3337C34.3337 30.1568 34.2634 29.9873 34.1384 29.8623C34.0134 29.7372 33.8438 29.667 33.667 29.667ZM33.0003 35.0003H29.0003V31.0003H33.0003V35.0003Z" fill="#040404"/>
</svg>
