<svg width="18" height="17" viewBox="0 0 18 17" fill="none" xmlns="http://www.w3.org/2000/svg">
<path d="M12.75 15.25V13.75C12.75 12.9544 12.4339 12.1913 11.8713 11.6287C11.3087 11.0661 10.5456 10.75 9.75 10.75H3.75C2.95435 10.75 2.19129 11.0661 1.62868 11.6287C1.06607 12.1913 0.75 12.9544 0.75 13.75V15.25" stroke="white" stroke-width="2" stroke-linecap="round" stroke-linejoin="round"/>
<path d="M6.75 7.75C8.40685 7.75 9.75 6.40685 9.75 4.75C9.75 3.09315 8.40685 1.75 6.75 1.75C5.09315 1.75 3.75 3.09315 3.75 4.75C3.75 6.40685 5.09315 7.75 6.75 7.75Z" stroke="white" stroke-width="2" stroke-linecap="round" stroke-linejoin="round"/>
<path d="M17.25 15.2502V13.7502C17.2495 13.0855 17.0283 12.4397 16.621 11.9144C16.2138 11.389 15.6436 11.0138 15 10.8477" stroke="white" stroke-width="2" stroke-linecap="round" stroke-linejoin="round"/>
<path d="M12 1.84766C12.6453 2.01288 13.2173 2.38818 13.6257 2.91439C14.0342 3.4406 14.2559 4.08778 14.2559 4.75391C14.2559 5.42003 14.0342 6.06722 13.6257 6.59342C13.2173 7.11963 12.6453 7.49493 12 7.66016" stroke="white" stroke-width="2" stroke-linecap="round" stroke-linejoin="round"/>
</svg>
