<svg width="14" height="14" viewBox="0 0 14 14" fill="none" xmlns="http://www.w3.org/2000/svg">
<path d="M7 0.333252C5.68146 0.333252 4.39252 0.724245 3.2962 1.45679C2.19987 2.18933 1.34539 3.23052 0.840801 4.4487C0.336217 5.66687 0.204195 7.00731 0.461429 8.30052C0.718664 9.59373 1.3536 10.7816 2.28595 11.714C3.2183 12.6463 4.40619 13.2813 5.6994 13.5385C6.9926 13.7957 8.33305 13.6637 9.55122 13.1591C10.7694 12.6545 11.8106 11.8 12.5431 10.7037C13.2757 9.60739 13.6667 8.31846 13.6667 6.99992C13.6667 6.12444 13.4942 5.25753 13.1592 4.4487C12.8242 3.63986 12.3331 2.90493 11.714 2.28587C11.095 1.66682 10.3601 1.17575 9.55122 0.840722C8.74238 0.50569 7.87548 0.333252 7 0.333252ZM7 12.3333C5.94516 12.3333 4.91402 12.0205 4.03696 11.4344C3.15989 10.8484 2.47631 10.0154 2.07264 9.0409C1.66897 8.06636 1.56336 6.994 1.76914 5.95944C1.97493 4.92487 2.48288 3.97456 3.22876 3.22868C3.97464 2.4828 4.92495 1.97485 5.95952 1.76906C6.99408 1.56328 8.06644 1.66889 9.04098 2.07256C10.0155 2.47623 10.8485 3.15982 11.4345 4.03688C12.0205 4.91394 12.3333 5.94509 12.3333 6.99992C12.3333 8.41441 11.7714 9.77096 10.7712 10.7712C9.77104 11.7713 8.41449 12.3333 7 12.3333Z" fill="white"/>
<path d="M9.66667 6.33317H7.66667V4.33317C7.66667 4.15636 7.59643 3.98679 7.47141 3.86177C7.34638 3.73674 7.17681 3.6665 7 3.6665C6.82319 3.6665 6.65362 3.73674 6.5286 3.86177C6.40357 3.98679 6.33334 4.15636 6.33334 4.33317V6.99984C6.33334 7.17665 6.40357 7.34622 6.5286 7.47124C6.65362 7.59627 6.82319 7.6665 7 7.6665H9.66667C9.84348 7.6665 10.013 7.59627 10.1381 7.47124C10.2631 7.34622 10.3333 7.17665 10.3333 6.99984C10.3333 6.82303 10.2631 6.65346 10.1381 6.52843C10.013 6.40341 9.84348 6.33317 9.66667 6.33317Z" fill="white"/>
</svg>
