<svg width="60" height="60" viewBox="0 0 60 60" fill="none" xmlns="http://www.w3.org/2000/svg">
<path d="M56.9924 43C56.374 43.0032 55.7716 43.1969 55.2671 43.5548C54.7627 43.9126 54.3807 44.4173 54.1732 45H50.9941C50.729 45 50.4747 44.8946 50.2872 44.7071C50.0997 44.5196 49.9944 44.2652 49.9944 44V37H51.9938C54.115 37 56.1492 36.1571 57.6491 34.6569C59.149 33.1566 59.9916 31.1217 59.9916 29C59.9916 26.8783 59.149 24.8434 57.6491 23.3431C56.1492 21.8429 54.115 21 51.9938 21H51.1141C52.3442 18.8724 52.9925 16.4581 52.9936 14.0003C52.9947 11.5424 52.3486 9.12764 51.1204 6.99889C49.8921 4.87013 48.125 3.10251 45.9969 1.87387C43.8687 0.645242 41.4546 -0.00105987 38.9975 1.30466e-06C35.9815 0.0124252 33.0496 0.995354 30.6353 2.80344C28.221 4.61152 26.4525 7.14878 25.5912 10.04C23.8445 8.37317 21.598 7.32759 19.1983 7.06455C16.7986 6.80152 14.379 7.33565 12.3129 8.58455C10.2468 9.83345 8.64887 11.7277 7.76576 13.9751C6.88264 16.2225 6.76337 18.6981 7.42634 21.02C5.56754 21.1551 3.81424 21.9352 2.46929 23.2257C1.12433 24.5162 0.272171 26.2361 0.059986 28.0882C-0.152199 29.9403 0.288916 31.8084 1.30714 33.3698C2.32537 34.9312 3.85677 36.0878 5.63684 36.64C5.79665 37.1069 5.99045 37.5614 6.21668 38H6.00674C4.41589 38 2.89019 38.6321 1.76529 39.7574C0.640388 40.8826 0.00842478 42.4087 0.00842478 44C0.00842478 45.5913 0.640388 47.1174 1.76529 48.2426C2.89019 49.3679 4.41589 50 6.00674 50H14.0045V55C14.0045 55.2652 13.8992 55.5196 13.7117 55.7071C13.5242 55.8946 13.2699 56 13.0048 56H5.82679C5.59096 55.3328 5.12692 54.7704 4.51668 54.4124C3.90644 54.0543 3.18929 53.9235 2.49199 54.0432C1.79469 54.1629 1.16214 54.5253 0.706124 55.0663C0.25011 55.6074 0 56.2923 0 57C0 57.7077 0.25011 58.3926 0.706124 58.9337C1.16214 59.4747 1.79469 59.8371 2.49199 59.9568C3.18929 60.0765 3.90644 59.9457 4.51668 59.5876C5.12692 59.2296 5.59096 58.6672 5.82679 58H13.0048C13.7995 57.9976 14.5609 57.6808 15.1229 57.1187C15.6848 56.5566 16.0016 55.7949 16.0039 55V50H29.0003V53C29.0027 53.7949 29.3194 54.5566 29.8813 55.1187C30.4433 55.6808 31.2047 55.9976 31.9994 56H50.1743C50.4102 56.6672 50.8742 57.2296 51.4844 57.5876C52.0947 57.9457 52.8118 58.0765 53.5091 57.9568C54.2064 57.8371 54.839 57.4747 55.295 56.9337C55.751 56.3926 56.0011 55.7077 56.0011 55C56.0011 54.2923 55.751 53.6074 55.295 53.0663C54.839 52.5253 54.2064 52.1629 53.5091 52.0432C52.8118 51.9235 52.0947 52.0543 51.4844 52.4124C50.8742 52.7704 50.4102 53.3328 50.1743 54H31.9994C31.7343 54 31.48 53.8946 31.2925 53.7071C31.105 53.5196 30.9997 53.2652 30.9997 53V50H39.9972C41.5362 50.0002 43.0164 49.4087 44.1316 48.3478C45.2468 47.2869 45.9117 45.8379 45.9887 44.3004C46.0658 42.7629 45.5491 41.2546 44.5455 40.0875C43.542 38.9204 42.1283 38.1838 40.597 38.03C40.7567 37.7028 40.8742 37.3567 40.9469 37H47.9949V44C47.9973 44.7949 48.3141 45.5566 48.876 46.1187C49.4379 46.6808 50.1994 46.9976 50.9941 47H54.1732C54.3566 47.5189 54.6792 47.9773 55.1056 48.3251C55.532 48.6729 56.0459 48.8966 56.5909 48.9718C57.1359 49.0471 57.6912 48.9709 58.1958 48.7516C58.7004 48.5323 59.1351 48.1784 59.4521 47.7286C59.7691 47.2788 59.9563 46.7504 59.9932 46.2013C60.0302 45.6522 59.9154 45.1035 59.6614 44.6153C59.4075 44.1271 59.0241 43.7181 58.5534 43.4332C58.0826 43.1483 57.5426 42.9985 56.9924 43ZM3.00758 58C2.80986 58 2.61657 57.9414 2.45217 57.8315C2.28777 57.7216 2.15963 57.5654 2.08396 57.3827C2.0083 57.2 1.9885 56.9989 2.02707 56.8049C2.06565 56.6109 2.16086 56.4327 2.30067 56.2929C2.44049 56.153 2.61862 56.0578 2.81255 56.0192C3.00647 55.9806 3.20748 56.0004 3.39016 56.0761C3.57283 56.1518 3.72897 56.28 3.83882 56.4444C3.94867 56.6089 4.0073 56.8022 4.0073 57C4.0073 57.2652 3.90197 57.5196 3.71449 57.7071C3.52701 57.8946 3.27272 58 3.00758 58ZM52.9935 54C53.1913 54 53.3846 54.0586 53.549 54.1685C53.7134 54.2784 53.8415 54.4346 53.9172 54.6173C53.9928 54.8 54.0126 55.0011 53.9741 55.1951C53.9355 55.3891 53.8403 55.5673 53.7005 55.7071C53.5606 55.847 53.3825 55.9422 53.1886 55.9808C52.9947 56.0194 52.7936 55.9996 52.611 55.9239C52.4283 55.8482 52.2722 55.72 52.1623 55.5556C52.0525 55.3911 51.9938 55.1978 51.9938 55C51.9938 54.7348 52.0992 54.4804 52.2866 54.2929C52.4741 54.1054 52.7284 54 52.9935 54ZM43.9961 44C43.9961 45.0609 43.5748 46.0783 42.8248 46.8284C42.0749 47.5786 41.0578 48 39.9972 48H6.00674C4.94617 48 3.92904 47.5786 3.17911 46.8284C2.42917 46.0783 2.00786 45.0609 2.00786 44C2.00786 42.9391 2.42917 41.9217 3.17911 41.1716C3.92904 40.4214 4.94617 40 6.00674 40H8.01618C8.20184 40 8.38383 39.9483 8.54176 39.8507C8.69969 39.753 8.82732 39.6133 8.91035 39.4472C8.99338 39.2811 9.02853 39.0952 9.01186 38.9102C8.99518 38.7252 8.92735 38.5486 8.81595 38.4C7.69952 36.9227 7.06686 35.1363 7.00456 33.2854C6.94227 31.4345 7.4534 29.6096 8.46797 28.0605C9.48254 26.5114 10.951 25.3138 12.6722 24.6317C14.3935 23.9495 16.2834 23.8162 18.0833 24.25C17.9887 24.4029 17.9377 24.5788 17.9359 24.7586C17.9341 24.9384 17.9817 25.1153 18.0734 25.27L18.4333 25.86L17.7634 26.03C17.5467 26.0836 17.3541 26.2082 17.2164 26.384C17.0787 26.5598 17.0038 26.7767 17.0037 27V31C17.0038 31.2233 17.0787 31.4402 17.2164 31.616C17.3541 31.7918 17.5467 31.9164 17.7634 31.97L18.4333 32.14L18.0734 32.73C17.959 32.921 17.9116 33.1448 17.9388 33.3658C17.966 33.5868 18.0661 33.7924 18.2233 33.95L21.0525 36.78C21.2101 36.9373 21.4156 37.0374 21.6366 37.0646C21.8575 37.0918 22.0812 37.0444 22.2722 36.93L22.862 36.57L23.032 37.24C23.0855 37.4568 23.2101 37.6494 23.3859 37.7872C23.5616 37.9249 23.7784 37.9998 24.0017 38H28.0006C28.2238 37.9998 28.4406 37.9249 28.6164 37.7872C28.7921 37.6494 28.9167 37.4568 28.9703 37.24L29.1402 36.57L29.7301 36.93C29.9211 37.0444 30.1447 37.0918 30.3657 37.0646C30.5866 37.0374 30.7921 36.9373 30.9497 36.78L33.7789 33.95C33.9362 33.7924 34.0363 33.5868 34.0634 33.3658C34.0906 33.1448 34.0433 32.921 33.9289 32.73L33.569 32.14L34.2388 31.97C34.4556 31.9164 34.6481 31.7918 34.7858 31.616C34.9235 31.4402 34.9984 31.2233 34.9986 31V30.51C36.1788 31.0063 37.1872 31.8387 37.8982 32.9037C38.6092 33.9688 38.9915 35.2194 38.9975 36.5C38.9235 36.9183 38.7635 37.3167 38.5276 37.67C38.345 37.987 38.1879 38.3181 38.0577 38.66C38.0048 38.8121 37.9881 38.9745 38.0089 39.1342C38.0297 39.2939 38.0875 39.4466 38.1777 39.58C38.2715 39.7098 38.3947 39.8155 38.5372 39.8885C38.6796 39.9615 38.8374 39.9997 38.9975 40H39.9972C41.0578 40 42.0749 40.4214 42.8248 41.1716C43.5748 41.9217 43.9961 42.9391 43.9961 44ZM20.8426 25.99L20.1928 24.91L21.9123 23.19L22.992 23.83C23.1256 23.9123 23.2769 23.9615 23.4334 23.9737C23.5898 23.9858 23.747 23.9606 23.8917 23.9C24.036 23.8402 24.1645 23.7476 24.2668 23.6296C24.3692 23.5116 24.4427 23.3713 24.4816 23.22L24.7815 22H27.2208L27.5207 23.22C27.5595 23.3713 27.633 23.5116 27.7354 23.6296C27.8378 23.7476 27.9662 23.8402 28.1105 23.9C28.2553 23.9606 28.4124 23.9858 28.5689 23.9737C28.7253 23.9615 28.8766 23.9123 29.0103 23.83L30.09 23.19L31.8095 24.91L31.1597 25.99C31.0813 26.1253 31.0351 26.2769 31.0247 26.433C31.0143 26.5891 31.04 26.7454 31.0997 26.89C31.1595 27.0344 31.252 27.1628 31.37 27.2652C31.488 27.3676 31.6282 27.4412 31.7795 27.48L32.9992 27.78V30.22L31.7795 30.52C31.6282 30.5588 31.488 30.6324 31.37 30.7348C31.252 30.8372 31.1595 30.9656 31.0997 31.11C31.04 31.2546 31.0143 31.4109 31.0247 31.567C31.0351 31.7231 31.0813 31.8747 31.1597 32.01L31.8095 33.09L30.09 34.81L29.0103 34.17C28.8766 34.0877 28.7253 34.0385 28.5689 34.0263C28.4124 34.0142 28.2553 34.0394 28.1105 34.1C27.9662 34.1598 27.8378 34.2524 27.7354 34.3704C27.633 34.4884 27.5595 34.6287 27.5207 34.78L27.2208 36H24.7815L24.4816 34.78C24.4427 34.6287 24.3692 34.4884 24.2668 34.3704C24.1645 34.2524 24.036 34.1598 23.8917 34.1C23.747 34.0394 23.5898 34.0142 23.4334 34.0263C23.2769 34.0385 23.1256 34.0877 22.992 34.17L21.9123 34.81L20.1928 33.09L20.8426 32.01C20.921 31.8747 20.9671 31.7231 20.9775 31.567C20.9879 31.4109 20.9623 31.2546 20.9026 31.11C20.8428 30.9656 20.7502 30.8372 20.6322 30.7348C20.5142 30.6324 20.3741 30.5588 20.2227 30.52L19.0031 30.22V27.78L20.2227 27.48C20.3741 27.4412 20.5142 27.3676 20.6322 27.2652C20.7502 27.1628 20.8428 27.0344 20.9026 26.89C20.9623 26.7454 20.9879 26.5891 20.9775 26.433C20.9671 26.2769 20.921 26.1253 20.8426 25.99ZM40.857 35C40.5774 33.4669 39.8836 32.0395 38.851 30.8726C37.8183 29.7056 36.4861 28.8436 34.9986 28.38V27C34.9984 26.7767 34.9235 26.5598 34.7858 26.384C34.6481 26.2082 34.4556 26.0836 34.2388 26.03L33.569 25.86L33.9289 25.27C34.0433 25.079 34.0906 24.8552 34.0634 24.6342C34.0363 24.4132 33.9362 24.2076 33.7789 24.05L30.9497 21.22C30.7911 21.0646 30.5857 20.9657 30.3653 20.9386C30.1449 20.9114 29.9217 20.9576 29.7301 21.07L29.1402 21.43L28.9703 20.76C28.9167 20.5432 28.7921 20.3506 28.6164 20.2128C28.4406 20.0751 28.2238 20.0002 28.0006 20H24.0017C23.7784 20.0002 23.5616 20.0751 23.3859 20.2128C23.2101 20.3506 23.0855 20.5432 23.032 20.76L22.862 21.43L22.2722 21.07C22.0806 20.9576 21.8574 20.9114 21.637 20.9386C21.4165 20.9657 21.2112 21.0646 21.0525 21.22L19.6429 22.63C17.9858 22.0428 16.2119 21.8624 14.4706 22.1042C12.7293 22.3459 11.0715 23.0026 9.63695 24.0191C8.20237 25.0355 7.03297 26.3819 6.22723 27.9449C5.42149 29.5078 5.00301 31.2415 5.00702 33C5.00702 33.41 5.03701 33.82 5.077 34.23C3.92171 33.5803 3.01408 32.5661 2.49589 31.3458C1.9777 30.1256 1.87813 28.7681 2.21274 27.4853C2.54734 26.2024 3.29727 25.0666 4.34539 24.2552C5.39351 23.4437 6.6808 23.0023 8.00618 23H8.84594C9.01208 22.9997 9.17558 22.9584 9.32203 22.8799C9.46848 22.8015 9.59337 22.6882 9.68571 22.55C9.77427 22.4097 9.82776 22.2501 9.84168 22.0848C9.8556 21.9194 9.82954 21.7532 9.76568 21.6C9.26012 20.4675 9.00113 19.2403 9.0059 18C9.00636 16.0924 9.61274 14.2343 10.7375 12.6939C11.8623 11.1534 13.4473 10.0103 15.2638 9.4295C17.0803 8.84869 19.0343 8.86022 20.8438 9.46243C22.6533 10.0646 24.2248 11.2264 25.3313 12.78C25.4465 12.9433 25.6085 13.068 25.7958 13.1376C25.9831 13.2072 26.1871 13.2185 26.381 13.17C26.5745 13.1222 26.7492 13.0176 26.8828 12.8697C27.0164 12.7218 27.1028 12.5373 27.1308 12.34C27.5486 9.33062 29.0928 6.59206 31.4514 4.67764C33.81 2.76322 36.8071 1.81568 39.8372 2.02646C42.8673 2.23724 45.7044 3.59064 47.7754 5.81319C49.8464 8.03574 50.9967 10.9617 50.9941 14C51.0019 16.6791 50.0995 19.2813 48.4348 21.38C48.3181 21.5278 48.2455 21.7055 48.2253 21.8927C48.205 22.0799 48.2381 22.2691 48.3206 22.4383C48.4031 22.6076 48.5318 22.7501 48.6917 22.8495C48.8516 22.9488 49.0363 23.001 49.2246 23H51.9938C53.5847 23 55.1104 23.6321 56.2353 24.7574C57.3602 25.8826 57.9921 27.4087 57.9921 29C57.9921 30.5913 57.3602 32.1174 56.2353 33.2426C55.1104 34.3679 53.5847 35 51.9938 35H40.857ZM56.9924 47C56.7947 47 56.6014 46.9414 56.437 46.8315C56.2726 46.7216 56.1445 46.5654 56.0688 46.3827C55.9931 46.2 55.9733 45.9989 56.0119 45.8049C56.0505 45.6109 56.1457 45.4327 56.2855 45.2929C56.4253 45.153 56.6035 45.0578 56.7974 45.0192C56.9913 44.9806 57.1923 45.0004 57.375 45.0761C57.5577 45.1518 57.7138 45.28 57.8237 45.4444C57.9335 45.6089 57.9921 45.8022 57.9921 46C57.9921 46.2652 57.8868 46.5196 57.6993 46.7071C57.5118 46.8946 57.2576 47 56.9924 47Z" fill="#1E2348"/>
</svg>
