<svg width="18" height="19" viewBox="0 0 18 19" fill="none" xmlns="http://www.w3.org/2000/svg">
<path d="M15 18.9941H9C8.20435 18.9941 7.44129 18.6781 6.87868 18.1155C6.31607 17.5529 6 16.7898 6 15.9941V9.99414C6 9.19849 6.31607 8.43543 6.87868 7.87282C7.44129 7.31021 8.20435 6.99414 9 6.99414H15C15.7956 6.99414 16.5587 7.31021 17.1213 7.87282C17.6839 8.43543 18 9.19849 18 9.99414V15.9941C18 16.7898 17.6839 17.5529 17.1213 18.1155C16.5587 18.6781 15.7956 18.9941 15 18.9941ZM9 8.99414C8.73478 8.99414 8.48043 9.0995 8.29289 9.28703C8.10536 9.47457 8 9.72892 8 9.99414V15.9941C8 16.2594 8.10536 16.5137 8.29289 16.7012C8.48043 16.8888 8.73478 16.9941 9 16.9941H15C15.2652 16.9941 15.5196 16.8888 15.7071 16.7012C15.8946 16.5137 16 16.2594 16 15.9941V9.99414C16 9.72892 15.8946 9.47457 15.7071 9.28703C15.5196 9.0995 15.2652 8.99414 15 8.99414H9Z" fill="#004EF0"/>
<path d="M6.73 12.9941H2.67C1.96268 12.9915 1.28509 12.7094 0.784935 12.2092C0.284783 11.7091 0.00263436 11.0315 0 10.3241V3.66414C0.00263436 2.95682 0.284783 2.27923 0.784935 1.77908C1.28509 1.27892 1.96268 0.996775 2.67 0.994141H9.33C10.0373 0.996775 10.7149 1.27892 11.2151 1.77908C11.7152 2.27923 11.9974 2.95682 12 3.66414V7.39414H10V3.66414C10 3.48645 9.92941 3.31603 9.80376 3.19038C9.67811 3.06473 9.5077 2.99414 9.33 2.99414H2.67C2.49231 2.99414 2.32189 3.06473 2.19624 3.19038C2.07059 3.31603 2 3.48645 2 3.66414V10.3241C2 10.5018 2.07059 10.6723 2.19624 10.7979C2.32189 10.9236 2.49231 10.9941 2.67 10.9941H6.73V12.9941Z" fill="#004EF0"/>
</svg>
