<svg width="64" height="64" viewBox="0 0 64 64" fill="none" xmlns="http://www.w3.org/2000/svg">
<rect width="64" height="64" rx="32" fill="white"/>
<path opacity="0.3" d="M22.6263 39.4346H43.3131V42.0204H22.6263V39.4346ZM39.4343 31.4572L37.3398 32.9699L32.9697 27.0225L28.5996 32.9699L26.505 31.4572L29.1943 27.7982H22.6263V35.5558H43.3131V27.7982H36.745L39.4343 31.4572Z" fill="#42AE51"/>
<path d="M43.3131 25.2121H40.4945C40.6368 24.8113 40.7273 24.3717 40.7273 23.9192C40.7287 23.085 40.4608 22.2727 39.9634 21.603C39.466 20.9333 38.7657 20.4421 37.9667 20.2024C37.1678 19.9627 36.3127 19.9874 35.5289 20.2726C34.745 20.5579 34.0742 21.0886 33.6162 21.7858L32.9697 22.6521L32.3232 21.7729C31.6251 20.7386 30.4485 20.0404 29.0909 20.0404C26.9446 20.0404 25.2121 21.7729 25.2121 23.9192C25.2121 24.3717 25.3026 24.8113 25.4448 25.2121H22.6263C21.1911 25.2121 20.0533 26.3628 20.0533 27.7979L20.0404 42.0202C20.0404 43.4553 21.1911 44.606 22.6263 44.606H43.3131C44.7483 44.606 45.899 43.4553 45.899 42.0202V27.7979C45.899 26.3628 44.7483 25.2121 43.3131 25.2121ZM36.8485 22.6262C37.5596 22.6262 38.1414 23.2081 38.1414 23.9192C38.1414 24.6303 37.5596 25.2121 36.8485 25.2121C36.1374 25.2121 35.5556 24.6303 35.5556 23.9192C35.5556 23.2081 36.1374 22.6262 36.8485 22.6262ZM29.0909 22.6262C29.802 22.6262 30.3838 23.2081 30.3838 23.9192C30.3838 24.6303 29.802 25.2121 29.0909 25.2121C28.3798 25.2121 27.798 24.6303 27.798 23.9192C27.798 23.2081 28.3798 22.6262 29.0909 22.6262ZM43.3131 42.0202H22.6263V39.4343H43.3131V42.0202ZM43.3131 35.5555H22.6263V27.7979H29.1943L26.5051 31.4569L28.5996 32.9697L32.9697 27.0222L37.3398 32.9697L39.4343 31.4569L36.7451 27.7979H43.3131V35.5555Z" fill="#42AE51"/>
</svg>
