<svg width="30" height="18" viewBox="0 0 30 18" fill="none" xmlns="http://www.w3.org/2000/svg">
<path d="M15 0C9.26818 0 4.07027 3.13593 0.234735 8.22952C-0.0782449 8.64682 -0.0782449 9.22983 0.234735 9.64713C4.07027 14.7469 9.26818 17.8828 15 17.8828C20.7318 17.8828 25.9297 14.7469 29.7653 9.65327C30.0782 9.23596 30.0782 8.65296 29.7653 8.23566C25.9297 3.13593 20.7318 0 15 0ZM15.4112 15.2378C11.6063 15.4771 8.46425 12.3412 8.70359 8.53022C8.89997 5.38816 11.4468 2.84136 14.5888 2.64498C18.3937 2.40565 21.5357 5.54158 21.2964 9.35256C21.0939 12.4885 18.5471 15.0353 15.4112 15.2378ZM15.2209 12.3289C13.1712 12.4578 11.4774 10.7702 11.6125 8.72047C11.7168 7.0267 13.0914 5.65818 14.7852 5.54771C16.8349 5.41884 18.5287 7.10647 18.3937 9.15618C18.2832 10.8561 16.9086 12.2246 15.2209 12.3289Z" fill="#030303"/>
</svg>
