<svg width="22" height="15" viewBox="0 0 22 15" fill="none" xmlns="http://www.w3.org/2000/svg">
<path d="M20.87 7.50036C20.23 6.39036 16.71 0.82036 10.73 1.00036C5.2 1.14036 2 6.00036 1.13 7.50036C1.04223 7.65238 0.996025 7.82482 0.996025 8.00036C0.996025 8.1759 1.04223 8.34834 1.13 8.50036C1.76 9.59036 5.13 15.0004 11.02 15.0004H11.27C16.8 14.8604 20.01 10.0004 20.87 8.50036C20.9578 8.34834 21.004 8.1759 21.004 8.00036C21.004 7.82482 20.9578 7.65238 20.87 7.50036ZM11.22 13.0004C6.91 13.1004 4.1 9.41036 3.22 8.00036C4.22 6.39036 6.83 3.10036 10.83 3.00036C15.12 2.89036 17.94 6.59036 18.83 8.00036C17.8 9.61036 15.22 12.9004 11.22 13.0004Z" fill="#004EF0"/>
<path d="M11 4.5C10.3078 4.5 9.63108 4.70527 9.05551 5.08986C8.47993 5.47444 8.03133 6.02107 7.76642 6.66061C7.50152 7.30015 7.4322 8.00388 7.56725 8.68282C7.7023 9.36175 8.03564 9.98539 8.52513 10.4749C9.01461 10.9644 9.63825 11.2977 10.3172 11.4327C10.9961 11.5678 11.6999 11.4985 12.3394 11.2336C12.9789 10.9687 13.5256 10.5201 13.9101 9.9445C14.2947 9.36892 14.5 8.69223 14.5 8C14.5 7.07174 14.1313 6.1815 13.4749 5.52513C12.8185 4.86875 11.9283 4.5 11 4.5ZM11 9.5C10.7033 9.5 10.4133 9.41203 10.1666 9.2472C9.91997 9.08238 9.72771 8.84811 9.61418 8.57403C9.50065 8.29994 9.47095 7.99834 9.52882 7.70736C9.5867 7.41639 9.72956 7.14912 9.93934 6.93934C10.1491 6.72956 10.4164 6.5867 10.7074 6.52882C10.9983 6.47094 11.2999 6.50065 11.574 6.61418C11.8481 6.72771 12.0824 6.91997 12.2472 7.16665C12.412 7.41332 12.5 7.70333 12.5 8C12.5 8.39782 12.342 8.77936 12.0607 9.06066C11.7794 9.34196 11.3978 9.5 11 9.5Z" fill="#004EF0"/>
</svg>
