<svg width="44" height="44" viewBox="0 0 44 44" fill="none" xmlns="http://www.w3.org/2000/svg">
<path d="M0 22C0 9.84974 9.84974 0 22 0C34.1503 0 44 9.84974 44 22C44 34.1503 34.1503 44 22 44C9.84974 44 0 34.1503 0 22Z" fill="#F2F2F2"/>
<path d="M22.0001 30.9995C21.8685 31.0003 21.738 30.9751 21.6162 30.9253C21.4944 30.8755 21.3836 30.8022 21.2901 30.7095L13.5201 22.9295C12.5455 21.9447 11.9988 20.6151 11.9988 19.2295C11.9988 17.844 12.5455 16.5144 13.5201 15.5295C14.5024 14.55 15.8329 14 17.2201 14C18.6073 14 19.9379 14.55 20.9201 15.5295L22.0001 16.6095L23.0801 15.5295C24.0624 14.55 25.3929 14 26.7801 14C28.1673 14 29.4979 14.55 30.4801 15.5295C31.4548 16.5144 32.0015 17.844 32.0015 19.2295C32.0015 20.6151 31.4548 21.9447 30.4801 22.9295L22.7101 30.7095C22.6167 30.8022 22.5059 30.8755 22.384 30.9253C22.2622 30.9751 22.1317 31.0003 22.0001 30.9995ZM17.2201 15.9995C16.7968 15.9976 16.3773 16.0797 15.9859 16.2411C15.5946 16.4024 15.2391 16.6398 14.9401 16.9395C14.3362 17.5466 13.9972 18.3682 13.9972 19.2245C13.9972 20.0809 14.3362 20.9024 14.9401 21.5095L22.0001 28.5795L29.0601 21.5095C29.6641 20.9024 30.0031 20.0809 30.0031 19.2245C30.0031 18.3682 29.6641 17.5466 29.0601 16.9395C28.4438 16.3572 27.628 16.0328 26.7801 16.0328C25.9322 16.0328 25.1165 16.3572 24.5001 16.9395L22.7101 18.7395C22.6172 18.8333 22.5066 18.9077 22.3847 18.9584C22.2628 19.0092 22.1321 19.0353 22.0001 19.0353C21.8681 19.0353 21.7374 19.0092 21.6155 18.9584C21.4937 18.9077 21.3831 18.8333 21.2901 18.7395L19.5001 16.9395C19.2011 16.6398 18.8457 16.4024 18.4543 16.2411C18.0629 16.0797 17.6434 15.9976 17.2201 15.9995Z" fill="#333131"/>
</svg>
