<svg width="44" height="44" viewBox="0 0 44 44" fill="none" xmlns="http://www.w3.org/2000/svg">
<path d="M0 8C0 3.58172 3.58172 0 8 0H36C40.4183 0 44 3.58172 44 8V36C44 40.4183 40.4183 44 36 44H8C3.58172 44 0 40.4183 0 36V8Z" fill="white"/>
<path d="M22 31C21.8684 31.0008 21.7379 30.9756 21.6161 30.9258C21.4943 30.876 21.3834 30.8027 21.29 30.71L13.52 22.93C12.5454 21.9452 11.9987 20.6156 11.9987 19.23C11.9987 17.8444 12.5454 16.5148 13.52 15.53C14.5023 14.5505 15.8328 14.0005 17.22 14.0005C18.6072 14.0005 19.9377 14.5505 20.92 15.53L22 16.61L23.08 15.53C24.0623 14.5505 25.3928 14.0005 26.78 14.0005C28.1672 14.0005 29.4977 14.5505 30.48 15.53C31.4546 16.5148 32.0013 17.8444 32.0013 19.23C32.0013 20.6156 31.4546 21.9452 30.48 22.93L22.71 30.71C22.6166 30.8027 22.5057 30.876 22.3839 30.9258C22.2621 30.9756 22.1316 31.0008 22 31ZM17.22 16C16.7967 15.9981 16.3772 16.0802 15.9858 16.2416C15.5944 16.4029 15.239 16.6403 14.94 16.94C14.3361 17.5471 13.997 18.3687 13.997 19.225C13.997 20.0814 14.3361 20.9029 14.94 21.51L22 28.58L29.06 21.51C29.6639 20.9029 30.003 20.0814 30.003 19.225C30.003 18.3687 29.6639 17.5471 29.06 16.94C28.4437 16.3577 27.6279 16.0333 26.78 16.0333C25.9321 16.0333 25.1163 16.3577 24.5 16.94L22.71 18.74C22.617 18.8337 22.5064 18.9081 22.3846 18.9589C22.2627 19.0097 22.132 19.0358 22 19.0358C21.868 19.0358 21.7373 19.0097 21.6154 18.9589C21.4936 18.9081 21.383 18.8337 21.29 18.74L19.5 16.94C19.201 16.6403 18.8456 16.4029 18.4542 16.2416C18.0628 16.0802 17.6433 15.9981 17.22 16Z" fill="#333131"/>
</svg>
