<svg width="44" height="44" viewBox="0 0 44 44" fill="none" xmlns="http://www.w3.org/2000/svg">
<path d="M0 8C0 3.58172 3.58172 0 8 0H36C40.4183 0 44 3.58172 44 8V36C44 40.4183 40.4183 44 36 44H8C3.58172 44 0 40.4183 0 36V8Z" fill="white"/>
<path d="M22 30.9995C21.8684 31.0003 21.7379 30.9751 21.6161 30.9253C21.4943 30.8755 21.3834 30.8022 21.29 30.7095L13.52 22.9295C12.5454 21.9447 11.9987 20.6151 11.9987 19.2295C11.9987 17.844 12.5454 16.5144 13.52 15.5295C14.5023 14.55 15.8328 14 17.22 14C18.6072 14 19.9377 14.55 20.92 15.5295L22 16.6095L23.08 15.5295C24.0623 14.55 25.3928 14 26.78 14C28.1672 14 29.4977 14.55 30.48 15.5295C31.4546 16.5144 32.0013 17.844 32.0013 19.2295C32.0013 20.6151 31.4546 21.9447 30.48 22.9295L22.71 30.7095C22.6166 30.8022 22.5057 30.8755 22.3839 30.9253C22.2621 30.9751 22.1316 31.0003 22 30.9995Z" fill="#EA1D1D"/>
</svg>
