<svg width="65" height="65" viewBox="0 0 65 65" fill="none" xmlns="http://www.w3.org/2000/svg">
<rect width="65" height="65" rx="32.5" fill="white"/>
<path opacity="0.3" d="M26.9192 31.1083V41.3639H29.5455V33.4851H37.4242V41.3639H40.0505V31.1083L33.4848 25.1992L26.9192 31.1083ZM36.1111 30.8588H30.8586C30.8586 29.4144 32.0404 28.2326 33.4848 28.2326C34.9293 28.2326 36.1111 29.4144 36.1111 30.8588Z" fill="#EA1D1D"/>
<path d="M42.6768 29.9397V22.9801H38.7374V26.3943L33.4848 21.667L20.3535 33.4852H24.2929V43.9902H32.1717V36.1114H34.798V43.9902H42.6768V33.4852H46.6162L42.6768 29.9397ZM40.0505 41.364H37.4242V33.4852H29.5455V41.364H26.9192V31.1084L33.4848 25.1993L40.0505 31.1084V41.364Z" fill="#EA1D1D"/>
<path d="M30.8586 30.8587H36.1111C36.1111 29.4142 34.9293 28.2324 33.4848 28.2324C32.0404 28.2324 30.8586 29.4142 30.8586 30.8587Z" fill="#EA1D1D"/>
</svg>
