<svg width="144" height="42" viewBox="0 0 144 42" fill="none" xmlns="http://www.w3.org/2000/svg">
<g clip-path="url(#clip0_672_10982)">
<path d="M138.666 41.9996H5.33198C4.62975 42.0063 3.9332 41.8751 3.28306 41.6137C2.63292 41.3524 2.04222 40.9661 1.54549 40.4774C1.04876 39.9887 0.655957 39.4075 0.390048 38.7676C0.124139 38.1278 -0.00954297 37.4422 -0.00318976 36.7509V5.25015C-0.00971553 4.55893 0.123777 3.87336 0.389484 3.23351C0.655191 2.59366 1.04778 2.01236 1.54432 1.52357C2.04086 1.03479 2.63138 0.64833 3.28138 0.386772C3.93138 0.125214 4.62782 -0.00619924 5.33 0.000224636H138.666C139.368 -0.00619924 140.064 0.125214 140.714 0.386772C141.364 0.64833 141.955 1.03479 142.451 1.52357C142.948 2.01236 143.34 2.59366 143.606 3.23351C143.872 3.87336 144.005 4.55893 143.999 5.25015V36.7509C144.005 37.4421 143.872 38.1275 143.606 38.7672C143.34 39.4069 142.947 39.988 142.451 40.4767C141.954 40.9653 141.364 41.3517 140.714 41.6132C140.064 41.8746 139.368 42.006 138.666 41.9996Z" fill="white"/>
<path d="M50.5601 10.7066C50.5846 11.088 50.5313 11.4705 50.4032 11.8313C50.2751 12.1921 50.0749 12.524 49.8143 12.8074C49.4295 13.1903 48.9545 13.4736 48.4316 13.6322C47.9087 13.7907 47.3541 13.8195 46.8172 13.7161C46.2802 13.6126 45.7776 13.3801 45.354 13.0392C44.9303 12.6983 44.5989 12.2596 44.3891 11.7622C44.1794 11.2648 44.0978 10.724 44.1516 10.188C44.2054 9.65203 44.393 9.13746 44.6977 8.69009C45.0024 8.24272 45.4147 7.87642 45.8979 7.62381C46.3811 7.37119 46.9203 7.24009 47.4674 7.24216C47.9136 7.2465 48.3525 7.35454 48.7482 7.55751C49.1286 7.7142 49.4598 7.96754 49.708 8.29161L49.1736 8.81635C48.9718 8.5661 48.7107 8.36835 48.4133 8.24038C48.1159 8.1124 47.7911 8.05811 47.4674 8.08225C47.1449 8.06884 46.8234 8.12798 46.5276 8.25518C46.2317 8.38238 45.9692 8.5743 45.7599 8.81635C45.2816 9.29129 45.0131 9.93304 45.0131 10.6019C45.0131 11.2707 45.2816 11.9125 45.7599 12.3874C46.225 12.8202 46.8288 13.0798 47.4674 13.1215C47.8057 13.1355 48.1431 13.0772 48.4562 12.9504C48.7694 12.8237 49.0509 12.6316 49.2813 12.3874C49.4517 12.2233 49.5867 12.0271 49.6783 11.8105C49.7699 11.5938 49.8162 11.3612 49.8143 11.1266H47.4668V10.2865H50.5594V10.7066H50.5601ZM55.4666 8.08225H52.5859V10.0771H55.2532V10.8112H52.5859V12.8074H55.4659V13.6462H51.7339V7.3462H55.4666V8.08225ZM58.9879 13.6462H58.1345V8.08225H56.3206V7.34683H60.8004V8.08225H58.9879V13.6462ZM63.8944 13.6462V7.3462H64.7465V13.6462H63.8944ZM68.3741 13.6462H67.5207V8.08225H65.7069V7.34683H70.0803V8.08225H68.2671V13.6462H68.3741ZM78.5075 12.8074C77.9636 13.3524 77.2444 13.6946 76.4727 13.7755C75.7009 13.8563 74.9247 13.6708 74.2765 13.2507C73.6283 12.8305 73.1485 12.2018 72.9191 11.472C72.6896 10.7422 72.7248 9.9566 73.0185 9.24949C73.3123 8.54238 73.8464 7.95764 74.5296 7.59523C75.2128 7.23283 76.0027 7.11524 76.7642 7.26258C77.5257 7.40992 78.2115 7.81303 78.7046 8.40301C79.1976 8.993 79.4672 9.73322 79.4672 10.4972C79.4795 10.9272 79.4005 11.3551 79.2353 11.7533C79.07 12.1516 78.8221 12.5115 78.5075 12.81V12.8074ZM74.4498 12.284C74.9025 12.7349 75.5135 12.9981 76.1573 13.0194C76.4798 13.0329 76.8012 12.9737 77.0969 12.8462C77.3926 12.7188 77.6548 12.5265 77.8634 12.284C78.3422 11.8098 78.6108 11.1683 78.6105 10.4998C78.6349 10.1655 78.5802 9.8303 78.4505 9.52045C78.3209 9.2106 78.1199 8.93461 77.8634 8.71426C77.4112 8.26335 76.8006 8.00018 76.1573 7.97886C75.8345 7.96579 75.513 8.02527 75.2172 8.15281C74.9213 8.28035 74.6589 8.47258 74.4498 8.71491C73.9714 9.18978 73.7033 9.83167 73.704 10.5004C73.6794 10.8343 73.734 11.1692 73.8634 11.4787C73.9929 11.7882 74.1936 12.0639 74.4498 12.284ZM80.637 13.6495V7.34943H81.5968L84.6894 12.284V7.34943H85.5468V13.6495H84.6934L81.3907 8.50554V13.6495H80.637Z" fill="#0F0821"/>
<path d="M72.6407 22.89C72.0347 22.8765 71.4322 22.9841 70.8695 23.2063C70.3069 23.4284 69.7958 23.7604 69.3671 24.1823C68.9384 24.6042 68.6009 25.1072 68.3751 25.661C68.1493 26.2148 68.0399 26.8079 68.0533 27.4045C68.0488 27.9987 68.1644 28.5878 68.3934 29.1376C68.6224 29.6874 68.9601 30.1869 69.387 30.607C69.8139 31.0271 70.3214 31.3595 70.88 31.5847C71.4386 31.8099 72.0371 31.9236 72.6407 31.919C73.2467 31.9323 73.8491 31.8246 74.4117 31.6025C74.9742 31.3803 75.4852 31.0483 75.9138 30.6264C76.3423 30.2045 76.6797 29.7015 76.9053 29.1477C77.131 28.594 77.2404 28.001 77.2269 27.4045C77.2494 26.8057 77.1461 26.2087 76.9236 25.651C76.7011 25.0932 76.3641 24.5867 75.9337 24.163C75.5032 23.7393 74.9886 23.4075 74.422 23.1885C73.8554 22.9694 73.249 22.8678 72.6407 22.89ZM72.6407 30.0288C71.9397 29.9788 71.2838 29.6694 70.805 29.1627C70.3263 28.6561 70.0601 27.9898 70.0601 27.2978C70.0601 26.6059 70.3263 25.9396 70.805 25.4329C71.2838 24.9263 71.9397 24.6169 72.6407 24.5669C72.9946 24.5692 73.3443 24.6431 73.668 24.784C73.9917 24.9248 74.2825 25.1296 74.5225 25.3857C74.7625 25.6417 74.9465 25.9435 75.0631 26.2725C75.1797 26.6014 75.2264 26.9504 75.2003 27.2978C75.2173 27.6433 75.1643 27.9886 75.0444 28.3136C74.9245 28.6387 74.74 28.937 74.5018 29.1912C74.2636 29.4454 73.9763 29.6504 73.6568 29.7942C73.3373 29.938 72.9919 30.0177 72.6407 30.0288ZM62.7195 22.89C62.1135 22.8766 61.5111 22.9843 60.9485 23.2065C60.386 23.4286 59.875 23.7607 59.4464 24.1826C59.0179 24.6044 58.6805 25.1074 58.4549 25.6612C58.2292 26.2149 58.1198 26.808 58.1333 27.4045C58.1289 27.9986 58.2444 28.5876 58.4733 29.1373C58.7022 29.687 59.0398 30.1864 59.4666 30.6065C59.8933 31.0266 60.4007 31.359 60.9591 31.5843C61.5176 31.8096 62.1159 31.9234 62.7195 31.919C63.3255 31.9324 63.928 31.8248 64.4907 31.6027C65.0533 31.3806 65.5644 31.0486 65.9931 30.6267C66.4218 30.2048 66.7593 29.7017 66.9851 29.1479C67.2109 28.5941 67.3203 28.0011 67.3069 27.4045C67.3294 26.8056 67.2261 26.2085 67.0035 25.6507C66.7809 25.0928 66.4438 24.5862 66.0132 24.1625C65.5827 23.7387 65.0679 23.407 64.5012 23.1881C63.9344 22.9691 63.3279 22.8676 62.7195 22.89ZM62.7195 30.0288C62.0199 29.9767 61.3662 29.6664 60.8892 29.1599C60.4122 28.6535 60.1471 27.9884 60.1471 27.2978C60.1471 26.6072 60.4122 25.9421 60.8892 25.4357C61.3662 24.9293 62.0199 24.619 62.7195 24.5669C63.0734 24.5691 63.4232 24.643 63.747 24.7838C64.0708 24.9246 64.3618 25.1293 64.6019 25.3854C64.842 25.6414 65.0261 25.9433 65.1428 26.2723C65.2595 26.6012 65.3063 26.9503 65.2804 27.2978C65.2974 27.6434 65.2443 27.9888 65.1243 28.3139C65.0043 28.6391 64.8197 28.9375 64.5814 29.1917C64.343 29.4459 64.0556 29.6508 63.7359 29.7945C63.4162 29.9382 63.0707 30.0179 62.7195 30.0288ZM50.88 24.2541V26.1443H55.4661C55.4004 27.0453 55.0243 27.8973 54.4 28.5593C53.9409 29.0137 53.3912 29.3696 52.7855 29.6046C52.1798 29.8396 51.5312 29.9486 50.8806 29.9247C50.2114 29.9314 49.5478 29.8048 48.9295 29.5525C48.3113 29.3003 47.7513 28.9276 47.283 28.4569C46.8148 27.9862 46.4481 27.4272 46.2049 26.8135C45.9617 26.1998 45.847 25.544 45.8678 24.8855C45.856 24.2293 45.9768 23.5773 46.2232 22.9674C46.4696 22.3575 46.8366 21.802 47.3031 21.333C47.7695 20.864 48.3259 20.4909 48.9401 20.2354C49.5543 19.98 50.2139 19.8473 50.8806 19.8449C52.1846 19.8578 53.4378 20.344 54.4 21.2104L55.7871 19.8449C54.5002 18.6204 52.7767 17.9417 50.987 17.9548C50.0544 17.9422 49.1285 18.1121 48.2632 18.4548C47.3978 18.7974 46.6103 19.3058 45.9462 19.9506C45.2822 20.5954 44.7549 21.3636 44.3951 22.2106C44.0352 23.0577 43.8499 23.9667 43.8499 24.8848C43.8499 25.803 44.0352 26.712 44.3951 27.559C44.7549 28.4061 45.2822 29.1743 45.9462 29.8191C46.6103 30.4638 47.3978 30.9723 48.2632 31.3149C49.1285 31.6576 50.0544 31.8275 50.987 31.8149C51.9044 31.8653 52.8215 31.7122 53.6707 31.3669C54.52 31.0217 55.2796 30.493 55.8935 29.8201C57.0197 28.6223 57.6316 27.0421 57.6009 25.4102C57.6235 25.0218 57.5876 24.6322 57.4946 24.2541H50.88ZM99.3067 25.7256C99.0448 24.9195 98.5346 24.2136 97.8468 23.7059C97.159 23.1981 96.3277 22.9136 95.4683 22.8919C93.1214 22.8919 91.2012 24.6761 91.2012 27.4064C91.1847 27.9949 91.2886 28.5806 91.5065 29.1287C91.7245 29.6769 92.0521 30.1764 92.47 30.5975C92.8878 31.0186 93.3874 31.3527 93.939 31.5801C94.4906 31.8074 95.083 31.9233 95.681 31.9209C96.4243 31.928 97.1572 31.7486 97.8105 31.3996C98.4638 31.0505 99.016 30.5434 99.415 29.926L97.9215 28.8766C97.6917 29.2604 97.3642 29.5786 96.9712 29.7997C96.5783 30.0208 96.1336 30.1372 95.681 30.1374C95.2108 30.161 94.7444 30.043 94.3441 29.799C93.9438 29.5551 93.6286 29.1968 93.4404 28.7719L99.5214 26.2523L99.3073 25.7262L99.3067 25.7256ZM93.1207 27.197C93.0986 26.5475 93.3292 25.9141 93.7653 25.4262C94.2015 24.9382 94.8103 24.6325 95.4676 24.5714C95.8126 24.5601 96.1542 24.6422 96.455 24.8088C96.7559 24.9754 97.0045 25.2201 97.1738 25.5162L93.1207 27.197ZM88.1066 31.5022H90.1318V18.3741H88.1039L88.1066 31.5022ZM84.9076 23.8373C84.2631 23.1815 83.3811 22.8035 82.4544 22.7859C81.2749 22.8393 80.1618 23.3387 79.3471 24.18C78.5324 25.0212 78.0788 26.1395 78.0809 27.3017C78.0726 27.8743 78.1792 28.4429 78.3947 28.9748C78.6102 29.5068 78.9303 29.9915 79.3367 30.4013C79.7431 30.811 80.2277 31.1378 80.7627 31.3626C81.2978 31.5875 81.8726 31.706 82.4544 31.7116C82.8995 31.7149 83.3401 31.6228 83.7454 31.4416C84.1507 31.2603 84.511 30.9943 84.8013 30.6621H84.9076V31.2915C84.9076 32.9723 83.9478 33.9171 82.4544 33.9171C81.9607 33.9168 81.4794 33.7647 81.0778 33.4821C80.6761 33.1996 80.3741 32.8006 80.2138 32.341L78.5063 33.0731C78.8462 33.8535 79.4115 34.5184 80.1322 34.9849C80.8528 35.4515 81.6968 35.6993 82.5594 35.6974C84.9063 35.6974 86.8265 34.332 86.8265 31.0808V23.0993H84.9063V23.8347L84.9076 23.8373ZM82.5607 30.0314C81.8612 29.9793 81.2074 29.669 80.7304 29.1625C80.2534 28.6561 79.9884 27.991 79.9884 27.3004C79.9884 26.6098 80.2534 25.9447 80.7304 25.4383C81.2074 24.9319 81.8612 24.6216 82.5607 24.5695C83.9478 24.5695 85.0139 25.7243 85.0139 27.3004C85.0139 28.8766 83.9472 30.0288 82.5607 30.0288V30.0314ZM108.586 18.3767H103.787V31.5028H105.814V26.5644H108.588C109.15 26.5885 109.711 26.5004 110.237 26.3055C110.763 26.1105 111.244 25.8126 111.65 25.4299C112.056 25.0471 112.379 24.5873 112.6 24.0783C112.821 23.5693 112.935 23.0215 112.935 22.468C112.935 21.9144 112.821 21.3667 112.6 20.8576C112.379 20.3486 112.056 19.8888 111.65 19.506C111.244 19.1233 110.763 18.8254 110.237 18.6305C109.711 18.4355 109.15 18.3474 108.588 18.3715L108.586 18.3767ZM108.694 24.6768H105.814V20.1597H108.694C109.298 20.1582 109.88 20.3868 110.317 20.7975C110.754 21.2083 111.014 21.7695 111.04 22.3639C111.017 22.9691 110.762 23.5431 110.327 23.9713C109.891 24.3996 109.308 24.6506 108.694 24.6742V24.6768ZM120.96 22.7866C119.466 22.7866 117.973 23.4173 117.44 24.7828L119.253 25.5169C119.43 25.2039 119.696 24.9482 120.018 24.7806C120.34 24.6129 120.704 24.5405 121.067 24.5721C121.572 24.5349 122.074 24.6875 122.47 24.9994C122.866 25.3112 123.127 25.7591 123.201 26.2529V26.3576C122.581 26.0178 121.883 25.8374 121.173 25.8329C119.253 25.8329 117.333 26.8823 117.333 28.7725C117.35 29.1804 117.45 29.5807 117.627 29.9501C117.803 30.3196 118.053 30.6507 118.36 30.9244C118.668 31.198 119.028 31.4085 119.419 31.5438C119.811 31.6791 120.225 31.7363 120.639 31.7122C121.139 31.7285 121.635 31.6217 122.082 31.4016C122.53 31.1814 122.914 30.8548 123.2 30.4514H123.307V31.5028H125.227V26.4623C125.149 25.4205 124.658 24.4508 123.859 23.7629C123.061 23.075 122.019 22.7243 120.96 22.7866ZM120.746 30.0314C120.106 30.0314 119.146 29.7173 119.146 28.8772C119.146 27.8278 120.32 27.5118 121.28 27.5118C121.909 27.5142 122.529 27.6578 123.093 27.9318C123.011 28.4957 122.732 29.0139 122.304 29.3968C121.875 29.7797 121.324 30.0032 120.746 30.0288L120.746 30.0314ZM131.944 23.0993L129.705 28.7693H129.598L127.251 23.0993H125.117L128.639 31.0795L126.612 35.4894H128.641L134.081 23.0993H131.944ZM114.025 31.5002H116.051V18.3741H114.025V31.5002Z" fill="#0F0821"/>
<path d="M10.433 7.875C10.1042 8.29293 9.95146 8.81936 10.0063 9.34517V32.5511C9.98343 33.0906 10.1746 33.6178 10.5394 34.0212L10.647 34.1259L23.8736 21.1058V20.8951L10.433 7.875Z" fill="#0F0821"/>
<path d="M29.4618 25.5165L25.0884 21.2113V20.896L29.4618 16.5908L29.5682 16.6968L34.795 19.6365C36.2885 20.4766 36.2885 21.8407 34.795 22.6808L29.4618 25.5165Z" fill="#0F0821"/>
<path d="M28.9078 26.0602L24.428 21.6504L11.0938 34.7752C11.6268 35.2999 12.3745 35.2999 13.3343 34.8799L28.9078 26.0602Z" fill="#0F0821"/>
<path d="M28.9078 15.939L13.3343 7.22596C12.3745 6.70123 11.6268 6.8059 11.0938 7.33063L24.428 20.352L28.9078 15.9409V15.939Z" fill="#0F0821"/>
</g>
<defs>
<clipPath id="clip0_672_10982">
<path d="M0 6C0 2.68629 2.68629 0 6 0H138C141.314 0 144 2.68629 144 6V36C144 39.3137 141.314 42 138 42H6C2.68629 42 0 39.3137 0 36V6Z" fill="white"/>
</clipPath>
</defs>
</svg>
