<svg width="142" height="48" viewBox="0 0 142 48" fill="none" xmlns="http://www.w3.org/2000/svg">
<path d="M142 9.94853V8.84347C141.981 8.04998 141.907 7.25876 141.779 6.47549C141.655 5.69003 141.41 4.92852 141.053 4.21801C140.683 3.50986 140.209 2.86076 139.648 2.29205C139.079 1.72449 138.423 1.25032 137.706 0.887052C136.993 0.531963 136.233 0.282043 135.449 0.145084C134.659 0.0345716 133.862 -0.012938 133.065 0.00300538H8.9194C8.12231 -0.0122771 7.32526 0.0352293 6.53563 0.145084C5.75124 0.282043 4.99085 0.531963 4.27815 0.887052C2.84736 1.61708 1.68621 2.78377 0.962979 4.21801C0.600862 4.9278 0.350587 5.68927 0.221012 6.47549C0.0926658 7.25876 0.018818 8.04998 0 8.84347V38.4748C0.018818 39.2683 0.0926658 40.0595 0.221012 40.8428C0.482836 42.4237 1.22725 43.885 2.3522 45.0262C2.92138 45.5827 3.57054 46.0509 4.27815 46.4155C4.98722 46.7826 5.74866 47.0382 6.53563 47.1732C7.32401 47.2989 8.12107 47.3626 8.9194 47.3626H133.065C133.864 47.3577 134.661 47.2891 135.449 47.1574C136.236 47.0224 136.997 46.7668 137.706 46.3997C139.14 45.6764 140.307 44.5153 141.037 43.0845C141.396 42.3749 141.641 41.613 141.763 40.827C141.892 40.0438 141.965 39.2525 141.984 38.459V11.243C142 10.801 142 10.3748 142 9.94853ZM140.974 36.0753V38.459C140.964 39.1941 140.901 39.9275 140.784 40.6534C140.66 41.342 140.432 42.0075 140.106 42.6267C139.788 43.2106 139.383 43.7429 138.906 44.2053C138.415 44.695 137.85 45.1051 137.232 45.4209C136.611 45.735 135.946 45.9532 135.259 46.0681C134.529 46.1899 133.79 46.2533 133.049 46.2576H8.93519C8.19462 46.2533 7.45557 46.1899 6.72507 46.0681C6.03903 45.9507 5.37409 45.7326 4.75175 45.4209C4.13886 45.1303 3.57443 44.7469 3.07838 44.2843C2.58765 43.8035 2.18197 43.243 1.8786 42.6267C1.56689 42.0099 1.34875 41.3502 1.23135 40.6691C1.11336 39.9329 1.05004 39.1889 1.04191 38.4432V8.87504C1.04947 8.13463 1.1128 7.39583 1.23135 6.66493C1.35328 5.99513 1.57128 5.34646 1.8786 4.73897C2.17734 4.10579 2.58324 3.52899 3.07838 3.03402C3.56081 2.54102 4.12075 2.13039 4.73596 1.81846C5.35674 1.503 6.02227 1.28471 6.70928 1.17121C7.44556 1.05322 8.18956 0.989899 8.93519 0.981771H133.049C133.789 0.989333 134.528 1.05266 135.259 1.17121C135.956 1.28702 136.631 1.50513 137.264 1.81846C138.495 2.46869 139.489 3.4907 140.106 4.73897C140.424 5.35169 140.637 6.01333 140.737 6.6965C140.865 7.43743 140.938 8.18661 140.958 8.93819V36.0753H140.974Z" fill="#B6B7B9"/>
<path d="M49.8694 13.3905C49.906 14.1738 49.6208 14.938 49.0801 15.5059C48.4743 16.1324 47.6303 16.4711 46.7595 16.4373C45.8779 16.4691 45.0232 16.1306 44.4024 15.5038C43.7816 14.877 43.4514 14.0191 43.4916 13.1379C43.4514 12.2566 43.7816 11.3987 44.4024 10.7719C45.0232 10.1452 45.8779 9.80668 46.7595 9.83848C47.2047 9.83925 47.6451 9.93056 48.0539 10.1069C48.4396 10.2569 48.7815 10.5011 49.0485 10.8172L48.496 11.3698C48.0674 10.8596 47.4249 10.5793 46.7595 10.612C46.1133 10.6058 45.4923 10.8622 45.0387 11.3224C44.5532 11.7993 44.2899 12.4578 44.3125 13.1379C44.2899 13.818 44.5532 14.4765 45.0387 14.9533C46.0082 15.9019 47.5581 15.9019 48.5275 14.9533C48.8541 14.6053 49.0446 14.1514 49.0643 13.6746H46.7595V12.9169H49.822C49.8527 13.0729 49.8686 13.2314 49.8694 13.3905Z" fill="#B6B7B9"/>
<path d="M54.7148 10.755H51.8424V12.7599H54.4307V13.5176H51.8424V15.5225H54.7148V16.2961H51.0375V9.98145H54.7148V10.755Z" fill="#B6B7B9"/>
<path d="M58.1413 16.2961H57.3204V10.755H55.5681V9.98145H59.9094V10.755H58.1413V16.2961Z" fill="#B6B7B9"/>
<path d="M63.0671 16.2961V9.98145H63.8878V16.2961H63.0671Z" fill="#B6B7B9"/>
<path d="M67.4396 16.2961H66.6345V10.755H64.8664V9.98145H69.2077V10.755H67.4396V16.2961Z" fill="#B6B7B9"/>
<path d="M77.4166 15.4747C76.8057 16.0927 75.9728 16.4405 75.1039 16.4405C74.2349 16.4405 73.402 16.0927 72.7911 15.4747C71.5078 14.1569 71.5078 12.0566 72.7911 10.7387C73.402 10.1207 74.2349 9.77295 75.1039 9.77295C75.9728 9.77295 76.8057 10.1207 77.4166 10.7387C78.6999 12.0566 78.6999 14.1569 77.4166 15.4747ZM73.391 14.9537C73.8414 15.4187 74.4645 15.6759 75.1118 15.6641C75.7543 15.6754 76.3723 15.4178 76.8167 14.9537C77.2947 14.4731 77.552 13.8157 77.5271 13.1383C77.552 12.4608 77.2947 11.8034 76.8167 11.3228C76.3723 10.8587 75.7543 10.6012 75.1118 10.6124C74.4645 10.6006 73.8414 10.8579 73.391 11.3228C72.9171 11.8051 72.6654 12.4629 72.6964 13.1383C72.6654 13.8137 72.9171 14.4715 73.391 14.9537Z" fill="#B6B7B9"/>
<path d="M79.4849 16.2961V9.98145H80.4321L83.5894 14.8911V9.98145H84.3945V16.2961H83.5894L80.4321 11.1496V16.2961H79.4849Z" fill="#B6B7B9"/>
<path d="M71.6547 25.4979C69.1828 25.5066 67.1843 27.5146 67.1872 29.9865C67.1901 32.4585 69.1933 34.4617 71.6653 34.4646C74.1373 34.4676 76.1452 32.4691 76.1539 29.9971C76.18 28.796 75.7144 27.6364 74.8649 26.7869C74.0154 25.9374 72.8558 25.4718 71.6547 25.4979ZM71.6547 32.6808C70.5365 32.7852 69.4694 32.1905 68.9701 31.1845C68.4707 30.1785 68.6423 28.9689 69.4016 28.1414C70.161 27.3139 71.3514 27.0393 72.3965 27.4506C73.4416 27.8618 74.1256 28.874 74.1174 29.9971C74.171 31.4155 73.0725 32.6126 71.6547 32.6808ZM61.8671 25.4979C59.393 25.4979 57.3866 27.502 57.3837 29.9761C57.3808 32.4501 59.3826 34.4589 61.8566 34.4647C64.3306 34.4705 66.3418 32.4711 66.3505 29.9971C66.3764 28.7988 65.913 27.6417 65.0669 26.7927C64.2209 25.9437 63.0654 25.4762 61.8671 25.4979ZM61.8671 32.6808C60.752 32.7587 59.7031 32.1454 59.2243 31.1354C58.7454 30.1254 58.9344 28.9251 59.7005 28.1112C60.4666 27.2972 61.6532 27.0359 62.6903 27.4527C63.7275 27.8695 64.4032 28.8794 64.3929 29.9971C64.4185 30.6892 64.1656 31.3626 63.691 31.8669C63.2164 32.3712 62.5594 32.6644 61.8671 32.6808ZM50.2166 26.8398V28.7342H54.7473C54.6849 29.6266 54.3234 30.472 53.7212 31.1337C52.7956 32.0618 51.5267 32.5648 50.2166 32.5229C47.4266 32.5229 45.1649 30.2612 45.1649 27.4712C45.1649 24.6813 47.4266 22.4195 50.2166 22.4195C51.4895 22.3954 52.7186 22.8847 53.6265 23.7772L54.9684 22.4353C53.711 21.1873 52.0038 20.4987 50.2324 20.5251C46.3962 20.5251 43.2863 23.635 43.2863 27.4712C43.2863 31.3074 46.3962 34.4173 50.2324 34.4173C51.9635 34.5207 53.6579 33.8891 54.8991 32.678C56.1403 31.4669 56.8131 29.7884 56.7522 28.0553C56.7468 27.6454 56.6938 27.2375 56.5944 26.8398H50.2166ZM97.8762 28.4184C97.3165 26.763 95.7868 25.6299 94.0401 25.5768C92.9024 25.6055 91.8237 26.0896 91.0462 26.9206C90.2686 27.7516 89.8571 28.86 89.904 29.9971C89.8783 31.1856 90.3358 32.3337 91.1719 33.1788C92.0081 34.0239 93.1513 34.4936 94.34 34.4805C95.8374 34.4862 97.2373 33.7388 98.0656 32.4914L96.487 31.481C96.0146 32.248 95.1776 32.7143 94.2769 32.7124C93.3459 32.7457 92.4887 32.2077 92.1141 31.3547L98.0972 28.892L97.8762 28.4184ZM91.7668 29.9181C91.7237 29.2611 91.9473 28.6144 92.387 28.1242C92.8266 27.634 93.4453 27.3417 94.1032 27.3134C94.8018 27.2589 95.4637 27.6336 95.7766 28.2606L91.7668 29.9181ZM86.9045 34.1805H88.8779V21.0303H86.9045V34.1805ZM83.7472 26.4925C83.1382 25.8445 82.2842 25.4834 81.395 25.4979C79.0264 25.6387 77.1776 27.6006 77.1776 29.9734C77.1776 32.3462 79.0264 34.3081 81.395 34.4489C82.2373 34.4267 83.0323 34.0549 83.5894 33.4228V34.07C83.5894 35.7907 82.6738 36.7064 81.2056 36.7064C80.203 36.6853 79.312 36.0622 78.9481 35.1277L77.2747 35.8223C77.9328 37.4282 79.5017 38.4721 81.2372 38.4588C83.542 38.4588 85.4838 37.101 85.4838 33.8016V25.7663H83.6841L83.7472 26.4925ZM81.4266 32.6808C80.0114 32.5726 78.9182 31.3928 78.9182 29.9734C78.9182 28.554 80.0114 27.3742 81.4266 27.266C82.1115 27.298 82.7539 27.6069 83.2064 28.1219C83.6589 28.637 83.8826 29.3138 83.8262 29.9971C83.8737 30.6735 83.6454 31.3404 83.1934 31.846C82.7415 32.3515 82.1042 32.6526 81.4266 32.6808ZM107.08 21.0303H102.344V34.1805H104.301V29.192H107.048C108.567 29.2865 110.012 28.53 110.8 27.2284C111.588 25.9268 111.588 24.2954 110.8 22.9939C110.012 21.6923 108.567 20.9358 107.048 21.0303H107.08ZM107.08 27.3449H104.333V22.8616H107.127C107.976 22.7904 108.792 23.2029 109.239 23.9283C109.685 24.6537 109.685 25.5685 109.239 26.2939C108.792 27.0194 107.976 27.4319 107.127 27.3607L107.08 27.3449ZM119.22 25.4663C117.755 25.3722 116.376 26.1612 115.715 27.4712L117.452 28.1974C117.809 27.5501 118.514 27.1731 119.251 27.2344C120.288 27.1334 121.211 27.8878 121.319 28.9236V29.0657C120.687 28.732 119.982 28.5586 119.267 28.5605C117.388 28.5605 115.478 29.5866 115.478 31.5126C115.509 32.3461 115.882 33.1299 116.51 33.6796C117.137 34.2292 117.963 34.4961 118.793 34.4173C119.792 34.4792 120.746 33.996 121.288 33.1544H121.367V34.1647H123.261V29.113C123.276 28.0805 122.847 27.0911 122.083 26.3964C121.319 25.7018 120.293 25.3688 119.267 25.4821L119.22 25.4663ZM118.983 32.665C118.336 32.665 117.404 32.3493 117.404 31.5442C117.404 30.739 118.525 30.1392 119.488 30.1392C120.116 30.1247 120.737 30.2772 121.288 30.5812C121.15 31.739 120.195 32.6272 119.03 32.6808L118.983 32.665ZM130.033 25.7505L127.776 31.4494L125.44 25.7505H123.387L126.892 33.7227L124.903 38.1429H126.939L132.338 25.7505H130.033ZM112.479 34.1805H114.436V21.0303H112.479V34.1805Z" fill="#B6B7B9"/>
<path d="M33.6408 21.726L13.8129 10.3913C13.4782 10.1938 13.0964 10.0902 12.7078 10.0913H12.2974C12.0472 10.1403 11.8071 10.231 11.587 10.3597C10.8995 10.7566 10.4776 11.4918 10.4817 12.2857V35.0025C10.4669 36.0771 11.2377 37.002 12.2974 37.1811H12.7078C13.0964 37.1822 13.4782 37.0785 13.8129 36.8811L33.6408 25.5464C34.3129 25.1625 34.7373 24.4571 34.7616 23.6835C34.7594 22.8873 34.332 22.1529 33.6408 21.7576V21.726ZM25.7475 19.4685L23.8216 22.1049L18.8646 15.4745L25.7475 19.4685ZM32.6305 23.9046L18.7699 31.7978L27.4998 20.5262L32.6778 23.4941C32.769 23.5391 32.8292 23.6294 32.8357 23.7309C32.8349 23.8381 32.7739 23.9358 32.6778 23.9835L32.6305 23.9046Z" fill="#B6B7B9"/>
</svg>
