<svg width="54" height="54" viewBox="0 0 54 54" fill="none" xmlns="http://www.w3.org/2000/svg">
<path d="M12.5999 25.1997H41.3995C48.3474 25.1997 53.9994 19.5478 53.9994 12.5999C53.9994 5.65193 48.3474 0 41.3995 0H12.5999C5.65193 0 0 5.65193 0 12.5999C0 19.5478 5.65193 25.1997 12.5999 25.1997ZM12.5999 1.79998H41.3995C47.3547 1.79998 52.1994 6.64462 52.1994 12.5999C52.1994 18.5551 47.3547 23.3997 41.3995 23.3997H12.5999C6.64462 23.3997 1.79998 18.5551 1.79998 12.5999C1.79998 6.64462 6.64462 1.79998 12.5999 1.79998Z" fill="#1E2348"/>
<path d="M46.2595 29.7782C46.2505 29.7746 46.2415 29.7719 46.2325 29.7683C44.743 29.1473 43.1113 28.8008 41.3995 28.8008H12.5999C10.8881 28.8008 9.25639 29.1473 7.76691 29.7683C7.75791 29.7719 7.74891 29.7746 7.73991 29.7782C3.19856 31.6834 0 36.1744 0 41.4006C0 48.3486 5.65193 54.0005 12.5999 54.0005H41.3995C43.1113 54.0005 44.743 53.654 46.2325 53.033C46.2415 53.0294 46.2505 53.0267 46.2586 53.0231C50.8008 51.1178 53.9994 46.6269 53.9994 41.4006C53.9994 36.1744 50.8008 31.6834 46.2595 29.7782ZM51.1941 36.8791C51.8331 38.257 52.1994 39.7852 52.1994 41.4006C52.1994 43.0161 51.8331 44.5443 51.1941 45.9222C50.7495 45.9762 50.3994 46.3407 50.3994 46.8006C50.3994 46.9437 50.4399 47.0742 50.4993 47.1939C50.1213 47.7861 49.6884 48.3378 49.206 48.8435C49.0449 48.696 48.8352 48.6006 48.5994 48.6006C48.1026 48.6006 47.6994 49.0037 47.6994 49.5005C47.6994 49.6976 47.7759 49.8695 47.883 50.018C46.075 51.3815 43.834 52.2005 41.3995 52.2005C41.3995 51.7037 40.9963 51.3005 40.4995 51.3005C40.0027 51.3005 39.5995 51.7037 39.5995 52.2005H35.9996C35.9996 51.7037 35.5964 51.3005 35.0996 51.3005C34.6028 51.3005 34.1996 51.7037 34.1996 52.2005H30.5996C30.5996 51.7037 30.1964 51.3005 29.6997 51.3005C29.2029 51.3005 28.7997 51.7037 28.7997 52.2005H25.1997C25.1997 51.7037 24.7965 51.3005 24.2997 51.3005C23.8029 51.3005 23.3997 51.7037 23.3997 52.2005H19.7998C19.7998 51.7037 19.3966 51.3005 18.8998 51.3005C18.403 51.3005 17.9998 51.7037 17.9998 52.2005H14.3998C14.3998 51.7037 13.9966 51.3005 13.4998 51.3005C13.003 51.3005 12.5999 51.7037 12.5999 52.2005C10.1654 52.2005 7.92441 51.3815 6.11633 50.018C6.22343 49.8695 6.29993 49.6976 6.29993 49.5005C6.29993 49.0037 5.89673 48.6006 5.39994 48.6006C5.16414 48.6006 4.95444 48.696 4.79424 48.8435C2.94387 46.9041 1.79998 44.286 1.79998 41.4006C1.79998 39.7852 2.16627 38.257 2.80527 36.8791C3.24986 36.8251 3.59996 36.4606 3.59996 36.0007C3.59996 35.8576 3.55946 35.7271 3.50006 35.6074C3.87805 35.0152 4.31095 34.4635 4.79334 33.9577C4.95444 34.1053 5.16414 34.2007 5.39994 34.2007C5.89673 34.2007 6.29993 33.7975 6.29993 33.3007C6.29993 33.1036 6.22343 32.9317 6.11633 32.7832C7.92441 31.4198 10.1654 30.6008 12.5999 30.6008C12.5999 31.0976 13.003 31.5007 13.4998 31.5007C13.9966 31.5007 14.3998 31.0976 14.3998 30.6008H17.9998C17.9998 31.0976 18.403 31.5007 18.8998 31.5007C19.3966 31.5007 19.7998 31.0976 19.7998 30.6008H23.3997C23.3997 31.0976 23.8029 31.5007 24.2997 31.5007C24.7965 31.5007 25.1997 31.0976 25.1997 30.6008H28.7997C28.7997 31.0976 29.2029 31.5007 29.6997 31.5007C30.1964 31.5007 30.5996 31.0976 30.5996 30.6008H34.1996C34.1996 31.0976 34.6028 31.5007 35.0996 31.5007C35.5964 31.5007 35.9996 31.0976 35.9996 30.6008H39.5995C39.5995 31.0976 40.0027 31.5007 40.4995 31.5007C40.9963 31.5007 41.3995 31.0976 41.3995 30.6008C43.834 30.6008 46.075 31.4198 47.883 32.7832C47.7759 32.9317 47.6994 33.1036 47.6994 33.3007C47.6994 33.7975 48.1026 34.2007 48.5994 34.2007C48.8352 34.2007 49.0449 34.1053 49.2051 33.9577C49.6875 34.4635 50.1204 35.0161 50.4984 35.6074C50.4399 35.7271 50.3994 35.8576 50.3994 36.0007C50.3994 36.4606 50.7495 36.8251 51.1941 36.8791Z" fill="#1E2348"/>
<path d="M41.4022 21.6014C46.3648 21.6014 50.4021 17.564 50.4021 12.6015C50.4021 7.63892 46.3648 3.60156 41.4022 3.60156C36.4397 3.60156 32.4023 7.63892 32.4023 12.6015C32.4023 17.564 36.4397 21.6014 41.4022 21.6014ZM41.4022 5.40154C45.3721 5.40154 48.6022 8.6316 48.6022 12.6015C48.6022 16.5713 45.3721 19.8014 41.4022 19.8014C37.4324 19.8014 34.2023 16.5713 34.2023 12.6015C34.2023 8.6316 37.4324 5.40154 41.4022 5.40154Z" fill="#1E2348"/>
<path d="M10.0995 50.0393C10.2642 50.2535 10.5108 50.4002 10.8015 50.4002C10.9554 50.4002 11.094 50.3516 11.2209 50.2832C11.6718 50.3525 12.1308 50.4002 12.6015 50.4002C13.5905 50.4002 14.54 50.2337 15.431 49.9376C15.5858 50.2094 15.8666 50.4002 16.2014 50.4002C16.6982 50.4002 17.1014 49.997 17.1014 49.5002C17.1014 49.3994 17.0744 49.3076 17.0447 49.2167C18.8078 48.2105 20.1974 46.6283 20.9579 44.7248C21.1208 44.894 21.3476 45.0002 21.6014 45.0002C22.0981 45.0002 22.5013 44.597 22.5013 44.1003C22.5013 43.6035 22.0981 43.2003 21.6014 43.2003C21.5339 43.2003 21.4745 43.2246 21.4115 43.239C21.5348 42.645 21.6014 42.0303 21.6014 41.4003C21.6014 40.7703 21.5348 40.1556 21.4115 39.5616C21.4745 39.576 21.5339 39.6003 21.6014 39.6003C22.0981 39.6003 22.5013 39.1971 22.5013 38.7003C22.5013 38.2035 22.0981 37.8003 21.6014 37.8003C21.3476 37.8003 21.1208 37.9065 20.957 38.0757C20.6618 37.3359 20.2685 36.6474 19.7978 36.0183C19.7978 36.012 19.8014 36.0066 19.8014 36.0003C19.8014 35.554 19.4702 35.1994 19.0436 35.1292C18.455 34.5244 17.7818 34.0042 17.0438 33.5839C17.0744 33.493 17.1014 33.4012 17.1014 33.3004C17.1014 32.8036 16.6982 32.4004 16.2014 32.4004C15.8666 32.4004 15.5858 32.5912 15.431 32.863C14.54 32.5669 13.5905 32.4004 12.6015 32.4004C12.1308 32.4004 11.6718 32.4481 11.2209 32.5174C11.094 32.449 10.9554 32.4004 10.8015 32.4004C10.5108 32.4004 10.2642 32.5471 10.0995 32.7613C6.35193 33.8494 3.60156 37.3071 3.60156 41.4003C3.60156 45.4934 6.35193 48.9512 10.0995 50.0393ZM12.6015 34.2004C16.5713 34.2004 19.8014 37.4304 19.8014 41.4003C19.8014 45.3701 16.5713 48.6002 12.6015 48.6002C8.6316 48.6002 5.40154 45.3701 5.40154 41.4003C5.40154 37.4304 8.6316 34.2004 12.6015 34.2004Z" fill="#1E2348"/>
</svg>
