<svg width="60" height="60" viewBox="0 0 60 60" fill="none" xmlns="http://www.w3.org/2000/svg">
<path d="M30 0C26.134 0 23 3.134 23 7C23.0044 10.8641 26.1359 13.9956 30 14C33.866 14 37 10.866 37 7C37 3.134 33.866 0 30 0ZM30 12C27.2386 12 25 9.76138 25 7C25.0033 4.24 27.24 2.00325 30 2C32.7614 2 35 4.23863 35 7C35 9.76138 32.7614 12 30 12Z" fill="#1E2348"/>
<path d="M33 15H27C22.0318 15.0055 18.0055 19.0318 18 24V41H22V60H24V37H22V39H20V24C20.0044 20.1359 23.1359 17.0044 27 17H33C36.8641 17.0044 39.9956 20.1359 40 24V39H38V37H36V60H38V41H42V24C41.9945 19.0318 37.9683 15.0055 33 15Z" fill="#1E2348"/>
<path d="M31 41H29V60H31V41Z" fill="#1E2348"/>
<path d="M50 10C46.6862 10 44 12.6862 44 16C44.0033 19.3124 46.6876 21.9967 50 22C53.3138 22 56 19.3138 56 16C56 12.6862 53.3138 10 50 10ZM50 20C47.7909 20 46 18.2091 46 16C46 13.7909 47.7909 12 50 12C52.2091 12 54 13.7909 54 16C54 18.2091 52.2091 20 50 20Z" fill="#1E2348"/>
<path d="M53 23H44V25H53C55.76 25.0032 57.9967 27.24 58 30V43H56V41H54V60H56V45H60V30C59.9956 26.1359 56.8641 23.0044 53 23Z" fill="#1E2348"/>
<path d="M44 41V43H40V45H44V60H46V41H44Z" fill="#1E2348"/>
<path d="M51 45H49V60H51V45Z" fill="#1E2348"/>
<path d="M10 10C6.68625 10 4 12.6862 4 16C4.00325 19.3124 6.68762 21.9967 10 22C13.3138 22 16 19.3138 16 16C16 12.6862 13.3138 10 10 10ZM10 20C7.79087 20 6 18.2091 6 16C6 13.7909 7.79087 12 10 12C12.2091 12 14 13.7909 14 16C14 18.2091 12.2091 20 10 20Z" fill="#1E2348"/>
<path d="M7 23C3.13587 23.0044 0.004375 26.1359 0 30V45H4V60H6V41H4V43H2V30C2.00325 27.24 4.24 25.0032 7 25H16V23H7Z" fill="#1E2348"/>
<path d="M16 43V41H14V60H16V45H20V43H16Z" fill="#1E2348"/>
<path d="M11 45H9V60H11V45Z" fill="#1E2348"/>
</svg>
