<svg width="60" height="59" viewBox="0 0 60 59" fill="none" xmlns="http://www.w3.org/2000/svg">
<path d="M48.3885 43.7057C49.9197 43.7057 51.4166 43.2517 52.6897 42.4009C53.9629 41.5502 54.9552 40.3411 55.5412 38.9264C56.1272 37.5118 56.2805 35.9551 55.9818 34.4533C55.683 32.9515 54.9457 31.572 53.8629 30.4893C52.7802 29.4065 51.4007 28.6692 49.8989 28.3704C48.3971 28.0717 46.8404 28.225 45.4258 28.811C44.0111 29.397 42.802 30.3893 41.9512 31.6625C41.1005 32.9356 40.6465 34.4325 40.6465 35.9637C40.6488 38.0163 41.4652 39.9842 42.9166 41.4356C44.368 42.887 46.3359 43.7034 48.3885 43.7057ZM48.3885 30.1572C49.5369 30.1572 50.6595 30.4977 51.6144 31.1358C52.5693 31.7738 53.3135 32.6806 53.753 33.7416C54.1925 34.8026 54.3075 35.9701 54.0834 37.0965C53.8594 38.2228 53.3064 39.2575 52.4943 40.0695C51.6823 40.8816 50.6476 41.4346 49.5213 41.6586C48.3949 41.8827 47.2274 41.7677 46.1664 41.3282C45.1054 40.8887 44.1986 40.1445 43.5606 39.1896C42.9225 38.2347 42.582 37.1121 42.582 35.9637C42.5837 34.4243 43.1961 32.9484 44.2846 31.8598C45.3732 30.7713 46.8491 30.1589 48.3885 30.1572Z" fill="#1E2348"/>
<path d="M47.1365 34.7126L47.4199 34.429V37.8993C47.1632 37.8993 46.9171 38.0012 46.7356 38.1827C46.5541 38.3642 46.4522 38.6104 46.4522 38.867C46.4522 39.1237 46.5541 39.3699 46.7356 39.5513C46.9171 39.7328 47.1632 39.8348 47.4199 39.8348H49.3554C49.6121 39.8348 49.8582 39.7328 50.0397 39.5513C50.2212 39.3699 50.3232 39.1237 50.3232 38.867C50.3232 38.6104 50.2212 38.3642 50.0397 38.1827C49.8582 38.0012 49.6121 37.8993 49.3554 37.8993V33.0605C49.3554 32.8039 49.2534 32.5577 49.072 32.3762C48.8905 32.1947 48.6443 32.0928 48.3877 32.0928H47.4199C47.2928 32.0928 47.167 32.1178 47.0496 32.1664C46.9321 32.2151 46.8254 32.2863 46.7356 32.3762L45.7678 33.344C45.678 33.4338 45.6067 33.5405 45.558 33.6579C45.5094 33.7753 45.4844 33.9012 45.4844 34.0283C45.4844 34.1554 45.5094 34.2812 45.558 34.3986C45.6067 34.516 45.678 34.6227 45.7678 34.7126C45.8577 34.8025 45.9644 34.8738 46.0818 34.9224C46.1992 34.971 46.3251 34.9961 46.4522 34.9961C46.5792 34.9961 46.7051 34.971 46.8225 34.9224C46.9399 34.8738 47.0466 34.8025 47.1365 34.7126Z" fill="#1E2348"/>
<path d="M56.2106 44.5391C57.5605 43.3075 58.6007 41.7747 59.2465 40.0653C59.8924 38.3559 60.1256 36.5183 59.9274 34.7017C59.7291 32.8852 59.1049 31.1411 58.1054 29.6113C57.106 28.0816 55.7596 26.8093 54.1758 25.8979C52.592 24.9866 50.8154 24.4619 48.9905 24.3667C47.1657 24.2714 45.3442 24.6082 43.674 25.3497C42.0039 26.0911 40.5323 27.2163 39.3791 28.6337C38.2258 30.0511 37.4233 31.7207 37.037 33.5067L28.0648 28.615V24.8145C29.2554 24.0192 30.2314 22.9427 30.9066 21.6802C31.5818 20.4177 31.9353 19.0082 31.9358 17.5765V11.8201C32.7278 11.1098 33.4117 10.2876 33.9662 9.37968C34.7635 8.08934 35.3735 6.69232 35.7779 5.23044C35.8211 5.06284 35.8184 4.88669 35.7701 4.7205C35.7217 4.55431 35.6295 4.40421 35.5031 4.28597C35.3766 4.16773 35.2207 4.08572 35.0517 4.04854C34.8826 4.01137 34.7067 4.0204 34.5424 4.0747C34.4449 4.1047 32.1283 4.78733 29.7169 2.37594C26.7071 -0.633772 22.8357 0.0118396 22.1306 0.161599C21.6576 0.197719 21.1911 0.294188 20.7426 0.448658C19.8232 0.7645 18.9723 1.25224 18.2351 1.88589C17.0652 1.46068 15.1896 1.46516 13.7335 2.39529C12.0297 3.48401 10.4597 6.02436 12.5808 11.9358V17.5765C12.5813 19.0082 12.9348 20.4177 13.61 21.6802C14.2852 22.9427 15.2613 24.0192 16.4518 24.8145V28.6089L2.66243 35.97C1.86002 36.3707 1.18555 36.9877 0.715113 37.7513C0.244679 38.5149 -0.00299695 39.3948 2.7369e-05 40.2917V52.4156C2.7369e-05 52.6723 0.101987 52.9184 0.283475 53.0999C0.464964 53.2814 0.711115 53.3834 0.967779 53.3834H37.4061L36.831 54.9934C36.7734 55.1547 36.7596 55.3283 36.7911 55.4966C36.8226 55.6649 36.8981 55.8219 37.01 55.9514C37.1219 56.081 37.2662 56.1785 37.4282 56.2341C37.5901 56.2897 37.7639 56.3014 37.9318 56.2679L42.2625 55.4016L44.7994 57.9387C44.9193 58.0585 45.0685 58.1448 45.2322 58.1889C45.3959 58.2329 45.5683 58.2332 45.7321 58.1897C45.896 58.1462 46.0455 58.0604 46.1658 57.941C46.286 57.8215 46.3728 57.6725 46.4174 57.509L48.3876 50.2871L50.3572 57.509C50.4018 57.6725 50.4886 57.8215 50.6089 57.941C50.7291 58.0604 50.8787 58.1462 51.0425 58.1897C51.2063 58.2332 51.3787 58.2329 51.5424 58.1889C51.7061 58.1448 51.8553 58.0585 51.9752 57.9387L54.5121 55.4016L58.8428 56.2679C59.0107 56.3014 59.1845 56.2897 59.3465 56.2341C59.5084 56.1785 59.6527 56.081 59.7646 55.9514C59.8765 55.8219 59.9521 55.6649 59.9835 55.4966C60.015 55.3283 60.0012 55.1547 59.9437 54.9934L56.2106 44.5391ZM48.3876 26.2863C50.3016 26.2863 52.1727 26.8539 53.7642 27.9173C55.3556 28.9806 56.596 30.4921 57.3285 32.2604C58.0609 34.0287 58.2526 35.9746 57.8792 37.8518C57.5058 39.7291 56.5841 41.4534 55.2307 42.8069C53.8772 44.1603 52.1529 45.082 50.2756 45.4554C48.3983 45.8288 46.4525 45.6371 44.6842 44.9047C42.9159 44.1722 41.4044 42.9318 40.341 41.3404C39.2777 39.7489 38.7101 37.8778 38.7101 35.9638C38.713 33.3981 39.7335 30.9382 41.5478 29.124C43.362 27.3097 45.8219 26.2892 48.3876 26.2863ZM25.1616 51.4478H19.3551V43.0311L20.8407 40.8026H23.676L25.1616 43.0311V51.4478ZM17.2425 30.3811L20.8247 33.9632L16.7191 37.3845L13.775 32.232L17.2425 30.3811ZM23.5958 38.8671H20.9209L20.0511 37.1274L22.2583 35.2881L24.4655 37.1274L23.5958 38.8671ZM23.6919 33.9632L27.2693 30.3858L30.7212 32.268L27.7975 37.385L23.6919 33.9632ZM14.5929 4.15479C15.7671 3.24752 17.4236 3.57329 17.7249 3.76575C17.9081 3.93783 18.1512 4.03185 18.4025 4.0279C18.6539 4.02395 18.8939 3.92234 19.0716 3.74458C20.6694 2.14682 22.2045 2.09396 22.2583 2.09251C22.3362 2.09345 22.4138 2.08406 22.4892 2.06456C22.6265 2.03142 25.8846 1.28093 28.3483 3.74458C30.2259 5.62214 32.129 6.07819 33.4427 6.11557C33.1325 6.90817 32.7501 7.67061 32.3004 8.3933C30.8875 10.6338 29.1369 11.77 27.0971 11.77C21.9336 11.77 19.3255 7.5793 19.2158 7.39893C19.1446 7.28089 19.049 7.17943 18.9354 7.10135C18.8218 7.02326 18.6928 6.97034 18.5571 6.94614C18.4214 6.92194 18.2821 6.92701 18.1485 6.96102C18.0149 6.99502 17.8901 7.05718 17.7825 7.14332L14.0293 10.1461C13.1671 7.21276 13.3571 5.10899 14.5929 4.15479ZM14.5163 17.5765V12.2351L18.1974 9.29016C19.413 10.8066 22.357 13.7055 27.0971 13.7055C28.0982 13.7089 29.0884 13.4968 30.0003 13.0836V17.5765C29.9983 19.3725 29.2839 21.0944 28.0139 22.3644C26.744 23.6344 25.0221 24.3487 23.2261 24.3508H21.2906C19.4945 24.3487 17.7727 23.6344 16.5027 22.3644C15.2327 21.0944 14.5184 19.3725 14.5163 17.5765ZM21.2906 26.2863H23.2261C24.2152 26.2867 25.1971 26.1178 26.1293 25.7869V28.7888L22.2583 32.6598L18.3873 28.7888V25.7869C19.3195 26.1178 20.3014 26.2867 21.2906 26.2863ZM1.93553 40.2917C1.93369 39.7522 2.08308 39.2229 2.36674 38.7639C2.65041 38.305 3.05701 37.9346 3.54043 37.695C3.54817 37.6911 3.55579 37.6871 3.56329 37.6829L12.0674 33.1437L15.6118 39.347C15.6819 39.4697 15.7782 39.5757 15.8936 39.6573C16.0091 39.7389 16.1411 39.7942 16.2803 39.8193C16.4194 39.8444 16.5624 39.8387 16.6991 39.8026C16.8359 39.7665 16.963 39.7008 17.0717 39.6103L18.5233 38.4006L19.2058 39.7655L17.5818 42.2015C17.4759 42.3604 17.4195 42.5471 17.4196 42.7381V51.4478H9.67755V46.6091C9.67755 46.3524 9.57559 46.1063 9.3941 45.9248C9.21261 45.7433 8.96646 45.6413 8.70979 45.6413C8.45313 45.6413 8.20698 45.7433 8.02549 45.9248C7.844 46.1063 7.74204 46.3524 7.74204 46.6091V51.4478H1.93553V40.2917ZM36.7746 51.4478V46.6091C36.7746 46.3524 36.6726 46.1063 36.4911 45.9248C36.3097 45.7433 36.0635 45.6413 35.8068 45.6413C35.5502 45.6413 35.304 45.7433 35.1225 45.9248C34.941 46.1063 34.8391 46.3524 34.8391 46.6091V51.4478H27.0971V42.7381C27.0971 42.547 27.0405 42.3602 26.9345 42.2012L25.3105 39.7653L25.993 38.4004L27.4446 39.6101C27.5533 39.7006 27.6804 39.7662 27.8171 39.8023C27.9539 39.8384 28.0968 39.8441 28.236 39.819C28.3752 39.7939 28.5071 39.7386 28.6226 39.657C28.7381 39.5754 28.8343 39.4695 28.9045 39.3467L32.4202 33.1942L36.7812 35.5722C36.777 35.7022 36.774 35.8324 36.774 35.9633C36.7733 37.5779 37.1102 39.1747 37.7629 40.6515C38.4155 42.1282 39.3697 43.4522 40.5641 44.5386L38.0973 51.4478H36.7746ZM44.9895 55.3914L43.2654 53.6674C43.1528 53.5547 43.014 53.4716 42.8616 53.4254C42.7091 53.3793 42.5475 53.3715 42.3913 53.4027L39.2286 54.0353L42.179 45.7742C43.6767 46.7267 45.3739 47.3208 47.1387 47.5102L44.9895 55.3914ZM54.3839 53.4027C54.2277 53.3715 54.0662 53.3793 53.9137 53.4254C53.7612 53.4716 53.6225 53.5547 53.5098 53.6674L51.7858 55.3914L49.6363 47.5102C51.401 47.3208 53.0983 46.7267 54.596 45.7742L57.5464 54.0353L54.3839 53.4027Z" fill="#1E2348"/>
</svg>
