<svg width="61" height="60" viewBox="0 0 61 60" fill="none" xmlns="http://www.w3.org/2000/svg">
<path d="M58.2433 0H48.4336C47.4628 0 46.6758 0.787038 46.6758 1.75783C46.6758 2.72862 47.4628 3.51566 48.4336 3.51566H54.0287L47.7155 9.89071C47.0324 10.5805 47.0378 11.6935 47.7277 12.3766C48.0704 12.716 48.5175 12.8855 48.9646 12.8855C49.4172 12.8855 49.87 12.7117 50.2136 12.3646L56.4855 6.03099V11.6637C56.4855 12.6344 57.2726 13.4215 58.2433 13.4215C59.2141 13.4215 60.0012 12.6344 60.0012 11.6637V1.75783C60.0012 0.787038 59.2141 0 58.2433 0Z" fill="#1E2348"/>
<path d="M13.3254 1.75783C13.3254 0.787038 12.5384 0 11.5676 0H1.75783C0.787038 0 0 0.787038 0 1.75783V11.6637C0 12.6344 0.787038 13.4215 1.75783 13.4215C2.72862 13.4215 3.51566 12.6344 3.51566 11.6637V6.03099L9.49286 12.0667C9.83669 12.4138 10.2892 12.5876 10.7419 12.5876C11.1888 12.5876 11.6361 12.4181 11.9788 12.0787C12.6687 11.3956 12.6741 10.2826 11.991 9.59282L5.97251 3.51566H11.5676C12.5384 3.51566 13.3254 2.72862 13.3254 1.75783Z" fill="#1E2348"/>
<path d="M11.5676 56.484H5.97251L12.2857 50.1089C12.9688 49.4191 12.9634 48.3061 12.2735 47.623C11.5837 46.94 10.4708 46.945 9.78759 47.6352L3.51566 53.9686V48.336C3.51566 47.3652 2.72862 46.5781 1.75783 46.5781C0.787038 46.5781 0 47.3652 0 48.336V58.2418C0 59.2126 0.787038 59.9996 1.75783 59.9996H11.5676C12.5384 59.9996 13.3254 59.2126 13.3254 58.2418C13.3254 57.271 12.5384 56.484 11.5676 56.484Z" fill="#1E2348"/>
<path d="M58.2433 46.5781C57.2726 46.5781 56.4855 47.3652 56.4855 48.336V53.9686L50.5083 47.9329C49.8251 47.2431 48.7121 47.2378 48.0224 47.9208C47.3325 48.604 47.3271 49.7169 48.0102 50.4067L54.0287 56.484H48.4336C47.4628 56.484 46.6758 57.271 46.6758 58.2418C46.6758 59.2126 47.4628 59.9996 48.4336 59.9996H58.2433C59.2141 59.9996 60.0012 59.2126 60.0012 58.2418V48.336C60.0012 47.3652 59.2141 46.5781 58.2433 46.5781Z" fill="#1E2348"/>
<path d="M45.6307 33.7051C45.126 31.7327 42.9549 30.0063 38.9931 28.427C37.5392 27.8475 36.1302 27.4015 35.1485 27.1154V25.0445C35.1485 25.002 35.1451 24.9602 35.1421 24.9185C36.8655 23.5944 37.9793 21.5143 37.9793 19.1779V14.2824C37.9793 10.2916 34.7326 7.04492 30.7417 7.04492H29.4047C25.4138 7.04492 22.1671 10.2916 22.1671 14.2824V19.1779C22.1671 21.5143 23.2809 23.5944 25.0043 24.9185C25.0013 24.9604 24.9979 25.002 24.9979 25.0445V27.1154C24.0163 27.4014 22.6073 27.8475 21.1533 28.427C17.1915 30.0063 15.0204 31.7327 14.5158 33.7051C14.4793 33.8475 14.4609 33.9938 14.4609 34.1408V46.4021C14.4609 47.3729 15.248 48.1599 16.2188 48.1599H43.9274C44.8982 48.1599 45.6852 47.3729 45.6852 46.4021V34.1408C45.6856 33.9938 45.6671 33.8475 45.6307 33.7051ZM25.6829 14.2823C25.6829 12.23 27.3525 10.5605 29.4048 10.5605H30.7418C32.7941 10.5605 34.4637 12.23 34.4637 14.2823V19.1778C34.4637 21.23 32.7941 22.8997 30.7418 22.8997H29.4048C27.3525 22.8997 25.6829 21.23 25.6829 19.1778V14.2823ZM27.1753 30.1642C27.9613 29.9712 28.514 29.2664 28.514 28.4571V26.3585C28.8061 26.3946 29.1029 26.4154 29.4048 26.4154H30.7418C31.0437 26.4154 31.3405 26.3946 31.6329 26.3585V28.4571C31.6329 29.2666 32.1856 29.9712 32.9716 30.1642C32.9842 30.1674 33.6901 30.342 34.7194 30.6569L30.0648 35.7548L25.4142 30.6613C26.4496 30.3443 27.1627 30.1674 27.1753 30.1642ZM17.9768 44.6443V34.4527C18.1573 34.1281 18.9004 33.1978 21.8302 31.9504L28.7665 39.5472C29.0995 39.9119 29.5706 40.1197 30.0646 40.1197C30.5585 40.1197 31.0296 39.912 31.3627 39.5472L38.3038 31.945C41.2443 33.1951 41.9891 34.1277 42.1697 34.4529V44.6443H17.9768Z" fill="#1E2348"/>
</svg>
