<svg width="14" height="13" viewBox="0 0 14 13" fill="none" xmlns="http://www.w3.org/2000/svg">
<path d="M0.0425843 12.5778H2.79845V3.87766H0.0425843V12.5778ZM10.779 3.5763C9.44153 3.5763 8.24481 4.03892 7.39587 5.06004V3.84904H4.6299V12.5779H7.39587V7.85757C7.39587 6.85998 8.36081 5.8868 9.56945 5.8868C10.7781 5.8868 11.0762 6.85998 11.0762 7.83317V12.5771H13.832V7.63889C13.8319 4.20878 12.1174 3.5763 10.779 3.5763ZM1.40763 3.00822C2.16927 3.00822 2.78744 2.42272 2.78744 1.70133C2.78744 0.979933 2.16927 0.394531 1.40763 0.394531C0.645995 0.394531 0.027832 0.980029 0.027832 1.70142C0.027832 2.42281 0.645995 3.00822 1.40763 3.00822Z" fill="#8E8E8E"/>
</svg>
