<svg width="64" height="64" viewBox="0 0 64 64" fill="none" xmlns="http://www.w3.org/2000/svg">
<rect width="64" height="64" rx="32" fill="white"/>
<path opacity="0.3" d="M28.6666 30.6667C29.0203 30.6667 29.3594 30.5262 29.6095 30.2761C29.8595 30.0261 30 29.687 30 29.3333C30 28.9797 29.8595 28.6406 29.6095 28.3905C29.3594 28.1405 29.0203 28 28.6666 28C28.313 28 27.9739 28.1405 27.7238 28.3905C27.4738 28.6406 27.3333 28.9797 27.3333 29.3333C27.3333 29.687 27.4738 30.0261 27.7238 30.2761C27.9739 30.5262 28.313 30.6667 28.6666 30.6667Z" fill="#004EF0"/>
<path opacity="0.3" d="M31.3333 38.9467C31.3333 36.44 35.3066 35.3467 37.3333 35.3467C38.5066 35.3467 40.32 35.7067 41.6533 36.5067C42.2933 35.1467 42.6533 33.6267 42.6533 32.0133C42.6533 26.1333 37.8666 21.3467 31.9866 21.3467C26.1066 21.3467 21.32 26.1333 21.32 32.0133C21.32 33.6533 21.7066 35.2 22.36 36.5867C24.1466 35.28 26.9333 34.68 28.6666 34.68C29.2533 34.68 29.96 34.7467 30.7066 34.8933C29.8666 35.6533 29.2933 36.52 28.9733 37.3733C28.8666 37.3733 28.7733 37.36 28.6666 37.36C26.8266 37.36 24.6933 38.12 23.7866 38.84C24.7148 39.9603 25.864 40.8772 27.1625 41.5333C28.461 42.1895 29.8808 42.5707 31.3333 42.6533V38.9467ZM37.3333 28C38.8133 28 40 29.1867 40 30.6667C40 32.1467 38.8133 33.3333 37.3333 33.3333C35.8533 33.3333 34.6666 32.1467 34.6666 30.6667C34.6533 29.1867 35.8533 28 37.3333 28ZM28.6666 33.3333C26.4666 33.3333 24.6666 31.5333 24.6666 29.3333C24.6666 27.1333 26.4666 25.3333 28.6666 25.3333C30.8666 25.3333 32.6666 27.1333 32.6666 29.3333C32.6666 31.5333 30.8666 33.3333 28.6666 33.3333Z" fill="#004EF0"/>
<path d="M32.6667 29.333C32.6667 27.133 30.8667 25.333 28.6667 25.333C26.4667 25.333 24.6667 27.133 24.6667 29.333C24.6667 31.533 26.4667 33.333 28.6667 33.333C30.8667 33.333 32.6667 31.533 32.6667 29.333ZM28.6667 30.6664C27.9333 30.6664 27.3333 30.0664 27.3333 29.333C27.3333 28.5997 27.9333 27.9997 28.6667 27.9997C29.4 27.9997 30 28.5997 30 29.333C30 30.0664 29.4 30.6664 28.6667 30.6664ZM37.3333 33.333C38.8133 33.333 40 32.1464 40 30.6664C40 29.1864 38.8133 27.9997 37.3333 27.9997C35.8533 27.9997 34.6533 29.1864 34.6667 30.6664C34.6667 32.1464 35.8533 33.333 37.3333 33.333ZM31.9867 18.6797C24.6267 18.6797 18.6533 24.653 18.6533 32.013C18.6533 39.373 24.6267 45.3464 31.9867 45.3464C39.3467 45.3464 45.32 39.373 45.32 32.013C45.32 24.653 39.3467 18.6797 31.9867 18.6797ZM23.7867 38.8264C24.6933 38.1064 26.8133 37.3464 28.6667 37.3464C28.76 37.3464 28.8667 37.3597 28.9733 37.3597C29.2933 36.5064 29.8667 35.6397 30.7067 34.8797C30.0339 34.7508 29.3515 34.6794 28.6667 34.6664C26.9333 34.6664 24.1467 35.2664 22.36 36.573C21.6933 35.1864 21.32 33.6397 21.32 31.9997C21.32 26.1197 26.1067 21.333 31.9867 21.333C37.8667 21.333 42.6533 26.1197 42.6533 31.9997C42.6533 33.5997 42.2933 35.1197 41.6533 36.493C40.32 35.7064 38.5067 35.333 37.3333 35.333C35.3067 35.333 31.3333 36.413 31.3333 38.933V42.6397C29.8808 42.5571 28.461 42.1758 27.1625 41.5197C25.864 40.8636 24.7148 39.9467 23.7867 38.8264Z" fill="#004EF0"/>
</svg>
