<svg width="189" height="172" viewBox="0 0 189 172" fill="none" xmlns="http://www.w3.org/2000/svg">
<path d="M143.564 85.1631H138.714V139.836H143.564V85.1631Z" fill="#748035"/>
<path d="M107.293 74.6024C116.127 93.703 138.374 94.2409 140.956 85.1631C143.581 77.3007 125.216 66.3679 107.293 74.6024Z" fill="#B3D234"/>
<path d="M157.727 76.8408C169.689 74.5147 176.406 74.0785 184.033 71.4819C147.928 53.5009 138.935 79.0739 140.959 85.148C140.959 85.1626 145.765 79.1786 157.727 76.8408Z" fill="#A6BA39"/>
<path d="M184.033 71.4824C176.406 74.079 169.689 74.5006 157.727 76.8413C146.454 79.0424 140.932 83.8197 140.958 85.1631C146.66 99.7393 179.27 91.3593 184.033 71.4824Z" fill="#8AA53D"/>
<path d="M140.834 133.526V171.306H120.337L111.132 133.526H140.834Z" fill="#BF5A27"/>
<path d="M170.311 133.526L161.109 171.306H140.833V133.526H170.311Z" fill="#994722"/>
<path d="M173.993 125.97H107.668V133.527H173.993V125.97Z" fill="#F89F39"/>
<path d="M170.312 133.526L168.893 139.822H112.553L111.132 133.526H170.312Z" fill="#773618"/>
<path d="M3.91082 123.908L0 120.654L35.9302 77.4604L64.3237 106.976L112.146 24.6133L138.769 53.0126L160.696 31.0422L164.298 34.639L138.656 60.3341L113.115 33.0863L65.3326 115.368L36.2093 85.0843L3.91082 123.908Z" fill="#E32B26"/>
<path d="M111.224 49.0899C111.224 52.1751 110.31 55.1911 108.596 57.7564C106.882 60.3217 104.446 62.3211 101.595 63.5019C98.7449 64.6827 95.6084 64.9918 92.5825 64.3901C89.5565 63.7884 86.7769 62.303 84.5951 60.1216C82.4134 57.9402 80.9274 55.1609 80.3252 52.1351C79.723 49.1092 80.0314 45.9727 81.2117 43.1222C82.392 40.2717 84.391 37.8351 86.9559 36.1207C89.5209 34.4062 92.5367 33.4908 95.6219 33.4902C99.7595 33.4902 103.728 35.1337 106.654 38.0591C109.58 40.9845 111.224 44.9524 111.224 49.0899Z" fill="#FAA819"/>
<path d="M96.6716 33.5254V36.2382H94.5751V33.5254C95.2731 33.4759 95.9736 33.4759 96.6716 33.5254Z" fill="#F58A1F"/>
<path d="M91.8158 33.9648L92.6503 36.544L90.6556 37.1953L89.8124 34.6133C90.4642 34.3506 91.1337 34.1339 91.8158 33.9648Z" fill="#F58A1F"/>
<path d="M87.3236 35.8809L88.9228 38.0762L87.2218 39.3148L85.6255 37.1166C86.1626 36.6664 86.73 36.2535 87.3236 35.8809Z" fill="#F58A1F"/>
<path d="M83.6509 39.0908L85.8462 40.6842L84.6104 42.3852L82.4151 40.7918C82.7877 40.1973 83.2006 39.6289 83.6509 39.0908Z" fill="#F58A1F"/>
<path d="M81.1474 43.2812L83.7265 44.1187L83.0781 46.1191L80.499 45.2759C80.6685 44.5968 80.8852 43.9303 81.1474 43.2812Z" fill="#F58A1F"/>
<path d="M80.06 48.0381H82.7757V50.1433H80.06C80.0135 49.4423 80.0135 48.739 80.06 48.0381Z" fill="#F58A1F"/>
<path d="M80.499 52.8999L83.0781 52.0596L83.7265 54.0601L81.1474 54.9004C80.8848 54.2495 80.6681 53.5811 80.499 52.8999Z" fill="#F58A1F"/>
<path d="M82.4123 57.3864L84.6105 55.79L85.8434 57.4881L83.6481 59.0873C83.1983 58.5488 82.7854 57.9805 82.4123 57.3864Z" fill="#F58A1F"/>
<path d="M85.6255 61.0674L87.2218 58.8691L88.9228 60.1078L87.3236 62.3002C86.7292 61.9298 86.1617 61.5179 85.6255 61.0674Z" fill="#F58A1F"/>
<path d="M89.8124 63.5674L90.6527 60.9854L92.6503 61.6338L91.8129 64.2129C91.1322 64.0435 90.4637 63.8278 89.8124 63.5674Z" fill="#F58A1F"/>
<path d="M94.5723 64.6523V61.9395H96.6716V64.6552C95.9726 64.7037 95.2711 64.7027 94.5723 64.6523Z" fill="#F58A1F"/>
<path d="M99.4427 64.2129L98.6024 61.6338L100.6 60.9854L101.437 63.5674C100.788 63.8269 100.121 64.0425 99.4427 64.2129Z" fill="#F58A1F"/>
<path d="M103.918 62.3002L102.324 60.102L104.025 58.8691L105.619 61.0645C105.081 61.5158 104.513 61.9288 103.918 62.3002Z" fill="#F58A1F"/>
<path d="M107.599 59.0874L105.398 57.494L106.633 55.7959L108.832 57.3893C108.458 57.9817 108.047 58.5489 107.599 59.0874Z" fill="#F58A1F"/>
<path d="M110.099 54.9003L107.517 54.06L108.166 52.0537L110.745 52.8911C110.577 53.5752 110.361 54.2466 110.099 54.9003Z" fill="#F58A1F"/>
<path d="M111.187 50.1433H108.471V48.0381H111.184C111.233 48.7389 111.234 49.4423 111.187 50.1433Z" fill="#F58A1F"/>
<path d="M110.748 45.2788L108.168 46.1191L107.517 44.1216L110.099 43.2812C110.362 43.9311 110.578 44.5986 110.748 45.2788Z" fill="#F58A1F"/>
<path d="M108.832 40.7918L106.633 42.3881L105.401 40.6842L107.599 39.0908C108.048 39.6294 108.459 40.1977 108.832 40.7918Z" fill="#F58A1F"/>
<path d="M105.622 37.1166L104.025 39.3148L102.324 38.0762L103.921 35.8809C104.515 36.2532 105.084 36.6661 105.622 37.1166Z" fill="#F58A1F"/>
<path d="M101.432 34.6074L100.594 37.1923L98.5936 36.5381L99.4339 33.959C100.114 34.1276 100.782 34.3443 101.432 34.6074Z" fill="#F58A1F"/>
<path d="M109.422 49.0899C109.422 51.8193 108.613 54.4873 107.096 56.7567C105.58 59.0261 103.425 60.7948 100.903 61.8393C98.3814 62.8838 95.6067 63.157 92.9298 62.6246C90.2529 62.0921 87.794 60.7778 85.8641 58.8479C83.9342 56.9179 82.6198 54.459 82.0874 51.7821C81.5549 49.1052 81.8282 46.3305 82.8726 43.8089C83.9171 41.2873 85.6859 39.1321 87.9553 37.6158C90.2246 36.0994 92.8927 35.29 95.6221 35.29C99.282 35.29 102.792 36.744 105.38 39.3319C107.968 41.9199 109.422 45.43 109.422 49.0899Z" fill="#FFC708"/>
<path d="M99.7975 49.061C99.2586 48.5376 98.3533 48.1499 97.0817 47.8979L95.8256 47.6449C95.3881 47.5788 94.9675 47.4288 94.5869 47.2029C94.4759 47.1201 94.3869 47.0113 94.3276 46.8861C94.2683 46.7609 94.2405 46.6231 94.2467 46.4848C94.2367 46.3016 94.279 46.1193 94.3686 45.9592C94.4581 45.7991 94.5914 45.6678 94.7527 45.5805C95.2417 45.3544 95.7794 45.2544 96.317 45.2897C96.8875 45.2953 97.4555 45.3676 98.0093 45.5049C98.6406 45.6604 99.2566 45.8725 99.8498 46.1388V43.7166C99.171 43.5369 98.4828 43.3952 97.7883 43.2921C97.5877 43.2631 97.3928 43.2485 97.2068 43.2282V41.8936H94.994V43.1991C94.1562 43.2562 93.354 43.5597 92.6882 44.0714C91.9535 44.6878 91.5862 45.5659 91.5862 46.7057C91.5657 47.1017 91.6255 47.4976 91.762 47.8699C91.8984 48.2421 92.1086 48.583 92.38 48.872C92.9092 49.4109 93.7457 49.7986 94.8893 50.0351L96.032 50.2851C96.5265 50.3599 96.9999 50.5372 97.4219 50.8056C97.5438 50.9221 97.6377 51.0648 97.6965 51.2228C97.7553 51.3809 97.7776 51.5501 97.7617 51.718C97.7457 51.8859 97.692 52.048 97.6044 52.1921C97.5169 52.3362 97.3978 52.4586 97.2562 52.5502C96.8015 52.7908 96.2897 52.9025 95.7761 52.8729C95.1086 52.8693 94.4449 52.7715 93.8048 52.5822C93.0693 52.3673 92.3587 52.0749 91.6851 51.7098V54.1959C92.3966 54.4647 93.1302 54.671 93.8775 54.8124C94.2497 54.8821 94.6218 54.9345 94.994 54.9665V56.2778H97.2068V54.9607C98.0364 54.8948 98.8296 54.592 99.4922 54.0883C100.24 53.4758 100.615 52.5385 100.615 51.2766C100.609 50.3209 100.336 49.5824 99.7975 49.061Z" fill="#FCEE3B"/>
<path d="M104.351 86.8583C105.819 90.4818 106.18 94.4594 105.388 98.2882C104.597 102.117 102.687 105.625 99.9022 108.369C97.1171 111.113 93.5809 112.969 89.7408 113.704C85.9006 114.439 81.9289 114.018 78.3276 112.496C74.7264 110.974 71.6572 108.418 69.5082 105.152C67.3592 101.885 66.2268 98.0555 66.2541 94.1458C66.2815 90.2361 67.4673 86.4223 69.6617 83.1864C71.8562 79.9505 74.9607 77.4379 78.5829 75.9661C80.9899 74.9881 83.566 74.494 86.1641 74.5122C88.7621 74.5304 91.3311 75.0604 93.7242 76.0719C96.1173 77.0835 98.2875 78.5568 100.111 80.4076C101.934 82.2584 103.375 84.4504 104.351 86.8583Z" fill="#FAA819"/>
<path d="M79.8362 75.5098L81.1301 78.7082L78.6644 79.7113L77.3676 76.5129C78.1673 76.1241 78.9919 75.789 79.8362 75.5098Z" fill="#F58A1F"/>
<path d="M74.3318 78.3418L76.5504 80.9761L74.515 82.6917L72.2964 80.0573C72.9351 79.4398 73.6151 78.8666 74.3318 78.3418Z" fill="#F58A1F"/>
<path d="M69.9763 82.7354L72.8986 84.5527L71.4913 86.8206L68.5662 84.9946C68.9828 84.2095 69.454 83.4545 69.9763 82.7354Z" fill="#F58A1F"/>
<path d="M67.1878 88.2598L70.5316 89.0855L69.8919 91.6734L66.5481 90.8447C66.7025 89.9696 66.9163 89.1059 67.1878 88.2598Z" fill="#F58A1F"/>
<path d="M66.2429 94.3741L69.6797 94.127L69.8687 96.7846L66.4347 97.0346C66.3139 96.1528 66.2498 95.2642 66.2429 94.3741Z" fill="#F58A1F"/>
<path d="M67.2401 100.483L70.4386 99.1895L71.4417 101.652L68.2432 102.955C67.8514 102.156 67.5162 101.33 67.2401 100.483Z" fill="#F58A1F"/>
<path d="M70.0751 105.988L72.7094 103.767L74.425 105.802L71.7935 108.021C71.1743 107.384 70.6002 106.704 70.0751 105.988Z" fill="#F58A1F"/>
<path d="M74.4627 110.343L76.28 107.436L78.545 108.843L76.7249 111.751C75.9379 111.337 75.1818 110.866 74.4627 110.343Z" fill="#F58A1F"/>
<path d="M79.9873 113.129L80.813 109.788L83.4009 110.431L82.578 113.775C81.7004 113.62 80.8347 113.404 79.9873 113.129Z" fill="#F58A1F"/>
<path d="M86.1023 114.077L85.858 110.64L88.5156 110.454L88.7628 113.882C87.8815 114.008 86.9926 114.073 86.1023 114.077Z" fill="#F58A1F"/>
<path d="M92.2111 113.08L90.9172 109.881L93.3829 108.878L94.6798 112.076C93.8809 112.467 93.0561 112.802 92.2111 113.08Z" fill="#F58A1F"/>
<path d="M97.7125 110.25L95.4968 107.616L97.5322 105.9L99.7479 108.517C99.1118 109.143 98.4316 109.722 97.7125 110.25Z" fill="#F58A1F"/>
<path d="M102.06 105.845L99.1374 104.028L100.548 101.763L103.455 103.583C103.042 104.368 102.576 105.124 102.06 105.845Z" fill="#F58A1F"/>
<path d="M104.86 100.335L101.516 99.5068L102.158 96.9219L105.499 97.7476C105.346 98.624 105.132 99.4887 104.86 100.335Z" fill="#F58A1F"/>
<path d="M105.805 94.2143L102.371 94.4585L102.179 91.8009L105.613 91.5566C105.74 92.4369 105.804 93.325 105.805 94.2143Z" fill="#F58A1F"/>
<path d="M104.81 88.1084L101.612 89.3994L100.606 86.9453L103.804 85.6543C104.194 86.4488 104.53 87.2687 104.81 88.1084Z" fill="#F58A1F"/>
<path d="M101.978 82.6076L99.3438 84.8262L97.6254 82.7908L100.263 80.5723C100.88 81.211 101.453 81.891 101.978 82.6076Z" fill="#F58A1F"/>
<path d="M97.5847 78.2482L95.7674 81.1733L93.5052 79.7573L95.3225 76.8496C96.1086 77.2618 96.8646 77.7291 97.5847 78.2482Z" fill="#F58A1F"/>
<path d="M92.0601 75.4571L91.2314 78.8009L88.6465 78.1612L89.4751 74.8174C90.3503 74.9715 91.214 75.1852 92.0601 75.4571Z" fill="#F58A1F"/>
<path d="M85.9422 74.5146L86.1922 77.9515L83.5317 78.1405L83.2845 74.7066C84.1651 74.5829 85.053 74.5188 85.9422 74.5146Z" fill="#F58A1F"/>
<path d="M102.237 87.7157C103.538 90.9218 103.86 94.4418 103.161 97.8306C102.461 101.219 100.773 104.325 98.3091 106.754C95.8451 109.183 92.716 110.827 89.3176 111.479C85.9192 112.13 82.4041 111.758 79.2168 110.412C76.0294 109.065 73.313 106.803 71.4109 103.913C69.5088 101.022 68.5065 97.6328 68.5308 94.1727C68.5551 90.7126 69.6049 87.3374 71.5473 84.4739C73.4898 81.6104 76.2377 79.3872 79.4436 78.0854C83.7434 76.3411 88.5599 76.3757 92.8341 78.1816C97.1083 79.9875 100.49 83.4168 102.237 87.7157Z" fill="#FFC708"/>
<path d="M90.9114 92.2756C90.0391 91.9151 88.7859 91.8947 87.1693 92.2L85.573 92.4908C85.0274 92.6288 84.4594 92.6536 83.904 92.5635C83.7338 92.5213 83.5768 92.4376 83.4469 92.3199C83.317 92.2022 83.2183 92.0541 83.1596 91.8889C83.0616 91.6781 83.0247 91.4441 83.0529 91.2133C83.0812 90.9826 83.1736 90.7644 83.3195 90.5834C83.6238 90.1957 84.1908 89.8332 85.0205 89.4959C85.6926 89.2278 86.3945 89.0413 87.1111 88.9405C87.9273 88.8219 88.7527 88.7781 89.5768 88.8097L88.4138 85.9631C87.5328 86.0742 86.659 86.2364 85.7969 86.4487C85.5497 86.5127 85.3113 86.5853 85.0699 86.658L84.4331 85.085L81.8307 86.1463L82.453 87.6757C81.4966 88.1431 80.6995 88.8825 80.1617 89.8012C79.5802 90.8712 79.5657 92.076 80.1182 93.4155C80.5543 94.4884 81.2085 95.2095 82.0867 95.5904C82.9648 95.9713 84.122 96.0295 85.5962 95.7649L87.05 95.5177C87.9427 95.3665 88.5679 95.352 88.9343 95.4712C89.1209 95.5347 89.2904 95.6404 89.4296 95.7801C89.5688 95.9198 89.6739 96.0897 89.7368 96.2767C89.8319 96.4913 89.867 96.7276 89.8383 96.9606C89.8096 97.1936 89.7183 97.4145 89.5739 97.5996C89.1555 98.1007 88.6073 98.4769 87.9893 98.6871C87.1996 98.9919 86.3719 99.1875 85.5293 99.2686C84.5617 99.3578 83.5876 99.3501 82.6216 99.2454L83.8051 102.171C84.7691 102.144 85.7292 102.036 86.675 101.848C87.1489 101.749 87.6113 101.633 88.0649 101.499L88.6871 103.037L91.2865 101.979L90.6556 100.423C91.7392 99.8182 92.4991 99.1184 92.9352 98.3236C93.5168 97.2439 93.507 95.9635 92.9061 94.4826C92.4642 93.3718 91.7895 92.6275 90.9114 92.2756Z" fill="#FCEE3B"/>
<path d="M49.6602 64.8035C49.6608 67.132 48.9708 69.4084 47.6776 71.3448C46.3844 73.2812 44.5461 74.7907 42.3951 75.6823C40.244 76.5739 37.8769 76.8077 35.593 76.3539C33.3091 75.9002 31.211 74.7795 29.5641 73.1334C27.9172 71.4872 26.7954 69.3898 26.3405 67.1061C25.8857 64.8224 26.1183 62.4552 27.0088 60.3037C27.8994 58.1522 29.4079 56.3131 31.3437 55.019C33.2795 53.7248 35.5556 53.0338 37.8841 53.0332C41.0063 53.0332 44.0007 54.2731 46.2089 56.4803C48.4172 58.6875 49.6586 61.6813 49.6602 64.8035Z" fill="#FAA819"/>
<path d="M38.6721 53.0626V55.098H37.0874V53.0626C37.6149 53.0234 38.1446 53.0234 38.6721 53.0626Z" fill="#F58A1F"/>
<path d="M35.0113 53.3906L35.6453 55.3388L34.1332 55.8302L33.4994 53.882C33.9914 53.6835 34.4966 53.5192 35.0113 53.3906Z" fill="#F58A1F"/>
<path d="M31.6209 54.8389L32.8275 56.4963L31.5424 57.4296L30.3415 55.7723C30.7453 55.4312 31.1728 55.1193 31.6209 54.8389Z" fill="#F58A1F"/>
<path d="M28.847 57.2607L30.5073 58.4645L29.5739 59.7497L27.9166 58.543C28.1967 58.0946 28.5076 57.6661 28.847 57.2607Z" fill="#F58A1F"/>
<path d="M26.96 60.4248L28.9081 61.0557L28.4167 62.5619L26.4599 61.9397C26.5901 61.4234 26.7572 60.9171 26.96 60.4248Z" fill="#F58A1F"/>
<path d="M26.1401 64.0127H28.1755V65.6032H26.1401C26.1038 65.0736 26.1038 64.5422 26.1401 64.0127Z" fill="#F58A1F"/>
<path d="M26.4599 67.6818L28.408 67.0508L28.8994 68.557L26.9513 69.1937C26.7527 68.7017 26.5885 68.1965 26.4599 67.6818Z" fill="#F58A1F"/>
<path d="M27.9137 71.07L29.5711 69.8662L30.5044 71.1514L28.8442 72.3552C28.5033 71.9498 28.1924 71.5203 27.9137 71.07Z" fill="#F58A1F"/>
<path d="M30.3387 73.8605L31.5424 72.2002L32.8276 73.1335L31.6209 74.788C31.1719 74.5099 30.7434 74.1999 30.3387 73.8605Z" fill="#F58A1F"/>
<path d="M33.4994 75.7362L34.1332 73.7852L35.6453 74.2737L35.0084 76.2247C34.4954 76.0944 33.9914 75.9313 33.4994 75.7362Z" fill="#F58A1F"/>
<path d="M37.0962 76.553V74.5176H38.6721V76.553C38.1475 76.5903 37.6208 76.5903 37.0962 76.553Z" fill="#F58A1F"/>
<path d="M40.7627 76.2247L40.1288 74.2737L41.6379 73.7852L42.2717 75.7362C41.78 75.9321 41.2759 76.0953 40.7627 76.2247Z" fill="#F58A1F"/>
<path d="M44.1501 74.7802L42.9434 73.1199L44.2286 72.1865L45.4294 73.8468C45.0253 74.1874 44.5978 74.4993 44.1501 74.7802Z" fill="#F58A1F"/>
<path d="M46.9241 72.3552L45.2638 71.1514L46.1972 69.8662L47.8575 71.0729C47.574 71.5198 47.2622 71.9481 46.9241 72.3552Z" fill="#F58A1F"/>
<path d="M48.8141 69.2084L46.863 68.5716L47.3545 67.0654L49.3026 67.6993C49.175 68.2131 49.0117 68.7173 48.8141 69.2084Z" fill="#F58A1F"/>
<path d="M49.6341 65.6032H47.5988V64.0127H49.6341C49.6706 64.5422 49.6706 65.0736 49.6341 65.6032Z" fill="#F58A1F"/>
<path d="M49.3026 61.9397L47.3545 62.5736L46.863 61.0616L48.8141 60.4307C49.013 60.9213 49.1763 61.4256 49.3026 61.9397Z" fill="#F58A1F"/>
<path d="M47.8575 58.543L46.1971 59.7497L45.2667 58.4645L46.924 57.2607C47.2642 57.6663 47.5761 58.0947 47.8575 58.543Z" fill="#F58A1F"/>
<path d="M45.4324 55.7723L44.2286 57.4296L42.9434 56.4963L44.153 54.8389C44.6019 55.118 45.0295 55.43 45.4324 55.7723Z" fill="#F58A1F"/>
<path d="M42.2717 53.882L41.6379 55.8302L40.1288 55.3388L40.7627 53.3906C41.2766 53.5188 41.7809 53.683 42.2717 53.882Z" fill="#F58A1F"/>
<path d="M48.2994 64.803C48.3006 66.8632 47.6907 68.8775 46.5469 70.5911C45.4032 72.3046 43.7769 73.6405 41.8739 74.4297C39.9708 75.2189 37.8765 75.426 35.8558 75.0247C33.835 74.6235 31.9786 73.632 30.5214 72.1757C29.0642 70.7193 28.0717 68.8634 27.6693 66.8429C27.267 64.8224 27.4729 62.7279 28.2611 60.8244C29.0492 58.9209 30.3842 57.2939 32.0971 56.1492C33.81 55.0045 35.8239 54.3936 37.8841 54.3936C39.2515 54.3932 40.6055 54.6621 41.869 55.185C43.1324 55.708 44.2805 56.4746 45.2477 57.4412C46.2148 58.4078 46.9821 59.5555 47.5057 60.8186C48.0293 62.0817 48.2991 63.4356 48.2994 64.803Z" fill="#FFC708"/>
<path d="M41.0359 64.7833C40.6317 64.3937 39.9485 64.1 38.986 63.911L38.0381 63.7162C37.7073 63.6699 37.389 63.5582 37.1018 63.3876C37.0189 63.3247 36.9523 63.2426 36.9078 63.1485C36.8632 63.0544 36.842 62.9509 36.8459 62.8468C36.8383 62.7082 36.8704 62.5703 36.9384 62.4493C37.0063 62.3282 37.1074 62.2291 37.2298 62.1635C37.5982 61.9943 38.0028 61.9194 38.4074 61.9454C38.8394 61.949 39.2696 62.0016 39.6897 62.1025C40.1638 62.2239 40.6269 62.3853 41.0737 62.5851V60.7591C40.5619 60.6204 40.0425 60.5116 39.5181 60.4334C39.3669 60.4131 39.2274 60.4015 39.0704 60.3869V59.3779H37.3984V60.3607C36.7643 60.4053 36.1575 60.6359 35.6538 61.0237C35.3726 61.2684 35.1513 61.5746 35.0071 61.9184C34.8629 62.2622 34.7997 62.6346 34.8222 63.0067C34.8062 63.3059 34.851 63.6052 34.954 63.8866C35.0569 64.168 35.2159 64.4256 35.4212 64.6438C35.956 65.1109 36.6143 65.4138 37.317 65.5161L38.1893 65.708C38.5625 65.7634 38.92 65.8962 39.2389 66.0976C39.3311 66.186 39.4022 66.294 39.4469 66.4136C39.4915 66.5332 39.5086 66.6614 39.4968 66.7885C39.4851 66.9157 39.4449 67.0386 39.3791 67.148C39.3133 67.2574 39.2236 67.3506 39.1168 67.4206C38.7736 67.6016 38.3877 67.686 38.0003 67.6648C37.4942 67.6593 36.9913 67.584 36.5058 67.441C35.9511 67.276 35.4152 67.0538 34.9065 66.778V68.6593C35.4444 68.8586 35.9977 69.0132 36.561 69.1216C36.8397 69.1756 37.1212 69.2144 37.4042 69.2379V70.2265H39.0761V69.2263C39.7005 69.1793 40.2987 68.9554 40.8004 68.5807C41.3664 68.1155 41.6494 67.4061 41.6494 66.4523C41.6659 66.1471 41.62 65.8416 41.5145 65.5547C41.409 65.2677 41.2461 65.0053 41.0359 64.7833Z" fill="#FCEE3B"/>
<path d="M188.999 28.3877C188.999 34.0022 187.334 39.4907 184.215 44.159C181.096 48.8274 176.662 52.4659 171.475 54.6145C166.288 56.7631 160.58 57.3252 155.073 56.2299C149.567 55.1345 144.509 52.4309 140.538 48.4608C136.568 44.4907 133.865 39.4325 132.769 33.9258C131.674 28.4192 132.236 22.7114 134.385 17.5242C136.533 12.337 140.172 7.90346 144.84 4.78418C149.509 1.66491 154.997 0 160.612 0C168.14 0.000771022 175.36 2.99187 180.684 8.31542C186.007 13.639 188.998 20.859 188.999 28.3877Z" fill="#FAA819"/>
<path d="M162.522 0.0665114V5.00957H158.698V0.0665114C159.971 -0.0221705 161.249 -0.0221705 162.522 0.0665114Z" fill="#F58A1F"/>
<path d="M153.677 0.87793L155.203 5.57384L151.569 6.75725L150.036 2.041C151.221 1.56937 152.438 1.18074 153.677 0.87793Z" fill="#F58A1F"/>
<path d="M145.509 4.36719L148.417 8.36234L145.323 10.61L142.415 6.609C143.393 5.79079 144.427 5.04172 145.509 4.36719Z" fill="#F58A1F"/>
<path d="M138.821 10.1826L142.819 13.0903L140.569 16.1841L136.574 13.2764C137.249 12.1934 138 11.1595 138.821 10.1826Z" fill="#F58A1F"/>
<path d="M134.268 17.8154L138.964 19.342L137.783 22.9795L133.081 21.4558C133.393 20.2167 133.79 19.0004 134.268 17.8154Z" fill="#F58A1F"/>
<path d="M132.299 26.4658H137.242V30.2894H132.299C132.215 29.0163 132.215 27.739 132.299 26.4658Z" fill="#F58A1F"/>
<path d="M133.081 35.3224L137.783 33.793L138.964 37.4305L134.268 38.9599C133.788 37.7764 133.392 36.561 133.081 35.3224Z" fill="#F58A1F"/>
<path d="M136.571 43.4878L140.569 40.5801L142.816 43.6739L138.821 46.5815C137.999 45.6042 137.247 44.5704 136.571 43.4878Z" fill="#F58A1F"/>
<path d="M142.415 50.1777L145.323 46.1768L148.417 48.4244L145.509 52.4224C144.427 51.7472 143.393 50.9971 142.415 50.1777Z" fill="#F58A1F"/>
<path d="M150.036 54.731L151.563 50.0352L155.2 51.1982L153.671 55.897C152.434 55.5927 151.219 55.2031 150.036 54.731Z" fill="#F58A1F"/>
<path d="M158.695 56.7058V51.7627H162.519V56.7058C161.246 56.793 159.968 56.793 158.695 56.7058Z" fill="#F58A1F"/>
<path d="M167.543 55.9175L166.014 51.2129L169.652 50.0498L171.178 54.7457C169.995 55.2183 168.78 55.6099 167.543 55.9175Z" fill="#F58A1F"/>
<path d="M175.708 52.4225L172.8 48.4273L175.891 46.1797L178.799 50.1807C177.821 50.9971 176.788 51.746 175.708 52.4225Z" fill="#F58A1F"/>
<path d="M182.399 46.5865L178.401 43.6788L180.648 40.5908L184.646 43.4985C183.967 44.5772 183.216 45.6088 182.399 46.5865Z" fill="#F58A1F"/>
<path d="M186.964 38.9687L182.265 37.4422L183.445 33.8047L188.147 35.3341C187.837 36.5716 187.442 37.786 186.964 38.9687Z" fill="#F58A1F"/>
<path d="M188.935 30.301H183.992V26.4658H188.935C189.022 27.7428 189.022 29.0241 188.935 30.301Z" fill="#F58A1F"/>
<path d="M188.127 21.4559L183.425 22.9853L182.248 19.3449L186.943 17.8184C187.422 19.002 187.817 20.2174 188.127 21.4559Z" fill="#F58A1F"/>
<path d="M184.638 13.2881L180.64 16.1958L178.395 13.102L182.39 10.1943C183.209 11.1733 183.96 12.207 184.638 13.2881Z" fill="#F58A1F"/>
<path d="M178.805 6.6002L175.897 10.5983L172.803 8.34769L175.711 4.35254C176.793 5.02987 177.826 5.78088 178.805 6.6002Z" fill="#F58A1F"/>
<path d="M171.181 2.04091L169.654 6.74555L166.029 5.55919L167.555 0.863281C168.789 1.17405 170 1.56749 171.181 2.04091Z" fill="#F58A1F"/>
<path d="M185.719 28.3881C185.719 33.3546 184.247 38.2096 181.487 42.3391C178.728 46.4686 174.806 49.6871 170.217 51.5876C165.629 53.4881 160.58 53.9852 155.709 53.0161C150.838 52.047 146.363 49.6551 142.852 46.143C139.34 42.6309 136.949 38.1563 135.98 33.2851C135.011 28.414 135.509 23.3649 137.41 18.7766C139.311 14.1883 142.53 10.2667 146.66 7.50785C150.79 4.749 155.645 3.27677 160.612 3.27734C163.909 3.27734 167.174 3.92688 170.22 5.18884C173.267 6.45081 176.035 8.30051 178.366 10.6323C180.698 12.9641 182.547 15.7323 183.809 18.7788C185.071 21.8254 185.72 25.0906 185.719 28.3881Z" fill="#FFC708"/>
<path d="M168.201 28.3378C167.231 27.3879 165.584 26.6814 163.258 26.2181L160.972 25.7558C159.883 25.5348 159.132 25.2683 158.719 24.9562C158.516 24.8061 158.353 24.6085 158.245 24.3809C158.136 24.1533 158.085 23.9025 158.096 23.6506C158.079 23.3165 158.157 22.9843 158.32 22.6926C158.484 22.4008 158.727 22.1614 159.021 22.002C159.632 21.653 160.58 21.4727 161.865 21.4727C162.904 21.4817 163.939 21.6135 164.947 21.8653C166.097 22.148 167.219 22.5374 168.297 23.0284V18.6145C167.061 18.2806 165.807 18.0214 164.54 17.8381C164.176 17.7887 163.819 17.7568 163.461 17.7219V15.291H159.434V17.6695C157.689 17.8634 156.29 18.3925 155.235 19.2571C153.894 20.3736 153.225 21.968 153.229 24.0402C153.229 25.6976 153.714 27.0138 154.683 27.9889C155.652 28.9639 157.175 29.6753 159.251 30.1231L161.33 30.5854C162.598 30.8617 163.438 31.167 163.865 31.5333C164.088 31.745 164.259 32.0042 164.367 32.2916C164.475 32.579 164.517 32.887 164.489 33.1927C164.461 33.4984 164.364 33.7938 164.206 34.0568C164.047 34.3198 163.832 34.5436 163.575 34.7114C162.955 35.104 162.054 35.293 160.885 35.293C159.668 35.2846 158.458 35.1035 157.291 34.755C155.953 34.3589 154.66 33.8239 153.433 33.1587V37.6918C154.73 38.1752 156.065 38.5487 157.425 38.8083C158.101 38.9363 158.78 39.0332 159.46 39.0991V41.4863H163.487V39.0729C165.255 38.8549 166.645 38.3373 167.645 37.5144C169.002 36.3921 169.681 34.6833 169.681 32.3882C169.671 30.6378 169.178 29.2876 168.201 28.3378Z" fill="#FCEE3B"/>
<path d="M85.2647 161.432V171.318H70.8455C70.5525 171.319 70.2622 171.262 69.9912 171.151C69.7201 171.04 69.4737 170.876 69.266 170.67C69.0583 170.463 68.8934 170.217 68.7808 169.947C68.6681 169.676 68.6099 169.386 68.6095 169.093V161.58C68.6051 161.534 68.6051 161.489 68.6095 161.443L85.2647 161.432Z" fill="#FDCD08"/>
<path d="M101.92 161.431H68.6212C68.6554 160.864 68.9051 160.332 69.3192 159.943C69.7334 159.555 70.2805 159.339 70.8485 159.341H99.6985C100.265 159.341 100.811 159.557 101.224 159.945C101.637 160.334 101.886 160.865 101.92 161.431Z" fill="#F8EC30"/>
<path d="M101.932 161.568V169.082C101.931 169.375 101.873 169.664 101.76 169.935C101.647 170.205 101.482 170.45 101.274 170.657C101.067 170.864 100.82 171.027 100.55 171.138C100.279 171.25 99.9886 171.307 99.6957 171.306H85.2649V161.42H101.92C101.931 161.469 101.935 161.518 101.932 161.568Z" fill="#F58A1F"/>
<path d="M85.2648 149.461V159.347H70.8456C70.5529 159.348 70.2628 159.292 69.992 159.181C69.7211 159.07 69.4748 158.906 69.2671 158.7C69.0595 158.494 68.8945 158.248 68.7817 157.978C68.6689 157.708 68.6104 157.418 68.6096 157.126V149.606C68.6054 149.559 68.6054 149.511 68.6096 149.464L85.2648 149.461Z" fill="#FDCD08"/>
<path d="M101.92 149.461H68.6212C68.6554 148.894 68.9054 148.363 69.3197 147.975C69.734 147.587 70.281 147.373 70.8485 147.376H99.6985C100.265 147.374 100.811 147.589 101.224 147.977C101.637 148.364 101.886 148.895 101.92 149.461Z" fill="#F8EC30"/>
<path d="M101.932 149.606V157.12C101.929 157.711 101.693 158.277 101.273 158.693C100.854 159.11 100.287 159.343 99.6957 159.341H85.2649V149.455H101.92C101.93 149.505 101.934 149.556 101.932 149.606Z" fill="#F58A1F"/>
<path d="M85.2648 137.501V147.387H70.8456C70.5525 147.388 70.2621 147.331 69.9911 147.219C69.72 147.108 69.4736 146.944 69.2659 146.737C69.0582 146.53 68.8934 146.284 68.7808 146.014C68.6682 145.743 68.61 145.453 68.6096 145.16V137.646C68.6054 137.601 68.6054 137.555 68.6096 137.51L85.2648 137.501Z" fill="#FDCD08"/>
<path d="M101.92 137.501H68.6212C68.6561 136.934 68.9061 136.403 69.3202 136.015C69.7342 135.626 70.281 135.411 70.8485 135.413H99.6985C100.265 135.412 100.811 135.628 101.224 136.016C101.637 136.404 101.886 136.935 101.92 137.501Z" fill="#F8EC30"/>
<path d="M101.932 137.638V145.151C101.93 145.743 101.694 146.31 101.275 146.727C100.855 147.145 100.287 147.379 99.6957 147.378H85.2649V137.492H101.92C101.93 137.54 101.934 137.589 101.932 137.638Z" fill="#F58A1F"/>
<path d="M85.2646 125.539V135.425H70.8454C70.5513 135.425 70.2602 135.367 69.9888 135.254C69.7174 135.14 69.4711 134.974 69.2643 134.765C69.0574 134.556 68.894 134.308 68.7836 134.036C68.6732 133.763 68.618 133.472 68.6211 133.177V125.667C68.6167 125.62 68.6167 125.574 68.6211 125.527L85.2646 125.539Z" fill="#FDCD08"/>
<path d="M101.92 125.539H68.6212C68.654 124.972 68.9035 124.439 69.318 124.05C69.7325 123.662 70.2803 123.447 70.8485 123.451H99.6985C100.266 123.449 100.812 123.664 101.225 124.052C101.639 124.441 101.887 124.973 101.92 125.539Z" fill="#F8EC30"/>
<path d="M101.932 125.678V133.177C101.931 133.47 101.873 133.76 101.761 134.031C101.648 134.301 101.483 134.547 101.275 134.754C101.068 134.96 100.821 135.124 100.55 135.235C100.279 135.346 99.9887 135.403 99.6957 135.402H85.2649V125.516H101.92C101.932 125.569 101.936 125.624 101.932 125.678Z" fill="#F58A1F"/>
<path d="M114.833 161.432V171.318H129.255C129.548 171.319 129.838 171.262 130.108 171.15C130.379 171.039 130.625 170.875 130.833 170.668C131.04 170.462 131.205 170.216 131.317 169.946C131.43 169.676 131.488 169.386 131.488 169.093V161.583C131.491 161.536 131.491 161.49 131.488 161.443L114.833 161.432Z" fill="#FDCD08"/>
<path d="M98.1779 161.431H131.482C131.448 160.865 131.198 160.333 130.784 159.945C130.369 159.557 129.823 159.342 129.255 159.344H100.405C99.8375 159.341 99.2904 159.556 98.8762 159.944C98.462 160.333 98.2121 160.865 98.1779 161.431Z" fill="#F8EC30"/>
<path d="M98.1691 161.571V169.082C98.1691 169.375 98.227 169.665 98.3395 169.936C98.452 170.206 98.6169 170.452 98.8247 170.659C99.0325 170.865 99.279 171.029 99.5502 171.14C99.8215 171.251 100.112 171.308 100.405 171.306H114.833V161.42H98.1778C98.1696 161.47 98.1667 161.521 98.1691 161.571Z" fill="#FBAE17"/>
<path d="M114.833 149.461V159.347H129.255C129.548 159.348 129.838 159.291 130.108 159.179C130.379 159.068 130.625 158.904 130.833 158.698C131.04 158.491 131.205 158.246 131.317 157.975C131.43 157.705 131.488 157.415 131.488 157.123V149.606C131.491 149.559 131.491 149.511 131.488 149.464L114.833 149.461Z" fill="#FDCD08"/>
<path d="M98.1779 149.461H131.482C131.448 148.895 131.197 148.363 130.783 147.976C130.369 147.588 129.822 147.373 129.255 147.376H100.405C99.8378 147.373 99.2907 147.587 98.8764 147.975C98.4621 148.363 98.2121 148.894 98.1779 149.461Z" fill="#F8EC30"/>
<path d="M98.169 149.606V157.12C98.1694 157.413 98.2275 157.703 98.3402 157.973C98.4528 158.244 98.6177 158.489 98.8254 158.696C99.0331 158.902 99.2796 159.066 99.5506 159.177C99.8217 159.289 100.112 159.345 100.405 159.344H114.833V149.458H98.1777C98.1701 149.507 98.1673 149.557 98.169 149.606Z" fill="#FBAE17"/>
<path d="M114.833 137.501V147.387H129.255C129.548 147.387 129.838 147.33 130.109 147.218C130.379 147.107 130.625 146.943 130.833 146.736C131.04 146.529 131.205 146.283 131.317 146.013C131.43 145.743 131.488 145.453 131.488 145.16V137.646C131.491 137.601 131.491 137.555 131.488 137.51L114.833 137.501Z" fill="#FDCD08"/>
<path d="M98.1779 137.501H131.482C131.448 136.934 131.198 136.403 130.784 136.015C130.369 135.626 129.823 135.411 129.255 135.413H100.405C99.8377 135.411 99.291 135.626 98.8769 136.015C98.4629 136.403 98.2128 136.934 98.1779 137.501Z" fill="#F8EC30"/>
<path d="M98.1691 137.638V145.151C98.1695 145.444 98.2276 145.734 98.3402 146.005C98.4529 146.276 98.6177 146.521 98.8254 146.728C99.033 146.935 99.2795 147.099 99.5505 147.21C99.8216 147.322 100.112 147.379 100.405 147.378H114.833V137.492H98.1778C98.17 137.54 98.1672 137.589 98.1691 137.638Z" fill="#FBAE17"/>
<path d="M114.833 125.539V135.425H129.255C129.548 135.426 129.838 135.369 130.108 135.258C130.379 135.146 130.625 134.983 130.833 134.776C131.04 134.569 131.205 134.324 131.317 134.054C131.43 133.783 131.488 133.494 131.488 133.201V125.69C131.491 125.644 131.491 125.597 131.488 125.551L114.833 125.539Z" fill="#FDCD08"/>
<path d="M98.1779 125.539H131.482C131.448 124.972 131.198 124.441 130.784 124.053C130.369 123.665 129.823 123.449 129.255 123.451H100.405C99.8375 123.449 99.2904 123.664 98.8762 124.052C98.462 124.44 98.2121 124.972 98.1779 125.539Z" fill="#F8EC30"/>
<path d="M98.1691 125.678V133.177C98.1691 133.47 98.227 133.761 98.3395 134.031C98.452 134.302 98.6169 134.548 98.8247 134.754C99.0325 134.961 99.2791 135.125 99.5503 135.236C99.8215 135.347 100.112 135.403 100.405 135.402H114.833V125.516H98.1778C98.169 125.569 98.1661 125.624 98.1691 125.678Z" fill="#FBAE17"/>
<path d="M114.83 113.574V123.46H129.249C129.542 123.461 129.833 123.403 130.104 123.291C130.375 123.179 130.621 123.015 130.828 122.808C131.036 122.601 131.2 122.355 131.312 122.084C131.425 121.813 131.482 121.523 131.482 121.23V113.723C131.485 113.676 131.485 113.629 131.482 113.583L114.83 113.574Z" fill="#FDCD08"/>
<path d="M98.1719 113.574H131.477C131.442 113.008 131.192 112.476 130.778 112.088C130.364 111.7 129.817 111.485 129.249 111.486H100.399C99.8315 111.484 99.2844 111.699 98.8702 112.087C98.456 112.475 98.2061 113.007 98.1719 113.574Z" fill="#F8EC30"/>
<path d="M98.1632 113.714V121.221C98.1636 121.515 98.2217 121.805 98.3343 122.076C98.4469 122.347 98.6117 122.592 98.8193 122.8C99.0269 123.007 99.2734 123.171 99.5444 123.283C99.8155 123.395 100.106 123.452 100.399 123.452H114.83V113.565H98.1719C98.1641 113.614 98.1612 113.664 98.1632 113.714Z" fill="#FBAE17"/>
</svg>
