<svg width="32" height="16" viewBox="0 0 32 16" fill="none" xmlns="http://www.w3.org/2000/svg">
<path d="M0.366625 8.88482C0.367001 8.8852 0.367314 8.88564 0.367751 8.88601L6.89925 15.386C7.38856 15.8729 8.18 15.8711 8.66706 15.3818C9.15406 14.8924 9.15219 14.101 8.66287 13.614L4.27762 9.25001L30.75 9.25001C31.4404 9.25001 32 8.69039 32 8.00002C32 7.30964 31.4404 6.75002 30.75 6.75002L4.27769 6.75002L8.66281 2.38602C9.15213 1.89902 9.154 1.10759 8.667 0.618276C8.17994 0.128839 7.38844 0.127152 6.89919 0.614027L0.367688 7.11402C0.367312 7.11439 0.366999 7.11483 0.366563 7.1152C-0.123 7.60383 -0.121436 8.39783 0.366625 8.88482Z" fill="#010101"/>
</svg>
