<svg width="33" height="32" viewBox="0 0 33 32" fill="none" xmlns="http://www.w3.org/2000/svg">
<path d="M16.7649 31.1722C12.7101 31.3108 8.76631 29.833 5.80112 27.0638C2.83593 24.2946 1.09225 20.4609 0.953666 16.4061C0.815079 12.3512 2.29294 8.40745 5.06213 5.44226C7.83132 2.47708 11.665 0.733397 15.7198 0.59481C19.7747 0.456222 23.7184 1.93408 26.6836 4.70328C29.6488 7.47247 31.3925 11.3062 31.5311 15.361C31.6697 19.4158 30.1918 23.3596 27.4226 26.3248C24.6534 29.29 20.8197 31.0336 16.7649 31.1722ZM22.9638 16.6105C23.2173 16.6018 23.4569 16.4928 23.63 16.3075C23.803 16.1222 23.8954 15.8757 23.8867 15.6222C23.8781 15.3688 23.7691 15.1292 23.5838 14.9561C23.3984 14.7831 23.152 14.6907 22.8985 14.6994L11.8276 15.0778L15.7905 10.8363C15.9638 10.6508 16.0563 10.404 16.0476 10.1502C16.039 9.89647 15.9298 9.65656 15.7443 9.48326C15.5587 9.30997 15.3119 9.21749 15.0582 9.22616C14.8044 9.23483 14.5645 9.34395 14.3912 9.52951L8.85392 15.4587C8.76797 15.5505 8.70097 15.6584 8.65677 15.7761C8.61256 15.8939 8.59202 16.0192 8.59631 16.1449C8.60061 16.2705 8.62966 16.3941 8.6818 16.5086C8.73394 16.623 8.80814 16.7261 8.90016 16.8118L14.8294 22.3491C15.0149 22.5224 15.2617 22.6149 15.5155 22.6062C15.7692 22.5975 16.0091 22.4884 16.1824 22.3028C16.3557 22.1173 16.4482 21.8705 16.4395 21.6167C16.4309 21.363 16.3217 21.1231 16.1362 20.9498L11.8929 16.9888L22.9638 16.6105Z" fill="#1E2348"/>
</svg>
