<svg width="16" height="20" viewBox="0 0 16 20" fill="none" xmlns="http://www.w3.org/2000/svg">
<path d="M13 5.99938H12V4.10938C12 3.04851 11.5786 2.03109 10.8284 1.28095C10.0783 0.530802 9.06087 0.109375 8 0.109375C6.93913 0.109375 5.92172 0.530802 5.17157 1.28095C4.42143 2.03109 4 3.04851 4 4.10938V5.99938H3C2.20435 5.99938 1.44129 6.31545 0.87868 6.87805C0.316071 7.44066 0 8.20373 0 8.99938V16.9994C0 17.795 0.316071 18.5581 0.87868 19.1207C1.44129 19.6833 2.20435 19.9994 3 19.9994H13C13.7956 19.9994 14.5587 19.6833 15.1213 19.1207C15.6839 18.5581 16 17.795 16 16.9994V8.99938C16 8.20373 15.6839 7.44066 15.1213 6.87805C14.5587 6.31545 13.7956 5.99938 13 5.99938ZM6 4.10938C5.98655 3.56467 6.18945 3.03682 6.56428 2.64137C6.93912 2.24592 7.45536 2.01508 8 1.99938C8.54464 2.01508 9.06088 2.24592 9.43572 2.64137C9.81055 3.03682 10.0135 3.56467 10 4.10938V5.99938H6V4.10938ZM14 16.9994C14 17.2646 13.8946 17.5189 13.7071 17.7065C13.5196 17.894 13.2652 17.9994 13 17.9994H3C2.73478 17.9994 2.48043 17.894 2.29289 17.7065C2.10536 17.5189 2 17.2646 2 16.9994V8.99938C2 8.73416 2.10536 8.4798 2.29289 8.29227C2.48043 8.10473 2.73478 7.99938 3 7.99938H13C13.2652 7.99938 13.5196 8.10473 13.7071 8.29227C13.8946 8.4798 14 8.73416 14 8.99938V16.9994Z" fill="#333131"/>
<path d="M8 10C7.40666 10 6.82664 10.1759 6.33329 10.5056C5.83994 10.8352 5.45543 11.3038 5.22836 11.8519C5.0013 12.4001 4.94189 13.0033 5.05765 13.5853C5.1734 14.1672 5.45912 14.7018 5.87868 15.1213C6.29824 15.5409 6.83279 15.8266 7.41473 15.9424C7.99667 16.0581 8.59987 15.9987 9.14805 15.7716C9.69623 15.5446 10.1648 15.1601 10.4944 14.6667C10.8241 14.1734 11 13.5933 11 13C11 12.2044 10.6839 11.4413 10.1213 10.8787C9.55871 10.3161 8.79565 10 8 10ZM8 14C7.80222 14 7.60888 13.9414 7.44443 13.8315C7.27998 13.7216 7.15181 13.5654 7.07612 13.3827C7.00043 13.2 6.98063 12.9989 7.01922 12.8049C7.0578 12.6109 7.15304 12.4327 7.2929 12.2929C7.43275 12.153 7.61093 12.0578 7.80491 12.0192C7.99889 11.9806 8.19996 12.0004 8.38269 12.0761C8.56541 12.1518 8.72159 12.28 8.83147 12.4444C8.94135 12.6089 9 12.8022 9 13C9 13.2652 8.89464 13.5196 8.70711 13.7071C8.51957 13.8946 8.26522 14 8 14Z" fill="#333131"/>
</svg>
