<svg width="128" height="21" viewBox="0 0 128 21" fill="none" xmlns="http://www.w3.org/2000/svg">
<g clip-path="url(#clip0_1485_8092)">
<path d="M34.5425 0.984375H37.5444V1.08124L30.834 8.50905L37.9987 18.2111V18.3079H35.1479L29.2698 10.2268L26.4947 13.2996V18.3079H24.1738V0.984375H26.4947V9.91227H26.5957L34.5425 0.984375Z" fill="#333131" stroke="#333131"/>
<path d="M38.2266 12.3804C38.2266 10.5577 38.8236 9.04958 40.0176 7.85588C40.6144 7.26613 41.3274 6.80303 42.1127 6.49511C42.898 6.18719 43.7389 6.04097 44.5837 6.06545C45.425 6.03949 46.2626 6.18513 47.0441 6.49324C47.8255 6.80134 48.5339 7.26525 49.1248 7.85587C49.7247 8.44806 50.1953 9.15495 50.5077 9.93305C50.8201 10.7111 50.9676 11.544 50.9412 12.3804C50.9412 14.2192 50.3357 15.7274 49.1248 16.9048C48.5339 17.4955 47.8255 17.9595 47.0441 18.2676C46.2626 18.5757 45.425 18.7213 44.5837 18.6953C43.7389 18.7198 42.8979 18.5736 42.1126 18.2657C41.3273 17.9578 40.6143 17.4946 40.0176 16.9048C38.8231 15.7113 38.2261 14.2032 38.2266 12.3804ZM40.5474 12.3804C40.5474 13.6548 40.9343 14.6871 41.7079 15.4774C42.0837 15.8529 42.5314 16.1511 43.0251 16.3546C43.5188 16.5582 44.0487 16.663 44.5839 16.663C45.1191 16.663 45.6489 16.5582 46.1426 16.3546C46.6363 16.1511 47.0841 15.8529 47.4599 15.4774C47.8519 15.0627 48.1564 14.5754 48.3557 14.0437C48.5549 13.512 48.6448 12.9466 48.6203 12.3804C48.6433 11.8179 48.5526 11.2566 48.3534 10.7291C48.1542 10.2015 47.8504 9.7183 47.4599 9.30754C47.0881 8.92511 46.6417 8.62078 46.1474 8.41287C45.6531 8.20496 45.1213 8.09778 44.5839 8.09778C44.0465 8.09778 43.5146 8.20496 43.0203 8.41287C42.5261 8.62078 42.0796 8.92511 41.7079 9.30754C41.3172 9.71823 41.0134 10.2014 40.8142 10.729C40.615 11.2566 40.5243 11.8179 40.5474 12.3804Z" fill="#333131" stroke="#333131"/>
<path d="M59.4428 18.6951C58.5814 18.7056 57.7298 18.5149 56.9577 18.1387C56.2573 17.809 55.6602 17.2991 55.2296 16.6628H55.1288V18.3079H52.9087V0.984375H55.2296V6.45251L55.1288 8.09763H55.2296C55.6605 7.46152 56.2575 6.95167 56.9577 6.62176C57.7298 6.24553 58.5814 6.05484 59.4428 6.06531C60.2268 6.05565 61.0034 6.21526 61.7182 6.53293C62.433 6.8506 63.0684 7.31864 63.58 7.90416C64.7289 9.11633 65.3534 10.7219 65.3208 12.3802C65.3594 14.0396 64.7341 15.6473 63.58 16.8563C63.0685 17.4418 62.433 17.9099 61.7182 18.2276C61.0035 18.5453 60.2268 18.7049 59.4428 18.6951ZM59.0644 16.6628C59.592 16.6718 60.1154 16.5684 60.5987 16.3596C61.082 16.1508 61.5139 15.8416 61.8646 15.4531C62.6393 14.6163 63.0473 13.5119 62.9997 12.3802C63.0413 11.2495 62.6341 10.1472 61.8646 9.30739C61.5055 8.92581 61.0703 8.6214 60.5863 8.41323C60.1023 8.20506 59.5798 8.09761 59.0517 8.09761C58.5236 8.09761 58.0011 8.20506 57.5171 8.41323C57.0331 8.6214 56.5979 8.92581 56.2388 9.30739C55.4836 10.1541 55.0864 11.2538 55.1288 12.3802C55.0835 13.5144 55.4807 14.6227 56.2388 15.4773C56.5972 15.8614 57.0346 16.1658 57.5219 16.3702C58.0091 16.5747 58.535 16.6744 59.0644 16.6628V16.6628Z" fill="#333131" stroke="#333131"/>
<path d="M66.708 12.3804C66.708 10.5577 67.305 9.04958 68.499 7.85588C69.0958 7.26613 69.8088 6.80303 70.5941 6.49511C71.3794 6.18719 72.2204 6.04097 73.0652 6.06545C73.9064 6.03949 74.7441 6.18513 75.5255 6.49324C76.3069 6.80134 77.0153 7.26525 77.6062 7.85587C78.2062 8.44806 78.6768 9.15495 78.9892 9.93305C79.3016 10.7111 79.4491 11.544 79.4226 12.3804C79.4226 14.2192 78.8172 15.7274 77.6062 16.9048C77.0154 17.4955 76.307 17.9595 75.5255 18.2676C74.7441 18.5757 73.9065 18.7213 73.0652 18.6953C72.2204 18.7198 71.3794 18.5736 70.5941 18.2657C69.8088 17.9578 69.0958 17.4946 68.499 16.9048C67.3046 15.7113 66.7076 14.2032 66.708 12.3804ZM69.0289 12.3804C69.0289 13.6548 69.4157 14.6871 70.1893 15.4774C70.5651 15.8529 71.0129 16.1511 71.5066 16.3546C72.0003 16.5582 72.5301 16.663 73.0653 16.663C73.6005 16.663 74.1304 16.5582 74.6241 16.3546C75.1178 16.1511 75.5655 15.8529 75.9413 15.4774C76.3334 15.0627 76.6379 14.5754 76.8371 14.0437C77.0363 13.512 77.1263 12.9466 77.1018 12.3804C77.1248 11.8179 77.0341 11.2566 76.8348 10.7291C76.6356 10.2015 76.3319 9.7183 75.9413 9.30754C75.5696 8.92511 75.1231 8.62078 74.6289 8.41287C74.1346 8.20496 73.6027 8.09778 73.0653 8.09778C72.5279 8.09778 71.9961 8.20496 71.5018 8.41287C71.0075 8.62078 70.5611 8.92511 70.1893 9.30754C69.7987 9.71823 69.4949 10.2014 69.2956 10.729C69.0964 11.2566 69.0057 11.8179 69.0289 12.3804Z" fill="#333131" stroke="#333131"/>
<path d="M88.0754 3.11356V18.3079H85.7545V3.11356H80.709V0.984375H93.1209V3.11356H88.0754Z" fill="#333131" stroke="#333131"/>
<path d="M95.921 18.308H93.6001V6.4526H95.8202V8.38806H95.921C96.2045 7.70457 96.7163 7.13695 97.3717 6.77912C98.0134 6.36283 98.7607 6.13233 99.5287 6.11384C100.114 6.09859 100.697 6.19725 101.244 6.40417L100.538 8.55757C100.097 8.42316 99.6361 8.36579 99.1754 8.38806C98.7434 8.38779 98.3164 8.4783 97.9227 8.65355C97.529 8.8288 97.1777 9.08476 96.8924 9.40435C96.2631 10.037 95.9138 10.8896 95.921 11.7754L95.921 18.308Z" fill="#333131" stroke="#333131"/>
<path d="M107.526 18.6951C106.692 18.7211 105.862 18.5753 105.089 18.267C104.315 17.9587 103.616 17.4947 103.035 16.9047C101.858 15.7112 101.269 14.203 101.269 12.3802C101.216 10.7122 101.832 9.09088 102.985 7.86795C103.544 7.27644 104.224 6.80957 104.982 6.49865C105.739 6.18774 106.554 6.03997 107.374 6.06528C109.207 6.06528 110.666 6.63388 111.751 7.77108C112.836 8.90819 113.379 10.501 113.378 12.5494L113.353 12.7916H103.641C103.636 13.3163 103.74 13.8365 103.949 14.3194C104.157 14.8024 104.465 15.2377 104.852 15.5981C105.599 16.298 106.596 16.6804 107.626 16.6628C109.106 16.6628 110.267 15.9531 111.108 14.5336L113.177 15.5012C112.643 16.4796 111.844 17.2923 110.868 17.8483C109.852 18.4213 108.697 18.7138 107.526 18.6951ZM103.817 10.9528H110.906C110.88 10.5601 110.774 10.1766 110.594 9.82533C110.414 9.47401 110.164 9.16208 109.859 8.9082C109.228 8.36798 108.383 8.09779 107.324 8.09761C106.501 8.07979 105.7 8.35472 105.066 8.872C104.424 9.40706 103.984 10.1403 103.817 10.9528Z" fill="#333131" stroke="#333131"/>
<path d="M121.148 18.6951C120.315 18.7211 119.485 18.5753 118.711 18.267C117.938 17.9586 117.239 17.4947 116.658 16.9047C115.48 15.7112 114.892 14.203 114.892 12.3802C114.839 10.7122 115.455 9.09086 116.607 7.86794C117.166 7.27643 117.847 6.80956 118.604 6.49865C119.361 6.18774 120.177 6.03998 120.997 6.06528C122.83 6.06528 124.289 6.63388 125.374 7.77107C126.459 8.90819 127.001 10.501 127.001 12.5494L126.976 12.7916H117.263C117.258 13.3164 117.363 13.8365 117.571 14.3194C117.78 14.8024 118.087 15.2377 118.474 15.5981C119.222 16.298 120.218 16.6804 121.249 16.6628C122.729 16.6628 123.889 15.9531 124.731 14.5336L126.799 15.5012C126.266 16.4796 125.466 17.2923 124.491 17.8483C123.474 18.4213 122.319 18.7138 121.148 18.6951ZM117.44 10.9527H124.529C124.503 10.5601 124.397 10.1766 124.217 9.82531C124.037 9.474 123.787 9.16207 123.482 8.90819C122.851 8.36797 122.006 8.09778 120.946 8.0976C120.124 8.07978 119.322 8.35471 118.689 8.87199C118.046 9.40705 117.606 10.1403 117.44 10.9527Z" fill="#333131" stroke="#333131"/>
<path d="M11.4812 10.3789C11.4781 10.7723 11.357 11.1559 11.1331 11.4815C10.9092 11.8072 10.5925 12.0602 10.2229 12.2088C9.85325 12.3573 9.44729 12.3948 9.05612 12.3164C8.66496 12.238 8.30609 12.0473 8.02473 11.7682C7.74337 11.4892 7.55211 11.1344 7.47505 10.7484C7.39799 10.3625 7.43857 9.96272 7.59169 9.59946C7.7448 9.23621 8.0036 8.92573 8.33547 8.70716C8.66734 8.48858 9.05743 8.37169 9.4566 8.3712C9.72434 8.36845 9.98992 8.4186 10.2377 8.51869C10.4854 8.61877 10.7103 8.76676 10.899 8.95392C11.0877 9.14107 11.2365 9.3636 11.3365 9.60835C11.4364 9.8531 11.4856 10.1151 11.4812 10.3789Z" fill="#F28920"/>
<path d="M6.70208 8.11001C6.69989 8.39481 6.6122 8.67259 6.45007 8.90836C6.28794 9.14413 6.05862 9.32734 5.79101 9.43491C5.5234 9.54247 5.22946 9.56958 4.94624 9.51282C4.66301 9.45607 4.40318 9.31797 4.19946 9.11595C3.99574 8.91392 3.85726 8.657 3.80147 8.37756C3.74567 8.09812 3.77506 7.80865 3.88592 7.54564C3.99679 7.28262 4.18417 7.05783 4.42446 6.89957C4.66475 6.74131 4.9472 6.65668 5.23622 6.65633C5.43008 6.65434 5.62237 6.69065 5.80174 6.76312C5.98111 6.83558 6.14393 6.94274 6.28057 7.07825C6.41722 7.21376 6.52492 7.37487 6.59732 7.55209C6.66971 7.7293 6.70534 7.91901 6.70208 8.11001Z" fill="#FFC406"/>
<path d="M2.92783 6.60225C2.92771 6.79352 2.88865 6.98282 2.81296 7.15895C2.73726 7.33507 2.62648 7.49445 2.48716 7.62762C2.34784 7.7608 2.18281 7.86508 2.00186 7.93429C1.82091 8.00349 1.6277 8.03622 1.43369 8.03053C1.04834 8.02318 0.681513 7.86623 0.412964 7.59381C0.144414 7.32139 -0.00414703 6.95552 -0.000419805 6.57574C0.00330742 6.19597 0.159022 5.833 0.432868 5.56574C0.706714 5.29849 1.07655 5.14857 1.46197 5.14856C1.65598 5.14603 1.84852 5.18196 2.02814 5.25423C2.20777 5.32651 2.37081 5.43364 2.50757 5.56926C2.64432 5.70488 2.752 5.86622 2.8242 6.04368C2.8964 6.22114 2.93164 6.4111 2.92783 6.60225Z" fill="#FFC406"/>
<path d="M6.49993 3.42935C6.49773 3.71414 6.41004 3.99192 6.24791 4.22769C6.08578 4.46346 5.85647 4.64667 5.58885 4.75424C5.32124 4.8618 5.02731 4.88892 4.74408 4.83216C4.46086 4.7754 4.20102 4.6373 3.99731 4.43528C3.79359 4.23325 3.65511 3.97634 3.59932 3.69689C3.54352 3.41745 3.57291 3.12799 3.68377 2.86497C3.79464 2.60196 3.98202 2.37716 4.22231 2.21891C4.4626 2.06065 4.74505 1.97601 5.03407 1.97566C5.22793 1.97368 5.42022 2.00999 5.59959 2.08245C5.77896 2.15492 5.94178 2.26207 6.07842 2.39758C6.21507 2.53309 6.32277 2.69421 6.39516 2.87142C6.46756 3.04863 6.50318 3.23834 6.49993 3.42935Z" fill="#FFC406"/>
<path d="M15.0907 3.1481C15.0886 3.43289 15.0009 3.71067 14.8387 3.94644C14.6766 4.18221 14.4473 4.36542 14.1797 4.47299C13.9121 4.58055 13.6181 4.60767 13.3349 4.55091C13.0517 4.49415 12.7918 4.35605 12.5881 4.15403C12.3844 3.952 12.2459 3.69509 12.1901 3.41564C12.1343 3.1362 12.1637 2.84674 12.2746 2.58372C12.3855 2.32071 12.5728 2.09591 12.8131 1.93766C13.0534 1.7794 13.3359 1.69476 13.6249 1.69441C13.8187 1.69243 14.011 1.72874 14.1904 1.8012C14.3698 1.87367 14.5326 1.98082 14.6692 2.11633C14.8059 2.25184 14.9136 2.41296 14.986 2.59017C15.0584 2.76738 15.094 2.95709 15.0907 3.1481Z" fill="#FFC406"/>
<path d="M10.8305 1.45381C10.8267 1.83331 10.6713 2.19605 10.398 2.46344C10.1247 2.73084 9.75552 2.88136 9.37039 2.88238C8.98525 2.8834 8.61522 2.73486 8.34046 2.46892C8.0657 2.20298 7.90834 1.84107 7.90247 1.4616C7.89994 1.2709 7.9358 1.08159 8.00799 0.90463C8.08018 0.72767 8.18725 0.56657 8.32303 0.430648C8.4588 0.294727 8.62058 0.186682 8.799 0.112764C8.97742 0.0388454 9.16894 0.000520246 9.36249 5.25996e-06C9.55604 -0.000509726 9.74777 0.0367957 9.92659 0.109764C10.1054 0.182732 10.2678 0.289914 10.4043 0.425111C10.5408 0.560307 10.6488 0.720835 10.7219 0.897409C10.7951 1.07398 10.832 1.2631 10.8305 1.45381Z" fill="#FFC406"/>
<path d="M18.9843 6.43423C18.9821 6.71902 18.8944 6.99681 18.7323 7.23257C18.5702 7.46834 18.3408 7.65156 18.0732 7.75912C17.8056 7.86669 17.5117 7.8938 17.2285 7.83704C16.9452 7.78028 16.6854 7.64219 16.4817 7.44017C16.278 7.23814 16.1395 6.98122 16.0837 6.70178C16.0279 6.42234 16.0573 6.13287 16.1681 5.86986C16.279 5.60684 16.4664 5.38205 16.7067 5.22379C16.947 5.06553 17.2294 4.9809 17.5184 4.98055C17.7123 4.97856 17.9046 5.01487 18.084 5.08734C18.2633 5.1598 18.4262 5.26696 18.5628 5.40247C18.6994 5.53798 18.8071 5.69909 18.8795 5.87631C18.9519 6.05352 18.9876 6.24323 18.9843 6.43423Z" fill="#FFC406"/>
<path d="M10.768 6.069C10.7658 6.35379 10.6781 6.63157 10.516 6.86734C10.3539 7.10311 10.1245 7.28632 9.85693 7.39389C9.58931 7.50146 9.29538 7.52857 9.01216 7.47181C8.72893 7.41505 8.46909 7.27696 8.26538 7.07493C8.06166 6.87291 7.92318 6.61599 7.86739 6.33655C7.81159 6.0571 7.84098 5.76764 7.95184 5.50462C8.06271 5.24161 8.25009 5.01681 8.49038 4.85855C8.73067 4.7003 9.01312 4.61566 9.30214 4.61531C9.496 4.61332 9.68829 4.64964 9.86766 4.7221C10.047 4.79457 10.2098 4.90172 10.3465 5.03723C10.4831 5.17274 10.5908 5.33386 10.6632 5.51107C10.7356 5.68828 10.7713 5.87799 10.768 6.069Z" fill="#FFC406"/>
<path d="M15.2148 7.97232C15.2126 8.25711 15.1249 8.53489 14.9628 8.77066C14.8006 9.00643 14.5713 9.18964 14.3037 9.29721C14.0361 9.40478 13.7422 9.43189 13.4589 9.37513C13.1757 9.31837 12.9159 9.18028 12.7122 8.97825C12.5084 8.77623 12.37 8.51931 12.3142 8.23987C12.2584 7.96042 12.2878 7.67096 12.3986 7.40794C12.5095 7.14493 12.6969 6.92013 12.9372 6.76187C13.1774 6.60362 13.4599 6.51898 13.7489 6.51863C13.9428 6.51664 14.1351 6.55296 14.3144 6.62542C14.4938 6.69789 14.6566 6.80504 14.7933 6.94055C14.9299 7.07606 15.0376 7.23718 15.11 7.41439C15.1824 7.5916 15.218 7.78131 15.2148 7.97232Z" fill="#FFC406"/>
<path d="M8.7373 19.9239H10.6422C10.7162 18.5162 11.1696 17.1534 11.9557 15.9758C14.0107 12.9426 17.5407 12.4996 18.1081 12.4376V10.9053C16.4507 11.0192 14.8345 11.4659 13.3588 12.218C11.5452 13.1438 9.97808 14.3797 9.31711 15.144" fill="#333131"/>
<path d="M9.78922 19.9239H7.88436C7.81037 18.5162 7.35695 17.1534 6.5708 15.9758C4.51579 12.9426 0.985851 12.4996 0.418457 12.4376V10.9053C2.07582 11.0192 3.69203 11.4659 5.16771 12.218C6.98129 13.1438 8.6525 14.3797 9.31347 15.144" fill="#333131"/>
</g>
<defs>
<clipPath id="clip0_1485_8092">
<rect width="128" height="21" fill="white"/>
</clipPath>
</defs>
</svg>
