<svg width="139" height="23" viewBox="0 0 139 23" fill="none" xmlns="http://www.w3.org/2000/svg">
<g clip-path="url(#clip0_1472_6959)">
<path d="M37.5114 1.67822H40.7713V1.78431L33.4842 9.91953L41.2646 20.5456V20.6516H38.1689L31.7856 11.8009L28.772 15.1664V20.6516H26.2517V1.67822H28.772V11.4564H28.8817L37.5114 1.67822Z" fill="#F2F2F2" stroke="#F2F2F2"/>
<path d="M41.5115 14.1593C41.5115 12.1631 42.1598 10.5113 43.4565 9.20393C44.1045 8.55801 44.8788 8.05081 45.7316 7.71356C46.5844 7.37631 47.4976 7.21616 48.415 7.24298C49.3286 7.21455 50.2382 7.37406 51.0868 7.71151C51.9354 8.04895 52.7046 8.55704 53.3463 9.20391C53.9978 9.85251 54.5089 10.6267 54.8481 11.4789C55.1873 12.3311 55.3475 13.2433 55.3188 14.1593C55.3188 16.1733 54.6613 17.8251 53.3463 19.1147C52.7047 19.7616 51.9354 20.2698 51.0868 20.6072C50.2382 20.9447 49.3286 21.1041 48.415 21.0756C47.4976 21.1025 46.5844 20.9424 45.7316 20.6052C44.8788 20.2679 44.1045 19.7607 43.4565 19.1147C42.1594 17.8075 41.511 16.1557 41.5115 14.1593ZM44.0319 14.1593C44.0319 15.5551 44.4519 16.6858 45.292 17.5513C45.7001 17.9626 46.1863 18.2892 46.7225 18.5121C47.2586 18.735 47.834 18.8498 48.4152 18.8498C48.9964 18.8498 49.5717 18.735 50.1079 18.5121C50.644 18.2892 51.1303 17.9626 51.5383 17.5513C51.9641 17.0972 52.2948 16.5634 52.5111 15.9811C52.7274 15.3988 52.8251 14.7795 52.7985 14.1593C52.8235 13.5433 52.725 12.9285 52.5086 12.3507C52.2923 11.773 51.9624 11.2437 51.5383 10.7938C51.1346 10.375 50.6498 10.0417 50.1131 9.81396C49.5763 9.58625 48.9988 9.46886 48.4152 9.46886C47.8316 9.46886 47.254 9.58625 46.7173 9.81396C46.1805 10.0417 45.6957 10.375 45.292 10.7938C44.8678 11.2436 44.5379 11.7729 44.3215 12.3507C44.1052 12.9285 44.0067 13.5433 44.0319 14.1593Z" fill="#F2F2F2" stroke="#F2F2F2"/>
<path d="M64.5515 21.0757C63.6162 21.0872 62.6914 20.8783 61.8529 20.4663C61.0923 20.1052 60.444 19.5468 59.9763 18.8498H59.8669V20.6516H57.456V1.67822H59.9763V7.66713L59.8669 9.46893H59.9763C60.4442 8.77224 61.0925 8.21383 61.8529 7.8525C62.6914 7.44043 63.6162 7.23159 64.5515 7.24306C65.4029 7.23247 66.2464 7.40728 67.0225 7.75521C67.7987 8.10314 68.4888 8.61575 69.0444 9.25703C70.292 10.5847 70.9701 12.3431 70.9348 14.1594C70.9766 15.9768 70.2976 17.7376 69.0444 19.0617C68.4889 19.7031 67.7988 20.2157 67.0226 20.5636C66.2464 20.9116 65.403 21.0864 64.5515 21.0757ZM64.1407 18.8498C64.7137 18.8597 65.282 18.7464 65.8069 18.5178C66.3317 18.2891 66.8006 17.9504 67.1816 17.5249C68.0228 16.6084 68.4658 15.3989 68.4142 14.1594C68.4593 12.9209 68.0172 11.7137 67.1815 10.7939C66.7916 10.376 66.319 10.0426 65.7934 9.81459C65.2677 9.58659 64.7004 9.46891 64.1269 9.46891C63.5534 9.46891 62.986 9.58659 62.4604 9.81459C61.9348 10.0426 61.4622 10.376 61.0722 10.7939C60.2522 11.7213 59.8208 12.9256 59.8669 14.1594C59.8177 15.4016 60.249 16.6154 61.0722 17.5514C61.4615 17.9721 61.9365 18.3055 62.4656 18.5294C62.9947 18.7533 63.5657 18.8625 64.1407 18.8498V18.8498Z" fill="#F2F2F2" stroke="#F2F2F2"/>
<path d="M72.4408 14.1593C72.4408 12.1631 73.0891 10.5113 74.3857 9.20393C75.0338 8.55801 75.8081 8.05081 76.6609 7.71356C77.5137 7.37631 78.4269 7.21616 79.3443 7.24298C80.2579 7.21455 81.1675 7.37406 82.0161 7.71151C82.8646 8.04895 83.6339 8.55704 84.2756 9.20391C84.9271 9.85251 85.4382 10.6267 85.7774 11.4789C86.1166 12.3311 86.2768 13.2433 86.2481 14.1593C86.2481 16.1733 85.5906 17.8251 84.2756 19.1147C83.6339 19.7616 82.8647 20.2698 82.0161 20.6072C81.1675 20.9447 80.2579 21.1041 79.3443 21.0756C78.4269 21.1025 77.5136 20.9424 76.6608 20.6052C75.808 20.2679 75.0338 19.7607 74.3857 19.1147C73.0886 17.8075 72.4403 16.1557 72.4408 14.1593ZM74.9611 14.1593C74.9611 15.5551 75.3812 16.6858 76.2213 17.5513C76.6294 17.9626 77.1156 18.2892 77.6517 18.5121C78.1879 18.735 78.7633 18.8498 79.3444 18.8498C79.9256 18.8498 80.501 18.735 81.0372 18.5121C81.5733 18.2892 82.0595 17.9626 82.4676 17.5513C82.8934 17.0972 83.224 16.5634 83.4404 15.9811C83.6567 15.3988 83.7544 14.7795 83.7278 14.1593C83.7528 13.5433 83.6543 12.9285 83.4379 12.3507C83.2216 11.773 82.8917 11.2437 82.4676 10.7938C82.0639 10.375 81.5791 10.0417 81.0423 9.81396C80.5056 9.58625 79.928 9.46886 79.3444 9.46886C78.7608 9.46886 78.1833 9.58625 77.6466 9.81396C77.1098 10.0417 76.625 10.375 76.2213 10.7938C75.7971 11.2436 75.4672 11.7729 75.2508 12.3507C75.0344 12.9285 74.936 13.5433 74.9611 14.1593Z" fill="#F2F2F2" stroke="#F2F2F2"/>
<path d="M95.645 4.01019V20.6516H93.1247V4.01019H87.6456V1.67822H101.124V4.01019H95.645Z" fill="#F2F2F2" stroke="#F2F2F2"/>
<path d="M104.165 20.6517H101.644V7.66714H104.055V9.78692H104.165C104.473 9.03834 105.028 8.41666 105.74 8.02476C106.437 7.56882 107.249 7.31636 108.083 7.29611C108.718 7.27942 109.351 7.38747 109.945 7.61409L109.178 9.97258C108.7 9.82537 108.199 9.76254 107.699 9.78692C107.23 9.78663 106.766 9.88576 106.339 10.0777C105.911 10.2696 105.53 10.55 105.22 10.9C104.536 11.5929 104.157 12.5267 104.165 13.4969L104.165 20.6517Z" fill="#F2F2F2" stroke="#F2F2F2"/>
<path d="M116.767 21.076C115.861 21.1044 114.96 20.9447 114.12 20.607C113.28 20.2694 112.521 19.7612 111.89 19.115C110.612 17.8078 109.972 16.156 109.972 14.1596C109.915 12.3328 110.584 10.557 111.835 9.21763C112.442 8.56979 113.182 8.05845 114.004 7.71792C114.826 7.3774 115.712 7.21556 116.602 7.24328C118.592 7.24328 120.177 7.86603 121.355 9.11153C122.533 10.3569 123.122 12.1014 123.122 14.345L123.095 14.6102H112.548C112.542 15.1849 112.656 15.7546 112.882 16.2835C113.109 16.8125 113.442 17.2892 113.863 17.6839C114.674 18.4505 115.757 18.8694 116.876 18.8501C118.483 18.8501 119.743 18.0727 120.657 16.5181L122.903 17.5778C122.324 18.6494 121.456 19.5395 120.396 20.1485C119.292 20.7761 118.038 21.0964 116.767 21.076ZM112.739 12.5962H120.437C120.409 12.1662 120.294 11.7462 120.099 11.3614C119.903 10.9767 119.632 10.635 119.301 10.357C118.616 9.76529 117.698 9.46936 116.547 9.46917C115.654 9.44965 114.784 9.75077 114.096 10.3173C113.398 10.9033 112.92 11.7064 112.739 12.5962Z" fill="#F2F2F2" stroke="#F2F2F2"/>
<path d="M131.56 21.0759C130.655 21.1044 129.753 20.9447 128.914 20.607C128.074 20.2693 127.314 19.7612 126.684 19.115C125.405 17.8078 124.766 16.156 124.766 14.1596C124.708 12.3328 125.377 10.557 126.629 9.21762C127.236 8.56978 127.975 8.05845 128.797 7.71792C129.619 7.3774 130.505 7.21556 131.396 7.24328C133.386 7.24328 134.97 7.86603 136.149 9.11153C137.327 10.3569 137.916 12.1014 137.916 14.345L137.888 14.6102H127.341C127.335 15.1849 127.449 15.7546 127.676 16.2835C127.902 16.8125 128.236 17.2892 128.656 17.6839C129.468 18.4506 130.55 18.8694 131.669 18.8501C133.277 18.8501 134.537 18.0727 135.45 16.5181L137.697 17.5778C137.117 18.6494 136.249 19.5395 135.19 20.1485C134.086 20.7761 132.832 21.0964 131.56 21.0759ZM127.533 12.5962H135.231C135.203 12.1662 135.088 11.7462 134.892 11.3614C134.697 10.9766 134.425 10.635 134.094 10.3569C133.409 9.76528 132.491 9.46935 131.341 9.46915C130.447 9.44964 129.577 9.75076 128.889 10.3173C128.191 10.9033 127.714 11.7064 127.533 12.5962Z" fill="#F2F2F2" stroke="#F2F2F2"/>
<path d="M12.4682 11.367C12.4649 11.7978 12.3334 12.218 12.0902 12.5746C11.8471 12.9313 11.5031 13.2084 11.1018 13.3711C10.7004 13.5338 10.2595 13.5748 9.83476 13.489C9.40998 13.4031 9.02027 13.1942 8.71473 12.8887C8.4092 12.5831 8.2015 12.1944 8.11782 11.7717C8.03413 11.349 8.0782 10.9112 8.24448 10.5133C8.41075 10.1155 8.69178 9.77543 9.05217 9.53604C9.41256 9.29665 9.83618 9.16862 10.2697 9.16809C10.5604 9.16508 10.8488 9.22 11.1178 9.32962C11.3869 9.43923 11.6311 9.60132 11.836 9.8063C12.0409 10.0113 12.2025 10.255 12.3111 10.5231C12.4196 10.7911 12.4731 11.0781 12.4682 11.367Z" fill="#F28920"/>
<path d="M7.27852 8.88226C7.27613 9.19417 7.18091 9.49841 7.00485 9.75663C6.82879 10.0149 6.57976 10.2155 6.28915 10.3333C5.99854 10.4511 5.67934 10.4808 5.37178 10.4187C5.06422 10.3565 4.78205 10.2053 4.56083 9.98399C4.3396 9.76273 4.18922 9.48134 4.12863 9.17528C4.06804 8.86923 4.09995 8.55219 4.22035 8.26413C4.34074 7.97607 4.54422 7.72986 4.80517 7.55653C5.06611 7.3832 5.37283 7.29051 5.68669 7.29012C5.8972 7.28795 6.10602 7.32772 6.3008 7.40708C6.49559 7.48645 6.6724 7.60381 6.82079 7.75223C6.96917 7.90064 7.08613 8.0771 7.16475 8.27119C7.24337 8.46528 7.28205 8.67306 7.27852 8.88226Z" fill="#FFC406"/>
<path d="M3.17982 7.23094C3.17969 7.44043 3.13727 7.64776 3.05507 7.84066C2.97288 8.03356 2.85257 8.20811 2.70128 8.35397C2.54998 8.49983 2.37078 8.61404 2.17427 8.68984C1.97777 8.76564 1.76796 8.80148 1.55727 8.79524C1.13881 8.7872 0.740458 8.6153 0.44883 8.31694C0.157202 8.01857 -0.00412576 7.61785 -7.82266e-05 7.20191C0.0039693 6.78597 0.173065 6.38843 0.470445 6.09572C0.767825 5.80302 1.16944 5.63881 1.58799 5.63881C1.79866 5.63603 2.00775 5.67539 2.20282 5.75454C2.39788 5.8337 2.57493 5.95104 2.72344 6.09957C2.87195 6.24811 2.98888 6.42482 3.06729 6.61918C3.14569 6.81354 3.18396 7.02158 3.17982 7.23094Z" fill="#FFC406"/>
<path d="M7.05891 3.75628C7.05652 4.06819 6.9613 4.37243 6.78524 4.63065C6.60917 4.88888 6.36015 5.08954 6.06954 5.20735C5.77893 5.32516 5.45973 5.35485 5.15217 5.29269C4.84461 5.23052 4.56244 5.07928 4.34122 4.85801C4.12 4.63675 3.96962 4.35536 3.90903 4.0493C3.84844 3.74325 3.88035 3.42622 4.00074 3.13815C4.12113 2.85009 4.32462 2.60388 4.58556 2.43055C4.8465 2.25723 5.15322 2.16453 5.46708 2.16415C5.67759 2.16197 5.88641 2.20174 6.0812 2.28111C6.27598 2.36048 6.45279 2.47783 6.60118 2.62625C6.74957 2.77466 6.86652 2.95113 6.94514 3.14522C7.02376 3.33931 7.06244 3.54708 7.05891 3.75628Z" fill="#FFC406"/>
<path d="M16.3883 3.44769C16.3859 3.7596 16.2906 4.06384 16.1146 4.32206C15.9385 4.58028 15.6895 4.78094 15.3989 4.89875C15.1083 5.01656 14.7891 5.04626 14.4815 4.98409C14.174 4.92193 13.8918 4.77068 13.6706 4.54942C13.4493 4.32815 13.299 4.04677 13.2384 3.74071C13.1778 3.43465 13.2097 3.11762 13.3301 2.82956C13.4505 2.5415 13.654 2.29529 13.9149 2.12196C14.1758 1.94863 14.4826 1.85594 14.7964 1.85555C15.0069 1.85338 15.2158 1.89315 15.4105 1.97251C15.6053 2.05188 15.7821 2.16924 15.9305 2.31766C16.0789 2.46607 16.1959 2.64253 16.2745 2.83662C16.3531 3.03071 16.3918 3.23849 16.3883 3.44769Z" fill="#FFC406"/>
<path d="M11.7615 1.59227C11.7574 2.00791 11.5886 2.40519 11.2919 2.69806C10.9951 2.99092 10.5941 3.15577 10.1759 3.15689C9.75767 3.15801 9.35584 2.99532 9.05746 2.70405C8.75909 2.41279 8.5882 2.01641 8.58183 1.6008C8.57908 1.39194 8.61803 1.1846 8.69642 0.990785C8.77481 0.796972 8.89109 0.620529 9.03853 0.471663C9.18597 0.322796 9.36165 0.204462 9.55541 0.123503C9.74916 0.042545 9.95714 0.000569793 10.1673 5.76091e-06C10.3775 -0.000558272 10.5857 0.0403001 10.7799 0.120217C10.9741 0.200135 11.1504 0.317525 11.2987 0.465597C11.4469 0.61367 11.5641 0.789486 11.6436 0.982876C11.723 1.17627 11.7631 1.38339 11.7615 1.59227Z" fill="#FFC406"/>
<path d="M20.6163 7.0473C20.6139 7.35921 20.5187 7.66345 20.3426 7.92167C20.1666 8.1799 19.9176 8.38056 19.6269 8.49837C19.3363 8.61618 19.0171 8.64587 18.7096 8.58371C18.402 8.52154 18.1198 8.3703 17.8986 8.14903C17.6774 7.92777 17.527 7.64638 17.4664 7.34032C17.4058 7.03427 17.4378 6.71723 17.5581 6.42917C17.6785 6.14111 17.882 5.8949 18.143 5.72157C18.4039 5.54824 18.7106 5.45555 19.0245 5.45516C19.235 5.45299 19.4438 5.49276 19.6386 5.57212C19.8334 5.65149 20.0102 5.76885 20.1586 5.91727C20.307 6.06568 20.4239 6.24214 20.5025 6.43623C20.5812 6.63032 20.6199 6.8381 20.6163 7.0473Z" fill="#FFC406"/>
<path d="M11.6934 6.64739C11.691 6.95931 11.5958 7.26354 11.4197 7.52177C11.2437 7.77999 10.9946 7.98065 10.704 8.09846C10.4134 8.21628 10.0942 8.24597 9.78667 8.18381C9.47911 8.12164 9.19694 7.9704 8.97571 7.74913C8.75449 7.52787 8.60411 7.24648 8.54352 6.94042C8.48293 6.63436 8.51484 6.31733 8.63523 6.02927C8.75562 5.7412 8.95911 5.495 9.22005 5.32167C9.48099 5.14834 9.78772 5.05564 10.1016 5.05526C10.3121 5.05308 10.5209 5.09285 10.7157 5.17222C10.9105 5.25159 11.0873 5.36895 11.2357 5.51736C11.3841 5.66578 11.501 5.84224 11.5796 6.03633C11.6583 6.23042 11.6969 6.4382 11.6934 6.64739Z" fill="#FFC406"/>
<path d="M16.5228 8.73186C16.5205 9.04378 16.4252 9.34802 16.2492 9.60624C16.0731 9.86447 15.8241 10.0651 15.5335 10.1829C15.2429 10.3007 14.9237 10.3304 14.6161 10.2683C14.3085 10.2061 14.0264 10.0549 13.8052 9.8336C13.5839 9.61234 13.4335 9.33095 13.373 9.02489C13.3124 8.71884 13.3443 8.4018 13.4647 8.11374C13.5851 7.82568 13.7885 7.57947 14.0495 7.40614C14.3104 7.23281 14.6172 7.14012 14.931 7.13973C15.1415 7.13756 15.3503 7.17733 15.5451 7.25669C15.7399 7.33606 15.9167 7.45342 16.0651 7.60184C16.2135 7.75025 16.3305 7.92671 16.4091 8.1208C16.4877 8.31489 16.5264 8.52267 16.5228 8.73186Z" fill="#FFC406"/>
<path d="M9.48877 21.8214H11.5573C11.6377 20.2797 12.1301 18.7871 12.9838 17.4973C15.2154 14.1752 19.0487 13.69 19.6648 13.6221V11.9438C17.865 12.0686 16.1099 12.5579 14.5074 13.3816C12.538 14.3956 10.8362 15.7492 10.1184 16.5863" fill="#F2F2F2"/>
<path d="M10.6311 21.8214H8.56252C8.48217 20.2797 7.98978 18.7871 7.13607 17.4973C4.90446 14.1752 1.07117 13.69 0.455017 13.6221V11.9438C2.25481 12.0686 4.00991 12.5579 5.61241 13.3816C7.58184 14.3956 9.39668 15.7492 10.1144 16.5863" fill="#F2F2F2"/>
</g>
<defs>
<clipPath id="clip0_1472_6959">
<rect width="139" height="23" fill="white"/>
</clipPath>
</defs>
</svg>
