<svg width="36" height="36" viewBox="0 0 36 36" fill="none" xmlns="http://www.w3.org/2000/svg">
<path d="M28.5366 18.8272L32.925 17.056C33.3318 16.8912 33.5208 16.4445 33.3471 16.0584C33.2782 15.9051 33.1579 15.7774 33.0051 15.6952L30.8269 14.5093L32.9651 13.6503C33.3719 13.4856 33.5609 13.0388 33.3872 12.6528C33.3182 12.4994 33.198 12.3718 33.0451 12.2896L30.8269 11.1037L32.9651 10.2447C33.3719 10.0799 33.5609 9.63319 33.3872 9.2471C33.3182 9.09373 33.198 8.96612 33.0451 8.88392L30.8269 7.69802L32.9651 6.839C33.3719 6.67423 33.5609 6.22752 33.3872 5.84144C33.3182 5.68807 33.198 5.56045 33.0451 5.47826L22.931 0.0960901C22.7171 -0.0169886 22.4605 -0.0310521 22.2343 0.0580805L14.7469 2.96962C14.6563 2.97304 14.5669 2.991 14.4826 3.02283L9.91002 4.8473L0.516634 8.50382C0.104522 8.65634 -0.0992818 9.09706 0.0613787 9.48818C0.125943 9.64544 0.243861 9.77791 0.396514 9.86457L2.59871 11.0961L0.516634 11.9171C0.106324 12.0738 -0.0925751 12.5165 0.0724898 12.906C0.136554 13.0573 0.250167 13.1849 0.396514 13.2702L2.59871 14.5017L0.500618 15.3228C0.0906079 15.4802 -0.10719 15.9234 0.058676 16.3126C0.125042 16.4683 0.243861 16.5986 0.396514 16.6835L2.59871 17.915L0.516634 18.7588C0.111629 18.9274 -0.0728555 19.3758 0.104722 19.7603C0.166584 19.8943 0.267885 20.0085 0.396413 20.0892L2.84686 21.4575V32.1002C2.84686 34.6317 7.45146 36 11.7838 36C14.7067 36 17.7417 35.3766 19.4154 34.1907C21.017 35.3006 23.8518 36 27.0631 36C31.3954 36 36 34.6317 36 32.1002V22.6738C36.0081 20.4236 32.3805 19.1009 28.5366 18.8272ZM24.893 18.6524V16.8964L28.945 15.2619L30.8269 16.2654L24.893 18.6524ZM24.893 15.2467V13.4907L28.945 11.8563L30.8269 12.8597L24.893 15.2467ZM24.893 11.8411V10.0774L28.945 8.44301L30.8269 9.45406L24.893 11.8411ZM22.4906 1.60127L30.8269 6.0408L24.1402 8.72428L16.5487 3.91226L22.4906 1.60127ZM10.0782 6.4285L17.7579 11.2937L11.0071 14.0152L2.61473 9.33243L10.0782 6.4285ZM4.35247 12.0615L10.5427 15.5204C10.7617 15.6435 11.0291 15.6604 11.2634 15.566L18.6387 12.5937V14.3497L14.875 15.8701C12.7032 15.5394 10.488 15.5626 8.32443 15.9385L2.61473 12.7381L4.35247 12.0615ZM18.6307 15.9993V16.9648C18.2509 16.7765 17.8575 16.6139 17.4536 16.4782L18.6307 15.9993ZM2.86298 19.519V19.6787L2.61473 19.5418L2.87099 19.443L2.86298 19.519ZM2.61473 16.1362L4.35247 15.4596L6.14626 16.4782C5.5855 16.6769 5.04856 16.9317 4.54466 17.2384L2.61473 16.1362ZM19.1272 32.1002C19.1272 33.0733 16.2684 34.4796 11.7919 34.4796C7.31543 34.4796 4.45657 33.0733 4.45657 32.1002V31.2488C6.17829 32.3055 9.03715 32.8604 11.7919 32.8604C14.5467 32.8604 17.3975 32.3055 19.1272 31.2488V32.1002ZM19.1272 28.9606C19.1272 29.9337 16.2684 31.34 11.7919 31.34C7.31543 31.34 4.45657 29.9337 4.45657 28.9606V28.1092C6.17829 29.1659 9.03715 29.7208 11.7919 29.7208C14.5467 29.7208 17.3975 29.1659 19.1272 28.1092V28.9606ZM19.1272 25.821C19.1272 26.7941 16.2684 28.2004 11.7919 28.2004C7.31543 28.2004 4.45657 26.7941 4.45657 25.821V24.9696C6.17829 26.0263 9.03715 26.5812 11.7919 26.5812C14.5467 26.5812 17.3975 26.0263 19.1272 24.9696V25.821ZM19.1272 22.6814C19.1272 23.6545 16.2684 25.0608 11.7919 25.0608C7.31543 25.0608 4.45657 23.6469 4.45657 22.6814V21.7996C6.17829 22.8563 9.03715 23.4112 11.7919 23.4112C14.5467 23.4112 17.3975 22.8563 19.1272 21.7996V22.6814ZM11.7999 21.9136L11.7919 21.9212C7.31543 21.9212 4.45657 20.5073 4.45657 19.5418C4.45657 18.5764 7.31543 17.1624 11.7919 17.1624C16.2684 17.1624 19.1352 18.5612 19.1352 19.519C19.1352 20.4769 16.2764 21.9136 11.7999 21.9136ZM19.88 10.8148L11.872 5.73672L14.7629 4.61164L23.2754 10.0014V19.1237C22.4025 19.2883 21.5513 19.5432 20.7368 19.8839V19.519C20.7305 19.0311 20.5562 18.5585 20.2403 18.1735V11.4458C20.2389 11.1915 20.1037 10.9547 19.88 10.8148ZM34.4065 32.1002C34.4065 33.0733 31.5476 34.4796 27.0712 34.4796C23.932 34.4796 21.6097 33.7878 20.4886 33.0428C20.6434 32.7502 20.7256 32.4278 20.7288 32.1002V31.7657C22.7429 32.5349 24.9007 32.9073 27.0712 32.8604C29.8259 32.8604 32.6768 32.3055 34.4065 31.2488V32.1002ZM34.4065 28.9606C34.4065 29.9337 31.5476 31.34 27.0712 31.34C24.8767 31.4175 22.6965 30.9733 20.7288 30.0477V28.6413C22.7429 29.4106 24.9007 29.783 27.0712 29.736C29.8259 29.736 32.6768 29.1811 34.4065 28.1244V28.9606ZM34.4065 25.821C34.4065 26.7941 31.5476 28.2004 27.0712 28.2004C24.8767 28.2782 22.6964 27.834 20.7288 26.9081V25.4789C22.7429 26.2482 24.9007 26.6206 27.0712 26.5736C29.8259 26.5736 32.6768 26.0187 34.4065 24.962V25.821ZM27.0712 25.0608C24.8767 25.1386 22.6964 24.6944 20.7288 23.7685V21.5867C22.6952 20.6562 24.8754 20.2068 27.0712 20.2792C31.5476 20.2792 34.4065 21.6932 34.4065 22.6586C34.4065 23.6241 31.5556 25.0608 27.0712 25.0608Z" fill="#1E2348"/>
</svg>
