<svg width="45" height="48" viewBox="0 0 45 48" fill="none" xmlns="http://www.w3.org/2000/svg">
<path d="M7.89299 46.5832C7.89299 47.0192 8.24611 47.3727 8.6825 47.3727H28.4203C28.8567 47.3727 29.2098 47.0192 29.2098 46.5832V43.4252H38.684C39.1204 43.4252 39.4735 43.0717 39.4735 42.6357V33.1615H44.2106C44.4488 33.1615 44.6747 33.054 44.8243 32.8685C44.9746 32.6831 45.0325 32.4399 44.9824 32.2066L42.6315 21.2344C42.6077 15.2094 40.0209 9.45339 35.5267 5.43065C30.9492 1.33313 25.0348 -0.546205 18.8775 0.137679C8.99013 1.23598 1.09577 9.22401 0.10734 19.1315C-0.408465 24.2984 0.946197 29.4514 3.92306 33.6411C6.52059 37.2964 7.89299 41.7718 7.89299 46.5832ZM1.67866 19.2884C2.59385 10.1176 9.89992 2.72364 19.0518 1.70668C24.7611 1.07523 30.2353 2.81346 34.4735 6.60721C38.6547 10.3497 41.0525 15.7117 41.0525 21.3188C41.0525 21.3743 41.0587 21.4298 41.0703 21.4842L43.2337 31.5825H38.684C38.2476 31.5825 37.8945 31.936 37.8945 32.372V41.8462H28.4203H25.2623V43.4252H27.6308V45.7937H9.46045C9.31704 40.9522 7.85521 36.4491 5.21065 32.7267C2.45506 28.8481 1.20063 24.0756 1.67866 19.2884Z" fill="#1E2348"/>
<path d="M25.9155 22.6803L25.3288 21.2782C25.4552 21.0184 25.567 20.7481 25.6626 20.4698L27.0713 19.8919C27.3342 19.784 27.5184 19.5426 27.5547 19.2608C27.6071 18.8491 27.631 18.4999 27.631 18.161C27.631 17.8221 27.6071 17.4729 27.5547 17.0611C27.5184 16.7793 27.3342 16.538 27.0713 16.4301L25.6626 15.8522C25.567 15.5743 25.456 15.304 25.3295 15.0438L25.9155 13.6417C26.025 13.3792 25.9849 13.0785 25.8107 12.8537C25.3596 12.2709 24.8361 11.747 24.254 11.2963C24.0288 11.1213 23.7266 11.0827 23.466 11.1918L22.0635 11.7782C21.8029 11.6517 21.5331 11.5403 21.2555 11.4451L20.6773 10.0365C20.5693 9.77318 20.3288 9.58853 20.0466 9.55268C19.2231 9.44859 18.6696 9.44859 17.8461 9.55268C17.5639 9.58853 17.3234 9.77319 17.2154 10.0365L16.6372 11.4451C16.3596 11.5403 16.0898 11.6517 15.8292 11.7782L14.4267 11.1918C14.1653 11.0827 13.8631 11.1213 13.6387 11.2963C13.0566 11.7473 12.5331 12.2709 12.0821 12.853C11.9078 13.0777 11.8677 13.3788 11.9772 13.6413L12.5639 15.0434C12.4375 15.3036 12.3257 15.5739 12.2301 15.8522L10.8215 16.4301C10.5585 16.538 10.3743 16.7793 10.338 17.0611C10.2856 17.4729 10.2617 17.8221 10.2617 18.161C10.2617 18.4999 10.2856 18.8491 10.338 19.2608C10.3743 19.5426 10.5586 19.784 10.8215 19.8919L12.2301 20.4698C12.3257 20.7477 12.4367 21.018 12.5632 21.2782L11.9772 22.6803C11.8677 22.9428 11.9078 23.2435 12.0821 23.4682C12.5331 24.0511 13.0566 24.575 13.6387 25.0257C13.8631 25.2003 14.1653 25.2389 14.4267 25.1302L15.8292 24.5438C16.0898 24.6702 16.3596 24.7817 16.6372 24.8769L17.2154 26.2855C17.3234 26.5488 17.5639 26.7335 17.8461 26.7693C18.2578 26.8214 18.6071 26.8456 18.9464 26.8456C19.2856 26.8456 19.6349 26.8214 20.0466 26.7693C20.3288 26.7335 20.5693 26.5488 20.6773 26.2855L21.2555 24.8769C21.5339 24.7816 21.8037 24.6702 22.0635 24.5438L23.466 25.1301C23.7266 25.2389 24.0288 25.2003 24.254 25.0257C24.8361 24.575 25.3596 24.0511 25.8107 23.4682C25.9849 23.2435 26.025 22.9424 25.9155 22.6803ZM24.7197 19.1494C24.4953 19.2416 24.3257 19.4316 24.2602 19.6648C24.1399 20.0874 23.9749 20.4879 23.769 20.8545C23.6503 21.0665 23.6356 21.3217 23.7289 21.5457L24.2748 22.8499C24.0751 23.0766 23.8615 23.2901 23.6356 23.4894L22.3311 22.944C22.1067 22.8507 21.8523 22.8649 21.6403 22.984C21.2733 23.1899 20.8731 23.3549 20.4506 23.4748C20.217 23.5407 20.0273 23.7103 19.9356 23.9347L19.3959 25.2493C19.0798 25.2724 18.813 25.2724 18.4969 25.2493L17.9572 23.9347C17.8654 23.7103 17.6757 23.5407 17.4421 23.4748C17.0212 23.3553 16.621 23.1899 16.2517 22.9837C16.0389 22.8657 15.786 22.8507 15.5617 22.944L14.2571 23.4894C14.0312 23.2901 13.8176 23.0762 13.6179 22.8499L14.163 21.5457C14.2563 21.3217 14.2417 21.0673 14.1237 20.8557C13.9171 20.4875 13.7521 20.087 13.6326 19.6649C13.5671 19.4316 13.3974 19.2416 13.1731 19.1494L11.8585 18.6101C11.8461 18.452 11.8407 18.3044 11.8407 18.161C11.8407 18.0176 11.8461 17.8699 11.8585 17.7119L13.173 17.1726C13.3974 17.0804 13.567 16.8904 13.6326 16.6571C13.7528 16.2346 13.9178 15.8341 14.1237 15.4675C14.2424 15.2554 14.2571 15.0006 14.1638 14.7763L13.6179 13.4717C13.8176 13.2454 14.0312 13.0319 14.2571 12.8325L15.5616 13.378C15.786 13.4713 16.0389 13.4563 16.2517 13.3383C16.621 13.1321 17.0211 12.9667 17.4421 12.8472C17.6757 12.7813 17.8654 12.6117 17.9571 12.3873L18.4968 11.0727C18.813 11.0496 19.0797 11.0496 19.3958 11.0727L19.9355 12.3873C20.0273 12.6117 20.217 12.7813 20.4506 12.8472C20.8715 12.9667 21.2717 13.1321 21.641 13.3383C21.8523 13.4563 22.1067 13.4713 22.3311 13.378L23.6356 12.8325C23.8615 13.0319 24.0751 13.2458 24.2748 13.4721L23.7297 14.7763C23.6364 15.0002 23.651 15.2547 23.769 15.4663C23.9756 15.8345 24.1406 16.235 24.2601 16.6571C24.3256 16.8904 24.4953 17.0804 24.7196 17.1726L26.0342 17.7119C26.0466 17.8699 26.052 18.0176 26.052 18.161C26.052 18.3044 26.0466 18.452 26.0342 18.6101L24.7197 19.1494Z" fill="#1E2348"/>
<path d="M18.9466 14.2129C16.77 14.2129 14.999 15.9839 14.999 18.1605C14.999 20.337 16.77 22.108 18.9466 22.108C21.1231 22.108 22.8942 20.337 22.8942 18.1605C22.8942 15.9839 21.1231 14.2129 18.9466 14.2129ZM18.9466 20.529C17.6405 20.529 16.578 19.4665 16.578 18.1605C16.578 16.8544 17.6405 15.7919 18.9466 15.7919C20.2527 15.7919 21.3151 16.8544 21.3151 18.1605C21.3151 19.4665 20.2527 20.529 18.9466 20.529Z" fill="#1E2348"/>
<path d="M25.498 27.0635L26.4356 28.3341C27.3392 27.668 28.1511 26.8839 28.8496 26.003L27.6129 25.0215C27.0007 25.7933 26.2891 26.4802 25.498 27.0635Z" fill="#1E2348"/>
<path d="M7.69687 23.9099L9.10165 23.1897C8.76164 22.5251 8.4887 21.825 8.29056 21.108C8.02687 20.1535 7.89348 19.1616 7.89348 18.1601C7.89348 12.0652 12.8518 7.10688 18.9467 7.10688H24.9359L23.915 8.1277L25.0315 9.24412L27.4 6.87558C27.7084 6.56718 27.7084 6.06756 27.4 5.75916L25.0315 3.39062L23.915 4.50704L24.9359 5.52786H18.9467C11.9814 5.52786 6.31445 11.1948 6.31445 18.1601C6.31445 19.3035 6.46711 20.4369 6.76858 21.5282C6.99525 22.3486 7.30751 23.1496 7.69687 23.9099Z" fill="#1E2348"/>
<path d="M31.1246 21.5296L29.6027 21.1094C29.3413 22.0569 28.9527 22.9656 28.4492 23.8106L29.8047 24.6194C30.3814 23.6533 30.8255 22.6136 31.1246 21.5296Z" fill="#1E2348"/>
</svg>
