<svg width="45" height="45" viewBox="0 0 45 45" fill="none" xmlns="http://www.w3.org/2000/svg">
<path d="M22.5 20.2477C23.2515 20.2477 23.9531 19.8429 24.3309 19.1911C24.5135 18.8761 24.4061 18.4728 24.0911 18.2903C23.7762 18.1076 23.3729 18.2149 23.1903 18.5299C23.0475 18.7763 22.783 18.9293 22.5 18.9293C22.217 18.9293 21.9525 18.7763 21.8097 18.5299C21.6271 18.2149 21.2239 18.1075 20.9088 18.2903C20.5939 18.4728 20.4865 18.8761 20.669 19.1911C21.0469 19.8429 21.7484 20.2477 22.5 20.2477Z" fill="#1E2348"/>
<path d="M19.5879 16.6069C19.9519 16.6069 20.2471 16.3119 20.2471 15.9477V15.2197C20.2471 14.8556 19.9519 14.5605 19.5879 14.5605C19.2238 14.5605 18.9287 14.8556 18.9287 15.2197V15.9477C18.9287 16.3119 19.2238 16.6069 19.5879 16.6069Z" fill="#1E2348"/>
<path d="M25.4121 16.6069C25.7762 16.6069 26.0713 16.3119 26.0713 15.9477V15.2197C26.0713 14.8556 25.7762 14.5605 25.4121 14.5605C25.0481 14.5605 24.7529 14.8556 24.7529 15.2197V15.9477C24.7529 16.3119 25.0481 16.6069 25.4121 16.6069Z" fill="#1E2348"/>
<path d="M41.5282 34.9444H40.6317V28.3232V28.3231C40.6316 26.354 39.0295 24.752 37.0604 24.752H33.4202C32.6553 24.752 32.033 25.3742 32.033 26.1391V27.664H31.0989C30.7349 27.664 30.4397 27.9591 30.4397 28.3232C30.4397 28.6873 30.7349 28.9824 31.0989 28.9824H39.3133V35.0362C38.471 35.2968 37.8572 36.0829 37.8572 37.0098V43.6367C37.8572 43.6516 37.859 43.6659 37.8594 43.6807H13.626C13.2619 43.6807 12.9668 43.9757 12.9668 44.3399C12.9668 44.704 13.2619 44.9991 13.626 44.9991H42.9344C44.0733 44.9991 44.9999 44.0725 44.9999 42.9336V38.416C44.9999 36.5017 43.4424 34.9444 41.5282 34.9444ZM33.3514 26.1391C33.3514 26.1012 33.3823 26.0703 33.4202 26.0703H37.0604C38.0734 26.0703 38.9322 26.7424 39.2147 27.664H33.3514V26.1391ZM43.6815 42.9336C43.6815 43.3455 43.3464 43.6807 42.9344 43.6807H39.2445H39.2196C39.1954 43.6807 39.1757 43.6609 39.1757 43.6367V42.0869H41.4285C41.7926 42.0869 42.0877 41.7918 42.0877 41.4277C42.0877 41.0636 41.7926 40.7685 41.4285 40.7685H39.1757V39.1748H41.4285C41.7926 39.1748 42.0877 38.8798 42.0877 38.5156C42.0877 38.1515 41.7926 37.8564 41.4285 37.8564H39.1757V37.0098C39.1757 36.5979 39.5108 36.2627 39.9228 36.2627H41.5282C42.7155 36.2627 43.6815 37.2286 43.6815 38.416V42.9336Z" fill="#1E2348"/>
<path d="M28.4622 28.9833C28.8263 28.9833 29.1214 28.6883 29.1214 28.3242C29.1214 27.96 28.8263 27.665 28.4622 27.665H27.5273V24.2725C29.1444 22.946 30.23 20.9948 30.4118 18.791H31.2362C32.4026 18.791 33.3515 17.8421 33.3515 16.6758V13.7637C33.3515 13.3088 33.2067 12.8872 32.9613 12.5418C33.2023 12.2921 33.3515 11.9532 33.3515 11.5796V10.8516C33.3515 9.6852 32.4026 8.73642 31.2362 8.73642H31.1674V5.75543C31.1674 3.38467 29.2388 1.456 26.8681 1.456H24.9791V1.3623C24.9791 0.611104 24.368 0 23.6168 0H21.3829C20.6317 0 20.0206 0.611104 20.0206 1.3623V1.45591H18.1317C15.7611 1.45591 13.8323 3.38458 13.8323 5.75534L13.8324 8.73633H13.7637C12.5974 8.73633 11.6485 9.6852 11.6485 10.8515V11.5795C11.6485 11.9531 11.7976 12.292 12.0387 12.5417C11.7934 12.8871 11.6485 13.3086 11.6485 13.7635V16.6757C11.6485 17.8421 12.5974 18.7909 13.7637 18.7909H14.5883C14.7702 20.9945 15.8556 22.9457 17.4726 24.272V27.6648H12.9669V26.1399C12.9669 25.375 12.3446 24.7527 11.5797 24.7527H7.93942C5.97023 24.7527 4.36825 26.3547 4.36816 28.3239V28.324V34.9453H3.47168C1.55742 34.9453 0 36.5027 0 38.417V42.9346C0 44.0735 0.926543 45 2.06543 45H10.9893C11.3534 45 11.6485 44.705 11.6485 44.3408C11.6485 43.9767 11.3534 43.6816 10.9893 43.6816H7.14032C7.14076 43.6669 7.14252 43.6525 7.14252 43.6377V37.0107C7.14252 36.0839 6.52887 35.2978 5.68652 35.0372V28.9833H28.4622ZM32.0332 16.6758C32.0332 17.1151 31.6758 17.4726 31.2363 17.4726H30.4394V12.9667H31.2381C31.6767 12.9676 32.0331 13.3247 32.0331 13.7635V16.6758H32.0332ZM26.8682 2.77427C28.5119 2.77427 29.8492 4.11161 29.8492 5.75534V8.73633H28.2554V7.93951C28.2554 7.57538 27.9603 7.28033 27.5963 7.28033C27.2322 7.28033 26.9371 7.57538 26.9371 7.93951V8.73633H24.9793V2.77427H26.8682ZM21.3391 1.3623C21.3391 1.33813 21.3587 1.31836 21.383 1.31836H23.6169C23.6412 1.31836 23.6609 1.33813 23.6609 1.3623V8.73633H21.3391V1.3623ZM15.1508 5.75534C15.1508 4.11161 16.4881 2.77427 18.1319 2.77427H20.0208V8.73633H18.063V7.93951C18.063 7.57538 17.7679 7.28033 17.4038 7.28033C17.0398 7.28033 16.7447 7.57538 16.7447 7.93951V8.73633H15.151L15.1508 5.75534ZM12.9669 10.8516C12.9669 10.4122 13.3243 10.0548 13.7637 10.0548H31.2363C31.6758 10.0548 32.0332 10.4122 32.0332 10.8516V11.5796C32.0332 11.6176 32.0023 11.6484 31.9644 11.6484H13.0357C12.9977 11.6484 12.9669 11.6175 12.9669 11.5796V10.8516ZM12.9669 16.6758V13.7637C12.9669 13.3243 13.3243 12.9669 13.7637 12.9669H14.5606L14.5607 17.4728H13.7637C13.3243 17.4727 12.9669 17.1152 12.9669 16.6758ZM15.879 18.1322L15.8789 12.9669H29.1211V18.1322C29.1211 21.783 26.1509 24.7532 22.5 24.7532C18.8491 24.7532 15.879 21.783 15.879 18.1322ZM18.7909 25.15C19.8987 25.7378 21.1611 26.0715 22.5001 26.0715C23.839 26.0715 25.1013 25.7379 26.209 25.1502V27.665H18.791V25.15H18.7909ZM7.93942 26.0713H11.5797C11.6176 26.0713 11.6485 26.1022 11.6485 26.1401V27.665H5.78514C6.06771 26.7434 6.92648 26.0713 7.93942 26.0713ZM5.82425 37.8574H3.57144C3.20739 37.8574 2.91226 38.1524 2.91226 38.5166C2.91226 38.8807 3.20739 39.1758 3.57144 39.1758H5.82425V40.7695H3.57144C3.20739 40.7695 2.91226 41.0645 2.91226 41.4287C2.91226 41.7928 3.20739 42.0878 3.57144 42.0878H5.82425V43.6377C5.82425 43.6619 5.80456 43.6816 5.7803 43.6816H5.75543H2.06543C1.65349 43.6816 1.31836 43.3464 1.31836 42.9346V38.417C1.31836 37.2296 2.28437 36.2637 3.47168 36.2637H5.07718C5.48912 36.2637 5.82425 36.5988 5.82425 37.0107V37.8574Z" fill="#1E2348"/>
</svg>
