<svg width="45" height="52" viewBox="0 0 45 52" fill="none" xmlns="http://www.w3.org/2000/svg">
<path d="M40.6731 4.32692C40.6731 1.90402 38.7691 0 36.3462 0H4.32692C1.90402 0 0 1.90402 0 4.32692V11.25H6.92308V47.5962C6.92308 50.0191 8.82709 51.9231 11.25 51.9231H40.6731C43.096 51.9231 45 50.0191 45 47.5962V43.2692H40.6731V4.32692ZM6.92308 9.51923H1.73077V4.32692C1.73077 2.8556 2.8556 1.73077 4.32692 1.73077C5.79825 1.73077 6.92308 2.8556 6.92308 4.32692V9.51923ZM8.65385 47.5962V4.32692C8.65385 3.37492 8.30778 2.50953 7.78846 1.73077H36.3462C37.8175 1.73077 38.9423 2.8556 38.9423 4.32692V43.2692H13.8462V47.5962C13.8462 49.0675 12.7213 50.1923 11.25 50.1923C9.77868 50.1923 8.65385 49.0675 8.65385 47.5962ZM43.2692 45V47.5962C43.2692 49.0675 42.1444 50.1923 40.6731 50.1923H14.7115C15.3175 49.4135 15.5769 48.5482 15.5769 47.5962V45H43.2692Z" fill="#1E2348"/>
<path d="M30.2881 27.6914H37.2112V29.4222H30.2881V27.6914Z" fill="#1E2348"/>
<path d="M10.3848 27.6914H28.5578V29.4222H10.3848V27.6914Z" fill="#1E2348"/>
<path d="M19.9043 31.1543H37.212V32.8851H19.9043V31.1543Z" fill="#1E2348"/>
<path d="M10.3848 31.1543H18.1732V32.8851H10.3848V31.1543Z" fill="#1E2348"/>
<path d="M25.9619 38.0762H37.2119V39.8069H25.9619V38.0762Z" fill="#1E2348"/>
<path d="M10.3848 38.0762H24.2309V39.8069H10.3848V38.0762Z" fill="#1E2348"/>
<path d="M22.3267 17.6532L23.3653 18.3457L24.4039 17.6532C27.519 15.5763 29.423 12.0282 29.423 8.30718V5.45115L23.3653 3.46094L17.3076 5.45115V8.30718C17.3076 12.0282 19.2116 15.5763 22.3267 17.6532ZM19.0384 6.66303L23.3653 5.19171L27.6922 6.66303V8.30718C27.6922 11.5088 26.1347 14.4515 23.4519 16.2685H23.3653L23.2787 16.1823C20.5959 14.4515 19.0384 11.4226 19.0384 8.22055V6.66303Z" fill="#1E2348"/>
<path d="M25.9616 8.73965L24.2308 8.56641C24.0576 10.0377 23.2788 11.4224 22.0674 12.2878L23.0194 13.7587C24.6635 12.5473 25.7884 10.7299 25.9616 8.73965Z" fill="#1E2348"/>
<path d="M15.5771 34.6152H37.2118V36.346H15.5771V34.6152Z" fill="#1E2348"/>
<path d="M10.3848 34.6152H13.8463V36.346H10.3848V34.6152Z" fill="#1E2348"/>
<path d="M19.9043 24.2305H37.212V25.9612H19.9043V24.2305Z" fill="#1E2348"/>
<path d="M10.3848 24.2305H18.1732V25.9612H10.3848V24.2305Z" fill="#1E2348"/>
<path d="M17.3076 19.9043H29.423V21.6351H17.3076V19.9043Z" fill="#1E2348"/>
</svg>
