<svg width="42" height="46" viewBox="0 0 42 46" fill="none" xmlns="http://www.w3.org/2000/svg">
<path d="M40.9083 6.04687C29.8267 6.04687 24.8715 0.315179 24.8237 0.259072C24.5358 -0.0863575 23.9479 -0.0863575 23.6601 0.259072C23.6117 0.3166 18.708 6.04687 7.57558 6.04687C7.15744 6.04687 6.81805 6.38626 6.81805 6.8044V21.1985C6.81805 20.7795 6.47865 20.4409 6.06052 20.4409H0.757531C0.339393 20.4409 0 20.7795 0 21.1985V36.3497C0 36.7678 0.339393 37.1072 0.757531 37.1072H6.06043C6.47857 37.1072 6.81796 36.7678 6.81796 36.3497V35.5917H11.0529C12.5109 37.8125 14.2812 39.7502 16.3223 41.3538C18.7215 43.2393 21.3131 44.6037 24.026 45.4082C24.0972 45.4294 24.1692 45.44 24.2419 45.44C24.3146 45.44 24.3866 45.4293 24.4578 45.4082C27.1706 44.6037 29.7622 43.2393 32.1614 41.3538C38.1128 36.6774 41.6657 29.1662 41.6657 21.2625V6.8044C41.6658 6.38626 41.3264 6.04687 40.9083 6.04687ZM6.82906 22.014H6.81796V21.2625C6.81805 21.5133 6.82195 21.7638 6.82906 22.014ZM5.3029 35.5921H1.51506V21.956H5.3029V22.7715V34.8342V35.5921ZM6.81805 23.5261H6.84912C6.96657 23.536 8.00668 23.6064 9.0506 22.6572C10.4233 21.4087 11.1195 19.0421 11.1195 15.6247C11.1195 14.7013 11.29 13.6224 11.7703 13.6224H11.8725C12.5846 13.6224 13.5369 14.8557 13.693 15.9792C13.8907 17.405 13.94 19.6041 13.6514 21.0496C13.6408 21.0989 13.6362 21.148 13.6362 21.1981V22.7133C13.6362 23.1314 13.9756 23.4708 14.3937 23.4708H20.4542C20.8717 23.4708 21.2118 23.8109 21.2118 24.2283C21.2118 24.6458 20.8717 24.9859 20.4542 24.9859H14.3936C13.9755 24.9859 13.6361 25.3253 13.6361 25.7434C13.6361 26.1615 13.9755 26.5009 14.3936 26.5009H20.4541C20.8716 26.5009 21.2117 26.841 21.2117 27.2585C21.2117 27.6759 20.8716 28.016 20.4541 28.016H14.3936C13.9755 28.016 13.6361 28.3554 13.6361 28.7735C13.6361 29.1917 13.9755 29.531 14.3936 29.531H20.4541C20.8716 29.531 21.2117 29.8711 21.2117 30.2886C21.2117 30.706 20.8716 31.0461 20.4541 31.0461H14.3936C13.9755 31.0461 13.6361 31.3855 13.6361 31.8036C13.6361 32.2218 13.9755 32.5612 14.3936 32.5612H20.4541C20.8716 32.5612 21.2117 32.9013 21.2117 33.3187C21.2117 33.7361 20.8716 34.0762 20.4541 34.0762H6.81805V23.5261ZM22.1465 31.8039C22.5071 31.4017 22.7267 30.8706 22.7267 30.2888C22.7267 29.7069 22.507 29.1758 22.1465 28.7736C22.5071 28.3714 22.7267 27.8403 22.7267 27.2585C22.7267 26.6766 22.507 26.1456 22.1465 25.7433C22.5071 25.3411 22.7267 24.81 22.7267 24.2281C22.7267 22.9752 21.707 21.9555 20.4541 21.9555H15.1512V21.2714C15.4716 19.5904 15.3996 17.2525 15.1936 15.7707C15.004 14.4026 14.0763 12.9117 12.8785 12.3446V11.7281C18.1048 10.9546 21.8745 9.11836 24.2419 7.58501C26.6093 9.11827 30.3789 10.9546 35.6053 11.7281V21.262C35.6053 27.3217 32.9182 33.0512 28.4168 36.589C27.085 37.6352 25.682 38.4662 24.2419 39.0632C22.8018 38.4662 21.3987 37.6352 20.0677 36.589C19.6705 36.2769 19.2841 35.9433 18.9097 35.5915H20.4541C21.707 35.5915 22.7267 34.5718 22.7267 33.3188C22.7268 32.7372 22.5071 32.2062 22.1465 31.8039ZM40.1507 21.2625C40.1507 28.7047 36.8144 35.7705 31.2251 40.1628C29.041 41.8795 26.6926 43.1332 24.2419 43.8908C21.7912 43.1333 19.4427 41.8795 17.2587 40.1628C15.6056 38.8638 14.141 37.3297 12.8904 35.5917H16.787C17.5152 36.393 18.3017 37.1285 19.1314 37.7809C20.6631 38.9846 22.2896 39.9286 23.9654 40.5853C24.0539 40.6202 24.148 40.6376 24.2419 40.6376C24.3358 40.6376 24.4297 40.6202 24.5184 40.5853C26.1934 39.9286 27.8199 38.9846 29.3532 37.7809C34.2167 33.9582 37.1205 27.7826 37.1205 21.2623V11.0685C37.1205 10.6867 36.8372 10.3655 36.4584 10.317C30.8517 9.60193 26.9517 7.60197 24.6677 6.04971C24.4108 5.87473 24.0729 5.87473 23.8162 6.04971C21.5322 7.60197 17.6322 9.60193 12.0255 10.317C11.6467 10.3655 11.3634 10.6867 11.3634 11.0685V12.148C10.5746 12.3105 9.60439 13.0365 9.60439 15.6247C9.60439 18.8269 8.96218 20.4189 8.3332 21.2102V7.55367C17.6073 7.34762 22.6246 3.38934 24.242 1.83708C25.8594 3.38934 30.8767 7.34753 40.1508 7.55367V21.2625H40.1507Z" fill="#1E2348"/>
</svg>
