<svg width="64" height="64" viewBox="0 0 64 64" fill="none" xmlns="http://www.w3.org/2000/svg">
<rect width="64" height="64" rx="32" fill="#EA1D1D" fill-opacity="0.2"/>
<path d="M27.3625 41.288C25.9705 41.288 24.7305 40.944 23.6425 40.256C22.5545 39.568 21.6985 38.576 21.0745 37.28C20.4665 35.968 20.1625 34.408 20.1625 32.6C20.1625 30.792 20.4665 29.24 21.0745 27.944C21.6985 26.632 22.5545 25.632 23.6425 24.944C24.7305 24.256 25.9705 23.912 27.3625 23.912C28.7545 23.912 29.9945 24.256 31.0825 24.944C32.1705 25.632 33.0185 26.632 33.6265 27.944C34.2505 29.24 34.5625 30.792 34.5625 32.6C34.5625 34.408 34.2505 35.968 33.6265 37.28C33.0185 38.576 32.1705 39.568 31.0825 40.256C29.9945 40.944 28.7545 41.288 27.3625 41.288ZM27.3625 38C28.3865 38 29.1865 37.56 29.7625 36.68C30.3545 35.8 30.6505 34.44 30.6505 32.6C30.6505 30.76 30.3545 29.4 29.7625 28.52C29.1865 27.64 28.3865 27.2 27.3625 27.2C26.3545 27.2 25.5545 27.64 24.9625 28.52C24.3865 29.4 24.0985 30.76 24.0985 32.6C24.0985 34.44 24.3865 35.8 24.9625 36.68C25.5545 37.56 26.3545 38 27.3625 38ZM42.7909 24.2V41H38.9029V27.32H35.5429V24.2H42.7909Z" fill="#333131"/>
</svg>
