<svg width="18" height="17" viewBox="0 0 18 17" fill="none" xmlns="http://www.w3.org/2000/svg">
<path d="M11.6247 5.125L14.2497 2.5M15.7497 1L14.2497 2.5L15.7497 1ZM8.54222 8.2075C8.92947 8.5896 9.23732 9.04453 9.44803 9.54609C9.65875 10.0477 9.76817 10.5859 9.76999 11.13C9.77181 11.674 9.666 12.213 9.45865 12.716C9.2513 13.2189 8.94651 13.6759 8.56183 14.0606C8.17714 14.4453 7.72016 14.7501 7.21719 14.9574C6.71423 15.1648 6.17522 15.2706 5.63119 15.2688C5.08717 15.2669 4.54887 15.1575 4.04731 14.9468C3.54575 14.7361 3.09082 14.4283 2.70872 14.041C1.95732 13.263 1.54154 12.221 1.55094 11.1395C1.56034 10.0579 1.99416 9.02331 2.75897 8.2585C3.52377 7.49369 4.55838 7.05987 5.63994 7.05047C6.7215 7.04107 7.76348 7.45685 8.54147 8.20825L8.54222 8.2075ZM8.54222 8.2075L11.6247 5.125L8.54222 8.2075ZM11.6247 5.125L13.8747 7.375L16.4997 4.75L14.2497 2.5L11.6247 5.125Z" stroke="white" stroke-width="2" stroke-linecap="round" stroke-linejoin="round"/>
</svg>
