<svg width="50" height="50" viewBox="0 0 50 50" fill="none" xmlns="http://www.w3.org/2000/svg">
<path d="M7.33085 13.7216H8.69256V25.1474C8.69256 25.9013 9.30585 26.5145 10.0598 26.5145H11.6223C12.3762 26.5145 12.9894 25.9013 12.9894 25.1474V13.7216H14.3512C14.6858 13.7216 14.9957 13.5404 15.1598 13.2486C15.3238 12.9568 15.3179 12.598 15.1439 12.312L11.6339 6.53594C11.4642 6.25664 11.1679 6.08984 10.841 6.08984C10.5141 6.08984 10.2178 6.25664 10.0481 6.53594L10.0482 6.53584L6.53807 12.312C6.36424 12.598 6.35819 12.9569 6.52225 13.2486C6.68631 13.5403 6.99618 13.7216 7.33085 13.7216ZM11.3001 7.29648C11.3 7.29678 11.2998 7.29707 11.2996 7.29746L11.3001 7.29648ZM10.841 8.05186L13.3963 12.2567H12.8918C12.1379 12.2567 11.5246 12.87 11.5246 13.6239V25.0497H10.1574V13.6239C10.1574 12.87 9.54413 12.2567 8.79022 12.2567H8.28573L10.841 8.05186Z" fill="#1E2348"/>
<path d="M4.30176 26.5117H5.86426C6.61816 26.5117 7.23145 25.8984 7.23145 25.1445V18.0156C7.23145 17.2617 6.61816 16.6484 5.86426 16.6484H4.30176C3.54785 16.6484 2.93457 17.2617 2.93457 18.0156V25.1445C2.93457 25.8984 3.54795 26.5117 4.30176 26.5117ZM4.39941 18.1133H5.7666V25.0469H4.39941V18.1133Z" fill="#1E2348"/>
<path d="M48.7844 8.68604L41.314 1.21553C40.53 0.431738 39.4877 0 38.3791 0H18.8965C17.6849 0 16.6992 0.985742 16.6992 2.19727V28.0273H4.63867C3.69639 28.0273 2.92969 28.794 2.92969 29.7363V31.2012C2.92969 31.2843 2.9377 31.3653 2.94922 31.4453H1.70898C0.766699 31.4453 0 32.212 0 33.1543V34.6191C0 35.5614 0.766699 36.3281 1.70898 36.3281H2.94922C2.9377 36.4081 2.92969 36.4892 2.92969 36.5723V38.0371C2.92969 38.1202 2.9377 38.2013 2.94922 38.2812H1.70898C0.766699 38.2812 0 39.048 0 39.9902V41.4551C0 42.3974 0.766699 43.1641 1.70898 43.1641H2.94922C2.9377 43.244 2.92969 43.3251 2.92969 43.4082V44.873C2.92969 44.9562 2.9377 45.0372 2.94922 45.1172H1.70898C0.766699 45.1172 0 45.8839 0 46.8262V48.291C0 49.2333 0.766699 50 1.70898 50H47.8027C49.0144 50 50 49.0143 50 47.8027V19.9707C50 19.5661 49.6721 19.2383 49.2676 19.2383C48.8631 19.2383 48.5352 19.5661 48.5352 19.9707V47.8027C48.5352 48.2066 48.2066 48.5352 47.8027 48.5352H22.6367C22.6482 48.4552 22.6562 48.3741 22.6562 48.291V46.8262C22.6562 46.7431 22.6482 46.662 22.6367 46.582H23.877C24.8192 46.582 25.5859 45.8153 25.5859 44.873V43.4082C25.5859 42.4659 24.8192 41.6992 23.877 41.6992H22.6367C22.6482 41.6192 22.6562 41.5382 22.6562 41.4551V39.9902C22.6562 39.9071 22.6482 39.8261 22.6367 39.7461H23.877C24.8192 39.7461 25.5859 38.9794 25.5859 38.0371V36.5723C25.5859 35.63 24.8192 34.8633 23.877 34.8633H22.6367C22.6482 34.7833 22.6562 34.7022 22.6562 34.6191V33.1543C22.6562 33.0712 22.6482 32.9901 22.6367 32.9102H23.877C24.8192 32.9102 25.5859 32.1435 25.5859 31.2012V29.7363C25.5859 28.794 24.8192 28.0273 23.877 28.0273H18.1641V2.19727C18.1641 1.79336 18.4926 1.46484 18.8965 1.46484H38.3308C38.7342 1.46484 39.0625 1.79307 39.0625 2.19658V4.39453H22.3145C21.6413 4.39453 21.0938 4.94209 21.0938 5.61523V18.0176C21.0938 18.6907 21.6413 19.2383 22.3145 19.2383H44.3848C45.0579 19.2383 45.6055 18.6907 45.6055 18.0176V10.9375H47.8027C48.2066 10.9375 48.5352 11.266 48.5352 11.6699V12.4023V16.5527C48.5352 16.9573 48.8631 17.2852 49.2676 17.2852C49.6721 17.2852 50 16.9573 50 16.5527V11.6208C50 10.5122 49.5683 9.47002 48.7844 8.68604ZM24.1211 43.4082V44.873C24.1211 45.0077 24.0115 45.1172 23.877 45.1172H10.0098C9.60527 45.1172 9.27734 45.445 9.27734 45.8496C9.27734 46.2542 9.60527 46.582 10.0098 46.582H20.9473C21.0818 46.582 21.1914 46.6915 21.1914 46.8262V48.291C21.1914 48.4257 21.0818 48.5352 20.9473 48.5352H1.70898C1.57441 48.5352 1.46484 48.4257 1.46484 48.291V46.8262C1.46484 46.6915 1.57441 46.582 1.70898 46.582H6.5918C6.99629 46.582 7.32422 46.2542 7.32422 45.8496C7.32422 45.445 6.99629 45.1172 6.5918 45.1172H4.63867C4.5041 45.1172 4.39453 45.0077 4.39453 44.873V43.4082C4.39453 43.2735 4.5041 43.1641 4.63867 43.1641H20.9473H23.877C24.0115 43.1641 24.1211 43.2735 24.1211 43.4082ZM21.1914 39.9902V41.4551C21.1914 41.5897 21.0818 41.6992 20.9473 41.6992H1.70898C1.57441 41.6992 1.46484 41.5897 1.46484 41.4551V39.9902C1.46484 39.8556 1.57441 39.7461 1.70898 39.7461H4.63867H20.9473C21.0818 39.7461 21.1914 39.8556 21.1914 39.9902ZM24.1211 36.5723V38.0371C24.1211 38.1718 24.0115 38.2812 23.877 38.2812H4.63867C4.5041 38.2812 4.39453 38.1718 4.39453 38.0371V36.5723C4.39453 36.4376 4.5041 36.3281 4.63867 36.3281H23.877C24.0115 36.3281 24.1211 36.4376 24.1211 36.5723ZM21.1914 33.1543V34.6191C21.1914 34.7538 21.0818 34.8633 20.9473 34.8633H1.70898C1.57441 34.8633 1.46484 34.7538 1.46484 34.6191V33.1543C1.46484 33.0196 1.57441 32.9102 1.70898 32.9102H20.9473C21.0818 32.9102 21.1914 33.0196 21.1914 33.1543ZM24.1211 29.7363V31.2012C24.1211 31.3358 24.0115 31.4453 23.877 31.4453H4.63867C4.5041 31.4453 4.39453 31.3358 4.39453 31.2012V29.7363C4.39453 29.6017 4.5041 29.4922 4.63867 29.4922H23.877C24.0115 29.4922 24.1211 29.6017 24.1211 29.7363ZM47.4993 9.47266H41.2598C40.8559 9.47266 40.5273 9.14414 40.5273 8.74023V2.50059L47.4993 9.47266ZM44.1406 17.7734H22.5586V5.85938H39.0625V8.74023C39.0625 9.95176 40.0481 10.9375 41.2598 10.9375H44.1406V17.7734Z" fill="#1E2348"/>
<path d="M33.8867 45.6055H44.873C45.2775 45.6055 45.6055 45.2776 45.6055 44.873C45.6055 44.4685 45.2775 44.1406 44.873 44.1406H33.8867C33.4822 44.1406 33.1543 44.4685 33.1543 44.873C33.1543 45.2776 33.4822 45.6055 33.8867 45.6055Z" fill="#1E2348"/>
<path d="M33.526 42.4938C33.87 42.7064 34.3214 42.6 34.5342 42.256L35.8436 40.1387L36.8243 41.9771C37.0292 42.3614 37.427 42.6086 37.8622 42.6225C38.2966 42.6367 38.7103 42.415 38.9395 42.0445L40.1181 40.1386L41.1096 41.9974C41.3149 42.3821 41.6974 42.6232 42.133 42.6423C42.1516 42.6431 42.1701 42.6436 42.1885 42.6436C42.6026 42.6435 42.981 42.4393 43.209 42.0897L45.4307 38.6833C45.6517 38.3445 45.5562 37.8906 45.2173 37.6697C44.8787 37.4489 44.4248 37.5444 44.2038 37.883L42.2077 40.9436L41.2107 39.0745C41.0057 38.6903 40.608 38.443 40.1727 38.4291C39.7363 38.4108 39.3246 38.6365 39.0955 39.0072L37.9168 40.913L36.9362 39.0746C36.7311 38.6904 36.3333 38.443 35.8981 38.4292C35.4622 38.4109 35.05 38.6366 34.8209 39.0072L33.2883 41.4856C33.0755 41.8297 33.182 42.2811 33.526 42.4938Z" fill="#1E2348"/>
<path d="M44.873 30.957H33.9355C33.5311 30.957 33.2031 31.2849 33.2031 31.6895C33.2031 32.094 33.5311 32.4219 33.9355 32.4219H44.873C45.2775 32.4219 45.6055 32.094 45.6055 31.6895C45.6055 31.2849 45.2775 30.957 44.873 30.957Z" fill="#1E2348"/>
<path d="M44.873 28.0273H29.3457C28.9412 28.0273 28.6133 28.3552 28.6133 28.7598C28.6133 29.1644 28.9412 29.4922 29.3457 29.4922H44.873C45.2775 29.4922 45.6055 29.1644 45.6055 28.7598C45.6055 28.3552 45.2775 28.0273 44.873 28.0273Z" fill="#1E2348"/>
<path d="M44.873 25.0977H21.8262C21.4217 25.0977 21.0938 25.4255 21.0938 25.8301C21.0938 26.2347 21.4217 26.5625 21.8262 26.5625H44.873C45.2775 26.5625 45.6055 26.2347 45.6055 25.8301C45.6055 25.4255 45.2775 25.0977 44.873 25.0977Z" fill="#1E2348"/>
<path d="M44.873 22.168H21.8262C21.4217 22.168 21.0938 22.4958 21.0938 22.9004C21.0938 23.305 21.4217 23.6328 21.8262 23.6328H44.873C45.2775 23.6328 45.6055 23.305 45.6055 22.9004C45.6055 22.4958 45.2775 22.168 44.873 22.168Z" fill="#1E2348"/>
</svg>
