<svg width="50" height="50" viewBox="0 0 50 50" fill="none" xmlns="http://www.w3.org/2000/svg">
<path d="M49.1667 0H0.833333C0.373125 0 0 0.373125 0 0.833333V49.1667C0 49.6269 0.373125 50 0.833333 50H49.1667C49.6269 50 50 49.6269 50 49.1667V0.833333C50 0.373125 49.6269 0 49.1667 0ZM1.66667 1.66667H24.1667V7.78167C21.5608 6.86792 18.7076 8.23969 17.7939 10.8455C16.8801 13.4514 18.2519 16.3046 20.8577 17.2183C21.9287 17.5939 23.0956 17.5939 24.1667 17.2183V24.1667H15.8333C15.3731 24.1667 15 24.5398 15 25C15 25.1803 15.0584 25.3557 15.1667 25.5C15.6035 26.0748 15.8379 26.778 15.8333 27.5C15.8333 29.3409 14.3409 30.8333 12.5 30.8333C10.6591 30.8333 9.16667 29.3409 9.16667 27.5C9.16208 26.778 9.39646 26.0748 9.83333 25.5C10.1095 25.1318 10.0349 24.6095 9.66667 24.3333C9.5224 24.2251 9.34698 24.1667 9.16667 24.1667H1.66667V1.66667ZM24.63 40.0833C24.3451 40.2245 24.1654 40.5154 24.1667 40.8333V48.3333H1.66667V25.8333H7.78167C6.86792 28.4392 8.23969 31.2924 10.8455 32.2061C13.4514 33.1199 16.3046 31.7481 17.2183 29.1423C17.5939 28.0712 17.5939 26.9044 17.2183 25.8333H24.1667V34.1667C24.1667 34.6269 24.5398 35 25 35C25.1803 35 25.3557 34.9416 25.5 34.8333C26.0748 34.3965 26.778 34.1621 27.5 34.1667C29.3409 34.1667 30.8333 35.6591 30.8333 37.5C30.8333 39.3409 29.3409 40.8333 27.5 40.8333C26.778 40.8379 26.0748 40.6035 25.5 40.1667C25.249 39.9769 24.9125 39.9446 24.63 40.0833ZM48.3333 48.3333H25.8333V42.2183C28.4392 43.1321 31.2924 41.7603 32.2061 39.1545C33.1199 36.5486 31.7481 33.6954 29.1423 32.7817C28.0712 32.4061 26.9044 32.4061 25.8333 32.7817V25.8333H35C35.4602 25.8333 35.8333 25.4602 35.8333 25C35.8333 24.7377 35.7098 24.4907 35.5 24.3333C34.0273 23.2288 33.7287 21.1395 34.8333 19.6667C35.9379 18.194 38.0272 17.8954 39.5 19C40.9727 20.1046 41.2712 22.1939 40.1667 23.6667C39.9772 23.9194 39.7527 24.1439 39.5 24.3333C39.1318 24.6095 39.0572 25.1318 39.3333 25.5C39.4907 25.7098 39.7377 25.8333 40 25.8333H48.3333V48.3333ZM48.3333 24.1667H41.8258C43.2106 21.7776 42.3966 18.7182 40.0074 17.3334C37.6182 15.9486 34.559 16.7627 33.1742 19.1519C32.2753 20.7026 32.2753 22.6159 33.1742 24.1668H25.8333V15.8334C25.8333 15.3732 25.4602 15.0001 25 15.0001C24.8197 15.0001 24.6443 15.0585 24.5 15.1668C23.9252 15.6036 23.222 15.838 22.5 15.8334C20.6591 15.8334 19.1667 14.341 19.1667 12.5001C19.1667 10.6592 20.6591 9.16677 22.5 9.16677C23.222 9.16219 23.9252 9.39656 24.5 9.83344C24.751 10.0232 25.0875 10.0555 25.37 9.91677C25.6549 9.77562 25.8346 9.48469 25.8333 9.16677V1.66667H48.3333V24.1667Z" fill="#1E2348"/>
</svg>
