<svg width="50" height="50" viewBox="0 0 50 50" fill="none" xmlns="http://www.w3.org/2000/svg">
<path d="M11.5502 22.9038C11.3962 22.5957 11.1801 22.3227 10.9156 22.1021C10.6511 21.8814 10.3438 21.7178 10.0131 21.6215C9.6824 21.5252 9.33534 21.4982 8.99372 21.5424C8.6521 21.5865 8.32329 21.7008 8.02792 21.878L6.67969 22.6875L6.66667 22.6954V12.5C6.66589 11.8372 6.40225 11.2018 5.93358 10.7331C5.46491 10.2644 4.82947 10.0008 4.16667 10H2.5C1.8372 10.0008 1.20176 10.2644 0.733086 10.7331C0.264412 11.2018 0.00077193 11.8372 8.7763e-09 12.5V26.6667C-1.66849e-05 26.7816 0.023782 26.8953 0.0698958 27.0006L5.83333 40.1744V49.1667C5.83333 49.3877 5.92113 49.5996 6.07741 49.7559C6.23369 49.9122 6.44565 50 6.66667 50H15.8333C16.0543 50 16.2663 49.9122 16.4226 49.7559C16.5789 49.5996 16.6667 49.3877 16.6667 49.1667V33.3333C16.6667 33.2039 16.6365 33.0763 16.5786 32.9606L11.5502 22.9038ZM15 48.3333H7.5V40C7.49997 39.8851 7.47617 39.7714 7.4301 39.666L1.66667 26.4923V12.5C1.66691 12.2791 1.75479 12.0672 1.91102 11.911C2.06724 11.7548 2.27906 11.6669 2.5 11.6667H4.16667C4.3876 11.6669 4.59942 11.7548 4.75565 11.911C4.91187 12.0672 4.99975 12.2791 5 12.5V24.1667C4.99997 24.2856 5.02544 24.4032 5.07469 24.5115L5.68687 25.8581C5.68781 25.8605 5.68896 25.8628 5.69 25.8653L9.24135 33.6778C9.33355 33.8778 9.50117 34.0332 9.7076 34.11C9.91402 34.1868 10.1425 34.1788 10.343 34.0876C10.5435 33.9965 10.6998 33.8297 10.7776 33.6237C10.8555 33.4177 10.8487 33.1892 10.7586 32.9882L7.20583 25.1722C7.12227 24.9861 7.10985 24.7759 7.17091 24.5813C7.23198 24.3867 7.3623 24.2212 7.53719 24.1163L8.88542 23.3073C8.98387 23.2482 9.09346 23.2102 9.20731 23.1955C9.32117 23.1808 9.43684 23.1897 9.54706 23.2218C9.65729 23.2539 9.75969 23.3085 9.84785 23.382C9.93601 23.4555 10.008 23.5465 10.0594 23.6492L15 33.5301V48.3333Z" fill="#1E2348"/>
<path d="M47.4997 10H45.833C45.1702 10.0008 44.5348 10.2644 44.0661 10.7331C43.5974 11.2018 43.3338 11.8372 43.333 12.5V22.6949L43.32 22.687L41.9718 21.8781C41.6764 21.7009 41.3476 21.5866 41.006 21.5425C40.6644 21.4983 40.3173 21.5252 39.9866 21.6215C39.6559 21.7178 39.3486 21.8814 39.0841 22.1021C38.8196 22.3227 38.6035 22.5957 38.4495 22.9038L33.421 32.9606C33.3631 33.0763 33.333 33.2039 33.333 33.3333V49.1667C33.333 49.3877 33.4208 49.5996 33.5771 49.7559C33.7334 49.9122 33.9453 50 34.1663 50H43.333C43.554 50 43.766 49.9122 43.9223 49.7559C44.0785 49.5996 44.1663 49.3877 44.1663 49.1667V40.1744L49.9298 27.0006C49.9759 26.8953 49.9997 26.7816 49.9997 26.6667V12.5C49.9989 11.8372 49.7353 11.2018 49.2666 10.7331C48.7979 10.2644 48.1625 10.0008 47.4997 10ZM48.333 26.4923L42.5696 39.666C42.5235 39.7714 42.4997 39.8851 42.4997 40V48.3333H34.9997V33.5301L39.9402 23.6492C39.9915 23.5465 40.0636 23.4555 40.1517 23.382C40.2399 23.3085 40.3423 23.2539 40.4525 23.2218C40.5627 23.1897 40.6784 23.1808 40.7923 23.1955C40.9061 23.2102 41.0157 23.2482 41.1142 23.3073L42.4625 24.1163C42.6374 24.2211 42.7678 24.3865 42.8289 24.5811C42.89 24.7756 42.8776 24.9859 42.7939 25.1719L39.241 32.9885C39.1951 33.0883 39.1693 33.1961 39.1651 33.3058C39.1609 33.4155 39.1785 33.525 39.2168 33.6279C39.2551 33.7309 39.3133 33.8252 39.3882 33.9055C39.4631 33.9858 39.5531 34.0506 39.653 34.096C39.753 34.1415 39.861 34.1667 39.9707 34.1703C40.0805 34.1738 40.1898 34.1557 40.2926 34.1168C40.3953 34.078 40.4893 34.0193 40.5692 33.944C40.6492 33.8687 40.7134 33.7783 40.7583 33.6781L44.3097 25.8656L44.3127 25.8589L44.925 24.5118C44.9743 24.4034 44.9998 24.2857 44.9997 24.1667V12.5C44.9999 12.2791 45.0878 12.0672 45.244 11.911C45.4003 11.7548 45.6121 11.6669 45.833 11.6667H47.4997C47.7206 11.6669 47.9324 11.7548 48.0887 11.911C48.2449 12.0672 48.3328 12.2791 48.333 12.5V26.4923Z" fill="#1E2348"/>
<path d="M34.7206 24.9989C35.205 25.005 35.6882 24.9485 36.1581 24.8307C37.2681 24.5353 37.7935 23.9 38.0383 23.4192C39.099 21.338 37.1855 18.1204 34.0507 15C37.1855 11.8796 39.099 8.66198 38.0383 6.58083C37.7932 6.1 37.2681 5.46469 36.1581 5.16927C34.6308 4.76302 32.365 5.10583 29.7374 6.06833C28.7678 2.53573 27.1703 0 25.0001 0C22.83 0 21.2325 2.53573 20.2634 6.06823C17.6357 5.10573 15.3699 4.76271 13.8428 5.16927C12.7328 5.46469 12.2073 6.1 11.9625 6.58083C10.9017 8.66198 12.8154 11.8796 15.9501 15C12.8154 18.1204 10.9017 21.338 11.9625 23.4192C12.2076 23.9 12.7328 24.5353 13.8428 24.8307C14.3125 24.9485 14.7955 25.0051 15.2797 24.9989C16.6575 24.9989 18.3663 24.6261 20.2633 23.9314C21.2324 27.4641 22.83 30 25.0001 30C27.1703 30 28.7678 27.4642 29.737 23.9315C31.634 24.6262 33.3428 24.999 34.7206 24.9989ZM36.5528 22.6624C36.4185 22.9258 36.149 23.1083 35.7289 23.2201C34.6509 23.5072 32.6836 23.2549 30.1269 22.2986C30.4186 20.8547 30.618 19.3937 30.724 17.9245C31.4621 17.3453 32.1744 16.7474 32.8474 16.1391C35.8175 19.1004 37.0742 21.6395 36.5528 22.6624ZM23.2146 18.7005C22.3871 18.1594 21.611 17.6156 20.8863 17.0691C20.8521 16.4039 20.8345 15.7142 20.8335 15C20.8325 14.2858 20.8501 13.5961 20.8863 12.9309C21.6113 12.3864 22.3874 11.8425 23.2146 11.2995C23.8228 10.9018 24.4179 10.5323 25.0001 10.1911C25.582 10.5332 26.1772 10.9026 26.7857 11.2995C27.6132 11.8406 28.3893 12.3844 29.114 12.9309C29.1482 13.5961 29.1658 14.2858 29.1668 15C29.1678 15.7142 29.1502 16.4039 29.114 17.0691C28.389 17.6136 27.6129 18.1575 26.7857 18.7005C26.1775 19.0983 25.5823 19.4675 25.0001 19.8081C24.4181 19.466 23.8229 19.0968 23.2146 18.7005ZM23.3203 20.7415C22.6675 21.0831 22.0377 21.3887 21.431 21.6581C21.2851 20.9117 21.1608 20.1095 21.0641 19.2544C21.4733 19.5428 21.8861 19.8233 22.3024 20.0957C22.6426 20.3178 22.9819 20.5331 23.3203 20.7415ZM19.1734 15.7073C18.8921 15.4702 18.6207 15.2344 18.3594 15C18.6207 14.7658 18.892 14.53 19.1734 14.2927C19.169 14.5288 19.1668 14.7645 19.1668 15C19.1668 15.2355 19.169 15.4712 19.1734 15.7073ZM21.0641 10.7459C21.1608 9.89062 21.285 9.08833 21.4311 8.34167C22.0366 8.61146 22.6663 8.91701 23.3201 9.25833C22.9817 9.46722 22.6424 9.68274 22.3024 9.9049C21.8866 10.1766 21.4738 10.457 21.0641 10.7459ZM26.6801 9.25802C27.3329 8.91649 27.9626 8.61094 28.5692 8.34135C28.715 9.08802 28.84 9.89031 28.9362 10.7456C28.527 10.4572 28.1142 10.1767 27.6979 9.90427C27.3577 9.68219 27.0185 9.46677 26.6801 9.25802ZM30.827 14.2927C31.1083 14.5298 31.3796 14.7656 31.6409 15C31.3796 15.2342 31.1083 15.47 30.827 15.7073C30.8312 15.4712 30.8333 15.2354 30.8335 15C30.8336 14.7646 30.8315 14.5288 30.827 14.2927ZM27.6981 20.0954C28.1138 19.8235 28.5265 19.5431 28.9364 19.2541C28.8397 20.1093 28.7155 20.9115 28.5695 21.658C27.9639 21.3881 27.3341 21.0825 26.6801 20.7414C27.0185 20.5327 27.3578 20.3174 27.6981 20.0954ZM34.7312 6.66833C35.0673 6.66267 35.4027 6.70017 35.7293 6.7799C36.1494 6.89167 36.4189 7.07417 36.5532 7.3376C37.0746 8.36052 35.818 10.8996 32.8479 13.8609C32.1748 13.2529 31.4624 12.6547 30.7244 12.0755C30.6185 10.6066 30.4191 9.14582 30.1274 7.70219C32.0287 6.99104 33.605 6.66833 34.731 6.66833H34.7312ZM25.0001 1.66667C26.0389 1.66667 27.3223 3.4751 28.1882 6.6901C27.1593 7.13698 26.0905 7.66646 25.0001 8.27344C23.9098 7.66688 22.841 7.13729 21.8126 6.6901C22.678 3.4751 23.9614 1.66667 25.0001 1.66667ZM13.4481 7.3376C13.5823 7.07417 13.8518 6.89167 14.2719 6.7799C14.5984 6.70013 14.9338 6.66263 15.2698 6.66833C16.3958 6.66833 17.9721 6.99125 19.874 7.70219C19.5824 9.14582 19.383 10.6066 19.277 12.0755C18.5389 12.6547 17.8266 13.2526 17.1536 13.8609C14.1826 10.8996 12.9261 8.36052 13.4481 7.3376ZM14.271 23.2201C13.8509 23.1083 13.5814 22.9258 13.4471 22.6624C12.9257 21.6395 14.1822 19.1004 17.1524 16.1391C17.8255 16.7471 18.5379 17.3453 19.2759 17.9245C19.3818 19.3937 19.5813 20.8547 19.873 22.2985C17.3166 23.2547 15.3494 23.507 14.271 23.2201ZM25.0001 28.3333C23.9614 28.3333 22.6781 26.525 21.8126 23.3102C22.8414 22.8633 23.9104 22.334 25.0001 21.7275C26.0904 22.334 27.1593 22.8634 28.1876 23.3102C27.3222 26.525 26.0389 28.3333 25.0001 28.3333Z" fill="#1E2348"/>
<path d="M25 12.5C24.5055 12.5 24.0222 12.6466 23.6111 12.9213C23.2 13.196 22.8795 13.5865 22.6903 14.0433C22.5011 14.5001 22.4516 15.0028 22.548 15.4877C22.6445 15.9727 22.8826 16.4181 23.2322 16.7678C23.5819 17.1174 24.0273 17.3555 24.5123 17.452C24.9972 17.5484 25.4999 17.4989 25.9567 17.3097C26.4135 17.1205 26.804 16.8 27.0787 16.3889C27.3534 15.9778 27.5 15.4945 27.5 15C27.4992 14.3372 27.2356 13.7018 26.7669 13.2331C26.2982 12.7644 25.6628 12.5008 25 12.5ZM25 15.8333C24.8352 15.8333 24.6741 15.7845 24.537 15.6929C24.4 15.6013 24.2932 15.4712 24.2301 15.3189C24.167 15.1666 24.1505 14.9991 24.1827 14.8374C24.2148 14.6758 24.2942 14.5273 24.4107 14.4107C24.5273 14.2942 24.6758 14.2148 24.8374 14.1827C24.9991 14.1505 25.1666 14.167 25.3189 14.2301C25.4712 14.2932 25.6013 14.4 25.6929 14.537C25.7845 14.6741 25.8333 14.8352 25.8333 15C25.8331 15.2209 25.7452 15.4328 25.589 15.589C25.4328 15.7452 25.2209 15.8331 25 15.8333Z" fill="#1E2348"/>
</svg>
