<svg width="19" height="31" viewBox="0 0 19 31" fill="none" xmlns="http://www.w3.org/2000/svg">
<path d="M15.9145 0H2.09383C0.9424 0 0 0.941514 0 2.09383V28.9053C0 30.0576 0.9424 31 2.09383 31H15.9145C17.0659 31 18.0083 30.0594 18.0083 28.9062V2.09383C18.0083 0.941514 17.0659 0 15.9145 0ZM6.79343 1.50926H11.2149C11.3549 1.50926 11.4682 1.62263 11.4682 1.76346C11.4682 1.9034 11.3549 2.01677 11.2149 2.01677H6.79343C6.65349 2.01677 6.54012 1.9034 6.54012 1.76346C6.54012 1.62263 6.65349 1.50926 6.79343 1.50926ZM9.00417 29.9531C8.4258 29.9531 7.95726 29.4845 7.95726 28.9053C7.95726 28.326 8.4258 27.8584 9.00417 27.8584C9.58254 27.8584 10.0511 28.326 10.0511 28.9053C10.0511 29.4845 9.58254 29.9531 9.00417 29.9531ZM16.5513 27.125H1.457V3.32054H16.5513V27.125Z" fill="#030303"/>
</svg>
