<svg width="50" height="50" viewBox="0 0 50 50" fill="none" xmlns="http://www.w3.org/2000/svg">
<path d="M50 25C50 26.5122 49.8653 27.9929 49.6082 29.4306C47.5174 41.1245 37.2949 50 25 50C15.7367 50 7.65 44.9622 3.33164 37.4766C2.27754 35.6511 1.44902 33.6807 0.881641 31.6021C0.306152 29.499 0 27.2847 0 25C0 11.1929 11.1929 0 25 0C36.3959 0 46.0102 7.62451 49.0214 18.051C49.6582 20.2571 50 22.5888 50 25Z" fill="#1E2348"/>
<path d="M12.7095 17.4062H3.50234L0.878906 31.6021C1.44629 33.6808 2.2748 35.6512 3.32891 37.4767H4.18301L5.19932 31.9787H10.2585C16.4187 31.9787 18.0748 26.4481 18.4718 23.7317C18.8697 21.0164 16.883 17.4062 12.7095 17.4062ZM14.0452 24.1898C13.8197 25.7297 12.6819 28.8653 9.19014 28.8653H5.7748L7.30137 20.6031H10.7779C14.1667 20.6031 14.2707 22.6501 14.0452 24.1898Z" fill="#F2F2F2"/>
<path d="M49.0178 18.0512C48.2352 17.6471 47.3024 17.4062 46.2249 17.4062H37.0178L33.3086 37.4768H37.6983L38.7146 31.9788H43.7738C46.5137 31.9788 48.3626 30.885 49.6044 29.4309C49.8617 27.9931 49.9964 26.5124 49.9964 25.0002C49.9964 22.589 49.6546 20.2573 49.0178 18.0512ZM47.5606 24.1899C47.3352 25.7298 46.1974 28.8654 42.7045 28.8654H39.2902L40.8168 20.6032H44.2934C47.6821 20.6032 47.7861 22.6502 47.5606 24.1899Z" fill="#F2F2F2"/>
<path d="M30.1971 17.4728C28.4104 17.4728 26.0268 17.4728 24.8653 17.4728L25.8661 12.0576H21.4944L17.7852 32.1275H22.1568L24.2899 20.5859C25.078 20.5859 26.1249 20.5859 27.0839 20.5859C28.9385 20.5859 30.1971 20.9834 29.932 22.7056C29.6671 24.4277 28.1437 32.045 28.1437 32.045H32.5815C32.5815 32.045 34.3037 23.5667 34.5687 21.182C34.8337 18.7975 32.6479 17.4728 30.1971 17.4728Z" fill="#F2F2F2"/>
</svg>
