<svg width="65" height="65" viewBox="0 0 65 65" fill="none" xmlns="http://www.w3.org/2000/svg">
<circle cx="32.5004" cy="32.5" r="32" stroke="#040404"/>
<path d="M25.5612 36.7812L24.0425 36.7892C23.0918 36.7928 22.3518 37.6273 22.4704 38.5768L22.9666 38.5148M25.5612 36.7812L22.9666 38.5148M25.5612 36.7812C25.5651 36.806 25.569 36.8309 25.5729 36.8558L26.0669 36.7786L26.0643 36.2786L25.9888 36.279C24.4674 26.5394 24.2402 25.0001 23.9707 23.4682C23.8483 22.7728 23.7172 22.0789 23.4523 20.6199C23.4513 20.6142 23.452 20.6092 23.4507 20.6048C23.4381 20.5649 23.2447 20.582 19.7914 20.582C19.3545 20.582 19.0004 20.2279 19.0004 19.791C19.0004 19.3542 19.3545 19 19.7914 19H23.4069C24.1945 19 24.8682 19.5625 25.0089 20.3373L25.5354 23.2373L32.0602 23.2487V23.2495H32.5602L32.561 22.7495L32.5602 22.7495V21.5835C32.5602 20.6533 33.3169 19.8965 34.2471 19.8965H35.8277C36.7582 19.8965 37.5152 20.6535 37.5152 21.584V23.2581L44.0637 23.2694C45.1026 23.2712 45.9476 24.1179 45.9476 25.1567V35.875C45.9476 37.3 44.878 38.3746 43.4596 38.3746C34.6625 38.3746 29.8182 38.3707 27.2897 38.3659L25.5612 36.7812ZM22.9666 38.5148C22.8853 37.8642 23.3924 37.2916 24.0444 37.2891L24.0451 37.2891L26.0695 37.2786L26.6506 37.2756L26.5609 36.7014C24.9696 26.5178 24.7387 24.9482 24.4639 23.3863C24.3418 22.6922 24.2111 21.9996 23.9484 20.5532M22.9666 38.5148L23.9484 20.5532M23.9484 20.5532C23.9432 20.5059 23.9256 20.4081 23.8553 20.31C23.7735 20.1959 23.6684 20.1466 23.6128 20.1259C23.5581 20.1056 23.5095 20.0977 23.4842 20.0941C23.3975 20.0818 23.2572 20.0799 23.0558 20.0789C22.8514 20.0779 22.5412 20.0785 22.0729 20.0795C21.5414 20.0805 20.8064 20.082 19.7914 20.082C19.6307 20.082 19.5004 19.9517 19.5004 19.791C19.5004 19.6303 19.6307 19.5 19.7914 19.5H23.4069C23.9528 19.5 24.4194 19.8896 24.5169 20.4266L24.5169 20.4267L25.0435 23.3266L25.1179 23.7366L25.5346 23.7373L32.5593 23.7495L33.0602 23.7504V23.2495V21.5835C33.0602 20.9294 33.5931 20.3965 34.2471 20.3965H35.8277C36.482 20.3965 37.0152 20.9296 37.0152 21.584V23.2581V23.7572L37.5143 23.7581L44.0628 23.7694C44.8259 23.7707 45.4476 24.3936 45.4476 25.1567V35.875C45.4476 37.0261 44.5996 37.8746 43.4596 37.8746C34.9488 37.8746 30.1381 37.871 27.5449 37.8664C27.3354 37.866 27.1404 37.8656 26.9592 37.8653C26.9376 37.8604 26.9119 37.8557 26.9022 37.8543C26.8953 37.8535 26.8839 37.8523 26.8791 37.8519C26.87 37.8512 26.8624 37.8508 26.8588 37.8506C26.8507 37.8502 26.8428 37.85 26.8373 37.8498C26.8149 37.8493 26.7789 37.8489 26.736 37.8487C26.3863 37.8464 25.2894 37.8485 24.9276 37.8524C24.883 37.8529 24.8456 37.8534 24.8218 37.8541L24.801 37.8548L24.7858 37.8557L24.7856 37.8557C24.7817 37.856 24.7668 37.857 24.7485 37.8596C24.741 37.8608 24.7247 37.8639 24.7078 37.8676C24.5124 37.8687 24.301 37.8699 24.0726 37.8711C24.0545 37.8701 24.0342 37.8699 24.0122 37.8714L24.0115 37.8714L24.011 37.8714C23.9583 37.875 23.8958 37.8875 23.8301 37.9187C23.6979 37.9815 23.6274 38.0837 23.5936 38.1535C23.5626 38.2175 23.5526 38.2733 23.5488 38.2981C23.5413 38.3474 23.5427 38.3884 23.5431 38.3999L23.5431 38.4005C23.5447 38.447 23.5535 38.5199 23.5648 38.6128C23.5768 38.7105 23.5957 38.8605 23.6245 39.089C23.656 39.3394 23.6994 39.6841 23.7586 40.1576C23.7574 40.1891 23.7592 40.2223 23.7648 40.2569C23.7879 40.3997 23.8649 40.4934 23.9166 40.5418C24.0012 40.6211 24.0918 40.6489 24.1081 40.6539L24.1096 40.6543C24.1592 40.6699 24.2012 40.6739 24.205 40.6744C24.2184 40.6759 24.2296 40.6766 24.2357 40.677C24.2695 40.679 24.3353 40.6797 24.4527 40.6803C24.7053 40.6815 25.2697 40.6821 26.5171 40.6823C27.6851 40.6825 29.4533 40.6823 32.1273 40.6822C35.1674 40.6819 39.3782 40.6817 45.2094 40.6817C45.3701 40.6817 45.5004 40.812 45.5004 40.9727C45.5004 41.1334 45.3701 41.2637 45.2094 41.2637H43.5605H42.7406L43.116 41.9926C43.9364 43.5857 42.7726 45.5 40.973 45.5C39.1727 45.5 38.0099 43.585 38.83 41.9926L39.2055 41.2637H38.3855H30.8516H30.0316L30.4071 41.9926C31.2275 43.5856 30.0636 45.5 28.2641 45.5C26.4638 45.5 25.3009 43.585 26.1211 41.9926L26.4965 41.2637H25.6765H24.2727C23.7246 41.2637 23.2588 40.8526 23.1908 40.3086C23.1908 40.3086 23.1908 40.3086 23.1908 40.3086L22.9666 38.5148L23.9484 20.5532ZM24.1428 39.6896C24.1428 39.6896 24.121 39.6959 24.1067 39.7003C24.1164 39.6971 24.1229 39.6952 24.1246 39.6948L24.125 39.6947C24.1379 39.691 24.1428 39.6896 24.1428 39.6896ZM24.1913 37.892C24.1858 37.8903 24.1778 37.888 24.1678 37.8855C24.206 37.8943 24.2247 37.9032 24.2115 37.8986L24.2058 37.8966L24.1913 37.892ZM38.2526 28.582L39.1055 27.7285H37.8989H36.7242C36.5635 27.7285 36.4332 27.5982 36.4332 27.4375V21.584C36.4332 21.2497 36.1621 20.9785 35.8277 20.9785H34.2472C34.1209 20.9785 34.0037 21.0172 33.9067 21.0835H33.6422V21.5835V27.4375C33.6422 27.5982 33.5119 27.7285 33.3512 27.7285H32.1764H30.9698L31.8228 28.582L34.2881 31.0488L34.2882 31.0488C34.7022 31.4631 35.3732 31.4631 35.7872 31.0488L35.7873 31.0488L38.2526 28.582ZM33.0602 24.8316V24.3324L44.061 24.8514L44.0619 24.3514L44.0618 24.3514L37.5161 24.3401L37.0152 24.3393V24.8401V26.6465V27.1465H37.5152H38.8357C39.4522 27.1465 39.7622 27.8949 39.3264 28.3309L39.6801 28.6844L39.3264 28.3309L36.1989 31.4603C35.557 32.1025 34.5184 32.1025 33.8765 31.4603L30.749 28.3309C30.749 28.3309 30.749 28.3309 30.749 28.3309C30.3132 27.8947 30.6235 27.1465 31.2398 27.1465H32.5602H33.0602V26.6465V24.8316ZM28.264 44.918C29.2719 44.918 30.0912 44.0987 30.0912 43.0908C30.0912 42.083 29.272 41.2636 28.2641 41.2636C27.2561 41.2636 26.4369 42.0829 26.4369 43.0908C26.4369 44.0987 27.256 44.918 28.264 44.918ZM40.973 44.918C41.981 44.918 42.8002 44.0987 42.8002 43.0908C42.8002 42.083 41.981 41.2636 40.973 41.2636C39.9651 41.2636 39.1459 42.0829 39.1459 43.0908C39.1459 44.0987 39.9651 44.918 40.973 44.918Z" stroke="#040404"/>
</svg>
