<svg width="60" height="60" viewBox="0 0 60 60" fill="none" xmlns="http://www.w3.org/2000/svg">
<path d="M40.9381 24.1212L40.2597 22.3086C39.6529 22.536 39.0374 22.7441 38.4297 22.9279L38.989 24.7802C39.6365 24.5847 40.2926 24.3631 40.9381 24.1212Z" fill="#1E2348"/>
<path d="M34.8388 28.3361V25.7348C35.5569 25.6197 36.2778 25.4784 36.993 25.3139L36.5565 23.4277C35.6236 23.6445 34.6782 23.8148 33.7462 23.9377L32.9033 24.049V28.3371C32.9033 28.5964 32.9091 28.8548 32.9227 29.1123L34.8562 29.0135C34.8446 28.7881 34.8388 28.5635 34.8388 28.3361Z" fill="#1E2348"/>
<path d="M17.4197 11.6133C14.2175 11.6133 11.6133 14.2175 11.6133 17.4197C11.6133 20.622 14.2175 23.2262 17.4197 23.2262C20.622 23.2262 23.2262 20.622 23.2262 17.4197C23.2262 14.2175 20.622 11.6133 17.4197 11.6133ZM17.4197 21.2907C15.2849 21.2907 13.5488 19.5546 13.5488 17.4197C13.5488 15.2849 15.2849 13.5488 17.4197 13.5488C19.5546 13.5488 21.2907 15.2849 21.2907 17.4197C21.2907 19.5546 19.5546 21.2907 17.4197 21.2907Z" fill="#1E2348"/>
<path d="M60 16.4516H55.3268C50.9777 16.4516 46.7671 15.1771 43.1119 12.7394L42.5439 12.4094L42.0106 12.7645C39.8071 14.2345 37.381 15.2758 34.8387 15.87V13.7497L32.2887 13.1497C31.9674 12.0281 31.5194 10.9481 30.9523 9.92516L32.3323 7.69645L27.1423 2.50645L24.9135 3.88645C23.8906 3.31935 22.8106 2.87129 21.689 2.55L21.089 0H13.7497L13.1497 2.55C12.0281 2.87129 10.9481 3.31935 9.92516 3.88645L7.69645 2.50645L2.50645 7.69645L3.88645 9.92516C3.31935 10.9481 2.87129 12.0281 2.55 13.1497L0 13.7497V21.089L2.55 21.689C2.87129 22.8106 3.31935 23.8906 3.88645 24.9135L2.50645 27.1423L7.69645 32.3323L9.92516 30.9523C10.9481 31.5194 12.0281 31.9674 13.1497 32.2887L13.7497 34.8387H21.089L21.689 32.2887C22.8106 31.9674 23.8906 31.5194 24.9135 30.9523L25.3597 31.2281C25.8784 35.4116 27.4868 39.3358 29.9516 42.6281L26.6961 54.5652L31.4748 53.37L35.0913 59.3981L38.3361 49.6635C39.5981 50.3013 40.921 50.8413 42.3077 51.2497L42.5806 51.331L42.8535 51.2506C44.2403 50.8423 45.5632 50.3023 46.8252 49.6645L50.07 59.399L53.6865 53.371L58.4652 54.5661L55.2097 42.629C58.2358 38.5858 60 33.5981 60 28.3355V16.4516ZM24.9348 28.6897L24.4287 28.9974C23.2529 29.7097 21.9832 30.2371 20.6516 30.5623L20.0748 30.7035L19.5561 32.9032H15.2826L14.7648 30.7035L14.1881 30.5623C12.8565 30.2371 11.5868 29.7097 10.411 28.9974L9.90484 28.6897L7.9829 29.879L4.96064 26.8568L6.15 24.9348L5.84226 24.4287C5.13 23.2529 4.60258 21.9832 4.27742 20.6516L4.13613 20.0748L1.93548 19.5561V15.2826L4.13516 14.7648L4.27645 14.1881C4.60161 12.8565 5.12903 11.5868 5.84129 10.411L6.14903 9.90484L4.95968 7.98194L7.98194 4.95968L9.90387 6.14903L10.41 5.84129C11.5858 5.12903 12.8555 4.60161 14.1871 4.27645L14.7639 4.13516L15.2826 1.93548H19.5561L20.0739 4.13516L20.6506 4.27645C21.9823 4.60161 23.2519 5.12903 24.4277 5.84129L24.9339 6.14903L26.8558 4.95968L29.8781 7.98194L28.6887 9.90387L28.9965 10.41C29.7087 11.5858 30.2361 12.8555 30.5613 14.1871L30.7026 14.7639L32.9032 15.2826V16.2329C31.8919 16.3742 30.8681 16.4516 29.8345 16.4516H28.9829C28.4884 10.5 23.4968 5.80645 17.4194 5.80645C11.0158 5.80645 5.80645 11.0158 5.80645 17.4194C5.80645 23.8229 11.0158 29.0323 17.4194 29.0323C20.3032 29.0323 23.0516 27.9494 25.1613 26.0632V28.3365C25.1613 28.5068 25.1787 28.6742 25.1826 28.8435L24.9348 28.6897ZM25.1613 16.4516V23.2055C23.3352 25.6423 20.4687 27.0968 17.4194 27.0968C12.0832 27.0968 7.74194 22.7555 7.74194 17.4194C7.74194 12.0832 12.0832 7.74194 17.4194 7.74194C22.4284 7.74194 26.5606 11.5684 27.0474 16.4516H25.1613ZM34.5861 54.7945L32.3961 51.1452L29.4329 51.8855L31.4642 44.4358C32.9661 46.0819 34.6965 47.5219 36.6165 48.7026L34.5861 54.7945ZM55.7284 51.8855L52.7652 51.1452L50.5752 54.7945L48.5448 48.7026C50.4648 47.5219 52.1952 46.0819 53.6971 44.4358L55.7284 51.8855ZM58.0645 28.3355C58.0645 37.9103 51.7123 46.4952 42.5806 49.3123C33.449 46.4952 27.0968 37.9103 27.0968 28.3355V18.3871H29.8345C34.3568 18.3871 38.7406 17.1203 42.5797 14.7019C46.4003 17.1155 50.7948 18.3871 55.3268 18.3871H58.0645V28.3355Z" fill="#1E2348"/>
<path d="M43.0432 17.2135L42.5816 16.9629L42.12 17.2135C38.4155 19.2206 34.2222 20.2958 29.9942 20.321L29.0322 20.3268V28.3348C29.0322 36.7319 34.3442 44.2977 42.2506 47.1603L42.5806 47.2793L42.9106 47.1603C50.8171 44.2977 56.129 36.7319 56.129 28.3348V20.3268L55.1671 20.321C50.9419 20.2958 46.7496 19.2206 43.0432 17.2135ZM54.1935 28.3348C54.1935 35.8029 49.5416 42.5432 42.5806 45.2171C35.6196 42.5422 30.9677 35.8019 30.9677 28.3348V22.2332C35.0109 22.0677 38.9971 21.0129 42.5816 19.1587C46.1671 21.0129 50.1522 22.0677 54.1935 22.2332V28.3348Z" fill="#1E2348"/>
<path d="M38.7101 29.5994L34.4385 33.871L40.6456 40.0781L52.6591 28.0646L48.3875 23.793L40.6456 31.5349L38.7101 29.5994ZM49.9223 28.0646L40.6456 37.3414L37.1753 33.871L38.7101 32.3362L40.6456 34.2717L48.3875 26.5297L49.9223 28.0646Z" fill="#1E2348"/>
</svg>
