<svg width="14" height="14" viewBox="0 0 14 14" fill="none" xmlns="http://www.w3.org/2000/svg">
<path d="M7.00002 8.33317C7.35364 8.33317 7.69278 8.19269 7.94283 7.94265C8.19288 7.6926 8.33335 7.35346 8.33335 6.99984C8.33335 6.64622 8.19288 6.30708 7.94283 6.05703C7.69278 5.80698 7.35364 5.6665 7.00002 5.6665C6.6464 5.6665 6.30726 5.80698 6.05721 6.05703C5.80716 6.30708 5.66669 6.64622 5.66669 6.99984C5.66669 7.35346 5.80716 7.6926 6.05721 7.94265C6.30726 8.19269 6.6464 8.33317 7.00002 8.33317Z" fill="#EA1D1D"/>
<path d="M3 7C3 5.93913 3.42143 4.92172 4.17157 4.17157C4.92172 3.42143 5.93913 3 7 3C8.06087 3 9.07828 3.42143 9.82843 4.17157C10.5786 4.92172 11 5.93913 11 7C11 8.06087 10.5786 9.07828 9.82843 9.82843C9.07828 10.5786 8.06087 11 7 11C5.93913 11 4.92172 10.5786 4.17157 9.82843C3.42143 9.07828 3 8.06087 3 7ZM7 4.33333C6.29276 4.33333 5.61448 4.61428 5.11438 5.11438C4.61428 5.61448 4.33333 6.29276 4.33333 7C4.33333 7.70724 4.61428 8.38552 5.11438 8.88562C5.61448 9.38572 6.29276 9.66667 7 9.66667C7.70724 9.66667 8.38552 9.38572 8.88562 8.88562C9.38572 8.38552 9.66667 7.70724 9.66667 7C9.66667 6.29276 9.38572 5.61448 8.88562 5.11438C8.38552 4.61428 7.70724 4.33333 7 4.33333Z" fill="#EA1D1D"/>
<path d="M0.333344 6.99992C0.333344 3.31792 3.31801 0.333252 7.00001 0.333252C10.682 0.333252 13.6667 3.31792 13.6667 6.99992C13.6667 10.6819 10.682 13.6666 7.00001 13.6666C3.31801 13.6666 0.333344 10.6819 0.333344 6.99992ZM7.00001 1.66659C5.58552 1.66659 4.22897 2.22849 3.22877 3.22868C2.22858 4.22888 1.66668 5.58543 1.66668 6.99992C1.66668 8.41441 2.22858 9.77096 3.22877 10.7712C4.22897 11.7713 5.58552 12.3333 7.00001 12.3333C8.4145 12.3333 9.77105 11.7713 10.7712 10.7712C11.7714 9.77096 12.3333 8.41441 12.3333 6.99992C12.3333 5.58543 11.7714 4.22888 10.7712 3.22868C9.77105 2.22849 8.4145 1.66659 7.00001 1.66659Z" fill="#EA1D1D"/>
</svg>
