<svg width="20" height="19" viewBox="0 0 20 19" fill="none" xmlns="http://www.w3.org/2000/svg">
<path d="M17.2 4.00012H16.81C16.9299 3.68004 16.9941 3.34184 17 3.00012C16.979 2.1867 16.637 1.41464 16.0487 0.852544C15.4604 0.290448 14.6735 -0.0160043 13.86 0.000117044C13.0606 0.0173824 12.2804 0.249271 11.6013 0.671503C10.9223 1.09373 10.3692 1.69078 10 2.40012C9.63086 1.69078 9.07778 1.09373 8.39869 0.671503C7.7196 0.249271 6.93949 0.0173824 6.14002 0.000117044C5.3265 -0.0160043 4.53965 0.290448 3.95132 0.852544C3.36299 1.41464 3.021 2.1867 3.00002 3.00012C3.00593 3.34184 3.07019 3.68004 3.19002 4.00012H2.80002C2.53688 4.0251 2.2813 4.102 2.04806 4.22637C1.81482 4.35074 1.60854 4.52011 1.44116 4.72469C1.27378 4.92926 1.14861 5.16499 1.07289 5.41824C0.997171 5.67149 0.972404 5.93724 1.00002 6.20012V9.80012C0.953305 10.2844 1.0778 10.7696 1.35186 11.1716C1.62591 11.5735 2.03218 11.8667 2.50002 12.0001V16.3701C2.53089 16.8237 2.73707 17.2475 3.0749 17.5517C3.41273 17.8559 3.85569 18.0168 4.31002 18.0001H15.69C16.1509 18.0164 16.5996 17.8501 16.9385 17.5374C17.2774 17.2247 17.4792 16.7908 17.5 16.3301V12.0001C17.9679 11.8667 18.3741 11.5735 18.6482 11.1716C18.9222 10.7696 19.0467 10.2844 19 9.80012V6.20012C19.0276 5.93724 19.0029 5.67149 18.9272 5.41824C18.8514 5.16499 18.7263 4.92926 18.5589 4.72469C18.3915 4.52011 18.1852 4.35074 17.952 4.22637C17.7187 4.102 17.4632 4.0251 17.2 4.00012ZM17 6.20012V9.80012C17.012 9.86624 17.012 9.93399 17 10.0001H11V6.00012H17C17.012 6.06624 17.012 6.13399 17 6.20012ZM13.86 2.00012C14.1433 1.98361 14.4217 2.07926 14.635 2.26639C14.8484 2.45352 14.9795 2.71709 15 3.00012C14.9795 3.28314 14.8484 3.54672 14.635 3.73385C14.4217 3.92098 14.1433 4.01663 13.86 4.00012H11.4C11.575 3.46589 11.9 2.99327 12.3361 2.63865C12.7723 2.28403 13.3013 2.06237 13.86 2.00012ZM5.00002 3.00012C5.02056 2.71709 5.15167 2.45352 5.365 2.26639C5.57832 2.07926 5.85673 1.98361 6.14002 2.00012C6.69693 2.06418 7.22378 2.28666 7.65804 2.64116C8.09231 2.99567 8.41576 3.4673 8.59002 4.00012H6.14002C5.85673 4.01663 5.57832 3.92098 5.365 3.73385C5.15167 3.54672 5.02056 3.28314 5.00002 3.00012ZM3.00002 6.20012C2.98802 6.13399 2.98802 6.06624 3.00002 6.00012H9.00002V10.0001H3.00002C2.98802 9.93399 2.98802 9.86624 3.00002 9.80012V6.20012ZM4.50002 12.0001H9.00002V16.0001H4.50002V12.0001ZM11 16.0001V12.0001H15.5V16.0001H11Z" fill="white"/>
</svg>
