<svg width="220" height="166" viewBox="0 0 220 166" fill="none" xmlns="http://www.w3.org/2000/svg">
<path d="M50.6021 64.7922C59.785 66.015 66.8845 56.0961 67.7734 54.8544C69.2549 52.7827 76.4649 42.7108 71.6488 33.7536C68.928 28.693 62.1813 23.6253 55.3664 25.6924C50.4939 27.1692 46.5339 31.8865 46.4045 36.5144C46.2446 42.2805 52.133 44.3217 51.2347 48.8014C50.1953 53.9796 41.7014 54.3535 41.5932 58.3348C41.5156 61.246 46.341 64.2255 50.6021 64.7922Z" fill="url(#paint0_linear_433_15791)"/>
<path d="M12.5674 131.998C7.24577 122.879 6.82954 108.179 12.5674 97.7733C23.0602 78.749 47.8836 85.3969 69.1325 63.5483C82.3249 49.9844 77.0503 43.0049 88.1451 29.3233C109.135 3.43939 160.746 -11.9494 192.72 11.7358C217.668 30.2169 225.711 68.8206 215.06 95.8709C188.073 164.42 35.8764 171.931 12.5674 131.998Z" fill="url(#paint1_linear_433_15791)"/>
<path d="M99.2729 69.319C98.6897 70.5113 97.5139 71.6165 95.7455 72.6371L100.526 81.2792L94.3017 81.8248L90.5156 74.0457L88.8178 74.1939L88.3898 82.3421L82.6684 82.843L83.8065 60.724L91.2893 60.0703C93.9301 59.8398 95.9948 60.1925 97.481 61.1285C98.9672 62.0644 99.7903 63.4448 99.9502 65.2696C100.08 66.777 99.8538 68.1268 99.2729 69.319ZM89.0036 70.1844L90.953 70.0151C92.1476 69.9093 92.9871 69.4837 93.4692 68.7335C93.9536 67.9833 94.1512 67.1156 94.0642 66.1303C93.9983 65.3754 93.7091 64.8416 93.1964 64.5265C92.6838 64.2137 91.9336 64.0985 90.9483 64.1855L89.314 64.329L89.0036 70.1844Z" fill="white"/>
<path d="M116.661 57.8496L115.826 62.0731L108.501 62.715L108.244 67.3947L114.659 66.8327L114.476 70.9033L108.063 71.4653L107.807 76.493L115.635 75.8087L115.431 79.9757L101.848 81.1632L102.986 59.0442L116.661 57.8496Z" fill="white"/>
<path d="M132.381 56.4746L131.579 60.6957L124.663 61.3001L124.4 66.6147L130.467 66.0832L130.262 70.2502L124.193 70.7817L123.729 79.2497L118.006 79.7506L119.144 57.6316L132.381 56.4746Z" fill="white"/>
<path d="M147.817 55.123L146.982 59.3465L139.657 59.9885L139.4 64.6681L145.813 64.1061L145.63 68.1767L139.217 68.7387L138.961 73.7664L146.789 73.0821L146.584 77.2515L133.002 78.439L134.14 56.32L147.817 55.123Z" fill="white"/>
<path d="M165.769 63.5007C165.186 64.6929 164.01 65.7982 162.241 66.8188L167.022 75.4609L160.798 76.0064L157.012 68.2274L155.314 68.3755L154.886 76.5238L149.164 77.0247L150.302 54.9056L157.785 54.2519C160.426 54.0214 162.491 54.3742 163.977 55.3101C165.463 56.246 166.286 57.6264 166.446 59.4513C166.578 60.9586 166.352 62.3108 165.769 63.5007ZM155.502 64.3684L157.451 64.1968C158.646 64.0933 159.485 63.6653 159.967 62.9151C160.452 62.165 160.649 61.2972 160.562 60.3119C160.497 59.5571 160.207 59.0233 159.695 58.7081C159.18 58.3954 158.432 58.2802 157.447 58.3672L155.812 58.5106L155.502 64.3684Z" fill="white"/>
<path d="M186.42 73.765L185.684 69.3299L179.994 69.8285L178.844 74.4282L172.868 74.9502L180.358 52.2762L187.276 51.6719L192.459 73.2383L186.42 73.765ZM181.045 65.5533L185.038 65.2053L183.486 55.8036L181.045 65.5533Z" fill="white"/>
<path d="M105.056 88.5332L104.254 92.7543L97.3376 93.3587L97.0742 98.6732L103.141 98.1418L102.937 102.311L96.8673 102.843L96.404 111.311L90.6803 111.812L91.8184 89.6925L105.056 88.5332Z" fill="white"/>
<path d="M122.285 96.9753C121.702 98.1675 120.526 99.2728 118.758 100.293L123.539 108.935L117.314 109.481L113.528 101.702L111.83 101.85L111.402 109.998L105.679 110.499L106.817 88.3802L114.299 87.7265C116.94 87.496 119.005 87.8488 120.491 88.7847C121.977 89.7207 122.8 91.101 122.96 92.9259C123.092 94.4332 122.866 95.783 122.285 96.9753ZM112.016 97.8407L113.966 97.669C115.16 97.5632 116 97.1375 116.484 96.3874C116.969 95.6372 117.166 94.7695 117.079 93.7842C117.013 93.0293 116.724 92.4955 116.211 92.1804C115.699 91.8677 114.949 91.7524 113.963 91.8394L112.329 91.9829L112.016 97.8407Z" fill="white"/>
<path d="M131.718 86.1992L130.58 108.318L124.858 108.819L125.996 86.7001L131.718 86.1992Z" fill="white"/>
<path d="M148.79 84.707L147.955 88.9305L140.63 89.5725L140.374 94.2521L146.787 93.6901L146.606 97.7607L140.19 98.3227L139.934 103.35L147.763 102.666L147.558 106.833L133.975 108.021L135.113 85.9016L148.79 84.707Z" fill="white"/>
<path d="M167.114 105.123L159.883 105.756L155.06 89.0056C155.217 90.0685 155.347 91.1878 155.448 92.3613C155.643 94.5835 155.678 96.7987 155.553 99.0045L155.165 106.167L150.135 106.607L151.274 84.4882L158.411 83.8626L163.328 100.604C163.142 99.4584 162.994 98.2355 162.881 96.9375C162.719 95.0938 162.688 93.1632 162.787 91.1479L163.222 83.4417L168.252 83.002L167.114 105.123Z" fill="white"/>
<path d="M185.421 83.3402C187.352 84.396 188.452 86.4748 188.725 89.5766C189.075 93.5813 188.379 96.9253 186.641 99.6108C184.901 102.299 181.809 103.837 177.367 104.225L170.481 104.827L171.62 82.7076L178.002 82.1479C181.016 81.8869 183.49 82.2843 185.421 83.3402ZM177.139 86.4396L176.436 100.126L177.851 100.001C179.989 99.813 181.412 98.7431 182.117 96.7913C182.822 94.8394 183.067 92.6172 182.848 90.1222C182.712 88.549 182.296 87.4931 181.604 86.9522C180.913 86.409 179.928 86.195 178.648 86.3079L177.139 86.4396Z" fill="white"/>
<path d="M63.7428 165.996C63.4865 165.996 63.2278 165.972 62.9691 165.921C61.2195 165.58 59.9356 164.159 59.7804 162.381L57.457 136.145C47.3711 136.352 37.2286 136.385 27.2814 136.239C23.1003 136.178 19.5071 133.309 18.5429 129.259C15.5564 116.709 13.4706 103.829 12.3395 90.9825C11.2201 78.2745 11.0178 65.3713 11.7351 52.6304C11.9749 48.3693 15.0908 44.8984 19.3142 44.1859C47.7708 39.3886 76.7753 35.6449 105.521 33.0629C135.295 30.3867 165.55 28.8864 195.453 28.6019C199.596 28.5666 203.262 31.3462 204.342 35.3674C207.679 47.7861 209.948 60.5764 211.089 73.3808C212.382 87.8807 212.126 108.372 211.133 119.808C210.785 123.82 207.768 127.159 203.799 127.928C178.39 132.85 151.351 133.313 125.206 133.76C110.826 134.005 95.9666 134.259 81.8312 135.275C79.3315 140.171 67.2514 163.832 67.2514 163.832C66.56 165.187 65.2078 165.996 63.7428 165.996ZM59.0608 132.599C59.9685 132.599 60.7304 133.292 60.8104 134.2L63.2796 162.073C63.2866 162.156 63.3101 162.407 63.637 162.471C63.9662 162.532 64.0814 162.311 64.1167 162.236L78.5014 134.061C79.3973 132.307 79.6254 131.858 80.6366 131.839C95.1483 130.76 110.396 130.499 125.143 130.247C151.14 129.802 178.018 129.344 203.126 124.478C205.562 124.006 207.413 121.962 207.627 119.505C208.608 108.22 208.859 88.0006 207.582 73.6936C206.458 61.0914 204.224 48.5034 200.941 36.2798C200.276 33.8036 198.033 32.0611 195.479 32.1152C165.67 32.3974 135.506 33.893 105.827 36.562C77.1727 39.137 48.26 42.869 19.8904 47.6521C17.299 48.0895 15.3847 50.2177 15.2366 52.828C14.5264 65.3995 14.7263 78.1334 15.8316 90.6744C16.9486 103.352 19.0086 116.06 21.9551 128.446C22.5454 130.927 24.7535 132.688 27.3238 132.723C37.7672 132.874 48.4293 132.831 59.0138 132.594C59.0349 132.599 59.049 132.599 59.0608 132.599Z" fill="#FFC708"/>
<path d="M37.0782 139.065L36.9489 139.164C35.0182 140.652 32.2386 140.319 30.7454 138.393C29.2545 136.474 27.7189 134.195 26.3079 131.538C22.7923 124.93 22.6206 120.022 22.1268 115.937L30.6372 113.656C31.2744 117.621 31.5073 121.861 34.4373 127.839C35.5449 130.096 36.5373 131.401 37.5109 132.405C39.3733 134.329 39.1993 137.428 37.0782 139.065Z" fill="#EAEEF0"/>
<g opacity="0.15">
<path opacity="0.15" d="M23.7493 125.383L32.4925 123.041C31.3402 119.429 31.0862 116.473 30.6324 113.658L22.122 115.939C22.4536 118.639 22.644 121.705 23.7493 125.383Z" fill="#0000CD"/>
</g>
<path d="M32.9981 119.864L22.4771 122.684C22.0538 122.797 21.6188 122.545 21.5059 122.122L20.3818 117.924L32.4361 114.693L33.5601 118.891C33.673 119.317 33.4214 119.752 32.9981 119.864Z" fill="url(#paint2_linear_433_15791)"/>
<g opacity="0.47">
<path opacity="0.47" d="M31.4508 120.279L24.0221 122.271C22.7452 122.614 21.4306 121.855 21.0897 120.578L20.4524 118.203C20.4124 118.05 20.5018 117.895 20.6546 117.852L32.1586 114.769C32.3114 114.729 32.4667 114.819 32.509 114.972L33.1463 117.347C33.4872 118.626 32.7277 119.938 31.4508 120.279Z" fill="#0000CD"/>
</g>
<path d="M27.3402 78.8196L11.7774 82.989C3.55387 85.1924 -1.32802 93.6464 0.875415 101.87L2.58502 108.252C4.78846 116.476 13.2424 121.357 21.4659 119.154L37.0287 114.985C40.796 113.976 44.7302 113.755 48.5868 114.333L73.6241 118.098L57.4734 57.8223L37.6731 73.6014C34.6254 76.0353 31.1074 77.8108 27.3402 78.8196Z" fill="#EAEEF0"/>
<path d="M71.9333 86.2502C76.3943 102.895 76.9916 117.197 73.2714 118.192C69.5512 119.189 62.9197 106.504 58.4588 89.8599C53.9978 73.2153 53.4005 58.9153 57.1207 57.9183C60.8433 56.9212 67.4747 69.6057 71.9333 86.2502Z" fill="url(#paint3_linear_433_15791)"/>
<path d="M29.3861 97.6505C27.5683 90.8662 26.3925 84.4699 25.8893 79.207L11.7774 82.9884C3.55387 85.1918 -1.32802 93.6458 0.875415 101.869L2.58502 108.251C4.78846 116.475 13.2424 121.357 21.4659 119.153L35.5778 115.372C33.3838 110.561 31.2038 104.435 29.3861 97.6505Z" fill="url(#paint4_linear_433_15791)"/>
<g opacity="0.47">
<path opacity="0.7" d="M73.2573 113.645C73.1938 114.048 72.6859 114.184 72.4296 113.867C69.9557 110.802 65.6476 102.504 62.005 88.9091C58.3624 75.3146 57.9414 65.9717 58.5529 62.0822C58.6164 61.6801 59.1243 61.5437 59.3806 61.8612C61.8545 64.9253 66.1626 73.224 69.8052 86.8186C73.4502 100.413 73.8687 109.756 73.2573 113.645Z" fill="#0000CD"/>
</g>
<mask id="mask0_433_15791" style="mask-type:alpha" maskUnits="userSpaceOnUse" x="3" y="104" width="69" height="16">
<path d="M63.1407 104.052C59.7921 104.049 56.4434 104.049 53.0947 104.047C45.6919 104.045 39.0534 104.642 31.2462 107.038C28.0268 108.026 23.9162 109.587 17.5905 111.071C16.2336 111.389 14.2183 111.835 11.5493 111.929C8.25233 112.047 5.52684 111.574 3.66908 111.125C6.86489 117.566 14.2512 121.084 21.4635 119.151L37.0264 114.982C40.7936 113.973 44.7278 113.752 48.5844 114.33L71.4606 117.771C69.0526 116.259 66.0144 111.179 63.1407 104.052Z" fill="url(#paint5_linear_433_15791)"/>
</mask>
<g mask="url(#mask0_433_15791)">
<path opacity="0.2" d="M63.1407 104.052C59.7921 104.049 56.4434 104.049 53.0947 104.047C45.6919 104.045 39.0534 104.642 31.2462 107.038C28.0268 108.026 23.9162 109.587 17.5905 111.071C16.2336 111.389 14.2183 111.835 11.5493 111.929C8.25233 112.047 5.52684 111.574 3.66908 111.125C6.86489 117.566 14.2512 121.084 21.4635 119.151L37.0264 114.982C40.7936 113.973 44.7278 113.752 48.5844 114.33L71.4606 117.771C69.0526 116.259 66.0144 111.179 63.1407 104.052Z" fill="url(#paint6_linear_433_15791)"/>
</g>
<mask id="mask1_433_15791" style="mask-type:alpha" maskUnits="userSpaceOnUse" x="14" y="71" width="39" height="24">
<path d="M18.2607 87.3332C23.4601 85.9387 28.6618 84.5465 33.8612 83.1521C39.6743 79.3143 45.485 75.4765 51.2982 71.6387C51.2206 72.457 51.1994 73.4894 51.3499 74.6652C51.5381 76.1349 51.9355 77.3366 52.2999 78.2114C47.1335 81.6235 41.9671 85.0333 36.8007 88.4455C29.7059 90.3456 22.6112 92.248 15.5141 94.1481C14.5711 92.8335 14.4065 91.1239 15.0955 89.7012C16.0314 87.7682 18.0514 87.3708 18.2607 87.3332Z" fill="url(#paint7_linear_433_15791)"/>
</mask>
<g mask="url(#mask1_433_15791)">
</g>
<path d="M92.1029 48.2698C91.1552 48.2698 90.3722 47.5126 90.3463 46.5578C90.3204 45.5866 91.0871 44.78 92.0559 44.7542C96.4769 44.6366 102.104 43.8465 103.795 40.7518C104.479 39.4984 104.369 38.2144 104.214 36.4366C104.047 34.513 103.837 32.1167 104.811 29.2995C106.081 25.6193 108.889 22.5011 113.154 20.0319C113.994 19.5452 115.069 19.8321 115.555 20.6739C116.042 21.5134 115.755 22.5881 114.913 23.0749C111.4 25.109 109.119 27.5876 108.131 30.4448C107.402 32.5565 107.56 34.3743 107.713 36.1309C107.889 38.1556 108.073 40.2509 106.878 42.4355C104.849 46.1487 100.03 48.0558 92.1476 48.2651C92.1359 48.2698 92.1194 48.2698 92.1029 48.2698Z" fill="white"/>
<path d="M127.871 142.085C127.713 142.085 127.553 142.082 127.393 142.078C118.582 141.856 116.618 136.163 114.885 131.14C113.693 127.681 112.566 124.415 109.382 122.548C107.108 121.214 103.842 122.508 99.3929 126.501C98.6709 127.15 97.5586 127.089 96.912 126.367C96.2629 125.645 96.324 124.532 97.046 123.886C99.153 121.993 105.566 116.234 111.163 119.514C115.466 122.037 116.924 126.263 118.208 129.993C119.892 134.875 121.11 138.402 127.483 138.562C130.937 138.642 134.417 137.574 137.783 136.532C138.709 136.246 139.694 136.765 139.981 137.692C140.268 138.618 139.748 139.604 138.822 139.891C135.492 140.925 131.734 142.085 127.871 142.085Z" fill="white"/>
<path d="M113.691 40.8351C112.898 40.8351 112.178 40.2965 111.983 39.4923C111.718 38.3988 111.05 34.5657 113.608 31.1253C115.299 28.8514 117.568 27.9201 118.772 27.5674C119.704 27.2946 120.679 27.8284 120.952 28.7597C121.225 29.6909 120.691 30.6668 119.76 30.9396C118.979 31.1677 117.509 31.7697 116.428 33.223C114.742 35.4899 115.273 38.1519 115.398 38.6622C115.628 39.6052 115.047 40.5552 114.104 40.7857C113.968 40.8186 113.829 40.8351 113.691 40.8351Z" fill="white"/>
<defs>
<linearGradient id="paint0_linear_433_15791" x1="61.2137" y1="31.2945" x2="6.1537" y2="305.493" gradientUnits="userSpaceOnUse">
<stop stop-color="#7D7DFF"/>
<stop offset="1" stop-color="#0000CD"/>
</linearGradient>
<linearGradient id="paint1_linear_433_15791" x1="126.365" y1="88.6899" x2="-79.5596" y2="267.084" gradientUnits="userSpaceOnUse">
<stop stop-color="#0000CD"/>
<stop offset="1" stop-color="#9191FF"/>
</linearGradient>
<linearGradient id="paint2_linear_433_15791" x1="-4.02836" y1="147.907" x2="62.9066" y2="84.8301" gradientUnits="userSpaceOnUse">
<stop stop-color="#0A5F7A"/>
<stop offset="1" stop-color="#0000CD"/>
</linearGradient>
<linearGradient id="paint3_linear_433_15791" x1="9.21628" y1="167.387" x2="121.316" y2="8.529" gradientUnits="userSpaceOnUse">
<stop stop-color="#30C3F1"/>
<stop offset="1" stop-color="#0000CD"/>
</linearGradient>
<linearGradient id="paint4_linear_433_15791" x1="-2.55546" y1="133.928" x2="60.6" y2="42.503" gradientUnits="userSpaceOnUse">
<stop stop-color="#317489"/>
<stop offset="1" stop-color="#0000CD"/>
</linearGradient>
<linearGradient id="paint5_linear_433_15791" x1="33.8223" y1="90.6763" x2="38.7388" y2="121.876" gradientUnits="userSpaceOnUse">
<stop offset="0.2799" stop-color="white"/>
<stop offset="1"/>
</linearGradient>
<linearGradient id="paint6_linear_433_15791" x1="33.8223" y1="90.6763" x2="38.7388" y2="121.876" gradientUnits="userSpaceOnUse">
<stop offset="0.251736" stop-color="#785DFF"/>
<stop offset="1" stop-color="#0000CD"/>
</linearGradient>
<linearGradient id="paint7_linear_433_15791" x1="54.7943" y1="76.846" x2="20.5372" y2="87.0381" gradientUnits="userSpaceOnUse">
<stop stop-color="white"/>
<stop offset="1"/>
</linearGradient>
</defs>
</svg>
