<svg width="32" height="16" viewBox="0 0 32 16" fill="none" xmlns="http://www.w3.org/2000/svg">
<path d="M31.6334 7.11517C31.633 7.1148 31.6327 7.11436 31.6322 7.11399L25.1007 0.613995C24.6114 0.127059 23.82 0.128871 23.3329 0.618245C22.8459 1.10756 22.8478 1.89899 23.3371 2.38599L27.7224 6.74999H1.25C0.559625 6.74999 0 7.30961 0 7.99998C0 8.69036 0.559625 9.24998 1.25 9.24998H27.7223L23.3372 13.614C22.8479 14.101 22.846 14.8924 23.333 15.3817C23.8201 15.8712 24.6116 15.8728 25.1008 15.386L31.6323 8.88598C31.6327 8.88561 31.633 8.88517 31.6334 8.8848C32.123 8.39617 32.1214 7.60217 31.6334 7.11517Z" fill="#010101"/>
</svg>
