<svg width="29" height="26" viewBox="0 0 29 26" fill="none" xmlns="http://www.w3.org/2000/svg">
<path d="M27.7878 19.0098H27.5083V2.516C27.5083 1.12868 26.3796 0 24.9923 0H3.63422C2.2469 0 1.11822 1.12868 1.11822 2.516V19.0098H0.838667C0.375499 19.0098 0 19.3853 0 19.8484V20.9667C0 23.2789 1.88113 25.16 4.19333 25.16H24.4332C26.7454 25.16 28.6265 23.2789 28.6265 20.9667V19.8484C28.6265 19.3853 28.251 19.0098 27.7878 19.0098ZM2.79556 2.516C2.79556 2.05356 3.17178 1.67733 3.63422 1.67733H24.9923C25.4547 1.67733 25.8309 2.05356 25.8309 2.516V19.0098H18.7861C18.5637 19.0098 18.3504 19.0982 18.1931 19.2555L17.3205 20.128H11.306L10.4334 19.2555C10.2761 19.0982 10.0628 19.0098 9.84036 19.0098H2.79556V2.516ZM26.9492 20.9667C26.9492 22.354 25.8205 23.4827 24.4332 23.4827H4.19333C2.80601 23.4827 1.67733 22.354 1.67733 20.9667V20.6871H9.49298L10.3655 21.5597C10.5228 21.7169 10.7361 21.8053 10.9586 21.8053H17.6679C17.8904 21.8053 18.1037 21.7169 18.2609 21.5597L19.1335 20.6871H26.9492V20.9667Z" fill="#030303"/>
<path d="M13.9727 17.8193C14.1895 17.9157 14.4371 17.9157 14.6539 17.8193C18.0133 16.3263 20.184 12.9862 20.184 9.30994V5.87074C20.184 5.5393 19.9888 5.23894 19.6859 5.10436C16.1209 3.5199 12.5057 3.5199 8.94068 5.10436C8.63781 5.23894 8.44263 5.5393 8.44263 5.87074V9.30994C8.44263 12.9862 10.6133 16.3263 13.9727 17.8193ZM10.12 6.42711C12.9364 5.30414 15.6902 5.30414 18.5066 6.42711V9.30994C18.5066 12.1978 16.8727 14.8327 14.3133 16.1251C11.7539 14.8328 10.12 12.1978 10.12 9.30994V6.42711Z" fill="#030303"/>
<path d="M13.7202 12.9264C13.9427 12.9264 14.156 12.838 14.3132 12.6808L16.6853 10.3086C17.0128 9.98109 17.0128 9.4501 16.6853 9.12258C16.3578 8.79511 15.8268 8.79505 15.4993 9.12258L13.7202 10.9017L13.1272 10.3087C12.7998 9.98126 12.2688 9.9812 11.9412 10.3087C11.6137 10.6363 11.6137 11.1672 11.9412 11.4948L13.1272 12.6808C13.2845 12.8381 13.4978 12.9264 13.7202 12.9264Z" fill="#030303"/>
</svg>
