<svg width="60" height="58" viewBox="0 0 60 58" fill="none" xmlns="http://www.w3.org/2000/svg">
<path d="M45 57.5006C44.835 57.5006 44.67 57.4681 44.515 57.4031C43.92 57.1506 30 51.1356 30 38.8406V28.3931C30 27.8556 30.3425 27.3806 30.85 27.2081L44.6 22.5656C44.86 22.4781 45.1425 22.4781 45.4 22.5656L59.15 27.2081C59.6575 27.3781 60 27.8556 60 28.3931V38.8406C60 51.1356 46.08 57.1506 45.485 57.4031C45.33 57.4681 45.165 57.5006 45 57.5006ZM32.5 29.2931V38.8406C32.5 48.3006 42.6375 53.7356 45 54.8731C47.36 53.7331 57.5 48.2756 57.5 38.8406V29.2931L45 25.0706L32.5 29.2931Z" fill="#1E2348"/>
<path d="M43.7498 45.0006C43.7273 45.0006 43.7023 45.0006 43.6823 44.9981C43.3248 44.9781 42.9973 44.8106 42.7748 44.5306L37.7748 38.2806C37.3448 37.7406 37.4298 36.9556 37.9698 36.5231C38.5123 36.0981 39.2948 36.1831 39.7273 36.7181L43.8523 41.8756L51.6148 34.1156C52.1023 33.6281 52.8948 33.6281 53.3823 34.1156C53.8698 34.6031 53.8698 35.3956 53.3823 35.8831L44.6323 44.6331C44.3998 44.8681 44.0798 45.0006 43.7498 45.0006Z" fill="#1E2348"/>
<path d="M46.25 17.5H8.75C3.925 17.5 0 13.575 0 8.75C0 3.925 3.925 0 8.75 0H46.25C51.075 0 55 3.925 55 8.75C55 13.575 51.075 17.5 46.25 17.5ZM8.75 2.5C5.3025 2.5 2.5 5.3025 2.5 8.75C2.5 12.1975 5.3025 15 8.75 15H46.25C49.6975 15 52.5 12.1975 52.5 8.75C52.5 5.3025 49.6975 2.5 46.25 2.5H8.75Z" fill="#1E2348"/>
<path d="M11.25 12.5C9.1825 12.5 7.5 10.8175 7.5 8.75C7.5 6.6825 9.1825 5 11.25 5C13.3175 5 15 6.6825 15 8.75C15 10.8175 13.3175 12.5 11.25 12.5ZM11.25 7.5C10.5625 7.5 10 8.0625 10 8.75C10 9.4375 10.5625 10 11.25 10C11.9375 10 12.5 9.4375 12.5 8.75C12.5 8.0625 11.9375 7.5 11.25 7.5Z" fill="#1E2348"/>
<path d="M23.75 12.5C21.6825 12.5 20 10.8175 20 8.75C20 6.6825 21.6825 5 23.75 5C25.8175 5 27.5 6.6825 27.5 8.75C27.5 10.8175 25.8175 12.5 23.75 12.5ZM23.75 7.5C23.0625 7.5 22.5 8.0625 22.5 8.75C22.5 9.4375 23.0625 10 23.75 10C24.4375 10 25 9.4375 25 8.75C25 8.0625 24.4375 7.5 23.75 7.5Z" fill="#1E2348"/>
<path d="M23.75 32.5H8.75C3.925 32.5 0 28.575 0 23.75C0 21.415 0.91 19.22 2.565 17.565C4.22 15.91 6.415 15 8.75 15H46.25C48.205 15 50.0475 15.6275 51.57 16.815C52.115 17.24 52.2125 18.025 51.7875 18.57C51.3625 19.1125 50.5775 19.21 50.0325 18.7875C48.9525 17.945 47.645 17.5 46.25 17.5H8.75C7.085 17.5 5.515 18.1525 4.3325 19.3325C3.15 20.5125 2.5 22.085 2.5 23.75C2.5 27.1975 5.3025 30 8.75 30H23.75C24.44 30 25 30.56 25 31.25C25 31.94 24.44 32.5 23.75 32.5Z" fill="#1E2348"/>
<path d="M11.25 27.5C9.1825 27.5 7.5 25.8175 7.5 23.75C7.5 21.6825 9.1825 20 11.25 20C13.3175 20 15 21.6825 15 23.75C15 25.8175 13.3175 27.5 11.25 27.5ZM11.25 22.5C10.5625 22.5 10 23.0625 10 23.75C10 24.4375 10.5625 25 11.25 25C11.9375 25 12.5 24.4375 12.5 23.75C12.5 23.0625 11.9375 22.5 11.25 22.5Z" fill="#1E2348"/>
<path d="M23.75 27.5C21.6825 27.5 20 25.8175 20 23.75C20 21.6825 21.6825 20 23.75 20C25.8175 20 27.5 21.6825 27.5 23.75C27.5 25.8175 25.8175 27.5 23.75 27.5ZM23.75 22.5C23.0625 22.5 22.5 23.0625 22.5 23.75C22.5 24.4375 23.0625 25 23.75 25C24.4375 25 25 24.4375 25 23.75C25 23.0625 24.4375 22.5 23.75 22.5Z" fill="#1E2348"/>
<path d="M23.75 47.5H8.75C3.925 47.5 0 43.575 0 38.75C0 36.415 0.91 34.22 2.565 32.565C4.22 30.91 6.415 30 8.75 30H23.75C24.44 30 25 30.56 25 31.25C25 31.94 24.44 32.5 23.75 32.5H8.75C7.085 32.5 5.515 33.1525 4.3325 34.3325C3.15 35.5125 2.5 37.085 2.5 38.75C2.5 42.1975 5.3025 45 8.75 45H23.75C24.44 45 25 45.56 25 46.25C25 46.94 24.44 47.5 23.75 47.5Z" fill="#1E2348"/>
<path d="M11.25 42.5C9.1825 42.5 7.5 40.8175 7.5 38.75C7.5 36.6825 9.1825 35 11.25 35C13.3175 35 15 36.6825 15 38.75C15 40.8175 13.3175 42.5 11.25 42.5ZM11.25 37.5C10.5625 37.5 10 38.0625 10 38.75C10 39.4375 10.5625 40 11.25 40C11.9375 40 12.5 39.4375 12.5 38.75C12.5 38.0625 11.9375 37.5 11.25 37.5Z" fill="#1E2348"/>
<path d="M23.75 42.5C21.6825 42.5 20 40.8175 20 38.75C20 36.6825 21.6825 35 23.75 35C25.8175 35 27.5 36.6825 27.5 38.75C27.5 40.8175 25.8175 42.5 23.75 42.5ZM23.75 37.5C23.0625 37.5 22.5 38.0625 22.5 38.75C22.5 39.4375 23.0625 40 23.75 40C24.4375 40 25 39.4375 25 38.75C25 38.0625 24.4375 37.5 23.75 37.5Z" fill="#1E2348"/>
</svg>
