<svg width="32" height="32" viewBox="0 0 32 32" fill="none" xmlns="http://www.w3.org/2000/svg">
<circle cx="16" cy="16" r="16" fill="#0081FE"/>
<path d="M9.69354 16.2177C9.1959 16.4787 9.21655 16.8611 9.73827 17.0676L11.2841 17.6792C11.8062 17.8865 12.5963 17.7734 13.0389 17.428L19.7516 12.1342C20.1929 11.7871 20.2402 11.8383 19.857 12.2486L14.5503 17.9286C14.1658 18.3377 14.2793 18.84 14.8032 19.0426L14.9843 19.1132C15.5082 19.3157 16.3619 19.6559 16.8824 19.8676L18.5968 20.5656C19.1176 20.7772 19.6742 20.5278 19.8221 19.9858L22.435 10.3815C22.5826 9.8396 22.2961 9.60949 21.7985 9.87014L9.69354 16.2177Z" fill="white"/>
<path d="M13.9359 22.506C13.9054 22.5976 14.9931 20.9309 14.9931 20.9309C15.3006 20.4613 15.126 19.9008 14.6064 19.6884L13.4202 19.2028C12.9006 18.9903 12.6516 19.2398 12.8666 19.7589C12.8666 19.7589 13.9673 22.4118 13.9359 22.506Z" fill="white"/>
</svg>
