<svg width="18" height="15" viewBox="0 0 18 15" fill="none" xmlns="http://www.w3.org/2000/svg">
<path d="M13.4996 6H12.5546C12.274 4.91325 11.6942 3.92699 10.8811 3.1533C10.068 2.3796 9.05413 1.84949 7.95479 1.62321C6.85544 1.39692 5.71467 1.48353 4.66209 1.87319C3.6095 2.26286 2.68732 2.93995 2.00033 3.82754C1.31334 4.71512 0.889087 5.77761 0.775775 6.89427C0.662463 8.01092 0.864638 9.13698 1.35933 10.1445C1.85402 11.152 2.62138 12.0005 3.57423 12.5937C4.52708 13.1868 5.6272 13.5008 6.7496 13.5H13.4996C14.4942 13.5 15.448 13.1049 16.1512 12.4017C16.8545 11.6984 17.2496 10.7446 17.2496 9.75C17.2496 8.75544 16.8545 7.80161 16.1512 7.09835C15.448 6.39509 14.4942 6 13.4996 6Z" stroke="white" stroke-width="2" stroke-linecap="round" stroke-linejoin="round"/>
</svg>
