<svg width="65" height="65" viewBox="0 0 65 65" fill="none" xmlns="http://www.w3.org/2000/svg">
<circle cx="32.5004" cy="32.5" r="32" stroke="#040404"/>
<path d="M35.33 38.5023L35.3684 38.1754C35.4298 37.6519 35.4299 37.1223 35.3687 36.6001L35.3303 36.2733L35.6154 36.1088C35.8946 35.9477 36.1724 35.7842 36.4417 35.6223L36.4418 35.6222C36.6853 35.4759 36.7906 35.1624 36.6836 34.8965L36.6814 34.8911L36.0837 33.4481C36.0836 33.4481 36.0836 33.4481 36.0836 33.4481C35.973 33.1811 35.6749 33.0313 35.3973 33.1005L35.3972 33.1005C35.092 33.1765 34.7799 33.2573 34.4688 33.3408L34.151 33.4261L33.947 33.1679C33.6207 32.7551 33.2462 32.3807 32.8328 32.0542L32.5745 31.8502L32.6597 31.5323C32.7432 31.221 32.8241 30.9088 32.9001 30.6035L32.9002 30.6034C32.9693 30.326 32.8196 30.0277 32.5527 29.9171C32.5526 29.9171 32.5526 29.9171 32.5526 29.9171L31.1096 29.3194L31.1095 29.3194C30.8426 29.2088 30.5258 29.3137 30.3785 29.5588L35.33 38.5023ZM35.33 38.5023L35.6151 38.6668M35.33 38.5023L35.6151 38.6668M35.6151 38.6668C35.8932 38.8273 36.1712 38.9909 36.4419 39.1536C36.6868 39.3008 36.7919 39.6176 36.6815 39.8846C36.6815 39.8846 36.6815 39.8846 36.6814 39.8847L36.0837 41.3277C35.9731 41.5948 35.6748 41.7445 35.3975 41.6753L35.3974 41.6752C35.0918 41.5991 34.7795 41.5183 34.4686 41.4349L34.1507 41.3496L33.9467 41.6079C33.6202 42.0213 33.2457 42.3959 32.833 42.7221L32.5749 42.9261L32.66 43.2438C32.744 43.5568 32.8248 43.869 32.9003 44.1724L32.9004 44.1724M35.6151 38.6668L32.9004 44.1724M29.7273 30.6708L29.4003 30.6324C28.8769 30.571 28.3475 30.5708 27.825 30.6321L27.4981 30.6704L27.3337 30.3853C27.1725 30.1059 27.009 29.8281 26.8472 29.559C26.6998 29.3137 26.3829 29.2088 26.1161 29.3194L26.116 29.3194L24.673 29.9171C24.673 29.9171 24.673 29.9171 24.673 29.9171C24.4061 30.0277 24.2563 30.326 24.3255 30.6034L24.3255 30.6035C24.4017 30.9095 24.4825 31.2216 24.5657 31.5319L24.6511 31.8497L24.3928 32.0538C23.9801 32.3799 23.6056 32.7545 23.2792 33.1679L23.0751 33.4263L22.7572 33.3409C22.4454 33.2573 22.1332 33.1765 21.8283 33.1005L21.8282 33.1005C21.5509 33.0313 21.2527 33.1811 21.142 33.4481L29.7273 30.6708ZM29.7273 30.6708L29.8917 30.3856M29.7273 30.6708L29.8917 30.3856M29.8917 30.3856C30.0523 30.1072 30.216 29.8292 30.3784 29.5589L29.8917 30.3856ZM21.8284 41.6752L21.8285 41.6752C22.1334 41.5993 22.4455 41.5185 22.7568 41.4349L23.0746 41.3496L23.2786 41.6078C23.6049 42.0206 23.9794 42.3949 24.3929 42.7215L24.6511 42.9255L24.5659 43.2434C24.4823 43.5549 24.4014 43.8672 24.3255 44.1722L24.3255 44.1723C24.2563 44.4497 24.4061 44.748 24.6729 44.8585L24.4816 45.3205L24.673 44.8585L26.116 45.4563C26.1161 45.4563 26.1161 45.4563 26.1161 45.4563C26.1878 45.486 26.263 45.5003 26.338 45.5003C26.5445 45.5003 26.7411 45.3935 26.8475 45.2166C27.0086 44.9486 27.1722 44.6707 27.3341 44.3901L27.4986 44.1051L27.8254 44.1434C28.3487 44.2047 28.8784 44.2048 29.4009 44.1437L29.7277 44.1055L29.8921 44.3905C30.0521 44.6678 30.2156 44.9456 30.3786 45.2169L21.8284 41.6752ZM21.8284 41.6752C21.5507 41.7444 21.2527 41.5946 21.1421 41.3276M21.8284 41.6752L20.6801 41.519L21.1421 41.3276M32.9004 44.1724C32.9695 44.4498 32.8197 44.7481 32.5529 44.8587C32.5529 44.8587 32.5528 44.8587 32.5528 44.8587L31.1098 45.4564L32.9004 44.1724ZM35.7915 41.6051L35.373 41.5003C35.0737 41.4254 34.7687 41.3461 34.4654 41.2644M35.7915 41.6051L34.5955 40.7816M35.7915 41.6051L35.9565 41.2066M35.7915 41.6051L35.9565 41.2066M34.4654 41.2644L34.5955 40.7816M34.4654 41.2644C34.4655 41.2644 34.4656 41.2644 34.4657 41.2644L34.5955 40.7816M34.4654 41.2644C34.2332 41.202 33.9915 41.2837 33.8466 41.4699L33.8465 41.47C33.5116 41.9002 33.124 42.2878 32.6945 42.6223M34.5955 40.7816C34.1702 40.6672 33.7213 40.8167 33.452 41.1628C33.1424 41.5604 32.7842 41.9187 32.3872 42.2279M32.6945 42.6223L32.3872 42.2279M32.6945 42.6223C32.6944 42.6223 32.6944 42.6223 32.6944 42.6224L32.3872 42.2279M32.6945 42.6223C32.5085 42.7671 32.427 43.0087 32.4895 43.2408L32.4895 43.2409C32.5717 43.546 32.6509 43.8508 32.7253 44.1479L32.8302 44.5664L32.4317 44.7315L31.1052 45.2809L30.7067 45.4459L30.485 45.0759C30.3257 44.8101 30.1662 44.5386 30.0103 44.2677C29.8904 44.0596 29.662 43.9464 29.4279 43.9753C28.8877 44.0424 28.3395 44.0424 27.7987 43.9751M32.3872 42.2279L24.7363 43.2405C24.6545 43.5442 24.5753 43.8491 24.5004 44.1478L24.3955 44.5663L24.794 44.7313L26.1205 45.2808L26.5191 45.4459L26.7408 45.0758C26.8984 44.8128 27.0578 44.5412 27.2155 44.2674L27.2156 44.2673C27.3354 44.0592 27.5633 43.9459 27.7987 43.9751M27.7987 43.9751L27.8604 43.4789L27.7988 43.9751C27.7988 43.9751 27.7987 43.9751 27.7987 43.9751ZM35.9565 41.2066L36.5058 39.88L36.6708 39.4815L36.3008 39.2598C36.0354 39.1007 35.7638 38.9412 35.4924 38.785L35.2429 39.2183M35.9565 41.2066L35.2429 39.2183M22.0255 36.5738L22.0256 36.5736C22.0548 36.3391 21.9415 36.1105 21.7332 35.9905L21.7331 35.9905C21.4614 35.834 21.1897 35.6745 20.9246 35.5155L20.5547 35.2938L20.7198 34.8954L21.2692 33.5689L21.4343 33.1704L21.8527 33.2753C22.1511 33.3501 22.4559 33.4293 22.76 33.5111L22.7602 33.5112C22.9919 33.5736 23.2337 33.4922 23.3791 33.3056C23.3791 33.3056 23.3792 33.3055 23.3792 33.3055L22.0255 36.5738ZM22.0255 36.5738C21.9584 37.1145 21.9582 37.6626 22.0254 38.203L22.0255 36.5738ZM24.3953 30.2092L24.7939 30.0441L26.1204 29.4947L26.5189 29.3297L26.7406 29.6996C26.8987 29.9635 27.0582 30.235 27.2152 30.5077C27.3354 30.7164 27.5643 30.8294 27.7971 30.8003L27.7975 30.8002C28.3376 30.733 28.8857 30.733 29.4271 30.8005L24.3953 30.2092ZM24.3953 30.2092L24.5002 30.6276M24.3953 30.2092L24.5002 30.6276M24.5002 30.6276C24.5753 30.9272 24.6546 31.232 24.7361 31.5346L24.5002 30.6276ZM30.7066 29.3296L31.1051 29.4947L32.4316 30.0441L32.8301 30.2092L32.7252 30.6276C32.6503 30.9266 32.5711 31.2315 32.4893 31.535C32.4268 31.7671 32.5084 32.0089 32.6948 32.154L32.6949 32.154C33.125 32.4889 33.5126 32.8764 33.8472 33.3059L33.8473 33.306C33.9919 33.4918 34.2333 33.5735 34.466 33.5109C34.7693 33.4292 35.074 33.35 35.3728 33.2751L35.7913 33.1702L35.9564 33.5688L36.5058 34.8952L36.6708 35.2937L36.3009 35.5154C36.0366 35.6738 35.765 35.8333 35.4928 35.9901L35.4927 35.9901C35.2842 36.1102 35.1711 36.3387 35.2002 36.5724C35.2674 37.1126 35.2673 37.6608 35.1999 38.2019L30.7066 29.3296ZM30.7066 29.3296L30.4848 29.6997M30.7066 29.3296L30.4848 29.6997M30.4848 29.6997C30.3261 29.9646 30.1666 30.2362 30.0101 30.5081M30.4848 29.6997L30.0101 30.5081M35.2429 39.2183L35.4924 38.785M35.2429 39.2183L35.4924 38.785M20.5443 39.8845C20.5443 39.8846 20.5443 39.8846 20.5443 39.8846L21.1421 41.3276M20.5443 39.8845L21.1421 41.3276M20.5443 39.8845C20.4338 39.6176 20.5388 39.3009 20.7837 39.1536L20.5443 39.8845ZM30.0101 30.5081C29.8902 30.7164 29.6617 30.8297 29.4271 30.8005L30.0101 30.5081ZM35.4924 38.785C35.2841 38.6651 35.1708 38.4365 35.1999 38.2019L35.4924 38.785ZM37.1053 34.608L36.9519 34.2377C36.9179 34.2518 36.883 34.2709 36.8482 34.2963C36.7656 34.3567 36.7104 34.4356 36.6789 34.5148C36.6639 34.5524 36.6551 34.5878 36.65 34.6185C36.6475 34.634 36.6458 34.6485 36.6448 34.662L36.6437 34.6816C36.6436 34.6855 36.6435 34.6893 36.6806 34.6924L37.1053 34.608ZM20.5444 34.8911L21.142 33.4482L20.7838 39.1535C21.0539 38.9913 21.3317 38.8277 21.6104 38.6669L21.8954 38.5025L21.8571 38.1756C21.7959 37.6531 21.796 37.1236 21.8574 36.6002L21.8957 36.2734L21.6107 36.1089C21.3322 35.9482 21.0542 35.7846 20.7839 35.6221C20.5389 35.4749 20.4338 35.1581 20.5443 34.8911C20.5443 34.8911 20.5444 34.8911 20.5444 34.8911ZM24.5308 42.6215C24.7172 42.7666 24.7988 43.0084 24.7363 43.2405L22.0254 38.2031C22.0544 38.4369 21.9413 38.6653 21.7328 38.7854C21.461 38.9419 21.1893 39.1014 20.9246 39.2601L20.5548 39.4818L20.7198 39.8802L21.2693 41.2067L21.4343 41.6052L21.8528 41.5003C22.1514 41.4255 22.4562 41.3463 22.7597 41.2645C22.9922 41.202 23.2336 41.2836 23.3783 41.4694L23.3784 41.4696C23.7129 41.8991 24.1005 42.2866 24.5308 42.6215ZM31.1098 45.4564C30.8427 45.567 30.526 45.462 30.3787 45.217L31.1098 45.4564Z" fill="white" stroke="#040404"/>
<path d="M31.8208 36.0737L31.8154 36.0607C31.0842 34.2954 29.0522 33.4535 27.2864 34.1848L31.8208 36.0737ZM31.8208 36.0737C32.5425 37.8362 31.7006 39.8602 29.9396 40.5898C29.5103 40.7675 29.0611 40.8557 28.6129 40.8557C28.1648 40.8557 27.7156 40.7675 27.2865 40.5898L31.8208 36.0737ZM25.4105 38.7138L25.4105 38.7138C25.7651 39.5701 26.4302 40.235 27.2864 40.5898L25.4105 38.7138ZM25.4105 38.7138C24.6792 36.9484 25.521 34.9161 27.2864 34.1848L25.4105 38.7138ZM29.8768 40.4384L29.8768 40.4384C29.0627 40.7756 28.1634 40.7755 27.3492 40.4384L27.3491 40.4384C26.5351 40.1012 25.8991 39.4652 25.5619 38.6511C24.8647 36.9683 25.6664 35.0332 27.3492 34.3361L29.8768 40.4384ZM29.8768 40.4384C31.5595 39.7414 32.3612 37.8063 31.6642 36.1235L31.6641 36.1234M29.8768 40.4384L31.6641 36.1234M31.6641 36.1234C31.1373 34.8516 29.9042 34.0847 28.6093 34.0847C28.1881 34.0847 27.7606 34.1657 27.3492 34.3361L31.6641 36.1234ZM32.2381 35.7778C32.1834 35.6545 32.1231 35.5353 32.0576 35.4204C31.9599 35.4682 31.8807 35.5464 31.8317 35.6429C31.8082 35.689 31.7948 35.7332 31.7872 35.7711C31.7833 35.7902 31.7809 35.808 31.7794 35.8243C31.7788 35.8322 31.778 35.844 31.7779 35.8478C31.7777 35.8526 31.7776 35.8573 31.8194 35.8611L32.2381 35.7778Z" fill="white" stroke="#040404"/>
<path d="M44.4668 30.8748C44.7872 30.5545 44.8261 30.0387 44.5571 29.6751C44.4359 29.5112 44.3106 29.3446 44.1836 29.1786C44.3561 28.858 44.496 28.5205 44.6007 28.1722L44.4668 30.8748ZM44.4668 30.8748L43.664 31.6775M44.4668 30.8748L43.664 31.6775M43.664 31.6775C43.3438 31.9978 42.8279 32.0367 42.4644 31.7677C42.3002 31.6462 42.1335 31.5209 41.9678 31.3942C41.6472 31.5667 41.3097 31.7067 40.9614 31.8113C40.9336 32.0191 40.9045 32.2254 40.8745 32.4263C40.8076 32.8737 40.4155 33.2109 39.9624 33.2109H38.8271C38.3741 33.2109 37.9819 32.8736 37.915 32.4264M43.664 31.6775L35.1254 31.6774M35.1254 31.6774C35.4457 31.9978 35.9614 32.0366 36.325 31.7677C36.4893 31.6463 36.6558 31.5209 36.8216 31.3943C37.1423 31.5668 37.4799 31.7067 37.8281 31.8114C37.8557 32.0191 37.8849 32.2255 37.915 32.4264M35.1254 31.6774L34.3226 30.8747M35.1254 31.6774L34.3226 30.8747M37.915 32.4264L38.4095 32.3524M37.915 32.4264L38.4095 32.3524C38.4397 32.554 38.6209 32.7109 38.8271 32.7109H39.9624C40.1686 32.7109 40.3498 32.5541 40.38 32.3524C40.4096 32.1542 40.4384 31.9504 40.4658 31.7451L40.5086 31.4253L40.8175 31.3325C41.1334 31.2375 41.4398 31.1105 41.7309 30.9539L42.0152 30.8009L42.2716 30.997C42.4352 31.1221 42.5997 31.2458 42.7618 31.3658L42.7618 31.3658C42.9257 31.487 43.1647 31.4697 43.3104 31.324L43.3105 31.3239L44.1132 30.5212L44.1132 30.5212C44.2591 30.3754 44.2764 30.1364 44.1551 29.9724L44.1551 29.9724C44.0355 29.8107 43.9118 29.6462 43.7865 29.4823L43.5904 29.2259L43.7433 28.9417C43.8999 28.6507 44.0268 28.3443 44.1219 28.0282L44.2148 27.7193L44.5345 27.6766C44.7398 27.6491 44.9436 27.6203 45.1417 27.5907L45.1417 27.5907C45.3434 27.5605 45.5002 27.3793 45.5002 27.173V26.0379C45.5002 26.0379 45.5002 26.0378 45.5002 26.0378C45.5002 25.8315 45.3433 25.6503 45.1417 25.6201C44.9435 25.5905 44.7398 25.5616 44.5346 25.5343L44.2148 25.4916L44.1219 25.1826C44.0269 24.8666 43.8999 24.5602 43.7433 24.2692L43.5904 23.9849L43.7864 23.7285C43.912 23.5643 44.0358 23.3997 44.1553 23.2382C44.2765 23.0742 44.2591 22.8353 44.1134 22.6897L44.1133 22.6896L43.3105 21.887L43.3105 21.8869C43.1646 21.741 42.9257 21.7238 42.7618 21.845C42.5997 21.965 42.4352 22.0887 42.2714 22.2139L42.015 22.4098L41.7309 22.2569C41.4399 22.1003 41.1335 21.9733 40.8174 21.8782L40.5085 21.7853L40.4658 21.4657C40.4383 21.2602 40.4096 21.0565 40.38 20.8585L40.38 20.8584C40.3498 20.6568 40.1686 20.5 39.9624 20.5H38.8271C38.6209 20.5 38.4397 20.6568 38.4096 20.8583L38.4095 32.3524M38.4095 32.3524C38.3798 32.1542 38.351 31.9505 38.3237 31.7454L38.2811 31.4255L37.972 31.3326C37.656 31.2375 37.3496 31.1106 37.0585 30.954L36.7744 30.8011L36.518 30.997C36.3541 31.1222 36.1897 31.246 36.0278 31.3657L36.0277 31.3657C35.8637 31.487 35.6248 31.4697 35.479 31.3239L35.4789 31.3239L34.6762 30.5211L34.6761 30.521C34.5304 30.3755 34.513 30.1365 34.6342 29.9725C34.7538 29.8108 34.8776 29.6463 35.0031 29.4822L35.1991 29.2258L35.0462 28.9416C34.8896 28.6506 34.7626 28.3442 34.6675 28.0281L34.5746 27.7192L34.2549 27.6765C34.0496 27.6491 33.8459 27.6203 33.6477 27.5906C33.4461 27.5604 33.2893 27.3793 33.2893 27.173V26.0378C33.2893 25.8315 33.4461 25.6503 33.6478 25.6201L33.6478 25.6201C33.8459 25.5905 34.0497 25.5617 34.255 25.5342L34.5747 25.4915L34.6676 25.1827C34.7627 24.8666 34.8897 24.5601 35.0462 24.2691L35.1991 23.9849L35.0031 23.7285C34.8776 23.5644 34.7539 23.3998 34.6345 23.2384C34.5131 23.0743 34.5305 22.8353 34.6763 22.6895L34.6764 22.6894L35.479 21.8868L35.4791 21.8868C35.6248 21.741 35.8638 21.7237 36.0278 21.845L36.0278 21.8451C36.1898 21.9649 36.3544 22.0886 36.5179 22.2137L36.7744 22.4099L37.0587 22.2568C37.3495 22.1002 37.656 21.9733 37.9721 21.8782L38.281 21.7853M38.4095 32.3524L38.281 21.7853M34.3226 30.8747C34.0023 30.5545 33.9634 30.0387 34.2323 29.6751M34.3226 30.8747L34.2323 29.6751M38.281 21.7853L38.3237 21.4656M38.281 21.7853L38.3237 21.4656M34.2323 29.6751C34.3535 29.5112 34.4788 29.3447 34.6058 29.1785C34.4333 28.8579 34.2935 28.5204 34.1887 28.1721C33.9809 28.1444 33.7746 28.1152 33.5737 28.0851C33.1265 28.0182 32.7893 27.6261 32.7893 27.173V26.0378C32.7893 25.5847 33.1266 25.1926 33.5738 25.1256C33.7747 25.0956 33.981 25.0664 34.1888 25.0387C34.2935 24.6903 34.4334 24.3528 34.6059 24.0322C34.4788 23.866 34.3535 23.6993 34.2325 23.5357C33.9635 23.172 34.0024 22.6562 34.3228 22.3359L35.1255 21.5333C35.4458 21.2129 35.9615 21.1741 36.3251 21.443C36.4893 21.5645 36.656 21.6898 36.8217 21.8165C37.1422 21.644 37.4798 21.5041 37.8281 21.3994L34.2323 29.6751ZM38.3237 21.4656C38.3512 21.2602 38.3799 21.0564 38.4095 20.8584L38.3237 21.4656ZM45.3946 27.4477L44.9663 27.5098C44.7816 27.5366 44.5931 27.5626 44.4039 27.5873M45.3946 27.4477L44.3393 27.0915M45.3946 27.4477V27.015M45.3946 27.4477V27.015M44.4039 27.5873L44.3393 27.0915M44.4039 27.5873C44.4039 27.5873 44.404 27.5873 44.404 27.5873L44.3393 27.0915M44.4039 27.5873C44.2328 27.6097 44.0959 27.7298 44.0513 27.8919L44.0513 27.892C43.946 28.2742 43.7932 28.6427 43.5973 28.9876L43.5972 28.9878C43.5138 29.1345 43.5258 29.3163 43.6309 29.4531M44.3393 27.0915C43.97 27.1397 43.6676 27.4018 43.5692 27.7592C43.4749 28.1014 43.3381 28.4316 43.1625 28.7407C42.9791 29.0633 43.0074 29.4625 43.2346 29.7579M43.6309 29.4531L43.2346 29.7579M43.6309 29.4531C43.6309 29.4531 43.6309 29.4531 43.6309 29.4532L43.2346 29.7579M43.6309 29.4531C43.7468 29.6038 43.8619 29.7556 43.9739 29.9056L44.2327 30.2523L43.9268 30.5583L43.3477 31.1375L43.0418 31.4434L42.6951 31.1846C42.5446 31.0723 42.3928 30.9573 42.2424 30.8416L42.2422 30.8415C42.1059 30.7366 41.924 30.7244 41.7769 30.8078L43.5732 30.2048C43.4627 30.0567 43.3491 29.9068 43.2346 29.7579M35.5549 29.7577C35.4403 29.9068 35.3267 30.0565 35.2162 30.2048L35.6269 28.7406C35.8102 29.0632 35.7819 29.4624 35.5549 29.7577ZM35.5549 29.7577L35.1585 29.453M35.5549 29.7577L35.1587 29.4529C35.1586 29.4529 35.1586 29.453 35.1585 29.453M35.1585 29.453C35.2636 29.3163 35.2756 29.1344 35.1922 28.9876L35.1921 28.9875C34.9962 28.6426 34.8435 28.274 34.7382 27.892L34.7381 27.8919C34.6934 27.7296 34.5565 27.6095 34.3854 27.5872L34.3854 27.5872C34.1964 27.5625 34.0078 27.5366 33.8228 27.5096L33.3948 27.4473V27.0148V26.1959V25.7631L33.823 25.701C34.0077 25.6742 34.1962 25.6482 34.3855 25.6236M35.1585 29.453L40.3765 21.5961M35.1585 29.453C35.0425 29.6038 34.9275 29.7555 34.8154 29.9058L34.5568 30.2525L34.8626 30.5583L35.4417 31.1375L35.7475 31.4433L36.0942 31.1847C36.2449 31.0723 36.3966 30.9573 36.5471 30.8416L36.5473 30.8415C36.6836 30.7366 36.8655 30.7244 37.0125 30.8079L37.0126 30.808C37.3576 31.0039 37.7261 31.1567 38.1082 31.262M35.1585 29.453L38.1082 31.262M34.3855 25.6236L34.4501 26.1194M34.3855 25.6236C34.3854 25.6236 34.3854 25.6236 34.3854 25.6236L34.4501 26.1194M34.3855 25.6236C34.5565 25.6012 34.6934 25.4811 34.7381 25.3189L34.7381 25.3188C34.8434 24.9368 34.9961 24.5682 35.1921 24.2232L35.1922 24.2231C35.2756 24.0763 35.2636 23.8944 35.1585 23.7577C35.0424 23.6068 34.9274 23.4551 34.8155 23.3052L34.5567 22.9585L34.8626 22.6526L35.4417 22.0734L35.7476 21.7675L36.0943 22.0262C36.2449 22.1386 36.3966 22.2536 36.5469 22.3692L36.5472 22.3694C36.6835 22.4743 36.8653 22.4866 37.0125 22.403C37.3574 22.2071 37.726 22.0543 38.1079 21.949L38.1081 21.949C38.2706 21.9042 38.3906 21.7671 38.4128 21.5964L38.4128 21.5962C38.4375 21.407 38.4635 21.2186 38.4903 21.0339L38.5524 20.6057H38.9852H39.8043H40.2369L40.2991 21.0339C40.3259 21.2186 40.3519 21.4071 40.3765 21.5961M34.4501 26.1194C34.2633 26.1437 34.0772 26.1694 33.8948 26.1959L34.4501 26.1194ZM40.3765 21.5961C40.3988 21.7673 40.519 21.9042 40.6812 21.9489M40.3765 21.5961L40.6812 21.9489M38.1082 31.262C38.2705 31.3067 38.3906 31.4437 38.4129 31.6148L38.4129 31.6149C38.4376 31.8038 38.4636 31.9922 38.4904 32.177L38.5525 32.6052H38.9852H39.8043H40.2369L40.2991 32.1772C40.326 31.9923 40.352 31.8037 40.3766 31.6145L40.3766 31.6145C40.3988 31.4437 40.5188 31.3067 40.6814 31.2619L40.6815 31.2619C41.0633 31.1566 41.4318 31.0039 41.7767 30.8079L38.1082 31.262ZM38.1082 31.262C38.1082 31.262 38.1081 31.2619 38.1081 31.2619L38.241 30.7799L38.1082 31.262ZM45.3946 27.015V26.196V25.7634L44.9665 25.7012C44.7816 25.6743 44.593 25.6484 44.404 25.6237L44.404 25.6237C44.2329 25.6014 44.0959 25.4813 44.0512 25.3189L44.0512 25.3188C43.9459 24.9369 43.7932 24.5683 43.5973 24.2233L43.5972 24.2233C43.5138 24.0764 43.5259 23.8945 43.6309 23.7579C43.747 23.6069 43.862 23.4551 43.974 23.3051L44.2326 22.9584L43.9268 22.6526L43.3477 22.0734L43.0419 21.7676L42.6952 22.0261C42.5444 22.1386 42.3927 22.2536 42.2424 22.3692L42.2423 22.3693C42.1057 22.4743 41.9238 22.4864 41.777 22.403L41.7769 22.4029C41.432 22.207 41.0634 22.0542 40.6813 21.9489L40.6812 21.9489M45.3946 27.015L40.6812 21.9489M37.2595 30.3732C36.9369 30.1899 36.5375 30.2181 36.2423 30.4453L37.2595 30.3732Z" fill="white" stroke="#040404"/>
<path d="M41.2039 26.6053L41.2039 26.6052C41.2038 25.6074 40.3929 24.7964 39.395 24.7964C38.3972 24.7964 37.5861 25.6074 37.5861 26.6053C37.5861 27.6032 38.3972 28.4142 39.395 28.4142C40.3928 28.4142 41.2039 27.6031 41.2039 26.6053ZM37.5387 26.6053C37.5387 25.5822 38.3719 24.749 39.395 24.749C40.4181 24.749 41.2513 25.5822 41.2513 26.6053C41.2513 27.6285 40.4181 28.4617 39.395 28.4617C38.3719 28.4617 37.5387 27.6285 37.5387 26.6053Z" fill="white" stroke="#040404"/>
</svg>
