<svg width="18" height="20" viewBox="0 0 18 20" fill="none" xmlns="http://www.w3.org/2000/svg">
<path d="M9.00008 19.8508C8.65063 19.8562 8.30584 19.77 8.00008 19.6008L7.70008 19.4308C5.36335 18.1087 3.41934 16.1902 2.06655 13.8712C0.713767 11.5521 0.000670048 8.91555 8.0152e-05 6.23076V6.09076C-0.00308979 5.73665 0.0878186 5.38805 0.263514 5.08058C0.439209 4.77311 0.693391 4.51781 1.00008 4.34076L8.00008 0.400762C8.30412 0.225225 8.64901 0.132812 9.00008 0.132812C9.35115 0.132812 9.69604 0.225225 10.0001 0.400762L17.0001 4.34076C17.3068 4.51781 17.561 4.77311 17.7366 5.08058C17.9123 5.38805 18.0033 5.73665 18.0001 6.09076V6.23076C17.9975 8.91753 17.2814 11.5554 15.925 13.8747C14.5686 16.1939 12.6205 18.1113 10.2801 19.4308L9.98008 19.6008C9.68023 19.7667 9.34277 19.8528 9.00008 19.8508ZM9.00008 2.15076L2.00008 6.09076V6.23076C2.00176 8.56186 2.62308 10.8506 3.80038 12.8626C4.97769 14.8745 6.66866 16.5374 8.70008 17.6808L9.00008 17.8508L9.30008 17.6808C11.3315 16.5374 13.0225 14.8745 14.1998 12.8626C15.3771 10.8506 15.9984 8.56186 16.0001 6.23076V6.09076L9.00008 2.15076Z" fill="#333131"/>
</svg>
