<svg width="14" height="13" viewBox="0 0 14 13" fill="none" xmlns="http://www.w3.org/2000/svg">
<path d="M13.1891 4.51739L9.22187 3.94083L7.44844 0.345514C7.4 0.247076 7.32031 0.167389 7.22187 0.118951C6.975 -0.00292391 6.675 0.0986386 6.55156 0.345514L4.77812 3.94083L0.810936 4.51739C0.701561 4.53301 0.601561 4.58458 0.524999 4.6627C0.432439 4.75784 0.381434 4.88583 0.383192 5.01855C0.38495 5.15127 0.439327 5.27786 0.534374 5.37051L3.40469 8.16895L2.72656 12.1205C2.71066 12.2124 2.72083 12.307 2.75592 12.3934C2.79102 12.4798 2.84963 12.5547 2.92511 12.6095C3.00059 12.6644 3.08992 12.6969 3.18297 12.7036C3.27602 12.7102 3.36907 12.6906 3.45156 12.6471L7 10.7815L10.5484 12.6471C10.6453 12.6986 10.7578 12.7158 10.8656 12.6971C11.1375 12.6502 11.3203 12.3924 11.2734 12.1205L10.5953 8.16895L13.4656 5.37051C13.5437 5.29395 13.5953 5.19395 13.6109 5.08458C13.6531 4.81114 13.4625 4.55801 13.1891 4.51739Z" fill="#FEA250"/>
</svg>
