<svg width="60" height="57" viewBox="0 0 60 57" fill="none" xmlns="http://www.w3.org/2000/svg">
<path d="M37.0312 7.03125C37.0312 3.15422 33.877 0 30 0C26.123 0 22.9688 3.15422 22.9688 7.03125C22.9688 10.9083 26.123 14.0625 30 14.0625C33.877 14.0625 37.0312 10.9083 37.0312 7.03125ZM30 11.7188C27.4153 11.7188 25.3125 9.61594 25.3125 7.03125C25.3125 4.44656 27.4153 2.34375 30 2.34375C32.5847 2.34375 34.6875 4.44656 34.6875 7.03125C34.6875 9.61594 32.5847 11.7188 30 11.7188Z" fill="#1E2348"/>
<path d="M40.5469 29.2969V24.6094C40.5469 18.7938 35.8155 14.0625 30 14.0625C24.1845 14.0625 19.4531 18.7938 19.4531 24.6094V29.2969C19.4531 29.9441 19.9779 30.4688 20.625 30.4688H39.375C40.0221 30.4688 40.5469 29.9441 40.5469 29.2969ZM38.2031 28.125H21.7969V24.6094C21.7969 20.0862 25.4768 16.4062 30 16.4062C34.5232 16.4062 38.2031 20.0862 38.2031 24.6094V28.125Z" fill="#1E2348"/>
<path d="M8.42086 45.9509L14.0625 48.7712V55.0781C14.0625 55.7254 14.5873 56.25 15.2344 56.25H27.6562C28.3034 56.25 28.8281 55.7254 28.8281 55.0781V40.1695C28.8281 36.445 26.0798 33.2317 22.5714 32.8543C22.4782 32.8368 18.0422 32.5062 15.8978 30.3632L12.6892 27.1547C11.8037 26.269 10.6267 25.7812 9.375 25.7812V16.4062C9.375 13.8216 7.27219 11.7188 4.6875 11.7188C2.10281 11.7188 0 13.8216 0 16.4062V32.325C0 38.092 3.25758 43.3686 8.42086 45.9509ZM2.34375 16.4062C2.34375 15.1139 3.39516 14.0625 4.6875 14.0625C5.97984 14.0625 7.03125 15.1139 7.03125 16.4062V26.4095C5.60203 27.2359 4.6875 28.7767 4.6875 30.4688C4.6875 31.7203 5.17523 32.8972 6.06082 33.7828L12.062 39.7852C12.5194 40.2428 13.2615 40.243 13.7193 39.7853C14.1769 39.3277 14.177 38.5857 13.7194 38.128L7.7182 32.1255C7.27523 31.6827 7.03125 31.0943 7.03125 30.4688C7.03125 29.4769 7.65902 28.5886 8.59359 28.2585C8.59395 28.2584 8.5943 28.2581 8.59465 28.258H8.59477C9.40102 27.9722 10.3603 28.1402 11.0319 28.8118L14.2409 32.0208C16.4264 34.2048 19.6117 34.8191 22.3076 35.1832C22.3119 35.1837 22.3164 35.1843 22.3208 35.1847C24.6555 35.4357 26.4844 37.6254 26.4844 40.1695V53.9062H16.4062V48.0469C16.4062 47.603 16.1554 47.1971 15.7584 46.9987L9.4691 43.8546C5.0741 41.6565 2.34375 37.2387 2.34375 32.325V16.4062Z" fill="#1E2348"/>
<path d="M53.7891 44.2969C54.4363 44.2969 54.9609 43.7722 54.9609 43.125C54.9609 42.4778 54.4363 41.9531 53.7891 41.9531C53.1419 41.9531 52.6172 42.4778 52.6172 43.125C52.6172 43.7722 53.1419 44.2969 53.7891 44.2969Z" fill="#1E2348"/>
<path d="M55.3125 11.7188C52.7278 11.7188 50.625 13.8216 50.625 16.4062V25.7812C49.3733 25.7812 48.1963 26.269 47.3108 27.1546L44.1026 30.3628C42.2323 32.2318 39.1985 32.5434 37.4286 32.8545C33.9202 33.2318 31.1719 36.445 31.1719 40.1695V55.0781C31.1719 55.7254 31.6966 56.25 32.3438 56.25H44.7656C45.4127 56.25 45.9375 55.7254 45.9375 55.0781V48.7712L49.773 46.8538C50.3518 46.5643 50.5866 45.8605 50.2972 45.2815C50.0079 44.7027 49.3042 44.468 48.725 44.7573L44.2416 46.9985C43.8447 47.1971 43.5938 47.603 43.5938 48.0469V53.9062H33.5156V40.1695C33.5156 37.6254 35.3445 35.4357 37.6792 35.1846C37.6836 35.1841 37.6881 35.1837 37.6924 35.1831C40.43 34.8134 43.5759 34.2025 45.7595 32.0204L48.9681 28.8118C49.6389 28.1411 50.5985 27.9721 51.4052 28.258H51.4054C51.4057 28.2581 51.4061 28.2584 51.4064 28.2585C52.341 28.5886 52.9688 29.4769 52.9688 30.4688C52.9688 31.0943 52.7248 31.6827 52.2819 32.1258L46.2807 38.1281C45.8231 38.5859 45.8232 39.3278 46.2809 39.7854C46.7384 40.2429 47.4805 40.243 47.9381 39.7853L53.9393 33.7829C54.8248 32.8972 55.3125 31.7203 55.3125 30.4688C55.3125 28.7767 54.398 27.2359 52.9688 26.4095V16.4062C52.9688 15.1139 54.0202 14.0625 55.3125 14.0625C56.6048 14.0625 57.6562 15.1139 57.6562 16.4062V32.325C57.6562 34.4691 57.1152 36.5977 56.0914 38.4806C55.7822 39.0492 55.9925 39.7608 56.5613 40.0699C57.1297 40.3789 57.8414 40.1687 58.1505 39.6001C59.3605 37.3747 60 34.8589 60 32.325V16.4062C60 13.8216 57.8972 11.7188 55.3125 11.7188Z" fill="#1E2348"/>
</svg>
