<svg width="28" height="28" viewBox="0 0 28 28" fill="none" xmlns="http://www.w3.org/2000/svg">
<path d="M25.9998 5.99923H19.3332V3.77257C19.3019 2.91899 18.9334 2.11264 18.3086 1.53029C17.6838 0.947935 16.8535 0.637091 15.9998 0.6659H11.9998C11.1462 0.637091 10.3159 0.947935 9.69108 1.53029C9.06623 2.11264 8.69778 2.91899 8.6665 3.77257V5.99923H1.99984C1.64622 5.99923 1.30708 6.13971 1.05703 6.38976C0.80698 6.63981 0.666504 6.97894 0.666504 7.33257C0.666504 7.68619 0.80698 8.02533 1.05703 8.27538C1.30708 8.52542 1.64622 8.6659 1.99984 8.6659H3.33317V23.3326C3.33317 24.3934 3.7546 25.4108 4.50474 26.161C5.25489 26.9111 6.27231 27.3326 7.33317 27.3326H20.6665C21.7274 27.3326 22.7448 26.9111 23.4949 26.161C24.2451 25.4108 24.6665 24.3934 24.6665 23.3326V8.6659H25.9998C26.3535 8.6659 26.6926 8.52542 26.9426 8.27538C27.1927 8.02533 27.3332 7.68619 27.3332 7.33257C27.3332 6.97894 27.1927 6.63981 26.9426 6.38976C26.6926 6.13971 26.3535 5.99923 25.9998 5.99923ZM11.3332 3.77257C11.3332 3.55923 11.6132 3.33257 11.9998 3.33257H15.9998C16.3865 3.33257 16.6665 3.55923 16.6665 3.77257V5.99923H11.3332V3.77257ZM21.9998 23.3326C21.9998 23.6862 21.8594 24.0253 21.6093 24.2754C21.3593 24.5254 21.0201 24.6659 20.6665 24.6659H7.33317C6.97955 24.6659 6.64041 24.5254 6.39036 24.2754C6.14031 24.0253 5.99984 23.6862 5.99984 23.3326V8.6659H21.9998V23.3326Z" fill="#333131"/>
<path d="M9.99984 20.666C10.3535 20.666 10.6926 20.5255 10.9426 20.2755C11.1927 20.0254 11.3332 19.6863 11.3332 19.3327V13.9993C11.3332 13.6457 11.1927 13.3066 10.9426 13.0565C10.6926 12.8065 10.3535 12.666 9.99984 12.666C9.64622 12.666 9.30708 12.8065 9.05703 13.0565C8.80698 13.3066 8.6665 13.6457 8.6665 13.9993V19.3327C8.6665 19.6863 8.80698 20.0254 9.05703 20.2755C9.30708 20.5255 9.64622 20.666 9.99984 20.666Z" fill="#333131"/>
<path d="M17.9998 20.666C18.3535 20.666 18.6926 20.5255 18.9426 20.2755C19.1927 20.0254 19.3332 19.6863 19.3332 19.3327V13.9993C19.3332 13.6457 19.1927 13.3066 18.9426 13.0565C18.6926 12.8065 18.3535 12.666 17.9998 12.666C17.6462 12.666 17.3071 12.8065 17.057 13.0565C16.807 13.3066 16.6665 13.6457 16.6665 13.9993V19.3327C16.6665 19.6863 16.807 20.0254 17.057 20.2755C17.3071 20.5255 17.6462 20.666 17.9998 20.666Z" fill="#333131"/>
</svg>
