<svg width="20" height="21" viewBox="0 0 20 21" fill="none" xmlns="http://www.w3.org/2000/svg">
<path d="M19 4.49943H14V2.82943C13.9765 2.18924 13.7002 1.58448 13.2316 1.14772C12.7629 0.710951 12.1402 0.477818 11.5 0.499425H8.5C7.85975 0.477818 7.23706 0.710951 6.76843 1.14772C6.2998 1.58448 6.02346 2.18924 6 2.82943V4.49943H1C0.734784 4.49943 0.48043 4.60478 0.292893 4.79232C0.105357 4.97986 0 5.23421 0 5.49943C0 5.76464 0.105357 6.019 0.292893 6.20653C0.48043 6.39407 0.734784 6.49943 1 6.49943H2V17.4994C2 18.2951 2.31607 19.0581 2.87868 19.6207C3.44129 20.1834 4.20435 20.4994 5 20.4994H15C15.7956 20.4994 16.5587 20.1834 17.1213 19.6207C17.6839 19.0581 18 18.2951 18 17.4994V6.49943H19C19.2652 6.49943 19.5196 6.39407 19.7071 6.20653C19.8946 6.019 20 5.76464 20 5.49943C20 5.23421 19.8946 4.97986 19.7071 4.79232C19.5196 4.60478 19.2652 4.49943 19 4.49943ZM8 2.82943C8 2.66943 8.21 2.49943 8.5 2.49943H11.5C11.79 2.49943 12 2.66943 12 2.82943V4.49943H8V2.82943ZM16 17.4994C16 17.7646 15.8946 18.019 15.7071 18.2065C15.5196 18.3941 15.2652 18.4994 15 18.4994H5C4.73478 18.4994 4.48043 18.3941 4.29289 18.2065C4.10536 18.019 4 17.7646 4 17.4994V6.49943H16V17.4994Z" fill="white"/>
<path d="M7 15.5C7.26522 15.5 7.51957 15.3946 7.70711 15.2071C7.89464 15.0196 8 14.7652 8 14.5V10.5C8 10.2348 7.89464 9.98043 7.70711 9.79289C7.51957 9.60536 7.26522 9.5 7 9.5C6.73478 9.5 6.48043 9.60536 6.29289 9.79289C6.10536 9.98043 6 10.2348 6 10.5V14.5C6 14.7652 6.10536 15.0196 6.29289 15.2071C6.48043 15.3946 6.73478 15.5 7 15.5Z" fill="white"/>
<path d="M13 15.5C13.2652 15.5 13.5196 15.3946 13.7071 15.2071C13.8946 15.0196 14 14.7652 14 14.5V10.5C14 10.2348 13.8946 9.98043 13.7071 9.79289C13.5196 9.60536 13.2652 9.5 13 9.5C12.7348 9.5 12.4804 9.60536 12.2929 9.79289C12.1054 9.98043 12 10.2348 12 10.5V14.5C12 14.7652 12.1054 15.0196 12.2929 15.2071C12.4804 15.3946 12.7348 15.5 13 15.5Z" fill="white"/>
</svg>
