<svg width="154" height="26" viewBox="0 0 154 26" fill="none" xmlns="http://www.w3.org/2000/svg">
<path d="M18.4489 3.44662C17.3977 2.33962 16.2527 1.50432 15.0139 0.952874C13.779 0.393293 12.4465 0.117541 11.0397 0.113474C7.972 0.113474 5.36937 1.32996 3.22006 3.75481C1.07466 6.1837 0.00390167 9.29785 0 13.0973C0 16.7629 1.10592 19.8325 3.32166 22.2938C5.53741 24.7632 8.16348 26 11.1999 26C12.5559 26.002 13.8142 25.7487 14.9709 25.2458C16.1316 24.7389 17.2883 23.9158 18.4411 22.7642V25.3715H24.3732V0.758226H18.4489V3.44662ZM16.878 18.3119C15.6587 19.6662 14.1229 20.3353 12.2706 20.3394C10.4769 20.3373 8.96458 19.65 7.74143 18.2714C6.51437 16.8967 5.90084 15.1409 5.90084 13.0121C5.90084 10.8914 6.50655 9.15999 7.71017 7.80565C8.91769 6.45131 10.43 5.78225 12.255 5.78225C14.1229 5.78225 15.6665 6.44725 16.8858 7.77321C18.105 9.10726 18.4997 10.6238 18.4958 12.7688C18.4958 14.9626 18.1011 16.9616 16.878 18.3119ZM58.391 3.44662C57.3398 2.33962 56.1909 1.50432 54.9599 0.952874C53.7172 0.393293 52.3925 0.117541 50.9778 0.113474C47.918 0.113474 45.3075 1.32996 43.1621 3.75481C41.0167 6.1837 39.946 9.29785 39.9421 13.0973C39.9382 16.7629 41.0441 19.8325 43.2637 22.2938C45.4795 24.7632 48.1056 26 51.1459 26C52.498 26.002 53.7563 25.7487 54.9091 25.2458C56.0697 24.7389 57.2265 23.9158 58.3793 22.7642V25.3715H64.3114V0.758226H58.391V3.44662ZM56.82 18.3119C55.6008 19.6662 54.0611 20.3353 52.2166 20.3394C50.419 20.3373 48.9067 19.65 47.6796 18.2714C46.4525 16.8967 45.839 15.1409 45.8429 13.0121C45.8468 10.8914 46.4447 9.15999 47.6522 7.80565C48.8598 6.45131 50.3721 5.78225 52.1971 5.78225C54.0611 5.78225 55.6047 6.44725 56.8279 7.77321C58.0471 9.10726 58.4379 10.6238 58.434 12.7688C58.434 14.9626 58.0432 16.9616 56.82 18.3119ZM100.006 1.35834C98.7317 0.543311 97.2584 0.137819 95.578 0.137819C93.9524 0.135806 92.4635 0.514955 91.0918 1.27726C89.7241 2.03552 88.5713 3.14252 87.6256 4.60634C86.9065 3.14252 85.953 2.03145 84.7689 1.27319C83.5771 0.510885 82.2484 0.129731 80.7712 0.125685C79.3097 0.125685 77.9615 0.413448 76.7227 0.993423C75.4839 1.56921 74.3585 2.44102 73.3463 3.61287V0.758226H67.4103L67.4024 25.3715H73.3344L73.3383 14.4516C73.3422 12.0917 73.5415 10.3602 73.9401 9.26135C74.3427 8.16248 74.9445 7.31094 75.7495 6.69866C76.5584 6.09446 77.4533 5.78632 78.442 5.78632C79.3251 5.78833 80.0833 6.02965 80.7085 6.5121C81.3338 6.99464 81.7988 7.72861 82.1114 8.71393C82.4241 9.6993 82.5804 11.2888 82.5804 13.4906L82.5687 25.3715H88.5087V14.3016C88.5166 11.9538 88.7119 10.2507 89.1027 9.19242C89.4974 8.13003 90.0992 7.30281 90.9042 6.69866C91.7053 6.09853 92.6236 5.79845 93.6436 5.79845C94.9801 5.79845 95.9766 6.29315 96.6487 7.27445C97.3209 8.26384 97.653 10.1494 97.653 12.927L97.6451 25.3715H103.577L103.585 10.9563C103.585 8.00028 103.307 5.86334 102.753 4.55363C102.198 3.23981 101.283 2.1734 100.005 1.35834H100.006ZM124.293 18.1173C122.706 19.7554 120.807 20.5745 118.599 20.5745C116.747 20.5725 115.234 20.0433 114.038 18.9972C112.847 17.951 112.116 16.5399 111.838 14.7638L130.869 14.7759L130.893 13.604C130.893 9.54915 129.732 6.28901 127.403 3.81148C125.078 1.34203 122.053 0.105284 118.333 0.101218C114.832 0.101218 111.916 1.33797 109.599 3.82363C107.274 6.30116 106.113 9.41939 106.113 13.1742C106.109 16.8439 107.274 19.8892 109.595 22.3261C111.916 24.7672 114.933 25.9836 118.63 25.9836C121.014 25.9857 123.069 25.5457 124.808 24.6618C126.54 23.7818 128.029 22.4153 129.271 20.5744L124.293 18.1173ZM114.288 6.80407C115.535 5.85117 116.985 5.37673 118.634 5.3808C120.162 5.3808 121.498 5.80252 122.643 6.64998C123.8 7.50154 124.57 8.60041 124.961 9.95473L112.116 9.94667C112.78 8.44637 113.507 7.39613 114.288 6.80411V6.80407ZM144.949 12.3472L152.968 0.754233H146.204L141.561 7.46509L136.903 0.754233H130.033L138.134 12.4161L129.177 25.3715H135.942L141.518 17.3023L147.126 25.3715H154L144.949 12.3472ZM38.6522 0C37.5541 0 36.5967 0.214803 35.7956 0.632557C35.0062 1.0421 34.0995 1.79225 33.0796 2.89114V0.758257H27.4171V25.3715H33.3492L33.3453 12.5702C33.3453 7.87867 34.5959 5.52684 37.6205 5.52684C38.1442 5.52684 38.6796 5.64462 39.2188 5.8553C40.1919 4.16439 41.3173 2.57489 42.5757 1.11103C41.2197 0.389267 39.9105 0 38.6522 0" fill="#020510"/>
</svg>
