<svg width="13" height="11" viewBox="0 0 13 11" fill="none" xmlns="http://www.w3.org/2000/svg">
<path d="M12.9183 1.87991C12.4529 2.07035 11.9521 2.19838 11.4268 2.25643C11.9635 1.96062 12.375 1.49328 12.5688 0.935187C12.0667 1.20952 11.5114 1.40821 10.9194 1.51476C10.446 1.05123 9.77149 0.761719 9.02442 0.761719C7.59151 0.761719 6.42892 1.82948 6.42892 3.14753C6.42892 3.33486 6.45159 3.51712 6.49614 3.69184C4.33875 3.59222 2.42508 2.64175 1.14532 1.19816C0.92158 1.55071 0.793729 1.96 0.793729 2.39768C0.793729 3.22512 1.25181 3.95668 1.94834 4.38371C1.52222 4.3711 1.12265 4.26448 0.771786 4.08478V4.11505C0.771786 5.27169 1.66667 6.23602 2.85457 6.45549C2.63682 6.50973 2.40774 6.53938 2.17069 6.53938C2.00356 6.53938 1.84112 6.52491 1.68262 6.4965C2.01285 7.44504 2.97174 8.13496 4.10836 8.15394C3.21947 8.79468 2.10011 9.17564 0.88362 9.17564C0.67385 9.17564 0.467444 9.16427 0.263672 9.14224C1.4136 9.81956 2.77733 10.215 4.24418 10.215C9.01974 10.215 11.6313 6.57728 11.6313 3.42388L11.6239 3.11484C12.1299 2.77926 12.5701 2.35924 12.9183 1.87991Z" fill="#8E8E8E"/>
</svg>
