<svg width="72" height="72" viewBox="0 0 72 72" fill="none" xmlns="http://www.w3.org/2000/svg">
<g clip-path="url(#clip0_1485_7954)">
<path d="M36.9668 3.65099L36.8649 2.24965C37.0836 2.10275 37.2493 1.88947 37.3376 1.64125C37.426 1.39304 37.4322 1.123 37.3554 0.870977C37.2786 0.618955 37.1229 0.398266 36.9112 0.241452C36.6995 0.0846374 36.443 0 36.1795 0C35.9161 0 35.6596 0.0846374 35.4479 0.241452C35.2362 0.398266 35.0804 0.618955 35.0037 0.870977C34.9269 1.123 34.9331 1.39304 35.0214 1.64125C35.1097 1.88947 35.2754 2.10275 35.4941 2.24965L35.3923 3.65099C35.653 3.65099 35.9127 3.63774 36.1744 3.63774C36.4362 3.63774 36.706 3.6459 36.9668 3.65099Z" fill="#B4CCC8"/>
<path d="M36.1823 3.63672V22.951C35.7709 22.9551 35.3602 22.987 34.9531 23.0468C33.8078 23.218 32.7105 23.625 31.7304 24.2418C30.7503 24.8587 29.9089 25.672 29.2591 26.6306C28.4936 25.4978 27.462 24.5701 26.2546 23.9288C25.0472 23.2875 23.701 22.9521 22.3338 22.9521C20.9667 22.9521 19.6204 23.2875 18.4131 23.9288C17.2057 24.5701 16.174 25.4978 15.4086 26.6306C14.7521 25.6575 13.8979 24.8338 12.9017 24.2131C11.9055 23.5924 10.7896 23.1888 9.6268 23.0284C8.46404 22.868 7.28053 22.9545 6.15346 23.2823C5.02639 23.6101 3.98109 24.1719 3.08572 24.9308C6.75814 12.8942 19.7878 3.94429 35.4063 3.64589C35.6639 3.64589 35.9277 3.63672 36.1823 3.63672Z" fill="#F9EF75"/>
<path d="M69.281 24.9308C68.3858 24.1729 67.3409 23.612 66.2145 23.2848C65.088 22.9576 63.9053 22.8714 62.7433 23.0317C61.5813 23.1921 60.4661 23.5955 59.4704 24.2155C58.4747 24.8356 57.6208 25.6585 56.9643 26.6306C56.1988 25.4978 55.1672 24.5701 53.9598 23.9288C52.7524 23.2875 51.4062 22.9521 50.0391 22.9521C48.6719 22.9521 47.3256 23.2875 46.1183 23.9288C44.9109 24.5701 43.8793 25.4978 43.1138 26.6306C42.4633 25.6707 41.6204 24.8565 40.6387 24.2396C39.6569 23.6227 38.5577 23.2165 37.4107 23.0468C37.0036 22.9868 36.5929 22.9548 36.1814 22.951V3.63672C36.4483 3.63672 36.7069 3.64284 36.9666 3.64997C52.582 3.94429 65.6076 12.8942 69.281 24.9308Z" fill="#F8DA47"/>
<path d="M36.8605 58.8351C37.0512 58.8355 37.2396 58.8761 37.4135 58.9543V23.05C36.5993 22.9182 35.7692 22.9182 34.955 23.05V58.9513C35.128 58.8751 35.3149 58.8355 35.5039 58.8351H36.8605Z" fill="#B4CCC8"/>
<path d="M37.4137 58.9541C37.2398 58.8759 37.0513 58.8353 36.8607 58.835H35.5041C35.1422 58.8358 34.7953 58.9799 34.5393 59.2359C34.2834 59.4918 34.1392 59.8387 34.1384 60.2007V65.4914C34.1384 65.8536 34.2823 66.2009 34.5384 66.457C34.7945 66.7132 35.1419 66.857 35.5041 66.857H36.8607C37.2229 66.857 37.5702 66.7132 37.8264 66.457C38.0825 66.2009 38.2264 65.8536 38.2264 65.4914V60.2007C38.2262 59.9365 38.1493 59.6781 38.005 59.4568C37.8608 59.2355 37.6553 59.0609 37.4137 58.9541Z" fill="#D22432"/>
<path d="M19.6331 38.5635V65.1503H17.9935C10.171 65.1503 5.89874 58.3086 8.3185 52.2846L13.8363 38.5635H19.6331Z" fill="#F9EF75"/>
<path d="M25.4308 37.1016H13.8361V38.566H25.4308V37.1016Z" fill="#D22432"/>
<path d="M21.277 65.1503H19.6333V38.5635H25.4383L30.9561 52.2846C33.3656 58.3086 29.1046 65.1503 21.277 65.1503Z" fill="#F8DA47"/>
<path d="M13.8363 37.1022L12.715 34.7914L19.6311 33.4033L19.6341 37.1022H13.8363Z" fill="#F9EF75"/>
<path d="M25.4308 37.1022L26.5521 34.7914L19.636 33.4033L19.634 37.1022H25.4308Z" fill="#F8DA47"/>
<path d="M52.7316 38.5635V65.1503H51.0919C43.2695 65.1503 38.9972 58.3086 41.417 52.2846L46.9337 38.5635H52.7316Z" fill="#F9EF75"/>
<path d="M58.5295 37.1016H46.9348V38.566H58.5295V37.1016Z" fill="#D22432"/>
<path d="M54.3753 65.1503H52.7316V38.5635H58.5366L64.0534 52.2846C66.464 58.3086 62.2029 65.1503 54.3753 65.1503Z" fill="#F8DA47"/>
<path d="M46.9348 37.1022L45.8135 34.7914L52.7296 33.4033L52.7326 37.1022H46.9348Z" fill="#F9EF75"/>
<path d="M58.5294 37.1022L59.6507 34.7914L52.7346 33.4033L52.7325 37.1022H58.5294Z" fill="#F8DA47"/>
<path d="M18.7367 44.2588C16.9769 44.7578 15.6978 46.2376 15.6978 47.9811C15.6978 49.9161 17.2692 51.5171 19.3254 51.8236C19.4272 51.8389 19.529 51.8542 19.6309 51.8633C20.853 52.0253 21.7889 52.9072 21.7889 53.9633C21.7889 55.105 20.6911 56.0358 19.3254 56.0837C19.2897 56.0837 19.2551 56.0918 19.2235 56.0918C18.2601 56.0918 17.4189 55.6519 16.983 55.0011L15.7181 56.266C16.0933 56.7146 16.5533 57.0848 17.0718 57.3554C17.5903 57.6259 18.1572 57.7914 18.7398 57.8425V58.4902H20.5281V57.6866C22.2879 57.1866 23.5671 55.7069 23.5671 53.9633C23.5671 51.9387 21.8358 50.2675 19.6339 50.0821C19.5321 50.0679 19.4303 50.0414 19.3284 50.018C18.2601 49.7593 17.4759 48.9466 17.4759 47.9811C17.4759 47.0157 18.2632 46.2071 19.3284 45.9443C19.5614 45.884 19.8007 45.8518 20.0413 45.8486C21.0047 45.8486 21.8459 46.2895 22.2818 46.9393L23.5467 45.6744C23.1715 45.2259 22.7114 44.8558 22.1929 44.5855C21.6744 44.3151 21.1076 44.1498 20.5251 44.0989V43.4502H18.7367V44.2588Z" fill="#D22432"/>
<path d="M51.8355 44.2588C50.0757 44.7578 48.7965 46.2376 48.7965 47.9811C48.7965 49.9161 50.3679 51.5171 52.4241 51.8236C52.526 51.8389 52.6278 51.8542 52.7297 51.8633C53.9518 52.0253 54.8877 52.9072 54.8877 53.9633C54.8877 55.105 53.7898 56.0358 52.4241 56.0837C52.3885 56.0837 52.3549 56.0918 52.3223 56.0918C51.3589 56.0918 50.5177 55.6519 50.0818 55.0011L48.8169 56.266C49.1921 56.7146 49.6521 57.0848 50.1706 57.3554C50.6891 57.6259 51.2559 57.7914 51.8385 57.8425V58.4902H53.6269V57.6866C55.3867 57.1866 56.6658 55.7069 56.6658 53.9633C56.6658 51.9387 54.9345 50.2675 52.7327 50.0821C52.6309 50.0679 52.529 50.0414 52.4272 50.018C51.3589 49.7593 50.5747 48.9466 50.5747 47.9811C50.5747 47.0157 51.3619 46.2071 52.4272 45.9443C52.6601 45.884 52.8995 45.8518 53.1401 45.8486C54.1035 45.8486 54.9447 46.2895 55.3806 46.9393L56.6455 45.6744C56.2703 45.2258 55.8103 44.8557 55.2918 44.5853C54.7732 44.315 54.2064 44.1497 53.6238 44.0989V43.4502H51.8355V44.2588Z" fill="#D22432"/>
</g>
<defs>
<clipPath id="clip0_1485_7954">
<rect width="72" height="72" fill="white"/>
</clipPath>
</defs>
</svg>
