<svg width="29" height="27" viewBox="0 0 29 27" fill="none" xmlns="http://www.w3.org/2000/svg">
<path d="M27.3324 16.9384H27.2774V2.47476C27.2774 1.11018 26.1672 0 24.8026 0H3.35468C1.99009 0 0.879915 1.11018 0.879915 2.47476V16.9384H0.824921C0.369345 16.9384 0 17.3077 0 17.7633V20.2381C0 20.4568 0.0868917 20.6666 0.241647 20.8213L1.89149 22.4712C2.04619 22.6259 2.25599 22.7128 2.47476 22.7128H6.23728L6.19845 22.9456C5.92843 24.5652 7.17857 26.04 8.82561 26.04H8.86702C9.85016 26.04 10.7346 25.494 11.1754 24.615L12.1153 22.7403H16.0458L16.9612 24.5711C17.4142 25.4772 18.3249 26.04 19.3379 26.04C20.1203 26.04 20.8591 25.6977 21.365 25.1009C22.2893 24.0103 21.9179 22.7967 21.9202 22.7128H25.6825C25.9014 22.7128 26.1112 22.6259 26.2658 22.4712L27.9156 20.8213C28.0703 20.6666 28.1573 20.4568 28.1573 20.2381V17.7633C28.1573 17.3077 27.788 16.9384 27.3324 16.9384ZM2.52976 2.47476C2.52976 2.0199 2.89982 1.64984 3.35468 1.64984H24.8026C25.2575 1.64984 25.6275 2.0199 25.6275 2.47476V16.9384H20.9167C20.4399 15.4923 19.0911 14.4911 17.5246 14.4911H10.6358C9.06951 14.4911 7.7206 15.4925 7.24357 16.9384H2.52976V2.47476ZM2.81644 21.063L1.64984 19.8964V18.5882H6.92466L6.5122 21.063H2.81644ZM19.3378 24.3902C18.9538 24.3902 18.6085 24.1768 18.4368 23.8333L17.2934 21.5465C17.1537 21.267 16.868 21.0905 16.5556 21.0905H11.606C11.2939 21.0905 11.0085 21.2666 10.8686 21.5457L9.70046 23.8755C9.41889 24.4372 8.83303 24.3881 8.82561 24.3902C8.19795 24.3902 7.72302 23.8341 7.82586 23.2169C7.91891 22.6585 8.63885 18.339 8.73707 17.7494C8.89237 16.8174 9.69089 16.141 10.6357 16.141H17.5246C18.4699 16.141 19.2684 16.8178 19.4234 17.7504L20.3315 23.2178C20.4336 23.8323 19.9619 24.3902 19.3378 24.3902ZM26.5075 19.8964L25.3409 21.063H21.646L21.2349 18.5882H26.5075V19.8964Z" fill="#04071B"/>
<path d="M10.194 11.5433C10.5161 11.8655 11.0384 11.8655 11.3606 11.5433C11.6828 11.2212 11.6828 10.6989 11.3606 10.3767L10.2937 9.30976L11.3638 8.24319C11.6865 7.92158 11.6874 7.39924 11.3657 7.07659C11.0441 6.75388 10.5217 6.753 10.1991 7.07466L8.54378 8.7245C8.2209 9.04622 8.2203 9.56961 8.54279 9.89204L10.194 11.5433Z" fill="#030303"/>
<path d="M16.7907 11.5423C17.113 11.8656 17.6354 11.8651 17.9573 11.5442L19.6126 9.89434C19.9355 9.57262 19.9361 9.04923 19.6136 8.7268L17.9625 7.07558C17.6404 6.75342 17.1181 6.75348 16.7959 7.07558C16.4737 7.39774 16.4737 7.92003 16.7959 8.24219L17.8628 9.30914L16.7927 10.3757C16.4699 10.6973 16.4691 11.2196 16.7907 11.5423Z" fill="#030303"/>
<path d="M13.2534 12.1955C13.5816 12.1955 13.8918 11.9984 14.0204 11.6748L15.6702 7.52025C15.8383 7.09684 15.6314 6.61729 15.208 6.44911C14.7845 6.28089 14.305 6.48794 14.1368 6.91135L12.487 11.0659C12.2712 11.6097 12.6749 12.1955 13.2534 12.1955Z" fill="#030303"/>
<path d="M11.6001 19.4409C12.0557 19.4409 12.425 19.0715 12.425 18.6159C12.425 18.1603 12.0557 17.791 11.6001 17.791C11.1445 17.791 10.7751 18.1603 10.7751 18.6159C10.7751 19.0715 11.1445 19.4409 11.6001 19.4409Z" fill="#030303"/>
<path d="M16.5498 19.4409C17.0054 19.4409 17.3747 19.0715 17.3747 18.6159C17.3747 18.1603 17.0054 17.791 16.5498 17.791C16.0942 17.791 15.7249 18.1603 15.7249 18.6159C15.7249 19.0715 16.0942 19.4409 16.5498 19.4409Z" fill="#030303"/>
</svg>
