<svg width="54" height="60" viewBox="0 0 54 60" fill="none" xmlns="http://www.w3.org/2000/svg">
<path d="M53.1143 11.1001L50.7143 10.8001L52.2043 8.89007C52.3526 8.69685 52.4254 8.45611 52.4088 8.21306C52.3922 7.97002 52.2875 7.74138 52.1143 7.57007L49.4243 4.88008C49.2537 4.70569 49.0249 4.60016 48.7814 4.58356C48.538 4.56696 48.297 4.64047 48.1043 4.79008L46.1943 6.28008L45.8943 3.88008C45.8622 3.6373 45.7431 3.41439 45.5593 3.2526C45.3754 3.09081 45.1392 3.0011 44.8943 3.00008H41.0943C40.8494 3.0011 40.6132 3.09081 40.4293 3.2526C40.2455 3.41439 40.1265 3.6373 40.0943 3.88008L39.7943 6.28008L37.8843 4.79008C37.7613 4.69847 37.6188 4.63639 37.468 4.60865C37.3171 4.58091 37.1619 4.58824 37.0143 4.63008C32.9648 1.61102 28.0454 -0.0135526 22.9943 8.51662e-05C14.1443 8.51662e-05 4.99436 4.49008 4.99436 12.0001V26.68L0.184368 33.42C0.107033 33.5291 0.0523391 33.6525 0.0235198 33.783C-0.00529946 33.9135 -0.00765945 34.0485 0.0165795 34.18C0.0408184 34.3114 0.0911643 34.4367 0.164641 34.5483C0.238118 34.66 0.333234 34.7558 0.444368 34.83L2.99436 36.54V48C2.99436 48.2652 3.09972 48.5196 3.28726 48.7071C3.47479 48.8947 3.72915 49 3.99436 49H16.9943V59C16.9943 59.2652 17.0997 59.5196 17.2872 59.7071C17.4748 59.8946 17.7291 60 17.9943 60H41.9943C42.159 59.9991 42.321 59.9576 42.4658 59.8791C42.6106 59.8006 42.7337 59.6876 42.8243 59.55C42.9167 59.4153 42.9735 59.2593 42.9892 59.0966C43.005 58.934 42.9792 58.77 42.9143 58.62L38.0543 46.94C38.6343 44.85 41.7743 33.52 43.2343 25.0001H44.8943C45.1392 24.999 45.3754 24.9093 45.5593 24.7475C45.7431 24.5857 45.8622 24.3628 45.8943 24.1201L46.1943 21.7201L48.1043 23.2101C48.297 23.3597 48.538 23.4332 48.7814 23.4166C49.0249 23.4 49.2537 23.2944 49.4243 23.1201L52.1143 20.4301C52.2875 20.2588 52.3922 20.0301 52.4088 19.7871C52.4254 19.544 52.3526 19.3033 52.2043 19.1101L50.7143 17.2001L53.1143 16.9001C53.3571 16.8679 53.58 16.7489 53.7418 16.565C53.9036 16.3812 53.9933 16.145 53.9943 15.9001V12.1001C53.9933 11.8552 53.9036 11.6189 53.7418 11.4351C53.58 11.2512 53.3571 11.1322 53.1143 11.1001ZM36.0343 46.73C35.9723 46.9448 35.9864 47.1745 36.0743 47.38L40.4943 58H18.9943V48C18.9943 47.7348 18.889 47.4804 18.7014 47.2929C18.5139 47.1054 18.2596 47 17.9943 47H4.99436V36C4.99351 35.8353 4.95199 35.6734 4.87348 35.5286C4.79498 35.3838 4.68192 35.2606 4.54436 35.17L2.40436 33.74L6.80436 27.58C6.93051 27.4133 6.99738 27.2091 6.99436 27V12.0001C6.99436 5.74008 15.1343 2.00008 22.9943 2.00008C27.4671 1.98584 31.8318 3.37429 35.4743 5.97008L33.8743 7.57007C33.7011 7.74138 33.5964 7.97002 33.5798 8.21306C33.5632 8.45611 33.636 8.69685 33.7843 8.89007L35.2743 10.8001L32.8743 11.1001C32.6315 11.1322 32.4086 11.2512 32.2468 11.4351C32.0851 11.6189 31.9953 11.8552 31.9943 12.1001V15.9001C31.9953 16.145 32.0851 16.3812 32.2468 16.565C32.4086 16.7489 32.6315 16.8679 32.8743 16.9001L35.2743 17.2001L33.7843 19.1101C33.636 19.3033 33.5632 19.544 33.5798 19.7871C33.5964 20.0301 33.7011 20.2588 33.8743 20.4301L36.5643 23.1201C36.7349 23.2944 36.9638 23.4 37.2072 23.4166C37.4506 23.4332 37.6916 23.3597 37.8843 23.2101L39.7943 21.7201L40.0943 24.1201C40.1265 24.3628 40.2455 24.5857 40.4293 24.7475C40.6132 24.9093 40.8494 24.999 41.0943 25.0001H41.2043C39.5843 34.23 36.0743 46.6 36.0343 46.73ZM51.9943 15.0201L49.6243 15.3201C49.4386 15.3438 49.2633 15.4192 49.1183 15.5376C48.9734 15.6561 48.8646 15.8128 48.8043 15.9901C48.7143 16.2301 48.6143 16.4701 48.5043 16.7001C48.4204 16.8673 48.3861 17.0551 48.4056 17.2412C48.4251 17.4272 48.4975 17.6039 48.6143 17.7501L50.0843 19.6401L48.6343 21.0901L46.7443 19.6201C46.5981 19.5033 46.4215 19.4309 46.2354 19.4114C46.0493 19.3919 45.8615 19.4261 45.6943 19.5101C45.4643 19.6201 45.2243 19.7201 44.9843 19.8101C44.8071 19.8703 44.6503 19.9791 44.5319 20.1241C44.4134 20.2691 44.338 20.4444 44.3143 20.6301L44.0143 23.0001H41.9743L41.6743 20.6301C41.6506 20.4444 41.5752 20.2691 41.4568 20.1241C41.3383 19.9791 41.1815 19.8703 41.0043 19.8101C40.7643 19.7201 40.5243 19.6201 40.2943 19.5101C40.1271 19.4261 39.9393 19.3919 39.7532 19.4114C39.5671 19.4309 39.3905 19.5033 39.2443 19.6201L37.3543 21.0901L35.9043 19.6401L37.3743 17.7501C37.4911 17.6039 37.5635 17.4272 37.583 17.2412C37.6025 17.0551 37.5682 16.8673 37.4843 16.7001C37.3743 16.4701 37.2743 16.2301 37.1843 15.9901C37.1241 15.8128 37.0152 15.6561 36.8703 15.5376C36.7253 15.4192 36.55 15.3438 36.3643 15.3201L33.9943 15.0201V12.9801L36.3643 12.6801C36.55 12.6563 36.7253 12.581 36.8703 12.4625C37.0152 12.3441 37.1241 12.1873 37.1843 12.0101C37.2743 11.7701 37.3743 11.5301 37.4843 11.3001C37.5682 11.1328 37.6025 10.9451 37.583 10.759C37.5635 10.5729 37.4911 10.3963 37.3743 10.2501L35.9043 8.36007L37.3543 6.91008L39.2443 8.38007C39.3905 8.49683 39.5671 8.56924 39.7532 8.58874C39.9393 8.60823 40.1271 8.57399 40.2943 8.49007C40.5243 8.38007 40.7643 8.28007 41.0043 8.19007C41.1815 8.12981 41.3383 8.021 41.4568 7.87604C41.5752 7.73107 41.6506 7.55577 41.6743 7.37008L41.9743 5.00008H44.0143L44.3143 7.37008C44.338 7.55577 44.4134 7.73107 44.5319 7.87604C44.6503 8.021 44.8071 8.12981 44.9843 8.19007C45.2243 8.28007 45.4643 8.38007 45.6943 8.49007C45.8615 8.57399 46.0493 8.60823 46.2354 8.58874C46.4215 8.56924 46.5981 8.49683 46.7443 8.38007L48.6343 6.91008L50.0843 8.36007L48.6143 10.2501C48.4975 10.3963 48.4251 10.5729 48.4056 10.759C48.3861 10.9451 48.4204 11.1328 48.5043 11.3001C48.6143 11.5301 48.7143 11.7701 48.8043 12.0101C48.8646 12.1873 48.9734 12.3441 49.1183 12.4625C49.2633 12.581 49.4386 12.6563 49.6243 12.6801L51.9943 12.9801V15.0201Z" fill="#1E2348"/>
<path d="M42.9941 9C42.0052 9 41.0385 9.29324 40.2163 9.84265C39.394 10.3921 38.7532 11.1729 38.3747 12.0866C37.9963 13.0002 37.8973 14.0055 38.0902 14.9754C38.2831 15.9453 38.7593 16.8363 39.4586 17.5355C40.1579 18.2348 41.0488 18.711 42.0187 18.9039C42.9886 19.0968 43.9939 18.9978 44.9076 18.6194C45.8212 18.2409 46.6021 17.6001 47.1515 16.7778C47.7009 15.9556 47.9941 14.9889 47.9941 14C47.9925 12.6744 47.4652 11.4036 46.5279 10.4662C45.5906 9.52888 44.3197 9.00159 42.9941 9ZM42.9941 17C42.4008 17 41.8208 16.824 41.3274 16.4944C40.8341 16.1648 40.4496 15.6962 40.2225 15.148C39.9954 14.5999 39.936 13.9967 40.0518 13.4147C40.1675 12.8328 40.4533 12.2982 40.8728 11.8787C41.2924 11.4591 41.8269 11.1734 42.4089 11.0576C42.9908 10.9419 43.594 11.0013 44.1422 11.2284C44.6904 11.4554 45.1589 11.8399 45.4885 12.3333C45.8182 12.8266 45.9941 13.4066 45.9941 14C45.9941 14.7956 45.6781 15.5587 45.1155 16.1213C44.5528 16.6839 43.7898 17 42.9941 17Z" fill="#1E2348"/>
<path d="M35.1181 29.1L32.7181 28.8L34.2061 26.888C34.3557 26.6955 34.4298 26.4551 34.4145 26.2118C34.3992 25.9685 34.2956 25.7392 34.1231 25.567L31.4291 22.873C31.2569 22.7006 31.0276 22.597 30.7843 22.5817C30.5411 22.5664 30.3006 22.6405 30.1081 22.79L28.1941 24.28L27.8941 21.88C27.8648 21.637 27.7473 21.4131 27.5639 21.2509C27.3805 21.0887 27.144 20.9995 26.8991 21H23.0942C22.8505 21.0001 22.6152 21.0891 22.4325 21.2504C22.2498 21.4117 22.1324 21.6342 22.1022 21.876L21.8022 24.276L19.8842 22.792C19.6917 22.6425 19.4512 22.5684 19.208 22.5837C18.9647 22.599 18.7354 22.7026 18.5632 22.875L15.8692 25.569C15.6967 25.7412 15.5931 25.9705 15.5778 26.2138C15.5626 26.4571 15.6366 26.6975 15.7862 26.89L17.2742 28.8L14.8742 29.1C14.6303 29.1295 14.4057 29.2477 14.2434 29.4321C14.0811 29.6166 13.9924 29.8543 13.9942 30.1V33.91C13.9942 34.1537 14.0833 34.389 14.2446 34.5716C14.4059 34.7543 14.6284 34.8718 14.8702 34.902L17.2702 35.202L15.7862 37.11C15.6366 37.3025 15.5626 37.5429 15.5778 37.7862C15.5931 38.0294 15.6967 38.2587 15.8692 38.431L18.5632 41.125C18.7354 41.2974 18.9647 41.401 19.208 41.4163C19.4512 41.4316 19.6917 41.3575 19.8842 41.208L21.7942 39.72L22.0942 42.12C22.1236 42.3639 22.2419 42.5884 22.4263 42.7507C22.6107 42.913 22.8485 43.0017 23.0942 43H26.9041C27.1478 42.9999 27.3831 42.9109 27.5658 42.7495C27.7485 42.5882 27.8659 42.3658 27.8961 42.124L28.1961 39.724L30.1081 41.212C30.3006 41.3615 30.5411 41.4356 30.7843 41.4203C31.0276 41.405 31.2569 41.3014 31.4291 41.129L34.1231 38.435C34.2956 38.2627 34.3992 38.0334 34.4145 37.7902C34.4298 37.5469 34.3557 37.3065 34.2061 37.114L32.7141 35.2L35.1141 34.9C35.3572 34.8706 35.581 34.7531 35.7432 34.5697C35.9054 34.3863 35.9947 34.1498 35.9941 33.905V30.1C35.996 29.8549 35.9079 29.6177 35.7464 29.4333C35.5849 29.249 35.3613 29.1304 35.1181 29.1ZM33.9941 33.022L31.6231 33.322C31.4372 33.3453 31.2616 33.4203 31.1162 33.5386C30.9709 33.6569 30.8617 33.8137 30.8011 33.991C30.7163 34.2347 30.6161 34.4729 30.5011 34.704C30.4188 34.8722 30.3853 35.0603 30.4046 35.2466C30.4238 35.433 30.4951 35.6101 30.6101 35.758L32.0771 37.645L30.6321 39.09L28.7451 37.623C28.598 37.5078 28.4216 37.4362 28.2358 37.4163C28.05 37.3963 27.8624 37.4288 27.6941 37.51C27.463 37.6249 27.2249 37.7251 26.9811 37.81C26.8038 37.8706 26.6471 37.9797 26.5288 38.1251C26.4105 38.2704 26.3354 38.446 26.3122 38.632L26.0161 41H23.9722L23.6722 38.629C23.6489 38.443 23.5738 38.2674 23.4555 38.1221C23.3372 37.9767 23.1805 37.8675 23.0032 37.807C22.7594 37.7221 22.5213 37.6219 22.2902 37.507C22.1219 37.4246 21.9339 37.3911 21.7475 37.4104C21.5612 37.4297 21.384 37.5009 21.2362 37.616L19.3492 39.083L17.9042 37.638L19.3712 35.751C19.4863 35.6038 19.5579 35.4274 19.5779 35.2416C19.5979 35.0559 19.5654 34.8682 19.4842 34.7C19.3692 34.4689 19.269 34.2307 19.1842 33.987C19.1236 33.8097 19.0144 33.6529 18.8691 33.5346C18.7237 33.4164 18.5481 33.3413 18.3622 33.318L15.9942 33.022V30.978L18.3652 30.678C18.5511 30.6547 18.7267 30.5796 18.8721 30.4613C19.0174 30.3431 19.1266 30.1863 19.1872 30.009C19.272 29.7652 19.3722 29.5271 19.4872 29.296C19.5695 29.1277 19.603 28.9397 19.5837 28.7534C19.5645 28.567 19.4932 28.3898 19.3782 28.242L17.9112 26.355L19.3562 24.91L21.2432 26.377C21.391 26.4921 21.5682 26.5633 21.7545 26.5826C21.9409 26.6018 22.1289 26.5684 22.2972 26.486C22.5283 26.3711 22.7664 26.2709 23.0102 26.186C23.1875 26.1254 23.3442 26.0162 23.4625 25.8709C23.5808 25.7256 23.6559 25.5499 23.6792 25.364L23.9792 22.993H26.0231L26.3231 25.364C26.3464 25.5499 26.4215 25.7256 26.5398 25.8709C26.6581 26.0162 26.8148 26.1254 26.9921 26.186C27.2359 26.2709 27.474 26.3711 27.7051 26.486C27.8734 26.5684 28.0614 26.6018 28.2478 26.5826C28.4341 26.5633 28.6113 26.4921 28.7591 26.377L30.6461 24.91L32.0911 26.355L30.6241 28.242C30.5065 28.3891 30.4329 28.5665 30.4116 28.7537C30.3904 28.9409 30.4225 29.1302 30.5041 29.3C30.6191 29.5311 30.7193 29.7692 30.8041 30.013C30.8647 30.1903 30.9739 30.3471 31.1192 30.4653C31.2646 30.5836 31.4402 30.6587 31.6261 30.682L33.9971 30.982L33.9941 33.022Z" fill="#1E2348"/>
<path d="M24.9941 27C24.0052 27 23.0385 27.2932 22.2163 27.8427C21.394 28.3921 20.7532 29.1729 20.3747 30.0866C19.9963 31.0002 19.8973 32.0055 20.0902 32.9754C20.2831 33.9453 20.7593 34.8363 21.4586 35.5355C22.1579 36.2348 23.0488 36.711 24.0187 36.9039C24.9886 37.0968 25.9939 36.9978 26.9076 36.6194C27.8212 36.2409 28.6021 35.6001 29.1515 34.7778C29.7009 33.9556 29.9941 32.9889 29.9941 32C29.9925 30.6744 29.4652 29.4036 28.5279 28.4662C27.5906 27.5289 26.3197 27.0016 24.9941 27ZM24.9941 35C24.4008 35 23.8208 34.824 23.3274 34.4944C22.8341 34.1648 22.4496 33.6962 22.2225 33.148C21.9954 32.5999 21.936 31.9967 22.0518 31.4147C22.1675 30.8328 22.4533 30.2982 22.8728 29.8787C23.2924 29.4591 23.8269 29.1734 24.4089 29.0576C24.9908 28.9419 25.594 29.0013 26.1422 29.2284C26.6904 29.4554 27.1589 29.8399 27.4885 30.3333C27.8182 30.8266 27.9941 31.4066 27.9941 32C27.9941 32.7956 27.6781 33.5587 27.1155 34.1213C26.5528 34.6839 25.7898 35 24.9941 35Z" fill="#1E2348"/>
<path d="M25.9941 16C25.9941 15.7348 26.0995 15.4804 26.287 15.2929C26.4746 15.1054 26.7289 15 26.9941 15H29.9941V13H26.9941C26.1985 13 25.4354 13.3161 24.8728 13.8787C24.3102 14.4413 23.9941 15.2043 23.9941 16V19H25.9941V16Z" fill="#1E2348"/>
</svg>
