<svg width="60" height="60" viewBox="0 0 60 60" fill="none" xmlns="http://www.w3.org/2000/svg">
<path d="M54.1868 39.8816C55.471 36.7461 56.129 33.4287 56.129 30C56.129 16.7206 45.9977 5.48419 32.9032 4.03064V0L27.5884 3.98613C14.2655 5.20935 3.87097 16.5765 3.87097 30C3.87097 31.0848 3.95226 32.1726 4.08581 33.2458C1.60355 35.1968 0 38.2181 0 41.6129C0 45.7394 2.36516 49.3171 5.80645 51.0832V55.1613C5.80645 56.7619 7.10903 58.0645 8.70968 58.0645H12.5806C14.1813 58.0645 15.4839 56.7619 15.4839 55.1613V51.7055C19.7855 54.5913 24.7723 56.129 30 56.129H41.1494C43.1032 58.4913 46.0558 60 49.3548 60C55.2242 60 60 55.2242 60 49.3548C60 45.2255 57.6319 41.6468 54.1868 39.8816ZM31.8629 5.8771C44.3845 6.82935 54.1935 17.4261 54.1935 30C54.1935 33.1781 53.5829 36.2526 52.3926 39.1568C51.4297 38.8694 50.4106 38.7097 49.3548 38.7097C49.0084 38.7097 48.6658 38.729 48.3281 38.7619C49.6306 36.0387 50.3226 33.0503 50.3226 30C50.3226 19.5068 42.4587 10.8126 32.0313 9.77806L30.9677 9.67258V11.6129L25.8068 7.74194L30.9677 3.87097V5.80839L31.8629 5.8771ZM38.759 48.3871H30C26.6119 48.3871 23.3371 47.4581 20.4677 45.7123C20.9961 44.4494 21.2903 43.0655 21.2903 41.6129C21.2903 41.2858 21.27 40.9645 21.241 40.6452H40.6452V21.2903H34.8387V38.7097H32.9032V25.1613H27.0968V38.7097H25.1613V29.0323H19.3548V35.5113C17.611 33.03 14.8413 31.3219 11.6632 31.019C11.6448 30.6784 11.6129 30.3387 11.6129 30C11.6129 20.5703 18.599 12.7906 27.9155 11.7426L32.9032 15.4839V11.8394C41.8026 13.2397 48.3871 20.8665 48.3871 30C48.3871 33.2894 47.5045 36.5003 45.8468 39.3164C41.9903 40.6684 39.1403 44.1726 38.759 48.3871ZM21.2903 38.7097V30.9677H23.2258V38.7097H21.2903ZM30.9677 38.7097H29.0323V27.0968H30.9677V38.7097ZM36.7742 38.7097V23.2258H38.7097V38.7097H36.7742ZM5.80645 30C5.80645 18.7897 13.6365 9.12968 24.2216 6.51097L22.5803 7.74194L25.7652 10.1313C16.4497 12.0823 9.67742 20.2413 9.67742 30C9.67742 30.3368 9.71032 30.6755 9.72774 31.0142C8.36323 31.1313 7.07516 31.5097 5.90613 32.0952C5.84613 31.3984 5.80645 30.6987 5.80645 30ZM1.93548 41.6129C1.93548 36.811 5.84323 32.9032 10.6452 32.9032C15.4471 32.9032 19.3548 36.811 19.3548 41.6129C19.3548 45.3958 16.9258 48.6145 13.5484 49.8145V43.3703C13.8523 43.4787 14.1755 43.5484 14.5161 43.5484C16.1168 43.5484 17.4194 42.2458 17.4194 40.6452C17.4194 39.0445 16.1168 37.7419 14.5161 37.7419C13.2561 37.7419 12.1916 38.5539 11.791 39.6774H9.49839C9.09871 38.5539 8.03419 37.7419 6.77419 37.7419C5.17355 37.7419 3.87097 39.0445 3.87097 40.6452C3.87097 42.2458 5.17355 43.5484 6.77419 43.5484C7.11484 43.5484 7.43806 43.4787 7.74194 43.3703V49.8145C4.36452 48.6145 1.93548 45.3958 1.93548 41.6129ZM9.67742 41.6129H11.6129V50.2655C11.2945 50.3013 10.9723 50.3226 10.6452 50.3226C10.3181 50.3226 9.99581 50.3013 9.67742 50.2655V41.6129ZM13.5484 40.6452C13.5484 40.1119 13.9829 39.6774 14.5161 39.6774C15.0494 39.6774 15.4839 40.1119 15.4839 40.6452C15.4839 41.1784 15.0494 41.6129 14.5161 41.6129C13.9829 41.6129 13.5484 41.1784 13.5484 40.6452ZM7.74194 40.6452C7.74194 41.1784 7.30742 41.6129 6.77419 41.6129C6.24097 41.6129 5.80645 41.1784 5.80645 40.6452C5.80645 40.1119 6.24097 39.6774 6.77419 39.6774C7.30742 39.6774 7.74194 40.1119 7.74194 40.6452ZM12.5806 56.129H8.70968C8.17645 56.129 7.74194 55.6945 7.74194 55.1613V51.8458C8.66613 52.1081 9.63774 52.2581 10.6452 52.2581C11.6526 52.2581 12.6242 52.1081 13.5484 51.8458V55.1613C13.5484 55.6945 13.1139 56.129 12.5806 56.129ZM30 54.1935C25.2629 54.1935 20.7387 52.8329 16.8145 50.2713C17.8945 49.499 18.8255 48.5342 19.5542 47.4213C22.7052 49.3152 26.2916 50.3226 30 50.3226H38.759C38.8848 51.7065 39.2787 53.0119 39.8855 54.1935H30ZM44.5819 56.6313L44.8761 54.2758C45.1577 52.0219 47.0835 50.3226 49.3548 50.3226C51.6261 50.3226 53.5519 52.0219 53.8335 54.2758L54.1277 56.6313C52.7555 57.5352 51.1171 58.0645 49.3548 58.0645C47.5926 58.0645 45.9542 57.5352 44.5819 56.6313ZM47.4194 46.4516C47.4194 45.3842 48.2874 44.5161 49.3548 44.5161C50.4223 44.5161 51.2903 45.3842 51.2903 46.4516C51.2903 47.519 50.4223 48.3871 49.3548 48.3871C48.2874 48.3871 47.4194 47.519 47.4194 46.4516ZM55.8861 55.0974L55.7535 54.0368C55.4777 51.8255 54.0929 49.9877 52.2019 49.0529C52.8319 48.3639 53.2258 47.4561 53.2258 46.4516C53.2258 44.3168 51.4897 42.5806 49.3548 42.5806C47.22 42.5806 45.4839 44.3168 45.4839 46.4516C45.4839 47.4561 45.8777 48.3639 46.5068 49.0519C44.6158 49.9868 43.2319 51.8245 42.9552 54.0358L42.8226 55.0964C41.4726 53.5626 40.6452 51.5555 40.6452 49.3548C40.6452 44.5529 44.5529 40.6452 49.3548 40.6452C54.1568 40.6452 58.0645 44.5529 58.0645 49.3548C58.0645 51.5555 57.2371 53.5626 55.8861 55.0974Z" fill="#1E2348"/>
</svg>
