<svg width="60" height="60" viewBox="0 0 60 60" fill="none" xmlns="http://www.w3.org/2000/svg">
<path d="M11.0074 59.9998C15.2737 60.0032 19.156 57.5354 20.9653 53.6707C22.7751 49.8064 22.185 45.243 19.4522 41.9661L21.7101 39.7068L20.2966 38.2928L18.0387 40.5521C14.3097 37.4412 8.98277 37.1453 4.93262 39.824C0.882481 42.5027 -0.932226 47.5218 0.468095 52.1727C1.86842 56.8235 6.15235 60.0047 11.0074 59.9998ZM11.0074 39.9998C15.9761 39.9998 20.0038 44.0296 20.0038 48.9998C20.0038 53.9705 15.9761 57.9998 11.0074 57.9998C6.03912 57.9998 2.01094 53.9705 2.01094 48.9998C2.01679 44.0315 6.04107 40.0057 11.0074 39.9998Z" fill="#1E2348"/>
<path d="M11.0076 22.0004C13.5783 22.0019 16.0676 21.0986 18.039 19.4487L20.2969 21.7075L21.7104 20.2934L19.4525 18.0346C22.7436 14.0737 22.8452 8.35785 19.696 4.28266C16.5469 0.207462 10.992 -1.13433 6.33123 1.05463C1.67049 3.24359 -0.846082 8.3764 0.27603 13.4033C1.39863 18.4301 5.85926 22.0034 11.0076 22.0004ZM11.0076 2.00043C15.9763 2.00043 20.004 6.03021 20.004 11.0004C20.004 15.9711 15.9763 20.0004 11.0076 20.0004C6.03936 20.0004 2.01118 15.9711 2.01118 11.0004C2.01704 6.03217 6.04131 2.00629 11.0076 2.00043Z" fill="#1E2348"/>
<path d="M40.9953 30C40.9992 24.0493 36.2716 19.1743 30.3257 18.9981C24.3799 18.8218 19.3716 23.4082 19.0231 29.3487C18.6746 35.2896 23.1118 40.4302 29.0372 40.9512C29.3559 40.9824 29.6771 41 29.9997 41C30.3228 41 30.6435 40.9824 30.9627 40.9512C36.6352 40.4478 40.9875 35.6978 40.9953 30ZM34.9977 37.2324C33.7809 38.2134 32.3025 38.815 30.7465 38.9624C30.4995 38.9834 30.252 39 29.9997 39C29.7478 39 29.4999 38.9834 29.2534 38.9624C27.6974 38.815 26.219 38.2134 25.0017 37.2324V37.166C25.6176 35.4004 26.6231 33.7954 27.9439 32.4712L28.5867 31.8281C28.9767 31.4375 28.9767 30.8047 28.5867 30.4141C27.8057 29.6333 27.8052 28.3667 28.5862 27.5855C29.3671 26.8047 30.6327 26.8047 31.4137 27.5855C32.1941 28.3667 32.1941 29.6333 31.4132 30.4141C31.0232 30.8047 31.0232 31.4375 31.4132 31.8281L32.056 32.4712C33.3763 33.7954 34.3817 35.4004 34.9977 37.166V37.2324ZM33.4695 31.0572L33.4456 31.0323C34.4344 29.3521 34.0679 27.2036 32.5787 25.9458C31.0891 24.6885 28.9108 24.6885 27.4211 25.9458C25.9315 27.2036 25.5654 29.3521 26.5543 31.0323L26.5304 31.0572C25.132 32.4698 24.0397 34.1563 23.3227 36.0103C20.0725 32.4092 20.2604 26.8794 23.7473 23.5078C27.2347 20.1358 32.7652 20.1358 36.2521 23.5078C39.7395 26.8794 39.9274 32.4092 36.6772 36.0103C35.9597 34.1563 34.8679 32.4698 33.4695 31.0572Z" fill="#1E2348"/>
<path d="M11.0073 16C13.7679 16 16.0053 13.7617 16.0053 11C16.0053 8.23877 13.7679 6 11.0073 6C8.24716 6 6.00928 8.23877 6.00928 11C6.01269 13.7603 8.24862 15.9971 11.0073 16ZM11.0073 8C12.6639 8 14.0061 9.34326 14.0061 11C14.0061 12.6572 12.6639 14 11.0073 14C9.35121 14 8.00848 12.6572 8.00848 11C8.00848 9.34326 9.35121 8 11.0073 8Z" fill="#1E2348"/>
<path d="M7.00888 54H15.0057C15.5577 54 16.0053 53.5522 16.0053 53V45C16.0053 44.4478 15.5577 44 15.0057 44H7.00888C6.45685 44 6.00928 44.4478 6.00928 45V53C6.00928 53.5522 6.45685 54 7.00888 54ZM8.00848 46H14.0061V52H8.00848V46Z" fill="#1E2348"/>
<path d="M49.8602 6.5C49.6678 6.2085 49.3418 6.0332 48.9923 6.0332C48.6433 6.0332 48.3173 6.2085 48.125 6.5L44.1266 13.5C43.948 13.8101 43.948 14.1914 44.1271 14.501C44.3062 14.8105 44.6366 15.001 44.9939 15H52.9907C53.3485 15.001 53.6789 14.8105 53.8581 14.501C54.0372 14.1914 54.0372 13.8101 53.8586 13.5L49.8602 6.5ZM46.7164 13L48.9923 9.01611L51.2688 13H46.7164Z" fill="#1E2348"/>
<path d="M48.9921 59.9998C53.8476 60.0047 58.1316 56.8235 59.5319 52.1727C60.9322 47.5218 59.1175 42.5027 55.0673 39.824C51.0167 37.1453 45.6902 37.4412 41.9612 40.5521L39.7029 38.2928L38.2894 39.7068L40.5477 41.9661C37.8145 45.243 37.2248 49.8064 39.0342 53.6707C40.844 57.5354 44.7263 60.0032 48.9921 59.9998ZM48.9921 39.9998C53.9609 39.9998 57.9885 44.0296 57.9885 48.9998C57.9885 53.9705 53.9609 57.9998 48.9921 57.9998C44.0239 57.9998 39.9957 53.9705 39.9957 48.9998C40.0016 44.0315 44.0258 40.0057 48.9921 39.9998Z" fill="#1E2348"/>
<path d="M48.3928 54.8C48.7481 55.0666 49.2367 55.0666 49.592 54.8L53.5904 51.8C53.8423 51.6111 53.9902 51.3147 53.9902 50.9998V46.9998C53.9902 46.6853 53.8423 46.3889 53.5904 46.1999L49.592 43.2C49.2367 42.9333 48.7481 42.9333 48.3928 43.2L44.3944 46.1999C44.1425 46.3889 43.9941 46.6853 43.9941 46.9998V50.9998C43.9941 51.3147 44.1425 51.6111 44.3944 51.8L48.3928 54.8ZM45.9933 47.4998L48.9921 45.2498L51.991 47.4998V50.4998L48.9921 52.7498L45.9933 50.4998V47.4998Z" fill="#1E2348"/>
<path d="M8.00879 25H10.0081V27H8.00879V25Z" fill="#1E2348"/>
<path d="M8.00879 29H10.0081V31H8.00879V29Z" fill="#1E2348"/>
<path d="M8.00879 33H10.0081V35H8.00879V33Z" fill="#1E2348"/>
<path d="M52.9907 25H54.99V27H52.9907V25Z" fill="#1E2348"/>
<path d="M52.9907 29H54.99V31H52.9907V29Z" fill="#1E2348"/>
<path d="M52.9907 33H54.99V35H52.9907V33Z" fill="#1E2348"/>
<path d="M25.002 5H27.0012V7H25.002V5Z" fill="#1E2348"/>
<path d="M29 5H30.9993V7H29V5Z" fill="#1E2348"/>
<path d="M32.9985 5H34.9978V7H32.9985V5Z" fill="#1E2348"/>
<path d="M25.002 53H27.0012V55H25.002V53Z" fill="#1E2348"/>
<path d="M29 53H30.9993V55H29V53Z" fill="#1E2348"/>
<path d="M32.9985 53H34.9978V55H32.9985V53Z" fill="#1E2348"/>
<path d="M48.9924 0C45.0062 0.000488287 41.3319 2.15967 39.3903 5.64258C37.4487 9.12549 37.5439 13.3872 39.6383 16.7803L39.0086 20.8472C38.9642 21.1357 39.0477 21.4292 39.2375 21.6509C39.4274 21.8726 39.7046 22 39.996 22C40.0663 22.0005 40.1366 21.9932 40.2049 21.978L44.5406 21.0483C45.9404 21.6768 47.4579 22.001 48.9924 22C55.0652 22 59.9881 17.0752 59.9881 11C59.9881 4.92529 55.0652 0 48.9924 0ZM48.9924 20C47.6419 19.9995 46.3089 19.6919 45.0941 19.1001C44.9589 19.0342 44.81 19 44.6592 19C44.5894 19.0005 44.5191 19.0078 44.4503 19.022L41.2089 19.7222L41.6745 16.7163C41.7126 16.4683 41.6565 16.2148 41.5164 16.0063C39.2209 12.5747 39.5538 8.02099 42.3237 4.95996C45.0936 1.89893 49.5903 1.11621 53.231 3.06152C56.8716 5.00635 58.7224 9.18017 57.7199 13.1855C56.7179 17.1909 53.1202 20.0005 48.9924 20Z" fill="#1E2348"/>
</svg>
