<svg width="59" height="62" viewBox="0 0 59 62" fill="none" xmlns="http://www.w3.org/2000/svg">
<path d="M58.5186 10.1022C58.5186 7.76138 58.1194 5.46411 57.3318 3.27389C57.0571 2.51052 56.2109 2.09189 55.4455 2.34183C54.358 2.69676 52.9898 2.05629 51.5418 1.37817C50.1625 0.732133 48.599 0 46.9528 0C45.3067 0 43.743 0.732133 42.3636 1.37805C40.9157 2.05605 39.5481 2.69652 38.4599 2.34171C37.6942 2.09226 36.848 2.51052 36.5738 3.27401C35.7863 5.46387 35.3869 7.76126 35.3869 10.1022C35.3869 10.4443 35.3984 10.7828 35.4156 11.1191C32.483 9.92448 29.2782 9.26367 25.9215 9.26367C11.9997 9.26367 0.673463 20.5899 0.673463 34.5117C0.673463 37.695 1.26828 40.7411 2.34843 43.5486L0.520764 45.3763C-0.173588 46.0707 -0.173588 47.2008 0.520764 47.8954L14.1037 61.4782C14.4401 61.8147 14.8876 62 15.3633 62C15.8391 62 16.2864 61.8147 16.623 61.4782L19.2406 58.8605C21.3695 59.4456 23.6093 59.7598 25.9214 59.7598C28.2334 59.7598 30.4733 59.4456 32.6021 58.8605L35.2198 61.4781C35.5562 61.8146 36.0037 61.9999 36.4794 61.9999C36.9552 61.9999 37.4025 61.8146 37.739 61.4781L42.9407 56.2764C43.2954 55.9217 43.2954 55.3466 42.9407 54.9921C42.5859 54.6374 42.011 54.6374 41.6563 54.9921L36.4794 60.1689L31.7424 55.4319L45.2758 41.8986L50.0127 46.6356L44.6531 51.9951C44.2985 52.3498 44.2985 52.9249 44.6531 53.2794C45.0079 53.6341 45.5829 53.6341 45.9376 53.2794L51.3219 47.8951C51.6583 47.5586 51.8437 47.1113 51.8437 46.6355C51.8437 46.1596 51.6584 45.7123 51.3219 45.3759L49.4943 43.5483C50.5745 40.7409 51.1693 37.6948 51.1693 34.5115C51.1693 31.4473 50.6177 28.5104 49.6133 25.791C55.3755 22.119 58.5186 16.6205 58.5186 10.1022ZM15.3635 60.1691L1.83003 46.6357L6.56697 41.8988L20.1004 55.4321L15.3635 60.1691ZM24.7232 24.796H26.5157L28.2076 26.4879C28.5402 26.8206 28.7177 27.2628 28.7073 27.7333C28.697 28.2032 28.4994 28.6378 28.151 28.9568C27.4876 29.5638 26.4038 29.5136 25.735 28.8445L19.7314 22.8409C19.0658 22.1752 19.0658 21.0921 19.7313 20.4263C19.9819 20.1759 20.2915 20.0212 20.6155 19.9596C20.6132 20.0024 20.609 20.0446 20.609 20.0879V20.6818C20.609 22.9504 22.4546 24.796 24.7232 24.796ZM22.4254 20.6818V20.0879C22.4254 19.7996 22.6601 19.565 22.9483 19.565H27.6185C28.2282 19.565 28.7781 19.8887 29.0808 20.3915L26.4925 22.9798H24.7232C23.4562 22.9796 22.4254 21.9488 22.4254 20.6818ZM25.1939 30.8721C25.5198 31.1981 25.6974 31.6316 25.6939 32.0927C25.6902 32.5539 25.5058 32.9846 25.1747 33.3055C24.5092 33.9505 23.4345 33.9421 22.7794 33.2867L16.0325 26.5399H16.0324C15.7099 26.2174 15.5323 25.7886 15.5323 25.3326C15.5323 24.8765 15.7099 24.4477 16.0325 24.1253C16.3549 23.8028 16.7837 23.6253 17.2398 23.6253C17.6959 23.6253 18.1246 23.8028 18.447 24.1253L25.1939 30.8721ZM20.2873 33.3635C20.6134 33.6896 20.7909 34.1231 20.7873 34.5843C20.7837 35.0454 20.5993 35.476 20.2681 35.797C19.6026 36.4421 18.528 36.4335 17.8728 35.7782L13.4656 31.371L12.3335 30.2389C12.011 29.9165 11.8335 29.4877 11.8335 29.0316C11.8335 28.5756 12.011 28.1468 12.3335 27.8243C12.6663 27.4914 13.1036 27.325 13.5409 27.325C13.9779 27.325 14.4151 27.4913 14.7478 27.824L14.7482 27.8243L20.2873 33.3635ZM12.1799 32.6541L15.1316 35.6058C15.4572 35.9318 15.6346 36.3651 15.631 36.8257C15.6273 37.2868 15.4429 37.7176 15.1118 38.0385C14.4462 38.6834 13.3717 38.675 12.7165 38.0197L9.76651 35.0697C9.10086 34.4039 9.10086 33.3209 9.76639 32.6551C10.0993 32.3222 10.5365 32.1558 10.9738 32.1558C11.4105 32.1561 11.8471 32.3221 12.1799 32.6541ZM13.9243 40.33C14.8101 40.33 15.6965 40.0015 16.3761 39.3429C16.8637 38.8702 17.1961 38.282 17.3499 37.6381C17.8842 37.9375 18.4821 38.0883 19.0806 38.0883C19.9664 38.0883 20.8526 37.7598 21.5322 37.1012C22.0478 36.6016 22.3908 35.9728 22.5314 35.2856C22.992 35.4927 23.4893 35.597 23.987 35.597C24.8728 35.597 25.7592 35.2684 26.4388 34.6098C27.1223 33.9474 27.5028 33.0586 27.5101 32.1069C27.5126 31.7918 27.4732 31.4832 27.3961 31.1866C28.1139 31.1113 28.8097 30.8163 29.3774 30.2966C30.0949 29.6398 30.5018 28.7437 30.5232 27.7735C30.5445 26.8028 30.1782 25.8901 29.4918 25.2037L28.1645 23.8764L31.0636 20.9773C31.7296 20.3118 32.8127 20.3117 33.4782 20.9773C34.1432 21.6422 34.1439 22.7237 33.4807 23.3896C33.4799 23.3903 33.4792 23.3911 33.4784 23.3919C33.1237 23.7466 33.1237 24.3217 33.4785 24.6762C33.833 25.0309 34.4081 25.0308 34.7628 24.6762C35.4283 24.0106 36.5116 24.0106 37.1772 24.6762C37.8421 25.3412 37.8428 26.4227 37.1795 27.0886C37.1787 27.0893 37.178 27.09 37.1773 27.0909H37.1772C36.8225 27.4455 36.8225 28.0206 37.1772 28.3752C37.5319 28.7299 38.1069 28.7299 38.4615 28.3752C38.7841 28.0526 39.2128 27.8751 39.6689 27.8751C40.125 27.8751 40.5537 28.0526 40.8761 28.375C41.5419 29.0408 41.5419 30.124 40.8761 30.7897C40.5214 31.1443 40.5214 31.7194 40.8761 32.074C41.2308 32.4287 41.8059 32.4287 42.1604 32.074C42.4908 31.7438 42.9265 31.5658 43.3967 31.5742C43.8632 31.582 44.2964 31.7746 44.6162 32.1166C45.2374 32.7806 45.1972 33.8664 44.5266 34.537L38.0103 41.0533C37.6556 41.408 37.6556 41.9831 38.0103 42.3376C38.3651 42.6923 38.9401 42.6923 39.2947 42.3376L40.8843 40.7487L42.3708 42.2351L32.7325 51.8733L27.5202 46.6609C28.2615 46.4013 29.0508 46.2767 29.8475 46.3064L31.5759 46.3702C33.0984 46.4275 34.6008 46.0563 35.9251 45.2996C36.3606 45.0508 36.512 44.4959 36.263 44.0604C36.0142 43.6249 35.4592 43.4736 35.024 43.7224C33.9942 44.3107 32.8238 44.5989 31.6431 44.5549L29.9147 44.4911C27.6554 44.4063 25.4423 45.2765 23.8437 46.8751L18.9781 51.7407L9.639 42.4017L12.1728 39.8679C12.7122 40.1754 13.318 40.33 13.9243 40.33ZM25.9215 57.9434C24.1409 57.9434 22.4076 57.7398 20.7399 57.3614L21.4097 56.6916C21.7461 56.3552 21.9315 55.9078 21.9315 55.432C21.9315 54.9561 21.7462 54.5088 21.4097 54.1724L20.2626 53.0253L25.1282 48.1596C25.3506 47.9371 25.5889 47.7338 25.8394 47.5487L31.4482 53.1575L30.4333 54.1724C29.7391 54.8669 29.7391 55.9969 30.4335 56.6915L31.1032 57.3613C29.4354 57.7398 27.7021 57.9434 25.9215 57.9434ZM49.3531 34.5117C49.3531 37.1789 48.9044 39.7431 48.0796 42.1337L46.5355 40.5897C46.1991 40.2531 45.7517 40.0679 45.2759 40.0679C44.8001 40.0679 44.3527 40.2531 44.0163 40.5897L43.6552 40.9508L42.1688 39.4643L45.8115 35.8216C47.1669 34.4661 47.2261 32.2474 45.9433 30.876C45.2842 30.1712 44.3906 29.7743 43.4274 29.7582C43.347 29.7567 43.2667 29.7582 43.1869 29.7622C43.2355 28.8009 42.8935 27.8233 42.161 27.0907C41.4955 26.4252 40.6105 26.0586 39.6694 26.0586C39.6086 26.0586 39.5481 26.0602 39.4879 26.0632C39.5364 25.102 39.1946 24.1243 38.462 23.3918C37.7289 22.6587 36.7514 22.3173 35.7888 22.366C35.838 21.4042 35.496 20.4259 34.7629 19.6929C33.5934 18.5233 31.7999 18.3501 30.4445 19.1718C29.7942 18.298 28.7581 17.7486 27.6188 17.7486H22.9485C22.4473 17.7486 21.9835 17.9084 21.6023 18.1779C20.494 17.9664 19.3036 18.2856 18.4471 19.1419C17.7145 19.8745 17.3729 20.8521 17.4216 21.8135C17.3613 21.8104 17.3007 21.8087 17.2399 21.8087C16.2987 21.8087 15.4137 22.1753 14.7483 22.8408C14.0827 23.5064 13.7161 24.3913 13.7161 25.3326C13.7161 25.3934 13.7178 25.4539 13.7208 25.5142C12.7596 25.4655 11.782 25.8073 11.0494 26.5399C10.3837 27.2054 10.0173 28.0904 10.0173 29.0316C10.0173 29.5118 10.1132 29.977 10.295 30.4062C9.6304 30.5357 8.99611 30.8572 8.48231 31.3709C7.10851 32.7448 7.10851 34.9804 8.48231 36.3543L10.8003 38.6723L8.35492 41.1176L7.82696 40.5897C7.49056 40.2531 7.04312 40.0679 6.56734 40.0679C6.09156 40.0679 5.64424 40.2531 5.30784 40.5897L3.76378 42.1337C2.93913 39.7431 2.49035 37.1789 2.49035 34.5117C2.49035 21.5915 13.0018 11.0801 25.922 11.0801C29.3856 11.0801 32.6748 11.838 35.636 13.1929C36.5885 19.027 40.2757 23.8321 46.2598 26.9224C46.4769 27.0345 46.7151 27.0907 46.9533 27.0907C47.1914 27.0907 47.4296 27.0347 47.6465 26.9225C47.773 26.8571 47.8963 26.7894 48.0206 26.7226C48.8822 29.1607 49.3531 31.782 49.3531 34.5117ZM46.9528 25.2355C43.9473 23.6589 41.5826 21.6264 39.9226 19.1921C38.1182 16.5458 37.2032 13.4875 37.2032 10.1022C37.2032 8.06509 37.5351 6.06486 38.1905 4.15194C39.8621 4.55518 41.5239 3.77704 43.1338 3.02311C44.4008 2.42987 45.7108 1.81641 46.9528 1.81641C48.1948 1.81641 49.5048 2.42987 50.7716 3.02311C52.3816 3.77716 54.0436 4.5553 55.715 4.15194C56.3703 6.06474 56.7022 8.06521 56.7022 10.1022C56.7022 13.4875 55.7872 16.5458 53.9828 19.1921C52.323 21.6263 49.9583 23.6589 46.9528 25.2355Z" fill="#1E2348"/>
<path d="M53.2195 11.2799C53.6982 11.1301 53.9647 10.6205 53.8149 10.1418C52.8713 7.1271 50.1134 5.10156 46.9521 5.10156C42.9874 5.10156 39.7617 8.32714 39.7617 12.2919C39.7617 16.2566 42.9874 19.4822 46.9521 19.4822C49.8939 19.4822 52.5096 17.72 53.6159 14.9927C53.8045 14.528 53.5806 13.9983 53.1157 13.8098C52.6507 13.621 52.1212 13.8451 51.9326 14.3099C51.1057 16.3484 49.1506 17.6656 46.952 17.6656C43.9887 17.6656 41.578 15.2549 41.578 12.2917C41.578 9.32858 43.9887 6.91785 46.952 6.91785C49.3149 6.91785 51.3762 8.43152 52.0813 10.6843C52.2312 11.1632 52.7413 11.4297 53.2195 11.2799Z" fill="#1E2348"/>
<path d="M49.3326 10.0844L46.5281 12.889L44.5729 10.9338C44.2181 10.5792 43.6432 10.5792 43.2885 10.9338C42.9338 11.2885 42.9338 11.8636 43.2885 12.2182L45.8858 14.8155C46.0632 14.9928 46.2957 15.0815 46.5281 15.0815C46.7605 15.0815 46.993 14.9929 47.1704 14.8155L50.6172 11.3687C50.9719 11.014 50.9719 10.4389 50.6172 10.0844C50.2624 9.72969 49.6874 9.72969 49.3326 10.0844Z" fill="#1E2348"/>
</svg>
