<svg width="60" height="60" viewBox="0 0 60 60" fill="none" xmlns="http://www.w3.org/2000/svg">
<path d="M14.4417 12.9298C14.2661 12.4805 13.8329 12.1847 13.3505 12.1846C13.3504 12.1846 13.3504 12.1846 13.3503 12.1846C12.8679 12.1846 12.4347 12.4801 12.2589 12.9294L8.79869 21.7719C8.56279 22.3746 8.86021 23.0544 9.46291 23.2903C9.60318 23.3452 9.74767 23.3712 9.88971 23.3712C10.3581 23.3712 10.8004 23.0885 10.9813 22.6261L11.5682 21.1264H15.1296L15.7158 22.6257C15.9513 23.2286 16.6313 23.5263 17.2338 23.2904C17.8368 23.0548 18.1343 22.3751 17.8987 21.7723L14.4417 12.9298ZM12.4854 18.7826L13.3498 16.5736L14.2135 18.7826H12.4854Z" fill="#1E2348"/>
<path d="M20.9175 23.3708C21.5646 23.3708 22.0894 22.8462 22.0894 22.1989V13.3564C22.0894 12.7092 21.5646 12.1846 20.9175 12.1846C20.2704 12.1846 19.7456 12.7092 19.7456 13.3564V22.1989C19.7456 22.8462 20.2704 23.3708 20.9175 23.3708Z" fill="#1E2348"/>
<path d="M55.6747 27.1899C53.8751 27.1899 52.3494 28.3856 51.8476 30.0252H49.2969L48.326 25.8238C48.2047 25.2991 47.7221 24.9157 47.1843 24.9157H44.8547C45.3205 23.4962 45.6384 21.9032 45.7316 20.0559L52.1712 20.0571C52.6732 21.6949 54.1985 22.8893 55.9979 22.8893C58.2047 22.8893 60 21.0932 60 18.8853C60 16.6758 58.2047 14.8782 55.9979 14.8782C54.1983 14.8782 52.6727 16.0739 52.1709 17.7133L45.7279 17.7122C45.6388 16.0146 45.3575 14.3883 44.8903 12.8519H47.184C47.722 12.8519 48.2043 12.4685 48.3258 11.9439L49.2967 7.74245H51.8477C52.3498 9.38014 53.8753 10.5745 55.6746 10.5745C57.8832 10.5745 59.68 8.77839 59.68 6.57057C59.68 4.36276 57.8832 2.56675 55.6746 2.56675C53.8753 2.56675 52.3499 3.761 51.8477 5.3987H48.3648C47.8298 5.3987 47.3794 5.75764 47.2391 6.2476C47.2334 6.26589 47.228 6.28534 47.223 6.30678L46.2521 10.5082H44.0017C43.1937 8.74979 42.114 7.14057 40.7743 5.71522C40.3312 5.24354 39.5897 5.22057 39.1179 5.66389C38.6463 6.10721 38.6232 6.84878 39.0666 7.32034C39.9759 8.28784 40.7475 9.35542 41.3776 10.5082H37.6478C37.0007 10.5082 36.4759 11.0328 36.4759 11.6801C36.4759 12.3273 37.0007 12.8519 37.6478 12.8519H42.4218C42.9567 14.3689 43.2792 15.9971 43.3807 17.7117L36.1406 17.7103C36.1405 17.7103 36.1405 17.7103 36.1404 17.7103C35.4933 17.7103 34.9686 18.2348 34.9685 18.8819C34.9684 19.5292 35.493 20.0539 36.1402 20.0541L43.3827 20.0555C43.2749 21.9366 42.9029 23.5155 42.3609 24.9157H37.6479C37.0008 24.9157 36.476 25.4403 36.476 26.0876C36.476 26.7348 37.0008 27.2594 37.6479 27.2594H41.2293C40.5036 28.5164 39.6607 29.6654 38.7998 30.8374C36.9649 33.3356 35.0734 35.913 34.3002 39.6663H20.44C20.0238 37.6495 19.2934 35.9981 18.4887 34.5958C19.4998 34.3295 20.2486 33.4098 20.2486 32.3158V31.9795C21.1864 31.701 22.0898 31.3257 22.9493 30.8579L23.1891 31.0979C23.6339 31.5429 24.2264 31.7879 24.8575 31.7879C25.4885 31.7879 26.081 31.5429 26.5259 31.0978L28.8777 28.7443C29.7971 27.8244 29.7971 26.3274 28.8777 25.4075L28.6371 25.1668C29.1049 24.3066 29.48 23.4021 29.7586 22.4633H30.0937C31.3948 22.4633 32.4532 21.4045 32.4532 20.1032V16.7761C32.4532 15.4747 31.3948 14.4159 30.0937 14.4159H29.7586C29.48 13.4771 29.1049 12.5728 28.6371 11.7124L28.8777 11.4717C29.797 10.5518 29.797 9.05495 28.8777 8.13491L26.5259 5.78143C26.081 5.33647 25.4885 5.09143 24.8575 5.09143C24.2264 5.09143 23.6339 5.33647 23.1891 5.78155L22.9493 6.02143C22.0897 5.5535 21.1864 5.17839 20.2486 4.89983V4.5635C20.2486 4.36592 20.2215 4.17491 20.1756 3.99128C22.4214 2.87776 24.8825 2.30999 27.3563 2.34538C27.367 2.3455 27.3777 2.3455 27.3884 2.34538C28.5369 2.33038 29.6887 2.44452 30.815 2.68593C31.4477 2.82116 32.0708 2.41839 32.2064 1.78546C32.3419 1.15264 31.9389 0.529675 31.3059 0.394089C30.0136 0.117175 28.6902 -0.015247 27.373 0.00162796C24.2613 -0.0406767 21.1792 0.742253 18.4185 2.26534C18.248 2.22608 18.0714 2.20323 17.8891 2.20323H14.5642C13.2632 2.20323 12.2047 3.26202 12.2047 4.56339V4.89971C11.2669 5.17827 10.3636 5.55339 9.50402 6.02132L9.26426 5.78143C8.81941 5.33647 8.22691 5.09143 7.59586 5.09143C6.9648 5.09143 6.3723 5.33647 5.92746 5.78155L3.57562 8.13538C2.65629 9.0553 2.65629 10.5521 3.57562 11.4722L3.81621 11.7129C3.3484 12.5733 2.97328 13.4776 2.69473 14.4164H2.35957C1.05844 14.4163 0 15.4751 0 16.7764V20.1035C0 21.4049 1.05844 22.4637 2.35945 22.4637H2.69461C2.97316 23.4024 3.34828 24.3069 3.81609 25.1672L3.57551 25.4079C2.65605 26.3278 2.65605 27.8248 3.57551 28.7447L5.92734 31.0982C6.37219 31.5431 6.96469 31.7882 7.59574 31.7882C8.2268 31.7882 8.8193 31.5431 9.26414 31.098L9.50391 30.8582C10.3634 31.326 11.2668 31.7012 12.2046 31.9798V32.3161C12.2046 33.6174 13.263 34.6762 14.5641 34.6762H15.7874C16.7679 36.1775 17.7442 38.0076 18.1938 40.385C17.2519 41.0696 16.6379 42.1789 16.6379 43.4294C16.6379 44.4341 17.0339 45.3473 17.6769 46.0233C17.0339 46.6986 16.6379 47.611 16.6379 48.6149C16.6379 50.3769 17.8561 51.8592 19.4946 52.2664V54.6089C19.4946 57.1297 21.5445 59.1805 24.064 59.1805H30.6777C33.1991 59.1805 35.2505 57.1297 35.2505 54.6089V52.2662C36.8872 51.8587 38.1039 50.3765 38.1039 48.6149C38.1039 47.6112 37.7082 46.6987 37.0657 46.0233C37.7082 45.3473 38.1039 44.4341 38.1039 43.4294C38.1039 42.178 37.4895 41.068 36.5473 40.3835C37.1845 36.9971 38.8894 34.6749 40.6888 32.2251C41.8226 30.6815 42.9731 29.113 43.8916 27.2597H46.2523L47.2232 31.4611C47.3445 31.9858 47.8269 32.3692 48.3649 32.3692H51.8479C52.3499 34.0069 53.8754 35.2011 55.6747 35.2011C57.8834 35.2011 59.6801 33.405 59.6801 31.1973C59.6801 28.9875 57.8834 27.1899 55.6747 27.1899ZM55.9979 17.2221C56.9123 17.2221 57.6562 17.9683 57.6562 18.8855C57.6562 19.8009 56.9122 20.5457 55.9979 20.5457C55.0836 20.5457 54.3397 19.8009 54.3397 18.8855C54.3396 17.9683 55.0835 17.2221 55.9979 17.2221ZM55.6747 4.91061C56.5909 4.91061 57.3363 5.65534 57.3363 6.57069C57.3363 7.48616 56.591 8.23089 55.6747 8.23089C54.7603 8.23089 54.0164 7.48616 54.0164 6.57069C54.0163 5.65534 54.7603 4.91061 55.6747 4.91061ZM17.9048 31.0749V32.316C17.9048 32.3228 17.8946 32.3324 17.8891 32.3324H16.4123C16.4098 32.3324 16.4072 32.3324 16.4045 32.3324H14.5642C14.5587 32.3324 14.5485 32.3228 14.5485 32.316V31.0749C14.5485 30.527 14.1688 30.0523 13.6343 29.9318C12.3219 29.636 11.0803 29.1203 9.94418 28.399C9.75105 28.2763 9.53309 28.2164 9.31652 28.2164C9.01371 28.2164 8.71348 28.3336 8.4873 28.5599L7.60652 29.4411C7.60148 29.4463 7.59023 29.4462 7.5852 29.4411L5.23336 27.0876C5.22891 27.0832 5.22891 27.0689 5.23336 27.0644L6.11414 26.1831C6.5018 25.7952 6.56859 25.1904 6.27492 24.7273C5.5541 23.5901 5.03859 22.3476 4.74293 21.0342C4.62258 20.4995 4.14773 20.1197 3.59965 20.1197H2.35945C2.35395 20.1197 2.34375 20.1101 2.34375 20.1033V16.7762C2.34375 16.7694 2.35395 16.7598 2.35945 16.7598H3.59965C4.14773 16.7598 4.62258 16.38 4.74293 15.8453C5.03859 14.5319 5.5541 13.2894 6.27492 12.1522C6.56859 11.689 6.5018 11.0842 6.11414 10.6964L5.23336 9.81514C5.22879 9.81057 5.22879 9.79628 5.23336 9.79182L7.5852 7.43846C7.59023 7.43342 7.60148 7.43354 7.60652 7.43846L8.4873 8.31971C8.87543 8.70796 9.48094 8.77475 9.9443 8.48073C11.0805 7.75944 12.3221 7.2437 13.6343 6.94792C14.1689 6.82745 14.5486 6.3526 14.5486 5.80475V4.56374C14.5486 4.55694 14.5588 4.54733 14.5643 4.54733H17.8893C17.8948 4.54733 17.905 4.55694 17.905 4.56374V5.80475C17.905 6.35272 18.2846 6.82757 18.8193 6.94792C20.1314 7.24358 21.373 7.75932 22.5093 8.48073C22.9724 8.77487 23.5781 8.70807 23.9662 8.31971L24.847 7.43846C24.8521 7.43342 24.8633 7.43354 24.8684 7.43846L27.2202 9.79182C27.2248 9.79639 27.2248 9.81069 27.2202 9.81514L26.3394 10.6964C25.9518 11.0843 25.885 11.6891 26.1786 12.1522C26.8995 13.2894 27.415 14.5319 27.7106 15.8453C27.831 16.38 28.3058 16.7598 28.8539 16.7598H30.0941C30.0996 16.7598 30.1098 16.7694 30.1098 16.7762V20.1033C30.1098 20.1101 30.0996 20.1197 30.0941 20.1197H28.8539C28.3058 20.1197 27.831 20.4995 27.7106 21.0342C27.415 22.3476 26.8995 23.5901 26.1786 24.7273C25.885 25.1904 25.9518 25.7952 26.3394 26.1831L27.2202 27.0644C27.2246 27.0689 27.2246 27.0832 27.2202 27.0876L24.8684 29.441C24.8633 29.446 24.8521 29.446 24.847 29.441L23.9662 28.5596C23.5781 28.1714 22.9725 28.1045 22.5093 28.3986C21.3731 29.1199 20.1315 29.6357 18.8191 29.9314C18.2845 30.0523 17.9048 30.527 17.9048 31.0749ZM32.9068 54.6088C32.9068 55.8371 31.907 56.8366 30.6778 56.8366H24.0641C22.8368 56.8366 21.8385 55.8372 21.8385 54.6088V52.3776H32.9067V54.6088H32.9068ZM34.3426 50.0339H20.4028C19.6193 50.0339 18.9819 49.3972 18.9819 48.6148C18.9819 47.8322 19.6193 47.1956 20.4028 47.1956H34.3426C35.1243 47.1956 35.7602 47.8323 35.7602 48.6148C35.7601 49.3972 35.1243 50.0339 34.3426 50.0339ZM34.3426 44.8519H20.4028C19.6193 44.8519 18.9819 44.2138 18.9819 43.4294C18.9819 42.6469 19.6193 42.0103 20.4028 42.0103H34.3426C35.1243 42.0103 35.7602 42.647 35.7602 43.4294C35.7601 44.2137 35.1243 44.8519 34.3426 44.8519ZM55.6747 32.8571C54.7603 32.8571 54.0164 32.1124 54.0164 31.1971C54.0164 30.2798 54.7604 29.5337 55.6747 29.5337C56.5909 29.5337 57.3363 30.2799 57.3363 31.1971C57.3363 32.1124 56.5909 32.8571 55.6747 32.8571Z" fill="#1E2348"/>
<path d="M35.3196 4.38747L35.3262 4.39075C35.494 4.47465 35.6721 4.51438 35.8474 4.51438C36.2766 4.51438 36.6896 4.27602 36.895 3.86493C37.1845 3.28602 36.9465 2.58043 36.3676 2.29098C35.7888 2.00153 35.0847 2.23614 34.7954 2.81504C34.5059 3.39418 34.7405 4.09801 35.3196 4.38747Z" fill="#1E2348"/>
</svg>
