<svg width="62" height="62" viewBox="0 0 62 62" fill="none" xmlns="http://www.w3.org/2000/svg">
<path d="M42.0001 48.0006H37.0001V44.9816C38.2404 44.053 39.2476 42.8484 39.9419 41.4632C40.6362 40.078 40.9985 38.5502 41.0001 37.0007H41.5001C42.384 37.0025 43.2357 36.6689 43.8834 36.0674C44.5311 35.4658 44.9265 34.641 44.99 33.7594C45.0534 32.8777 44.7801 32.0048 44.2252 31.3167C43.6704 30.6287 42.8752 30.1766 42.0001 30.0518V21.0009C42.0001 19.9401 41.5787 18.9227 40.8285 18.1725C40.0784 17.4224 39.0609 17.001 38.0001 17.001H24C22.9392 17.001 21.9218 17.4224 21.1716 18.1725C20.4215 18.9227 20 19.9401 20 21.0009V30.0518C19.1249 30.1766 18.3298 30.6287 17.7749 31.3167C17.22 32.0048 16.9467 32.8777 17.0102 33.7594C17.0736 34.641 17.469 35.4658 18.1167 36.0674C18.7644 36.6689 19.6161 37.0025 20.5 37.0007H21C21.0017 38.5502 21.364 40.078 22.0582 41.4632C22.7525 42.8484 23.7597 44.053 25 44.9816V48.0006H20C16.5534 48.0045 13.2491 49.3754 10.812 51.8125C8.37489 54.2496 7.00397 57.5538 7 61.0004C7 61.2656 7.10536 61.52 7.29289 61.7075C7.48043 61.895 7.73479 62.0004 8 62.0004H54.0001C54.2653 62.0004 54.5197 61.895 54.7072 61.7075C54.8948 61.52 55.0001 61.2656 55.0001 61.0004C54.9962 57.5538 53.6252 54.2496 51.1881 51.8125C48.751 49.3754 45.4467 48.0045 42.0001 48.0006ZM43.0001 33.5008C43.0001 33.8986 42.8421 34.2801 42.5607 34.5614C42.2794 34.8427 41.8979 35.0007 41.5001 35.0007H41.0001V32.0008H41.5001C41.8979 32.0008 42.2794 32.1588 42.5607 32.4401C42.8421 32.7214 43.0001 33.1029 43.0001 33.5008ZM20.5 35.0007C20.1022 35.0007 19.7207 34.8427 19.4394 34.5614C19.1581 34.2801 19 33.8986 19 33.5008C19 33.1029 19.1581 32.7214 19.4394 32.4401C19.7207 32.1588 20.1022 32.0008 20.5 32.0008H21V35.0007H20.5ZM22 21.0009C22 20.4705 22.2108 19.9618 22.5858 19.5867C22.9609 19.2117 23.4696 19.0009 24 19.0009H38.0001C38.5305 19.0009 39.0392 19.2117 39.4143 19.5867C39.7894 19.9618 40.0001 20.4705 40.0001 21.0009V30.0008H38.0001C37.7349 30.0008 37.4805 29.8954 37.293 29.7079C37.1054 29.5204 37.0001 29.266 37.0001 29.0008V26.0009C37.0001 25.8422 36.9624 25.6858 36.8901 25.5447C36.8177 25.4035 36.7129 25.2815 36.5841 25.1889C36.4559 25.0958 36.3073 25.0348 36.1506 25.0112C35.994 24.9875 35.834 25.0018 35.6841 25.0529L33.2701 25.8529L32.7071 25.2909C32.5191 25.1044 32.2648 25.0001 32.0001 25.0009H26C25.7348 25.0009 25.4805 25.1062 25.2929 25.2938C25.1054 25.4813 25 25.7356 25 26.0009V29.0008C25 29.266 24.8947 29.5204 24.7072 29.7079C24.5196 29.8954 24.2653 30.0008 24 30.0008H22V21.0009ZM23 37.0007V32.0008H24C24.7957 32.0008 25.5588 31.6847 26.1214 31.1221C26.684 30.5595 27 29.7965 27 29.0008V27.0008H31.5861L32.2931 27.7078C32.4244 27.839 32.5897 27.931 32.7704 27.9736C32.951 28.0161 33.14 28.0076 33.3161 27.9488L35.0001 27.3888V29.0008C35.0001 29.7965 35.3161 30.5595 35.8788 31.1221C36.4414 31.6847 37.2044 32.0008 38.0001 32.0008H39.0001V37.0007C39.0001 39.1224 38.1572 41.1572 36.6569 42.6575C35.1566 44.1578 33.1218 45.0006 31.0001 45.0006C28.8783 45.0006 26.8435 44.1578 25.3432 42.6575C23.8429 41.1572 23 39.1224 23 37.0007ZM31.0001 47.0006C32.3773 47.0007 33.7395 46.7143 35.0001 46.1596V48.5666C33.9409 49.4949 32.5794 50.0047 31.1711 50.0005H30.8291C29.4207 50.0047 28.0592 49.4949 27 48.5666V46.1596C28.2606 46.7143 29.6228 47.0007 31.0001 47.0006ZM9.04501 60.0004C9.2978 57.2687 10.5609 54.7297 12.587 52.8802C14.6132 51.0307 17.2566 50.0038 20 50.0005H25.616C27.0456 51.2905 28.9035 52.0033 30.8291 52.0005H31.1711C33.0966 52.0033 34.9545 51.2905 36.3841 50.0005H42.0001C44.7435 50.0038 47.3869 51.0307 49.4131 52.8802C51.4393 54.7297 52.7023 57.2687 52.9551 60.0004H9.04501Z" fill="#1E2348"/>
<path d="M38.9495 5.68484C38.8832 5.48564 38.7558 5.31238 38.5855 5.18961C38.4151 5.06684 38.2105 5.0008 38.0005 5.00085H33.6775L31.9295 0.629912C31.8555 0.444022 31.7273 0.284623 31.5617 0.172326C31.3961 0.0600296 31.2006 0 31.0005 0C30.8004 0 30.6049 0.0600296 30.4393 0.172326C30.2737 0.284623 30.1456 0.444022 30.0715 0.629912L28.3235 5.00085H24.0005C23.7906 5.00085 23.586 5.06689 23.4158 5.18961C23.2455 5.31233 23.1182 5.48551 23.0518 5.68462C22.9854 5.88373 22.9834 6.09867 23.046 6.299C23.1086 6.49934 23.2326 6.6749 23.4005 6.80083L26.7875 9.3408L25.0715 13.6297C24.9938 13.8242 24.9791 14.0381 25.0295 14.2414C25.0799 14.4446 25.1928 14.6269 25.3523 14.7625C25.5118 14.8982 25.7099 14.9804 25.9186 14.9974C26.1273 15.0145 26.3361 14.9656 26.5155 14.8577L31.0005 12.1668L35.4855 14.8577C35.665 14.9656 35.8738 15.0145 36.0825 14.9974C36.2912 14.9804 36.4892 14.8982 36.6487 14.7625C36.8083 14.6269 36.9212 14.4446 36.9715 14.2414C37.0219 14.0381 37.0072 13.8242 36.9295 13.6297L35.2135 9.3408L38.6005 6.80083C38.7684 6.67496 38.8925 6.49945 38.9551 6.29916C39.0178 6.09887 39.0158 5.88396 38.9495 5.68484ZM33.0715 9.3718L33.9715 11.6158L31.5175 10.1438C31.362 10.0503 31.184 10.001 31.0025 10.001C30.8211 10.001 30.643 10.0503 30.4875 10.1438L28.0335 11.6158L28.9335 9.3718C29.0146 9.16717 29.0259 8.94151 28.9657 8.72979C28.9055 8.51807 28.7771 8.33214 28.6005 8.20081L27.0005 7.00083H29.0005C29.2005 7.0009 29.3959 6.94101 29.5615 6.82888C29.7271 6.71676 29.8553 6.55755 29.9295 6.37184L31.0005 3.69287L32.0715 6.37184C32.1457 6.55755 32.2739 6.71676 32.4395 6.82888C32.6051 6.94101 32.8005 7.0009 33.0005 7.00083H35.0005L33.4005 8.20081C33.2246 8.33267 33.097 8.51885 33.0375 8.73053C32.978 8.94221 32.99 9.16759 33.0715 9.3718Z" fill="#1E2348"/>
<path d="M12.485 38.8567C12.6645 38.9647 12.8733 39.0135 13.082 38.9965C13.2907 38.9794 13.4887 38.8972 13.6482 38.7616C13.8078 38.6259 13.9207 38.4436 13.971 38.2404C14.0214 38.0371 14.0067 37.8232 13.929 37.6288L12.213 33.3398L15.6 30.7999C15.7679 30.6739 15.892 30.4984 15.9546 30.298C16.0171 30.0977 16.0151 29.8827 15.9487 29.6836C15.8824 29.4845 15.755 29.3113 15.5848 29.1886C15.4145 29.0659 15.2099 28.9999 15 28.9999H10.677L8.92902 24.6289C8.85497 24.443 8.72685 24.2836 8.56123 24.1713C8.39562 24.0591 8.20012 23.999 8.00002 23.999C7.79992 23.999 7.60442 24.0591 7.43881 24.1713C7.27319 24.2836 7.14507 24.443 7.07102 24.6289L5.32301 28.9999H1C0.790119 28.9999 0.585557 29.0659 0.415291 29.1886C0.245025 29.3113 0.117688 29.4845 0.0513169 29.6836C-0.015054 29.8827 -0.0170937 30.0977 0.0454866 30.298C0.108067 30.4984 0.232095 30.6739 0.400001 30.7999L3.78701 33.3398L2.07101 37.6288C1.99331 37.8232 1.97862 38.0371 2.02899 38.2404C2.07937 38.4436 2.19228 38.6259 2.35179 38.7616C2.5113 38.8972 2.70938 38.9794 2.91807 38.9965C3.12677 39.0135 3.33557 38.9647 3.51501 38.8567L8.00002 36.1658L12.485 38.8567ZM5.03101 35.6148L5.93102 33.3708C6.01233 33.1664 6.02397 32.9409 5.96413 32.7292C5.90429 32.5175 5.77631 32.3314 5.60001 32.1998L4.00001 30.9998H6.00002C6.20001 30.9999 6.39543 30.94 6.56103 30.8279C6.72664 30.7158 6.85482 30.5566 6.92902 30.3709L8.00002 27.6919L9.07102 30.3709C9.14522 30.5566 9.2734 30.7158 9.43901 30.8279C9.60461 30.94 9.80003 30.9999 10 30.9998H12L10.4 32.1998C10.2241 32.3317 10.0965 32.5179 10.037 32.7296C9.97754 32.9412 9.9895 33.1666 10.071 33.3708L10.971 35.6148L8.51502 34.1428C8.35949 34.0494 8.18146 34 8.00002 34C7.81858 34 7.64055 34.0494 7.48502 34.1428L5.03101 35.6148Z" fill="#1E2348"/>
<path d="M61 28.9999H56.677L54.929 24.6289C54.855 24.443 54.7269 24.2836 54.5612 24.1713C54.3956 24.0591 54.2001 23.999 54 23.999C53.7999 23.999 53.6044 24.0591 53.4388 24.1713C53.2732 24.2836 53.1451 24.443 53.071 24.6289L51.323 28.9999H47C46.7901 28.9999 46.5856 29.0659 46.4153 29.1886C46.245 29.3113 46.1177 29.4845 46.0513 29.6836C45.9849 29.8827 45.9829 30.0977 46.0455 30.298C46.1081 30.4984 46.2321 30.6739 46.4 30.7999L49.787 33.3398L48.071 37.6288C47.9933 37.8232 47.9786 38.0371 48.029 38.2404C48.0794 38.4436 48.1923 38.6259 48.3518 38.7616C48.5113 38.8972 48.7094 38.9794 48.9181 38.9965C49.1268 39.0135 49.3356 38.9647 49.515 38.8567L54 36.1658L58.485 38.8567C58.6645 38.9647 58.8733 39.0135 59.082 38.9965C59.2907 38.9794 59.4887 38.8972 59.6483 38.7616C59.8078 38.6259 59.9207 38.4436 59.971 38.2404C60.0214 38.0371 60.0067 37.8232 59.929 37.6288L58.213 33.3398L61.6 30.7999C61.7679 30.6739 61.892 30.4984 61.9546 30.298C62.0171 30.0977 62.0151 29.8827 61.9487 29.6836C61.8824 29.4845 61.755 29.3113 61.5847 29.1886C61.4145 29.0659 61.2099 28.9999 61 28.9999ZM56.071 33.3708L56.971 35.6148L54.517 34.1428C54.3615 34.0494 54.1835 34 54.002 34C53.8206 34 53.6426 34.0494 53.487 34.1428L51.033 35.6148L51.933 33.3708C52.0141 33.1662 52.0255 32.9405 51.9652 32.7288C51.905 32.5171 51.7767 32.3312 51.6 32.1998L50 30.9998H52C52.2 30.9999 52.3954 30.94 52.561 30.8279C52.7266 30.7158 52.8548 30.5566 52.929 30.3709L54 27.6919L55.071 30.3709C55.1452 30.5566 55.2734 30.7158 55.439 30.8279C55.6046 30.94 55.8 30.9999 56 30.9998H58L56.4 32.1998C56.2241 32.3317 56.0965 32.5179 56.037 32.7296C55.9775 32.9412 55.9895 33.1666 56.071 33.3708Z" fill="#1E2348"/>
<path d="M7.56885 21.7837L9.52085 22.2177C10.2034 19.152 11.5345 16.2679 13.4246 13.7594C15.3147 11.2509 17.7201 9.17628 20.4789 7.67492L19.5209 5.91895C16.5117 7.55702 13.8881 9.82038 11.8265 12.5569C9.76497 15.2933 8.3132 18.4395 7.56885 21.7837Z" fill="#1E2348"/>
<path d="M42.4795 5.91895L41.5215 7.67492C44.2803 9.17628 46.6856 11.2509 48.5758 13.7594C50.4659 16.2679 51.797 19.152 52.4795 22.2177L54.4315 21.7837C53.6872 18.4395 52.2354 15.2933 50.1738 12.5569C48.1123 9.82038 45.4887 7.55702 42.4795 5.91895Z" fill="#1E2348"/>
</svg>
