<svg width="12" height="11" viewBox="0 0 12 11" fill="none" xmlns="http://www.w3.org/2000/svg">
<path d="M1.04883 9.18207C0.737793 9.49311 0.731445 10.0454 1.05518 10.3691C1.38525 10.6928 1.9375 10.6865 2.24219 10.3818L6 6.62397L9.75146 10.3754C10.0688 10.6928 10.6147 10.6928 10.9385 10.3691C11.2622 10.039 11.2622 9.49946 10.9448 9.18207L7.19336 5.43061L10.9448 1.6728C11.2622 1.35541 11.2686 0.809515 10.9385 0.485785C10.6147 0.162054 10.0688 0.162054 9.75146 0.479437L6 4.2309L2.24219 0.479437C1.9375 0.168402 1.37891 0.155707 1.05518 0.485785C0.731445 0.809515 0.737793 1.36811 1.04883 1.6728L4.80029 5.43061L1.04883 9.18207Z" fill="#333131"/>
</svg>
